<?xml version="1.0" encoding="UTF-8" standalone="no"?>
<svg height="184.2519625" viewBox="0 0 184.2519625 262.204725" width="184.2519625" xmlns="http://www.w3.org/2000/svg" xmlns:xlink="http://www.w3.org/1999/xlink">
<defs>
<linearGradient id="linearGradient6508">
<stop offset="0" stop-color="#f00"/>
<stop offset=".6437" stop-color="#ffb900"/>
<stop offset=".79038" stop-color="#ff0" stop-opacity=".84103"/>
<stop offset="1" stop-color="#fff" stop-opacity=".21569"/>
</linearGradient>
<linearGradient gradientTransform="scale(.68825,1.45297)" gradientUnits="userSpaceOnUse" id="linearGradient897" x1="469.85454" x2="436.90248" xlink:href="#linearGradient6508" y1="245.17311" y2="186.03951"/>
<linearGradient gradientTransform="scale(.68825,1.45297)" gradientUnits="userSpaceOnUse" id="linearGradient612" x1="497.27309" x2="438.4075" xlink:href="#linearGradient6508" y1="244.14597" y2="174.4595"/>
<linearGradient gradientTransform="scale(1.46072,.68459)" gradientUnits="userSpaceOnUse" id="linearGradient665" x1="-224.73973" x2="-224.64251" xlink:href="#linearGradient6508" y1="-377.94208" y2="-349.3603"/>
<linearGradient gradientTransform="scale(1.18782,.84188)" gradientUnits="userSpaceOnUse" id="linearGradient14054" x1="-259.81807" x2="-259.7408" xlink:href="#linearGradient6508" y1="-307.1934" y2="-284.47438"/>
</defs>
<g id="Firewall" transform="translate(-216.14435,-150.59037)">
<g id="Wall" transform="translate(-.7471,-1.72131)">
<path d="m292.9491,193.01767h35.74176a3.05378,2.08642 0 0,1 3.05378,2.08642v178.45349a3.05378,2.08642 0 0,1 -3.05378,2.08642h-35.74176a3.05378,2.08642 0 0,1 -3.05378-2.08642v-178.45349a3.05378,2.08642 0 0,1 3.05378-2.08642" fill="#747374" fill-rule="evenodd" stroke="#000" stroke-width="1.24908"/>
<path d="m-313.23756-258.46179h9.3326a2.54482,2.08642 0 0,1 2.54482,2.08642v5.75827a2.54482,2.08642 0 0,1 -2.54482,2.08642h-9.3326a2.54482,2.08642 0 0,1 -2.54482-2.08642v-5.75827a2.54482,2.08642 0 0,1 2.54482-2.08642" fill="url(#linearGradient14054)" fill-rule="evenodd" stroke="#4d4d4d" stroke-width=".9984" transform="matrix(-1,0,0,-1,-9.67984,-53.0238)"/>
<path d="m-336.45989-258.46179h16.49951a3.05378,2.08642 0 0,1 3.05378,2.08642v5.75827a3.05378,2.08642 0 0,1 -3.05378,2.08642h-16.49951a3.05378,2.08642 0 0,1 -3.05378-2.08642v-5.75827a3.05378,2.08642 0 0,1 3.05378-2.08642" fill="url(#linearGradient665)" fill-rule="evenodd" stroke="#4d4d4d" stroke-width="1.25" transform="matrix(-1,0,0,-1,-9.67984,-53.0238)"/>
<path d="m-313.23756-258.46179h9.3326a2.54482,2.08642 0 0,1 2.54482,2.08642v5.75827a2.54482,2.08642 0 0,1 -2.54482,2.08642h-9.3326a2.54482,2.08642 0 0,1 -2.54482-2.08642v-5.75827a2.54482,2.08642 0 0,1 2.54482-2.08642" fill="url(#linearGradient14054)" fill-rule="evenodd" stroke="#4d4d4d" stroke-width=".9984" transform="matrix(1,0,0,-1,631.3198,-41.84268)"/>
<path d="m-336.45989-258.46179h16.49951a3.05378,2.08642 0 0,1 3.05378,2.08642v5.75827a3.05378,2.08642 0 0,1 -3.05378,2.08642h-16.49951a3.05378,2.08642 0 0,1 -3.05378-2.08642v-5.75827a3.05378,2.08642 0 0,1 3.05378-2.08642" fill="url(#linearGradient665)" fill-rule="evenodd" stroke="#4d4d4d" stroke-width="1.25" transform="matrix(1,0,0,-1,631.3198,-41.84268)"/>
<path d="m-313.23756-258.46179h9.3326a2.54482,2.08642 0 0,1 2.54482,2.08642v5.75827a2.54482,2.08642 0 0,1 -2.54482,2.08642h-9.3326a2.54482,2.08642 0 0,1 -2.54482-2.08642v-5.75827a2.54482,2.08642 0 0,1 2.54482-2.08642" fill="url(#linearGradient14054)" fill-rule="evenodd" stroke="#4d4d4d" stroke-width=".9984" transform="matrix(-1,0,0,-1,-9.67984,-30.66156)"/>
<path d="m-336.45989-258.46179h16.49951a3.05378,2.08642 0 0,1 3.05378,2.08642v5.75827a3.05378,2.08642 0 0,1 -3.05378,2.08642h-16.49951a3.05378,2.08642 0 0,1 -3.05378-2.08642v-5.75827a3.05378,2.08642 0 0,1 3.05378-2.08642" fill="url(#linearGradient665)" fill-rule="evenodd" stroke="#4d4d4d" stroke-width="1.25" transform="matrix(-1,0,0,-1,-9.67984,-30.66156)"/>
<path d="m-313.23756-258.46179h9.3326a2.54482,2.08642 0 0,1 2.54482,2.08642v5.75827a2.54482,2.08642 0 0,1 -2.54482,2.08642h-9.3326a2.54482,2.08642 0 0,1 -2.54482-2.08642v-5.75827a2.54482,2.08642 0 0,1 2.54482-2.08642" fill="url(#linearGradient14054)" fill-rule="evenodd" stroke="#4d4d4d" stroke-width=".9984" transform="matrix(1,0,0,-1,631.3198,-19.48044)"/>
<path d="m-336.45989-258.46179h16.49951a3.05378,2.08642 0 0,1 3.05378,2.08642v5.75827a3.05378,2.08642 0 0,1 -3.05378,2.08642h-16.49951a3.05378,2.08642 0 0,1 -3.05378-2.08642v-5.75827a3.05378,2.08642 0 0,1 3.05378-2.08642" fill="url(#linearGradient665)" fill-rule="evenodd" stroke="#4d4d4d" stroke-width="1.25" transform="matrix(1,0,0,-1,631.3198,-19.48044)"/>
<path d="m-313.23756-258.46179h9.3326a2.54482,2.08642 0 0,1 2.54482,2.08642v5.75827a2.54482,2.08642 0 0,1 -2.54482,2.08642h-9.3326a2.54482,2.08642 0 0,1 -2.54482-2.08642v-5.75827a2.54482,2.08642 0 0,1 2.54482-2.08642" fill="url(#linearGradient14054)" fill-rule="evenodd" stroke="#4d4d4d" stroke-width=".9984" transform="matrix(-1,0,0,-1,-9.67984,-8.29932)"/>
<path d="m-336.45989-258.46179h16.49951a3.05378,2.08642 0 0,1 3.05378,2.08642v5.75827a3.05378,2.08642 0 0,1 -3.05378,2.08642h-16.49951a3.05378,2.08642 0 0,1 -3.05378-2.08642v-5.75827a3.05378,2.08642 0 0,1 3.05378-2.08642" fill="url(#linearGradient665)" fill-rule="evenodd" stroke="#4d4d4d" stroke-width="1.25" transform="matrix(-1,0,0,-1,-9.67984,-8.29932)"/>
<path d="m-313.23756-258.46179h9.3326a2.54482,2.08642 0 0,1 2.54482,2.08642v5.75827a2.54482,2.08642 0 0,1 -2.54482,2.08642h-9.3326a2.54482,2.08642 0 0,1 -2.54482-2.08642v-5.75827a2.54482,2.08642 0 0,1 2.54482-2.08642" fill="url(#linearGradient14054)" fill-rule="evenodd" stroke="#4d4d4d" stroke-width=".9984" transform="matrix(1,0,0,-1,631.3198,2.8818)"/>
<path d="m-336.45989-258.46179h16.49951a3.05378,2.08642 0 0,1 3.05378,2.08642v5.75827a3.05378,2.08642 0 0,1 -3.05378,2.08642h-16.49951a3.05378,2.08642 0 0,1 -3.05378-2.08642v-5.75827a3.05378,2.08642 0 0,1 3.05378-2.08642" fill="url(#linearGradient665)" fill-rule="evenodd" stroke="#4d4d4d" stroke-width="1.25" transform="matrix(1,0,0,-1,631.3198,2.8818)"/>
<path d="m-313.23756-258.46179h9.3326a2.54482,2.08642 0 0,1 2.54482,2.08642v5.75827a2.54482,2.08642 0 0,1 -2.54482,2.08642h-9.3326a2.54482,2.08642 0 0,1 -2.54482-2.08642v-5.75827a2.54482,2.08642 0 0,1 2.54482-2.08642" fill="url(#linearGradient14054)" fill-rule="evenodd" stroke="#4d4d4d" stroke-width=".9984" transform="matrix(-1,0,0,-1,-9.67984,14.06291)"/>
<path d="m-336.45989-258.46179h16.49951a3.05378,2.08642 0 0,1 3.05378,2.08642v5.75827a3.05378,2.08642 0 0,1 -3.05378,2.08642h-16.49951a3.05378,2.08642 0 0,1 -3.05378-2.08642v-5.75827a3.05378,2.08642 0 0,1 3.05378-2.08642" fill="url(#linearGradient665)" fill-rule="evenodd" stroke="#4d4d4d" stroke-width="1.25" transform="matrix(-1,0,0,-1,-9.67984,14.06291)"/>
<path d="m-313.23756-258.46179h9.3326a2.54482,2.08642 0 0,1 2.54482,2.08642v5.75827a2.54482,2.08642 0 0,1 -2.54482,2.08642h-9.3326a2.54482,2.08642 0 0,1 -2.54482-2.08642v-5.75827a2.54482,2.08642 0 0,1 2.54482-2.08642" fill="url(#linearGradient14054)" fill-rule="evenodd" stroke="#4d4d4d" stroke-width=".9984" transform="matrix(1,0,0,-1,631.3198,25.24403)"/>
<path d="m-336.45989-258.46179h16.49951a3.05378,2.08642 0 0,1 3.05378,2.08642v5.75827a3.05378,2.08642 0 0,1 -3.05378,2.08642h-16.49951a3.05378,2.08642 0 0,1 -3.05378-2.08642v-5.75827a3.05378,2.08642 0 0,1 3.05378-2.08642" fill="url(#linearGradient665)" fill-rule="evenodd" stroke="#4d4d4d" stroke-width="1.25" transform="matrix(1,0,0,-1,631.3198,25.24403)"/>
<path d="m-313.23756-258.46179h9.3326a2.54482,2.08642 0 0,1 2.54482,2.08642v5.75827a2.54482,2.08642 0 0,1 -2.54482,2.08642h-9.3326a2.54482,2.08642 0 0,1 -2.54482-2.08642v-5.75827a2.54482,2.08642 0 0,1 2.54482-2.08642" fill="url(#linearGradient14054)" fill-rule="evenodd" stroke="#4d4d4d" stroke-width=".9984" transform="matrix(-1,0,0,-1,-9.67984,36.42515)"/>
<path d="m-336.45989-258.46179h16.49951a3.05378,2.08642 0 0,1 3.05378,2.08642v5.75827a3.05378,2.08642 0 0,1 -3.05378,2.08642h-16.49951a3.05378,2.08642 0 0,1 -3.05378-2.08642v-5.75827a3.05378,2.08642 0 0,1 3.05378-2.08642" fill="url(#linearGradient665)" fill-rule="evenodd" stroke="#4d4d4d" stroke-width="1.25" transform="matrix(-1,0,0,-1,-9.67984,36.42515)"/>
<path d="m-313.23756-258.46179h9.3326a2.54482,2.08642 0 0,1 2.54482,2.08642v5.75827a2.54482,2.08642 0 0,1 -2.54482,2.08642h-9.3326a2.54482,2.08642 0 0,1 -2.54482-2.08642v-5.75827a2.54482,2.08642 0 0,1 2.54482-2.08642" fill="url(#linearGradient14054)" fill-rule="evenodd" stroke="#4d4d4d" stroke-width=".9984" transform="matrix(1,0,0,-1,631.3198,47.60627)"/>
<path d="m-336.45989-258.46179h16.49951a3.05378,2.08642 0 0,1 3.05378,2.08642v5.75827a3.05378,2.08642 0 0,1 -3.05378,2.08642h-16.49951a3.05378,2.08642 0 0,1 -3.05378-2.08642v-5.75827a3.05378,2.08642 0 0,1 3.05378-2.08642" fill="url(#linearGradient665)" fill-rule="evenodd" stroke="#4d4d4d" stroke-width="1.25" transform="matrix(1,0,0,-1,631.3198,47.60627)"/>
<path d="m-313.23756-258.46179h9.3326a2.54482,2.08642 0 0,1 2.54482,2.08642v5.75827a2.54482,2.08642 0 0,1 -2.54482,2.08642h-9.3326a2.54482,2.08642 0 0,1 -2.54482-2.08642v-5.75827a2.54482,2.08642 0 0,1 2.54482-2.08642" fill="url(#linearGradient14054)" fill-rule="evenodd" stroke="#4d4d4d" stroke-width=".9984" transform="matrix(-1,0,0,-1,-9.67984,58.78738)"/>
<path d="m-336.45989-258.46179h16.49951a3.05378,2.08642 0 0,1 3.05378,2.08642v5.75827a3.05378,2.08642 0 0,1 -3.05378,2.08642h-16.49951a3.05378,2.08642 0 0,1 -3.05378-2.08642v-5.75827a3.05378,2.08642 0 0,1 3.05378-2.08642" fill="url(#linearGradient665)" fill-rule="evenodd" stroke="#4d4d4d" stroke-width="1.25" transform="matrix(-1,0,0,-1,-9.67984,58.78738)"/>
<path d="m-313.23756-258.46179h9.3326a2.54482,2.08642 0 0,1 2.54482,2.08642v5.75827a2.54482,2.08642 0 0,1 -2.54482,2.08642h-9.3326a2.54482,2.08642 0 0,1 -2.54482-2.08642v-5.75827a2.54482,2.08642 0 0,1 2.54482-2.08642" fill="url(#linearGradient14054)" fill-rule="evenodd" stroke="#4d4d4d" stroke-width=".9984" transform="matrix(1,0,0,-1,631.3198,69.9685)"/>
<path d="m-336.45989-258.46179h16.49951a3.05378,2.08642 0 0,1 3.05378,2.08642v5.75827a3.05378,2.08642 0 0,1 -3.05378,2.08642h-16.49951a3.05378,2.08642 0 0,1 -3.05378-2.08642v-5.75827a3.05378,2.08642 0 0,1 3.05378-2.08642" fill="url(#linearGradient665)" fill-rule="evenodd" stroke="#4d4d4d" stroke-width="1.25" transform="matrix(1,0,0,-1,631.3198,69.9685)"/>
<path d="m-313.23756-258.46179h9.3326a2.54482,2.08642 0 0,1 2.54482,2.08642v5.75827a2.54482,2.08642 0 0,1 -2.54482,2.08642h-9.3326a2.54482,2.08642 0 0,1 -2.54482-2.08642v-5.75827a2.54482,2.08642 0 0,1 2.54482-2.08642" fill="url(#linearGradient14054)" fill-rule="evenodd" stroke="#4d4d4d" stroke-width=".9984" transform="matrix(-1,0,0,-1,-9.67984,81.14961)"/>
<path d="m-336.45989-258.46179h16.49951a3.05378,2.08642 0 0,1 3.05378,2.08642v5.75827a3.05378,2.08642 0 0,1 -3.05378,2.08642h-16.49951a3.05378,2.08642 0 0,1 -3.05378-2.08642v-5.75827a3.05378,2.08642 0 0,1 3.05378-2.08642" fill="url(#linearGradient665)" fill-rule="evenodd" stroke="#4d4d4d" stroke-width="1.25" transform="matrix(-1,0,0,-1,-9.67984,81.14961)"/>
<path d="m-313.23756-258.46179h9.3326a2.54482,2.08642 0 0,1 2.54482,2.08642v5.75827a2.54482,2.08642 0 0,1 -2.54482,2.08642h-9.3326a2.54482,2.08642 0 0,1 -2.54482-2.08642v-5.75827a2.54482,2.08642 0 0,1 2.54482-2.08642" fill="url(#linearGradient14054)" fill-rule="evenodd" stroke="#4d4d4d" stroke-width=".9984" transform="matrix(1,0,0,-1,631.3198,92.33073)"/>
<path d="m-336.45989-258.46179h16.49951a3.05378,2.08642 0 0,1 3.05378,2.08642v5.75827a3.05378,2.08642 0 0,1 -3.05378,2.08642h-16.49951a3.05378,2.08642 0 0,1 -3.05378-2.08642v-5.75827a3.05378,2.08642 0 0,1 3.05378-2.08642" fill="url(#linearGradient665)" fill-rule="evenodd" stroke="#4d4d4d" stroke-width="1.25" transform="matrix(1,0,0,-1,631.3198,92.33073)"/>
<path d="m-313.23756-258.46179h9.3326a2.54482,2.08642 0 0,1 2.54482,2.08642v5.75827a2.54482,2.08642 0 0,1 -2.54482,2.08642h-9.3326a2.54482,2.08642 0 0,1 -2.54482-2.08642v-5.75827a2.54482,2.08642 0 0,1 2.54482-2.08642" fill="url(#linearGradient14054)" fill-rule="evenodd" stroke="#4d4d4d" stroke-width=".9984" transform="matrix(-1,0,0,-1,-9.67984,103.5118)"/>
<path d="m-336.45989-258.46179h16.49951a3.05378,2.08642 0 0,1 3.05378,2.08642v5.75827a3.05378,2.08642 0 0,1 -3.05378,2.08642h-16.49951a3.05378,2.08642 0 0,1 -3.05378-2.08642v-5.75827a3.05378,2.08642 0 0,1 3.05378-2.08642" fill="url(#linearGradient665)" fill-rule="evenodd" stroke="#4d4d4d" stroke-width="1.25" transform="matrix(-1,0,0,-1,-9.67984,103.5118)"/>
<path d="m-313.23756-258.46179h9.3326a2.54482,2.08642 0 0,1 2.54482,2.08642v5.75827a2.54482,2.08642 0 0,1 -2.54482,2.08642h-9.3326a2.54482,2.08642 0 0,1 -2.54482-2.08642v-5.75827a2.54482,2.08642 0 0,1 2.54482-2.08642" fill="url(#linearGradient14054)" fill-rule="evenodd" stroke="#4d4d4d" stroke-width=".9984" transform="matrix(1,0,0,-1,631.3198,114.693)"/>
<path d="m-336.45989-258.46179h16.49951a3.05378,2.08642 0 0,1 3.05378,2.08642v5.75827a3.05378,2.08642 0 0,1 -3.05378,2.08642h-16.49951a3.05378,2.08642 0 0,1 -3.05378-2.08642v-5.75827a3.05378,2.08642 0 0,1 3.05378-2.08642" fill="url(#linearGradient665)" fill-rule="evenodd" stroke="#4d4d4d" stroke-width="1.25" transform="matrix(1,0,0,-1,631.3198,114.693)"/>
</g>
<path d="m305.89581,374.14246c18.40889-.50896 37.6358-40.73272 37.12684-60.5937-3.05378,8.08983-6.65894,11.63433-17.34909,20.79568 24.25704-50.89637.74128-37.60892-6.38421-100.26534-20.13996,36.13642-25.85117,41.41235-16.68983,87.73944-4.58067-12.43069-6.12378-14.9887-15.88029-22.62316 6.10757,16.882 7.99313,21.24908 1.3766,37.45647 .50896-8.65734-12.26088-21.00186-10.87776-17.47034 4.94103,12.61596 2.99087,20.82649 7.50734,37.57864 3.65267,13.5482 13.90685,16.87333 21.1704,17.38231z" fill="url(#linearGradient612)" fill-rule="evenodd" id="Fire" stroke="url(#linearGradient897)" stroke-opacity=".72803" stroke-width=".80956"/>
</g>
</svg>
