<?xml version="1.0" encoding="UTF-8" standalone="no"?>
<svg
   xmlns:dc="http://purl.org/dc/elements/1.1/"
   xmlns:cc="http://creativecommons.org/ns#"
   xmlns:rdf="http://www.w3.org/1999/02/22-rdf-syntax-ns#"
   xmlns:svg="http://www.w3.org/2000/svg"
   xmlns="http://www.w3.org/2000/svg"
   id="svg8902"
   version="1.1"
   viewBox="0 0 400.20737 95.998161"
   height="95.998161mm"
   width="400.20737mm">
  <defs
     id="defs8896">
    <marker
       style="overflow:visible"
       id="marker22917-0-8"
       refX="0"
       refY="0"
       orient="auto">
      <path
         transform="matrix(-0.4,0,0,-0.4,-4,0)"
         style="fill:#f58220;fill-opacity:1;fill-rule:evenodd;stroke:#f58220;stroke-width:1.00000003pt;stroke-opacity:1"
         d="M 0,0 5,-5 -12.5,0 5,5 Z"
         id="path22915-5-97" />
    </marker>
    <marker
       style="overflow:visible"
       id="marker23621"
       refX="0"
       refY="0"
       orient="auto">
      <path
         transform="matrix(-0.4,0,0,-0.4,-4,0)"
         style="fill:#0c2842;fill-opacity:1;fill-rule:evenodd;stroke:#0c2842;stroke-width:1.00000003pt;stroke-opacity:1"
         d="M 0,0 5,-5 -12.5,0 5,5 Z"
         id="path23619" />
    </marker>
    <marker
       style="overflow:visible"
       id="marker22917-5-6-4-9-3-9-4-4-7-1-8"
       refX="0"
       refY="0"
       orient="auto">
      <path
         transform="matrix(-0.4,0,0,-0.4,-4,0)"
         style="fill:#f58220;fill-opacity:1;fill-rule:evenodd;stroke:#f58220;stroke-width:1.00000003pt;stroke-opacity:1"
         d="M 0,0 5,-5 -12.5,0 5,5 Z"
         id="path22915-3-2-2-77-0-2-0-6-5-2-5" />
    </marker>
    <marker
       style="overflow:visible"
       id="marker17123-2-1-5-0-1"
       refX="0"
       refY="0"
       orient="auto">
      <path
         transform="matrix(-0.4,0,0,-0.4,-4,0)"
         style="fill:#0c2842;fill-opacity:1;fill-rule:evenodd;stroke:#0c2842;stroke-width:1.00000003pt;stroke-opacity:1"
         d="M 0,0 5,-5 -12.5,0 5,5 Z"
         id="path17121-24-0-9-2-0" />
    </marker>
    <marker
       style="overflow:visible"
       id="marker17123-2-1-5-7-7-3-9"
       refX="0"
       refY="0"
       orient="auto">
      <path
         transform="matrix(-0.4,0,0,-0.4,-4,0)"
         style="fill:#0c2842;fill-opacity:1;fill-rule:evenodd;stroke:#0c2842;stroke-width:1.00000003pt;stroke-opacity:1"
         d="M 0,0 5,-5 -12.5,0 5,5 Z"
         id="path17121-24-0-9-7-7-6-6" />
    </marker>
    <marker
       style="overflow:visible"
       id="marker17123-2-1-5-0"
       refX="0"
       refY="0"
       orient="auto">
      <path
         transform="matrix(-0.4,0,0,-0.4,-4,0)"
         style="fill:#0c2842;fill-opacity:1;fill-rule:evenodd;stroke:#0c2842;stroke-width:1.00000003pt;stroke-opacity:1"
         d="M 0,0 5,-5 -12.5,0 5,5 Z"
         id="path17121-24-0-9-2" />
    </marker>
    <marker
       style="overflow:visible"
       id="Arrow1Mstart-0-1"
       refX="0"
       refY="0"
       orient="auto">
      <path
         transform="matrix(0.4,0,0,0.4,4,0)"
         style="fill:#0c2842;fill-opacity:1;fill-rule:evenodd;stroke:#0c2842;stroke-width:1.00000003pt;stroke-opacity:1"
         d="M 0,0 5,-5 -12.5,0 5,5 Z"
         id="path1043-6-0" />
    </marker>
    <marker
       orient="auto"
       refY="0"
       refX="0"
       id="marker15607-0-3"
       style="overflow:visible">
      <path
         id="path15605-9-9"
         d="M 0,0 5,-5 -12.5,0 5,5 Z"
         style="fill:#0c2842;fill-opacity:1;fill-rule:evenodd;stroke:#0c2842;stroke-width:1.00000003pt;stroke-opacity:1"
         transform="matrix(-0.4,0,0,-0.4,-4,0)" />
    </marker>
    <marker
       orient="auto"
       refY="0"
       refX="0"
       id="marker8751"
       style="overflow:visible">
      <path
         id="path8749"
         d="M 0,0 5,-5 -12.5,0 5,5 Z"
         style="fill:#0c2842;fill-opacity:1;fill-rule:evenodd;stroke:#0c2842;stroke-width:1.00000003pt;stroke-opacity:1"
         transform="matrix(-0.4,0,0,-0.4,-4,0)" />
    </marker>
    <marker
       orient="auto"
       refY="0"
       refX="0"
       id="marker17123-6-69"
       style="overflow:visible">
      <path
         id="path17121-2-33"
         d="M 0,0 5,-5 -12.5,0 5,5 Z"
         style="fill:#0c2842;fill-opacity:1;fill-rule:evenodd;stroke:#0c2842;stroke-width:1.00000003pt;stroke-opacity:1"
         transform="matrix(-0.4,0,0,-0.4,-4,0)" />
    </marker>
    <marker
       style="overflow:visible"
       id="marker19663-7-8-56"
       refX="0"
       refY="0"
       orient="auto">
      <path
         transform="matrix(-0.4,0,0,-0.4,-4,0)"
         style="fill:#0c2842;fill-opacity:1;fill-rule:evenodd;stroke:#0c2842;stroke-width:1.00000003pt;stroke-opacity:1"
         d="M 0,0 5,-5 -12.5,0 5,5 Z"
         id="path19661-9-1-6" />
    </marker>
  </defs>
  <metadata
     id="metadata8899">
    <rdf:RDF>
      <cc:Work
         rdf:about="">
        <dc:format>image/svg+xml</dc:format>
        <dc:type
           rdf:resource="http://purl.org/dc/dcmitype/StillImage" />
        <dc:title></dc:title>
      </cc:Work>
    </rdf:RDF>
  </metadata>
  <g
     transform="translate(692.98461,153.9217)"
     id="layer1">
    <path
       style="display:inline;fill:none;fill-rule:evenodd;stroke:#0c2842;stroke-width:0.42333332;stroke-linecap:butt;stroke-linejoin:miter;stroke-miterlimit:4;stroke-dasharray:none;stroke-opacity:1;marker-end:url(#marker19663-7-8-56)"
       d="m -616.95272,-74.077434 v 7.980008 h -56.08063"
       id="path12440-2-2-8" />
    <path
       id="path3638-2-3"
       d="m -571.97355,-122.00626 h 44.97917 v 15.15347"
       style="display:inline;fill:none;fill-rule:evenodd;stroke:#0c2842;stroke-width:0.42333332;stroke-linecap:butt;stroke-linejoin:miter;stroke-miterlimit:4;stroke-dasharray:none;stroke-opacity:1;marker-end:url(#marker17123-6-69)" />
    <path
       id="path3636-8-3"
       d="m -571.96043,-114.27869 -0.0131,7.39283"
       style="display:inline;fill:#000000;fill-opacity:0;fill-rule:evenodd;stroke:#0c2842;stroke-width:0.42333332;stroke-linecap:butt;stroke-linejoin:miter;stroke-miterlimit:4;stroke-dasharray:none;stroke-opacity:1;marker-end:url(#marker15607-0-3)" />
    <path
       id="path3634-9-8"
       d="m -579.68455,-122.00626 h -37.26817 v 15.12111"
       style="display:inline;fill:none;fill-rule:evenodd;stroke:#0c2842;stroke-width:0.42333332;stroke-linecap:butt;stroke-linejoin:miter;stroke-miterlimit:4;stroke-dasharray:none;stroke-opacity:1;marker-end:url(#marker15607-0-3)" />
    <path
       id="path12626-3-4"
       d="m -571.97355,-130.70443 v -7.25402 l -95.26334,0.25748"
       style="display:inline;fill:none;fill-rule:evenodd;stroke:#0c2842;stroke-width:0.42333332;stroke-linecap:butt;stroke-linejoin:miter;stroke-miterlimit:4;stroke-dasharray:none;stroke-opacity:1;marker-start:url(#Arrow1Mstart-0-1)" />
    <rect
       y="-81.790039"
       x="-635.2619"
       height="7.5141664"
       width="126.55682"
       id="rect6961-3-7-1-1-9"
       style="display:inline;vector-effect:none;fill:#0c2842;fill-opacity:1;fill-rule:evenodd;stroke:#0c2842;stroke-width:0.66145831;stroke-linecap:square;stroke-linejoin:miter;stroke-miterlimit:4;stroke-dasharray:none;stroke-dashoffset:0;stroke-opacity:1" />
    <rect
       transform="matrix(-0.70694894,-0.70726459,0.70726192,-0.70695161,0,0)"
       y="-384.91962"
       x="568.52325"
       height="10.92599"
       width="10.925993"
       id="rect6975-2-3-0"
       style="display:inline;vector-effect:none;fill:#f58220;fill-opacity:1;fill-rule:evenodd;stroke:#f58220;stroke-width:0.42333335;stroke-linecap:square;stroke-linejoin:round;stroke-miterlimit:4;stroke-dasharray:none;stroke-dashoffset:0;stroke-opacity:1" />
    <rect
       transform="matrix(-0.70694894,-0.70726459,0.70726192,-0.70695161,0,0)"
       y="-323.73816"
       x="485.17331"
       height="10.92599"
       width="10.925993"
       id="rect6975-7-8-9"
       style="display:inline;vector-effect:none;fill:#0c2842;fill-opacity:1;fill-rule:evenodd;stroke:#f58220;stroke-width:0.42333335;stroke-linecap:square;stroke-linejoin:round;stroke-miterlimit:4;stroke-dasharray:none;stroke-dashoffset:0;stroke-opacity:1" />
    <path
       d="m -635.06346,-145.47262 h 126.55683 v 7.51417 h -126.55683 z"
       style="display:inline;vector-effect:none;fill:#0c2842;fill-opacity:1;fill-rule:evenodd;stroke:#0c2842;stroke-width:0.42333329;stroke-linecap:square;stroke-linejoin:round;stroke-miterlimit:4;stroke-dasharray:none;stroke-dashoffset:0;stroke-opacity:1"
       id="rect6961-2-0-7-0-3-2" />
    <path
       style="display:inline;fill:none;fill-rule:evenodd;stroke:#0c2842;stroke-width:0.42333335;stroke-linecap:butt;stroke-linejoin:miter;stroke-miterlimit:4;stroke-dasharray:none;stroke-opacity:1;marker-end:url(#marker17123-2-1-5-0)"
       d="m -571.97355,-98.036484 v 7.98635 h -43.92084"
       id="path3638-7-3-2-7" />
    <rect
       transform="scale(-1,1)"
       style="display:inline;vector-effect:none;fill:#0c2842;fill-opacity:1;fill-rule:evenodd;stroke:#0c2842;stroke-width:0.66145831;stroke-linecap:square;stroke-linejoin:miter;stroke-miterlimit:4;stroke-dasharray:none;stroke-dashoffset:0;stroke-opacity:1"
       id="rect6961-3-5-5-4-6-61"
       width="36.380207"
       height="7.2760415"
       x="553.69745"
       y="-105.68128" />
    <rect
       style="display:inline;vector-effect:none;fill:#0c2842;fill-opacity:1;fill-rule:evenodd;stroke:#0c2842;stroke-width:0.66145831;stroke-linecap:square;stroke-linejoin:miter;stroke-miterlimit:4;stroke-dasharray:none;stroke-dashoffset:0;stroke-opacity:1"
       id="rect6961-3-6-2-9-4-3"
       width="36.380207"
       height="7.2760415"
       x="-545.09851"
       y="-105.68128" />
    <rect
       style="display:inline;vector-effect:none;fill:#f58220;fill-opacity:1;fill-rule:evenodd;stroke:#f58220;stroke-width:0.66145831;stroke-linecap:square;stroke-linejoin:miter;stroke-miterlimit:4;stroke-dasharray:none;stroke-dashoffset:0;stroke-opacity:1"
       id="rect6961-3-9-5-2-2"
       width="36.380207"
       height="7.2760415"
       x="-635.05682"
       y="-105.68128" />
    <path
       style="display:inline;fill:none;fill-rule:evenodd;stroke:#0c2842;stroke-width:0.42333332;stroke-linecap:butt;stroke-linejoin:miter;stroke-miterlimit:4;stroke-dasharray:none;stroke-opacity:1;marker-end:url(#marker17123-2-1-5-7-7-3-9)"
       d="m -616.95272,-98.036484 v 7.98635 7.093382"
       id="path3638-7-3-2-1-6-7-1" />
    <path
       style="display:inline;fill:none;fill-rule:evenodd;stroke:#0c2842;stroke-width:0.42333335;stroke-linecap:butt;stroke-linejoin:miter;stroke-miterlimit:4;stroke-dasharray:none;stroke-opacity:1;marker-end:url(#marker17123-2-1-5-0-1)"
       d="m -526.99438,-98.036484 v 7.98635 h -43.92083"
       id="path3638-7-3-2-7-7" />
    <path
       style="display:inline;fill:none;fill-rule:evenodd;stroke:#f58220;stroke-width:0.42333332;stroke-linecap:butt;stroke-linejoin:miter;stroke-miterlimit:4;stroke-dasharray:none;stroke-opacity:1;marker-end:url(#marker22917-5-6-4-9-3-9-4-4-7-1-8)"
       d="m -674.15588,-129.97682 v 65.223295 5.995728"
       id="path12424-5-9-51-6-3-5-5-9-4-8-2" />
    <rect
       y="-153.47887"
       x="-312.26276"
       height="7.8532648"
       width="2.0703468"
       id="rect37514"
       style="display:inline;opacity:1;vector-effect:none;fill:#ffffff;fill-opacity:1;stroke:#ffffff;stroke-width:0.42333338;stroke-linecap:square;stroke-linejoin:miter;stroke-miterlimit:4;stroke-dasharray:none;stroke-dashoffset:0;stroke-opacity:1;paint-order:normal" />
    <path
       style="display:inline;fill:none;fill-rule:evenodd;stroke:#0c2842;stroke-width:0.42333332;stroke-linecap:butt;stroke-linejoin:miter;stroke-miterlimit:4;stroke-dasharray:none;stroke-opacity:1;marker-end:url(#marker23621)"
       d="m -311.2974,-153.9217 v 94.218103 0.830355"
       id="path5355-6-2" />
    <path
       style="display:inline;fill:none;fill-rule:evenodd;stroke:#f58220;stroke-width:0.42333332;stroke-linecap:butt;stroke-linejoin:miter;stroke-miterlimit:4;stroke-dasharray:none;stroke-opacity:1;marker-end:url(#marker22917-0-8)"
       d="m -674.15588,-153.9217 v 7.51863"
       id="path5430-7-3" />
    <rect
       transform="scale(-1)"
       y="153.545"
       x="692.6142"
       height="0.15875001"
       width="0.15875001"
       id="rect6146"
       style="display:inline;opacity:0;vector-effect:none;fill:#ffffff;fill-opacity:1;stroke:#ffffff;stroke-width:0.42333335;stroke-linecap:square;stroke-linejoin:miter;stroke-miterlimit:4;stroke-dasharray:none;stroke-dashoffset:0;stroke-opacity:1;paint-order:normal" />
    <rect
       transform="scale(-1)"
       y="153.54427"
       x="292.98892"
       height="0.15875001"
       width="0.15875001"
       id="rect6146-3"
       style="display:inline;opacity:0;vector-effect:none;fill:#ffffff;fill-opacity:1;stroke:#ffffff;stroke-width:0.42333335;stroke-linecap:square;stroke-linejoin:miter;stroke-miterlimit:4;stroke-dasharray:none;stroke-dashoffset:0;stroke-opacity:1;paint-order:normal" />
    <rect
       transform="scale(-1)"
       y="58.251827"
       x="292.98892"
       height="0.15875001"
       width="0.15875001"
       id="rect6146-6"
       style="display:inline;opacity:0;vector-effect:none;fill:#ffffff;fill-opacity:1;stroke:#ffffff;stroke-width:0.42333335;stroke-linecap:square;stroke-linejoin:miter;stroke-miterlimit:4;stroke-dasharray:none;stroke-dashoffset:0;stroke-opacity:1;paint-order:normal" />
    <rect
       transform="scale(-1)"
       y="58.247395"
       x="692.61243"
       height="0.15875001"
       width="0.15875001"
       id="rect6146-7"
       style="display:inline;opacity:0;vector-effect:none;fill:#ffffff;fill-opacity:1;stroke:#ffffff;stroke-width:0.42333335;stroke-linecap:square;stroke-linejoin:miter;stroke-miterlimit:4;stroke-dasharray:none;stroke-dashoffset:0;stroke-opacity:1;paint-order:normal" />
    <g
       id="text4933-6-4-5-9"
       style="font-style:normal;font-variant:normal;font-weight:600;font-stretch:normal;font-size:3.17546368px;line-height:1.25;font-family:'Titillium Web';-inkscape-font-specification:'Titillium Web, Semi-Bold';font-variant-ligatures:normal;font-variant-caps:normal;font-variant-numeric:normal;font-feature-settings:normal;text-align:start;letter-spacing:0.31754637px;word-spacing:0px;writing-mode:lr-tb;text-anchor:start;display:inline;fill:#0c2842;fill-opacity:1;stroke:none;stroke-width:0.26458332"
       transform="matrix(1.0000685,0,0,0.99993151,-702.71063,-93.928298)"
       aria-label="PROXMOX">
      <path
         id="path39214"
         style="letter-spacing:0.31754637px;fill:#0c2842;fill-opacity:1;stroke-width:0.26458332"
         d="m 78.742491,-7.7042849 h -0.444565 v 0.6763737 h -0.352477 v -2.1751926 h 0.797042 q 0.739883,0 0.739883,0.7303566 0,0.3747048 -0.187353,0.5715835 -0.184176,0.1968788 -0.55253,0.1968788 z m -0.444565,-0.3048446 h 0.441389 q 0.381056,0 0.381056,-0.4636177 0,-0.2222824 -0.09209,-0.3238973 -0.09209,-0.1016148 -0.288967,-0.1016148 h -0.441389 z" />
      <path
         id="path39216"
         style="letter-spacing:0.31754637px;fill:#0c2842;fill-opacity:1;stroke-width:0.26458332"
         d="m 80.49217,-7.8027243 v 0.7748131 h -0.352477 v -2.1751926 h 0.825621 q 0.736708,0 0.736708,0.6922511 0,0.4636177 -0.355652,0.6287418 l 0.358827,0.8541997 H 81.317791 L 81.00342,-7.8027243 Z m 0.847849,-0.704953 q 0,-0.390582 -0.374705,-0.390582 H 80.49217 v 0.7906905 h 0.479495 q 0.190528,0 0.279441,-0.1079658 0.08891,-0.1111412 0.08891,-0.2921427 z" />
      <path
         id="path39218"
         style="letter-spacing:0.31754637px;fill:#0c2842;fill-opacity:1;stroke-width:0.26458332"
         d="m 82.797551,-7.4883534 q 0.107966,0.1873523 0.41281,0.1873523 0.304845,0 0.409635,-0.1841769 0.107966,-0.1841768 0.107966,-0.6160399 0,-0.4350385 -0.111142,-0.6319173 -0.107965,-0.1968787 -0.406459,-0.1968787 -0.298494,0 -0.409635,0.1968787 -0.111141,0.1968788 -0.111141,0.6287418 0,0.4286876 0.107966,0.61604 z m 1.09871,0.2286334 q -0.193703,0.2667389 -0.6859,0.2667389 -0.492197,0 -0.689076,-0.2667389 -0.196878,-0.2699144 -0.196878,-0.8446734 0,-0.5747589 0.196878,-0.8541997 0.200055,-0.2794408 0.689076,-0.2794408 0.489021,0 0.6859,0.2794408 0.196879,0.2762653 0.196879,0.8541997 0,0.5779344 -0.196879,0.8446734 z" />
      <path
         id="path39220"
         style="letter-spacing:0.31754637px;fill:#0c2842;fill-opacity:1;stroke-width:0.26458332"
         d="m 84.950504,-9.2031038 0.466794,0.8573752 0.473144,-0.8573752 h 0.371529 l -0.644619,1.1050614 0.644619,1.0701312 h -0.393758 l -0.466793,-0.8192696 -0.476319,0.8192696 h -0.371529 l 0.647794,-1.0510785 -0.647794,-1.1241141 z" />
      <path
         id="path39222"
         style="letter-spacing:0.31754637px;fill:#0c2842;fill-opacity:1;stroke-width:0.26458332"
         d="m 86.871657,-7.0279112 v -2.1751926 h 0.612864 l 0.485846,1.6988731 0.485846,-1.6988731 h 0.61604 v 2.1751926 h -0.355652 v -1.7846106 h -0.04763 l -0.514425,1.6956976 H 87.78619 l -0.514425,-1.6956976 h -0.04763 v 1.7846106 z" />
      <path
         id="path39224"
         style="letter-spacing:0.31754637px;fill:#0c2842;fill-opacity:1;stroke-width:0.26458332"
         d="m 90.266223,-7.4883534 q 0.107966,0.1873523 0.412811,0.1873523 0.304844,0 0.409635,-0.1841769 0.107965,-0.1841768 0.107965,-0.6160399 0,-0.4350385 -0.111141,-0.6319173 -0.107966,-0.1968787 -0.406459,-0.1968787 -0.298494,0 -0.409635,0.1968787 -0.111141,0.1968788 -0.111141,0.6287418 0,0.4286876 0.107965,0.61604 z m 1.098711,0.2286334 q -0.193703,0.2667389 -0.6859,0.2667389 -0.492197,0 -0.689076,-0.2667389 -0.196879,-0.2699144 -0.196879,-0.8446734 0,-0.5747589 0.196879,-0.8541997 0.200054,-0.2794408 0.689076,-0.2794408 0.489021,0 0.6859,0.2794408 0.196879,0.2762653 0.196879,0.8541997 0,0.5779344 -0.196879,0.8446734 z" />
      <path
         id="path39226"
         style="letter-spacing:0.31754637px;fill:#0c2842;fill-opacity:1;stroke-width:0.26458332"
         d="m 92.419177,-9.2031038 0.466793,0.8573752 0.473144,-0.8573752 h 0.371529 l -0.644619,1.1050614 0.644619,1.0701312 h -0.393757 l -0.466793,-0.8192696 -0.47632,0.8192696 h -0.371529 l 0.647794,-1.0510785 -0.647794,-1.1241141 z" />
    </g>
    <g
       id="text4937-1-7-9-8"
       style="font-style:normal;font-variant:normal;font-weight:600;font-stretch:normal;font-size:3.17546368px;line-height:1.25;font-family:'Titillium Web';-inkscape-font-specification:'Titillium Web, Semi-Bold';font-variant-ligatures:normal;font-variant-caps:normal;font-variant-numeric:normal;font-feature-settings:normal;text-align:start;letter-spacing:0.31754637px;word-spacing:0px;writing-mode:lr-tb;text-anchor:start;display:inline;fill:#ffffff;fill-opacity:1;stroke:none;stroke-width:0.26458332"
       transform="matrix(1.0000685,0,0,0.99993151,-702.71063,-93.928298)"
       aria-label="KVM">
      <path
         id="path39207"
         style="fill:#ffffff;stroke-width:0.26458332"
         d="m 127.88,-7.0279112 h -0.35248 V -9.2031038 H 127.88 v 0.9812183 l 0.32389,-0.025404 0.44457,-0.9558146 h 0.40328 l -0.53665,1.0923595 0.55888,1.0828331 h -0.40964 l -0.46044,-0.9081826 -0.32389,0.022228 z" />
      <path
         id="path39209"
         style="fill:#ffffff;stroke-width:0.26458332"
         d="m 130.89986,-9.2031038 h 0.36835 l -0.53348,2.1751926 h -0.69225 L 129.509,-9.2031038 h 0.36836 l 0.43186,1.8639972 h 0.15877 z" />
      <path
         id="path39211"
         style="fill:#ffffff;stroke-width:0.26458332"
         d="m 131.90013,-7.0279112 v -2.1751926 h 0.61286 l 0.48585,1.6988731 0.48584,-1.6988731 h 0.61604 v 2.1751926 h -0.35565 v -1.7846106 h -0.0476 l -0.51443,1.6956976 h -0.36835 l -0.51443,-1.6956976 h -0.0476 v 1.7846106 z" />
    </g>
    <g
       id="text4941-9-3-4-5"
       style="font-style:normal;font-variant:normal;font-weight:600;font-stretch:normal;font-size:3.17546368px;line-height:1.25;font-family:'Titillium Web';-inkscape-font-specification:'Titillium Web, Semi-Bold';font-variant-ligatures:normal;font-variant-caps:normal;font-variant-numeric:normal;font-feature-settings:normal;text-align:start;letter-spacing:0.31754637px;word-spacing:0px;writing-mode:lr-tb;text-anchor:start;display:inline;fill:#ffffff;fill-opacity:1;stroke:none;stroke-width:0.26458332"
       transform="matrix(1.0000685,0,0,0.99993151,-702.71063,-93.928298)"
       aria-label="XCP-ng">
      <path
         id="path39194"
         style="fill:#ffffff;stroke-width:0.26458332"
         d="m 170.41096,-9.5540025 0.46679,0.8573751 0.47315,-0.8573751 h 0.37153 l -0.64462,1.1050613 0.64462,1.0701313 h -0.39376 l -0.46679,-0.8192697 -0.47632,0.8192697 h -0.37153 l 0.64779,-1.0510785 -0.64779,-1.1241141 z" />
      <path
         id="path39196"
         style="fill:#ffffff;stroke-width:0.26458332"
         d="m 173.00849,-7.3438798 q -0.47632,0 -0.6478,-0.2635635 -0.1683,-0.2635635 -0.1683,-0.8669016 0,-0.6033381 0.17148,-0.8573752 0.17147,-0.2572125 0.64462,-0.2572125 0.28261,0 0.62239,0.079387 l -0.0127,0.2857918 q -0.28579,-0.050807 -0.57159,-0.050807 -0.28579,0 -0.3874,0.171475 -0.10162,0.1682996 -0.10162,0.6382682 0,0.4667932 0.0984,0.6382682 0.0984,0.1682996 0.38423,0.1682996 0.28579,0 0.57794,-0.047632 l 0.01,0.2921427 q -0.32707,0.06986 -0.61921,0.06986 z" />
      <path
         id="path39198"
         style="fill:#ffffff;stroke-width:0.26458332"
         d="m 175.12017,-8.0551837 h -0.44457 v 0.6763738 h -0.35247 v -2.1751926 h 0.79704 q 0.73988,0 0.73988,0.7303566 0,0.3747047 -0.18735,0.5715835 -0.18418,0.1968787 -0.55253,0.1968787 z m -0.44457,-0.3048445 h 0.44139 q 0.38106,0 0.38106,-0.4636177 0,-0.2222825 -0.0921,-0.3238973 -0.0921,-0.1016148 -0.28897,-0.1016148 h -0.44139 z" />
      <path
         id="path39200"
         style="fill:#ffffff;stroke-width:0.26458332"
         d="m 176.4475,-8.0774119 v -0.3143709 h 0.94947 v 0.3143709 z" />
      <path
         id="path39202"
         style="fill:#ffffff;stroke-width:0.26458332"
         d="m 178.46392,-7.3788099 h -0.34612 v -1.5877319 h 0.34295 v 0.098439 q 0.23181,-0.1333695 0.43821,-0.1333695 0.31755,0 0.43186,0.1810015 0.1175,0.1778259 0.1175,0.5906362 v 0.8510243 h -0.34295 v -0.8414979 q 0,-0.2572126 -0.0572,-0.3651783 -0.054,-0.1079658 -0.22546,-0.1079658 -0.16195,0 -0.3112,0.063509 l -0.0476,0.019053 z" />
      <path
         id="path39204"
         style="fill:#ffffff;stroke-width:0.26458332"
         d="m 181.55682,-7.1628784 q 0,0.520776 -0.75258,0.520776 -0.36201,0 -0.53666,-0.098439 -0.17465,-0.098439 -0.17465,-0.3588274 0,-0.1174922 0.0572,-0.2032297 0.0572,-0.082562 0.18418,-0.1810014 -0.10479,-0.06986 -0.10479,-0.2318089 0,-0.063509 0.0857,-0.2064051 l 0.0286,-0.047632 q -0.22864,-0.1365449 -0.22864,-0.4763195 0,-0.2857918 0.17148,-0.4191612 0.17147,-0.1333695 0.46361,-0.1333695 0.13973,0 0.27627,0.031755 l 0.0476,0.00953 0.4922,-0.012702 v 0.2794408 l -0.26356,-0.015877 q 0.0857,0.1111412 0.0857,0.260388 0,0.3111954 -0.15877,0.431863 -0.1556,0.1174922 -0.48902,0.1174922 -0.0826,0 -0.13972,-0.012702 -0.0445,0.1079658 -0.0445,0.1682996 0,0.057158 0.0572,0.079387 0.0603,0.022228 0.28579,0.025404 0.37788,0.00318 0.5176,0.1016149 0.13972,0.098439 0.13972,0.3715292 z m -1.12411,0.031755 q 0,0.1111413 0.0889,0.1587732 0.0889,0.047632 0.30485,0.047632 0.38423,0 0.38423,-0.219107 0,-0.1238431 -0.0699,-0.1587732 -0.0667,-0.031755 -0.26992,-0.03493 l -0.31119,-0.019053 q -0.0699,0.057158 -0.0984,0.1047903 -0.0286,0.050807 -0.0286,0.1206676 z m 0.0254,-1.3146419 q 0,0.1460713 0.0699,0.2159315 0.0699,0.066685 0.22546,0.066685 0.1556,0 0.22228,-0.066685 0.0699,-0.06986 0.0699,-0.2159315 0,-0.1460714 -0.0699,-0.2127561 -0.0699,-0.06986 -0.22546,-0.06986 -0.29214,0 -0.29214,0.2826163 z" />
    </g>
    <g
       id="text6153-5"
       style="font-style:normal;font-variant:normal;font-weight:600;font-stretch:normal;font-size:3.17546368px;line-height:1.25;font-family:'Titillium Web';-inkscape-font-specification:'Titillium Web, Semi-Bold';font-variant-ligatures:normal;font-variant-caps:normal;font-variant-numeric:normal;font-feature-settings:normal;text-align:start;letter-spacing:0.31754637px;word-spacing:0px;writing-mode:lr-tb;text-anchor:start;display:inline;fill:#f58728;fill-opacity:1;stroke:none;stroke-width:0.26458332"
       transform="matrix(1.0000685,0,0,0.99993151,-702.71063,-93.928298)"
       aria-label="Option - Anpassung der Festplattengröße der importierten VMs ......">
      <path
         id="path39075"
         style="fill:#f58728;fill-opacity:1;stroke-width:0.26458332"
         d="m 75.404842,-47.474541 q 0.107966,0.187352 0.41281,0.187352 0.304845,0 0.409635,-0.184177 0.107966,-0.184177 0.107966,-0.61604 0,-0.435038 -0.111141,-0.631917 -0.107966,-0.196879 -0.40646,-0.196879 -0.298493,0 -0.409635,0.196879 -0.111141,0.196879 -0.111141,0.628742 0,0.428687 0.107966,0.61604 z m 1.09871,0.228633 q -0.193703,0.266739 -0.6859,0.266739 -0.492197,0 -0.689075,-0.266739 -0.196879,-0.269914 -0.196879,-0.844673 0,-0.574759 0.196879,-0.8542 0.200054,-0.279441 0.689075,-0.279441 0.489022,0 0.6859,0.279441 0.196879,0.276265 0.196879,0.8542 0,0.577934 -0.196879,0.844673 z" />
      <path
         id="path39077"
         style="fill:#f58728;fill-opacity:1;stroke-width:0.26458332"
         d="m 77.386326,-46.331374 v -2.270457 h 0.34295 v 0.09844 q 0.219107,-0.133369 0.409635,-0.133369 0.314371,0 0.460442,0.193703 0.146071,0.190528 0.146071,0.644619 0,0.450916 -0.168299,0.635093 -0.165124,0.184177 -0.543005,0.184177 -0.130194,0 -0.301669,-0.02858 v 0.676374 z m 0.692251,-1.997367 q -0.149247,0 -0.298494,0.06668 l -0.04763,0.02223 v 0.936762 q 0.127019,0.0254 0.279441,0.0254 0.215932,0 0.298494,-0.123843 0.08256,-0.123843 0.08256,-0.422336 0,-0.504899 -0.314371,-0.504899 z" />
      <path
         id="path39079"
         style="fill:#f58728;fill-opacity:1;stroke-width:0.26458332"
         d="m 80.263292,-48.306513 h -0.438214 v 0.698602 q 0,0.193703 0.02858,0.257213 0.02858,0.06351 0.146071,0.06351 l 0.260388,-0.0095 0.01588,0.276265 q -0.212756,0.04128 -0.323898,0.04128 -0.269914,0 -0.371529,-0.123843 -0.09844,-0.123843 -0.09844,-0.466793 v -0.736708 H 79.2789 v -0.295318 h 0.20323 v -0.460442 h 0.34295 v 0.460442 h 0.438214 z" />
      <path
         id="path39081"
         style="fill:#f58728;fill-opacity:1;stroke-width:0.26458332"
         d="m 80.863454,-47.014099 v -1.587732 h 0.346126 v 1.587732 z m 0,-1.857646 v -0.365179 h 0.346126 v 0.365179 z" />
      <path
         id="path39083"
         style="fill:#f58728;fill-opacity:1;stroke-width:0.26458332"
         d="m 82.032022,-48.430356 q 0.165124,-0.206405 0.54618,-0.206405 0.381055,0 0.543004,0.206405 0.165124,0.206405 0.165124,0.619215 0,0.412811 -0.158773,0.622391 -0.158773,0.209581 -0.549355,0.209581 -0.390582,0 -0.549355,-0.209581 -0.158774,-0.20958 -0.158774,-0.622391 0,-0.41281 0.161949,-0.619215 z m 0.260388,1.032026 q 0.07304,0.127018 0.285792,0.127018 0.212756,0 0.285791,-0.127018 0.07304,-0.127019 0.07304,-0.415986 0,-0.288967 -0.07939,-0.409635 -0.07621,-0.120667 -0.279441,-0.120667 -0.20323,0 -0.282617,0.120667 -0.07621,0.120668 -0.07621,0.409635 0,0.288967 0.07304,0.415986 z" />
      <path
         id="path39085"
         style="fill:#f58728;fill-opacity:1;stroke-width:0.26458332"
         d="m 84.292948,-47.014099 h -0.346126 v -1.587732 h 0.34295 v 0.09844 q 0.231809,-0.133369 0.438214,-0.133369 0.317547,0 0.431863,0.181001 0.117493,0.177826 0.117493,0.590637 v 0.851024 h -0.34295 v -0.841498 q 0,-0.257213 -0.05716,-0.365178 -0.05398,-0.107966 -0.225458,-0.107966 -0.161948,0 -0.311195,0.06351 l -0.04763,0.01905 z" />
      <path
         id="path39087"
         style="fill:#f58728;fill-opacity:1;stroke-width:0.26458332"
         d="m 86.998439,-47.712701 v -0.314371 h 0.949464 v 0.314371 z" />
      <path
         id="path39089"
         style="fill:#f58728;fill-opacity:1;stroke-width:0.26458332"
         d="m 89.538807,-47.014099 0.536654,-2.175193 h 0.701777 l 0.539829,2.175193 h -0.355652 l -0.117492,-0.466793 h -0.835147 l -0.117492,0.466793 z m 0.809743,-1.879875 -0.269914,1.101886 h 0.695427 l -0.266739,-1.101886 z" />
      <path
         id="path39091"
         style="fill:#f58728;fill-opacity:1;stroke-width:0.26458332"
         d="m 92.250651,-47.014099 h -0.346126 v -1.587732 h 0.34295 v 0.09844 q 0.231809,-0.133369 0.438214,-0.133369 0.317546,0 0.431863,0.181001 0.117492,0.177826 0.117492,0.590637 v 0.851024 h -0.34295 v -0.841498 q 0,-0.257213 -0.05716,-0.365178 -0.05398,-0.107966 -0.225458,-0.107966 -0.161949,0 -0.311196,0.06351 l -0.04763,0.01905 z" />
      <path
         id="path39093"
         style="fill:#f58728;fill-opacity:1;stroke-width:0.26458332"
         d="m 93.955873,-46.331374 v -2.270457 h 0.34295 v 0.09844 q 0.219107,-0.133369 0.409635,-0.133369 0.314371,0 0.460442,0.193703 0.146071,0.190528 0.146071,0.644619 0,0.450916 -0.168299,0.635093 -0.165125,0.184177 -0.543005,0.184177 -0.130194,0 -0.301669,-0.02858 v 0.676374 z m 0.692251,-1.997367 q -0.149247,0 -0.298494,0.06668 l -0.04763,0.02223 v 0.936762 q 0.127019,0.0254 0.279441,0.0254 0.215932,0 0.298494,-0.123843 0.08256,-0.123843 0.08256,-0.422336 0,-0.504899 -0.314371,-0.504899 z" />
      <path
         id="path39095"
         style="fill:#f58728;fill-opacity:1;stroke-width:0.26458332"
         d="m 97.15356,-48.11281 v 0.724006 q 0.0032,0.06986 0.03493,0.10479 0.03493,0.03175 0.104791,0.04128 l -0.0095,0.263564 q -0.273089,0 -0.422336,-0.117492 -0.254037,0.117492 -0.51125,0.117492 -0.473144,0 -0.473144,-0.504899 0,-0.241335 0.127019,-0.349301 0.130194,-0.107966 0.396932,-0.130194 l 0.409635,-0.03493 v -0.114317 q 0,-0.127018 -0.05716,-0.177826 -0.05398,-0.05081 -0.161949,-0.05081 -0.203229,0 -0.508074,0.0254 l -0.101615,0.0064 -0.0127,-0.244511 q 0.346126,-0.08256 0.635093,-0.08256 0.292143,0 0.419161,0.127018 0.130194,0.123844 0.130194,0.396933 z m -0.711303,0.393758 q -0.219107,0.01905 -0.219107,0.23816 0,0.219107 0.193703,0.219107 0.158773,0 0.336599,-0.05081 l 0.05716,-0.01905 v -0.422337 z" />
      <path
         id="path39097"
         style="fill:#f58728;fill-opacity:1;stroke-width:0.26458332"
         d="m 99.00803,-48.274758 q -0.374704,-0.05081 -0.543004,-0.05081 -0.1683,0 -0.234984,0.04128 -0.06351,0.03811 -0.06351,0.123843 0,0.08574 0.06986,0.120668 0.07303,0.03493 0.336599,0.08256 0.266739,0.04446 0.37788,0.142896 0.111141,0.09844 0.111141,0.349301 0,0.250862 -0.161949,0.368354 -0.158773,0.117492 -0.466793,0.117492 -0.193703,0 -0.489021,-0.05398 l -0.09844,-0.01588 0.0127,-0.288967 q 0.381056,0.05081 0.549356,0.05081 0.168299,0 0.238159,-0.04128 0.07304,-0.04128 0.07304,-0.136545 0,-0.09526 -0.06986,-0.130194 -0.06669,-0.03811 -0.327073,-0.07939 -0.257212,-0.04446 -0.37788,-0.136545 -0.120668,-0.09209 -0.120668,-0.336599 0,-0.24451 0.165124,-0.365178 0.1683,-0.120668 0.428688,-0.120668 0.20323,0 0.498548,0.05081 l 0.09844,0.01905 z" />
      <path
         id="path39099"
         style="fill:#f58728;fill-opacity:1;stroke-width:0.26458332"
         d="m 100.81487,-48.274758 q -0.37471,-0.05081 -0.54301,-0.05081 -0.16829,0 -0.23498,0.04128 -0.06351,0.03811 -0.06351,0.123843 0,0.08574 0.06986,0.120668 0.073,0.03493 0.3366,0.08256 0.26674,0.04446 0.37788,0.142896 0.11114,0.09844 0.11114,0.349301 0,0.250862 -0.16195,0.368354 -0.15877,0.117492 -0.46679,0.117492 -0.1937,0 -0.489021,-0.05398 l -0.09844,-0.01588 0.0127,-0.288967 q 0.381061,0.05081 0.549361,0.05081 0.1683,0 0.23816,-0.04128 0.073,-0.04128 0.073,-0.136545 0,-0.09526 -0.0699,-0.130194 -0.0667,-0.03811 -0.32707,-0.07939 -0.257216,-0.04446 -0.377883,-0.136545 -0.120668,-0.09209 -0.120668,-0.336599 0,-0.24451 0.165124,-0.365178 0.1683,-0.120668 0.428687,-0.120668 0.20323,0 0.49855,0.05081 l 0.0984,0.01905 z" />
      <path
         id="path39101"
         style="fill:#f58728;fill-opacity:1;stroke-width:0.26458332"
         d="m 102.48199,-48.601831 h 0.34295 v 1.587732 h -0.34295 v -0.09844 q -0.23181,0.133369 -0.42869,0.133369 -0.32707,0 -0.43821,-0.174651 -0.11115,-0.177825 -0.11115,-0.619215 v -0.828796 h 0.34613 v 0.831972 q 0,0.285791 0.0476,0.384231 0.0476,0.09844 0.22228,0.09844 0.17148,0 0.31438,-0.06351 l 0.0476,-0.01905 z" />
      <path
         id="path39103"
         style="fill:#f58728;fill-opacity:1;stroke-width:0.26458332"
         d="m 103.90777,-47.014099 h -0.34613 v -1.587732 h 0.34295 v 0.09844 q 0.23181,-0.133369 0.43822,-0.133369 0.31754,0 0.43186,0.181001 0.11749,0.177826 0.11749,0.590637 v 0.851024 h -0.34295 v -0.841498 q 0,-0.257213 -0.0572,-0.365178 -0.054,-0.107966 -0.22545,-0.107966 -0.16195,0 -0.3112,0.06351 l -0.0476,0.01905 z" />
      <path
         id="path39105"
         style="fill:#f58728;fill-opacity:1;stroke-width:0.26458332"
         d="m 107.00067,-46.798168 q 0,0.520776 -0.75259,0.520776 -0.362,0 -0.53665,-0.09844 -0.17465,-0.09844 -0.17465,-0.358827 0,-0.117492 0.0572,-0.20323 0.0572,-0.08256 0.18417,-0.181001 -0.10479,-0.06986 -0.10479,-0.231809 0,-0.06351 0.0857,-0.206405 l 0.0286,-0.04763 q -0.22863,-0.136545 -0.22863,-0.47632 0,-0.285792 0.17147,-0.419161 0.17148,-0.13337 0.46362,-0.13337 0.13972,0 0.27627,0.03176 l 0.0476,0.0095 0.49219,-0.0127 v 0.27944 l -0.26356,-0.01588 q 0.0857,0.111141 0.0857,0.260388 0,0.311196 -0.15877,0.431863 -0.1556,0.117492 -0.48903,0.117492 -0.0826,0 -0.13972,-0.0127 -0.0444,0.107966 -0.0444,0.1683 0,0.05716 0.0572,0.07939 0.0603,0.02223 0.28579,0.0254 0.37788,0.0032 0.5176,0.101615 0.13972,0.09844 0.13972,0.371529 z m -1.12412,0.03175 q 0,0.111141 0.0889,0.158773 0.0889,0.04763 0.30484,0.04763 0.38423,0 0.38423,-0.219107 0,-0.123843 -0.0699,-0.158773 -0.0667,-0.03175 -0.26991,-0.03493 l -0.3112,-0.01905 q -0.0699,0.05716 -0.0984,0.10479 -0.0286,0.05081 -0.0286,0.120668 z m 0.0254,-1.314642 q 0,0.146071 0.0699,0.215932 0.0699,0.06668 0.22546,0.06668 0.15559,0 0.22228,-0.06668 0.0699,-0.06986 0.0699,-0.215932 0,-0.146071 -0.0699,-0.212756 -0.0699,-0.06986 -0.22546,-0.06986 -0.29214,0 -0.29214,0.282616 z" />
      <path
         id="path39107"
         style="fill:#f58728;fill-opacity:1;stroke-width:0.26458332"
         d="m 109.90939,-49.262327 v 2.248228 h -0.34295 v -0.08256 q -0.23181,0.117492 -0.42551,0.117492 -0.3112,0 -0.45727,-0.187352 -0.14289,-0.187353 -0.14289,-0.628742 0,-0.44139 0.15877,-0.641444 0.16195,-0.200054 0.50172,-0.200054 0.11432,0 0.362,0.04128 v -0.666847 z m -0.40011,1.91798 0.054,-0.02223 v -0.939937 q -0.19052,-0.03175 -0.35247,-0.03175 -0.32072,0 -0.32072,0.533477 0,0.292143 0.073,0.40646 0.0762,0.111141 0.23816,0.111141 0.16195,0 0.30802,-0.05716 z" />
      <path
         id="path39109"
         style="fill:#f58728;fill-opacity:1;stroke-width:0.26458332"
         d="m 111.77656,-47.299891 0.0889,-0.0095 0.006,0.257212 q -0.362,0.07304 -0.64144,0.07304 -0.35248,0 -0.50808,-0.193703 -0.15242,-0.193704 -0.15242,-0.619216 0,-0.844673 0.68908,-0.844673 0.66684,0 0.66684,0.727181 l -0.0222,0.247686 h -0.9844 q 0.003,0.196879 0.0857,0.288967 0.0826,0.09209 0.30802,0.09209 0.22546,0 0.46362,-0.01905 z m -0.19053,-0.628742 q 0,-0.234984 -0.0762,-0.327072 -0.073,-0.09526 -0.25086,-0.09526 -0.17783,0 -0.26039,0.09844 -0.0794,0.09844 -0.0826,0.323897 z" />
      <path
         id="path39111"
         style="fill:#f58728;fill-opacity:1;stroke-width:0.26458332"
         d="m 112.57678,-47.014099 v -1.587732 h 0.34295 v 0.190528 q 0.26991,-0.174651 0.53982,-0.225458 v 0.346125 q -0.27309,0.05398 -0.46679,0.139721 l -0.0699,0.02858 v 1.108237 z" />
      <path
         id="path39113"
         style="fill:#f58728;fill-opacity:1;stroke-width:0.26458332"
         d="m 115.09808,-47.014099 v -2.175193 h 1.34958 v 0.30802 h -0.9971 v 0.733532 h 0.8288 v 0.30802 h -0.8288 v 0.825621 z" />
      <path
         id="path39115"
         style="fill:#f58728;fill-opacity:1;stroke-width:0.26458332"
         d="m 118.13065,-47.299891 0.0889,-0.0095 0.006,0.257212 q -0.362,0.07304 -0.64144,0.07304 -0.35248,0 -0.50807,-0.193703 -0.15243,-0.193704 -0.15243,-0.619216 0,-0.844673 0.68908,-0.844673 0.66685,0 0.66685,0.727181 l -0.0222,0.247686 h -0.9844 q 0.003,0.196879 0.0857,0.288967 0.0826,0.09209 0.30802,0.09209 0.22546,0 0.46362,-0.01905 z m -0.19053,-0.628742 q 0,-0.234984 -0.0762,-0.327072 -0.073,-0.09526 -0.25086,-0.09526 -0.17783,0 -0.26039,0.09844 -0.0794,0.09844 -0.0826,0.323897 z" />
      <path
         id="path39117"
         style="fill:#f58728;fill-opacity:1;stroke-width:0.26458332"
         d="m 120.03275,-48.274758 q -0.37471,-0.05081 -0.543,-0.05081 -0.1683,0 -0.23499,0.04128 -0.0635,0.03811 -0.0635,0.123843 0,0.08574 0.0699,0.120668 0.073,0.03493 0.3366,0.08256 0.26674,0.04446 0.37788,0.142896 0.11114,0.09844 0.11114,0.349301 0,0.250862 -0.16195,0.368354 -0.15877,0.117492 -0.46679,0.117492 -0.1937,0 -0.48902,-0.05398 l -0.0984,-0.01588 0.0127,-0.288967 q 0.38106,0.05081 0.54936,0.05081 0.1683,0 0.23816,-0.04128 0.073,-0.04128 0.073,-0.136545 0,-0.09526 -0.0699,-0.130194 -0.0667,-0.03811 -0.32707,-0.07939 -0.25721,-0.04446 -0.37788,-0.136545 -0.12067,-0.09209 -0.12067,-0.336599 0,-0.24451 0.16513,-0.365178 0.1683,-0.120668 0.42868,-0.120668 0.20323,0 0.49855,0.05081 l 0.0984,0.01905 z" />
      <path
         id="path39119"
         style="fill:#f58728;fill-opacity:1;stroke-width:0.26458332"
         d="m 121.5919,-48.306513 h -0.43821 v 0.698602 q 0,0.193703 0.0286,0.257213 0.0286,0.06351 0.14607,0.06351 l 0.26039,-0.0095 0.0159,0.276265 q -0.21275,0.04128 -0.32389,0.04128 -0.26992,0 -0.37153,-0.123843 -0.0984,-0.123843 -0.0984,-0.466793 v -0.736708 h -0.20323 v -0.295318 h 0.20323 v -0.460442 h 0.34295 v 0.460442 h 0.43821 z" />
      <path
         id="path39121"
         style="fill:#f58728;fill-opacity:1;stroke-width:0.26458332"
         d="m 122.19206,-46.331374 v -2.270457 h 0.34295 v 0.09844 q 0.21911,-0.133369 0.40964,-0.133369 0.31437,0 0.46044,0.193703 0.14607,0.190528 0.14607,0.644619 0,0.450916 -0.1683,0.635093 -0.16512,0.184177 -0.543,0.184177 -0.1302,0 -0.30167,-0.02858 v 0.676374 z m 0.69225,-1.997367 q -0.14924,0 -0.29849,0.06668 l -0.0476,0.02223 v 0.936762 q 0.12702,0.0254 0.27944,0.0254 0.21593,0 0.29849,-0.123843 0.0826,-0.123843 0.0826,-0.422336 0,-0.504899 -0.31438,-0.504899 z" />
      <path
         id="path39123"
         style="fill:#f58728;fill-opacity:1;stroke-width:0.26458332"
         d="m 124.23388,-47.014099 v -2.248228 h 0.34613 v 2.248228 z" />
      <path
         id="path39125"
         style="fill:#f58728;fill-opacity:1;stroke-width:0.26458332"
         d="m 126.51068,-48.11281 v 0.724006 q 0.003,0.06986 0.0349,0.10479 0.0349,0.03175 0.1048,0.04128 l -0.01,0.263564 q -0.27309,0 -0.42234,-0.117492 -0.25404,0.117492 -0.51125,0.117492 -0.47314,0 -0.47314,-0.504899 0,-0.241335 0.12702,-0.349301 0.13019,-0.107966 0.39693,-0.130194 l 0.40963,-0.03493 v -0.114317 q 0,-0.127018 -0.0572,-0.177826 -0.054,-0.05081 -0.16195,-0.05081 -0.20323,0 -0.50808,0.0254 l -0.10161,0.0064 -0.0127,-0.244511 q 0.34612,-0.08256 0.63509,-0.08256 0.29214,0 0.41916,0.127018 0.13019,0.123844 0.13019,0.396933 z m -0.7113,0.393758 q -0.21911,0.01905 -0.21911,0.23816 0,0.219107 0.19371,0.219107 0.15877,0 0.3366,-0.05081 l 0.0572,-0.01905 v -0.422337 z" />
      <path
         id="path39127"
         style="fill:#f58728;fill-opacity:1;stroke-width:0.26458332"
         d="m 128.11747,-48.306513 h -0.43822 v 0.698602 q 0,0.193703 0.0286,0.257213 0.0286,0.06351 0.14607,0.06351 l 0.26039,-0.0095 0.0159,0.276265 q -0.21276,0.04128 -0.3239,0.04128 -0.26991,0 -0.37153,-0.123843 -0.0984,-0.123843 -0.0984,-0.466793 v -0.736708 h -0.20323 v -0.295318 h 0.20323 v -0.460442 h 0.34295 v 0.460442 h 0.43822 z" />
      <path
         id="path39129"
         style="fill:#f58728;fill-opacity:1;stroke-width:0.26458332"
         d="m 129.57183,-48.306513 h -0.43821 v 0.698602 q 0,0.193703 0.0286,0.257213 0.0286,0.06351 0.14607,0.06351 l 0.26039,-0.0095 0.0159,0.276265 q -0.21276,0.04128 -0.3239,0.04128 -0.26992,0 -0.37153,-0.123843 -0.0984,-0.123843 -0.0984,-0.466793 v -0.736708 h -0.20323 v -0.295318 h 0.20323 v -0.460442 h 0.34295 v 0.460442 h 0.43821 z" />
      <path
         id="path39131"
         style="fill:#f58728;fill-opacity:1;stroke-width:0.26458332"
         d="m 131.30246,-47.299891 0.0889,-0.0095 0.006,0.257212 q -0.362,0.07304 -0.64144,0.07304 -0.35248,0 -0.50807,-0.193703 -0.15243,-0.193704 -0.15243,-0.619216 0,-0.844673 0.68908,-0.844673 0.66685,0 0.66685,0.727181 l -0.0222,0.247686 h -0.9844 q 0.003,0.196879 0.0857,0.288967 0.0826,0.09209 0.30802,0.09209 0.22546,0 0.46362,-0.01905 z m -0.19053,-0.628742 q 0,-0.234984 -0.0762,-0.327072 -0.073,-0.09526 -0.25086,-0.09526 -0.17783,0 -0.26039,0.09844 -0.0794,0.09844 -0.0826,0.323897 z" />
      <path
         id="path39133"
         style="fill:#f58728;fill-opacity:1;stroke-width:0.26458332"
         d="m 132.4488,-47.014099 h -0.34613 v -1.587732 h 0.34295 v 0.09844 q 0.23181,-0.133369 0.43822,-0.133369 0.31754,0 0.43186,0.181001 0.11749,0.177826 0.11749,0.590637 v 0.851024 h -0.34295 v -0.841498 q 0,-0.257213 -0.0572,-0.365178 -0.054,-0.107966 -0.22545,-0.107966 -0.16195,0 -0.3112,0.06351 l -0.0476,0.01905 z" />
      <path
         id="path39135"
         style="fill:#f58728;fill-opacity:1;stroke-width:0.26458332"
         d="m 135.5417,-46.798168 q 0,0.520776 -0.75258,0.520776 -0.36201,0 -0.53666,-0.09844 -0.17465,-0.09844 -0.17465,-0.358827 0,-0.117492 0.0572,-0.20323 0.0572,-0.08256 0.18418,-0.181001 -0.10479,-0.06986 -0.10479,-0.231809 0,-0.06351 0.0857,-0.206405 l 0.0286,-0.04763 q -0.22863,-0.136545 -0.22863,-0.47632 0,-0.285792 0.17148,-0.419161 0.17147,-0.13337 0.46361,-0.13337 0.13972,0 0.27627,0.03176 l 0.0476,0.0095 0.4922,-0.0127 v 0.27944 l -0.26357,-0.01588 q 0.0857,0.111141 0.0857,0.260388 0,0.311196 -0.15877,0.431863 -0.1556,0.117492 -0.48902,0.117492 -0.0826,0 -0.13972,-0.0127 -0.0445,0.107966 -0.0445,0.1683 0,0.05716 0.0572,0.07939 0.0603,0.02223 0.28579,0.0254 0.37788,0.0032 0.5176,0.101615 0.13972,0.09844 0.13972,0.371529 z m -1.12411,0.03175 q 0,0.111141 0.0889,0.158773 0.0889,0.04763 0.30484,0.04763 0.38424,0 0.38424,-0.219107 0,-0.123843 -0.0699,-0.158773 -0.0667,-0.03175 -0.26992,-0.03493 l -0.31119,-0.01905 q -0.0699,0.05716 -0.0984,0.10479 -0.0286,0.05081 -0.0286,0.120668 z m 0.0254,-1.314642 q 0,0.146071 0.0699,0.215932 0.0699,0.06668 0.22546,0.06668 0.1556,0 0.22228,-0.06668 0.0699,-0.06986 0.0699,-0.215932 0,-0.146071 -0.0699,-0.212756 -0.0699,-0.06986 -0.22546,-0.06986 -0.29214,0 -0.29214,0.282616 z" />
      <path
         id="path39137"
         style="fill:#f58728;fill-opacity:1;stroke-width:0.26458332"
         d="m 136.13868,-47.014099 v -1.587732 h 0.34295 v 0.190528 q 0.26992,-0.174651 0.53983,-0.225458 v 0.346125 q -0.27309,0.05398 -0.46679,0.139721 l -0.0699,0.02858 v 1.108237 z" />
      <path
         id="path39139"
         style="fill:#f58728;fill-opacity:1;stroke-width:0.26458332"
         d="m 137.6756,-48.430356 q 0.16512,-0.206405 0.54618,-0.206405 0.38105,0 0.543,0.206405 0.16513,0.206405 0.16513,0.619215 0,0.412811 -0.15878,0.622391 -0.15877,0.209581 -0.54935,0.209581 -0.39058,0 -0.54936,-0.209581 -0.15877,-0.20958 -0.15877,-0.622391 0,-0.41281 0.16195,-0.619215 z m 0.26039,1.032026 q 0.073,0.127018 0.28579,0.127018 0.21275,0 0.28579,-0.127018 0.073,-0.127019 0.073,-0.415986 0,-0.288967 -0.0794,-0.409635 -0.0762,-0.120667 -0.27944,-0.120667 -0.20323,0 -0.28262,0.120667 -0.0762,0.120668 -0.0762,0.409635 0,0.288967 0.073,0.415986 z m -0.21594,-1.543276 v -0.362002 h 0.33025 v 0.362002 z m 0.66368,0 v -0.362002 h 0.33024 v 0.362002 z" />
      <path
         id="path39141"
         style="fill:#f58728;fill-opacity:1;stroke-width:0.26458332"
         d="m 139.93653,-47.014099 h -0.34613 v -1.689347 q 0,-0.323897 0.15878,-0.457267 0.15877,-0.136545 0.5176,-0.136545 0.35882,0 0.52395,0.114317 0.16512,0.111141 0.16512,0.368354 0,0.1683 -0.0667,0.254037 -0.0635,0.08256 -0.19688,0.142896 -0.13337,0.06033 -0.1683,0.08891 -0.0349,0.02858 -0.0349,0.07304 0,0.04446 0.0508,0.08574 0.054,0.03811 0.26038,0.136545 0.20641,0.09844 0.29215,0.196879 0.0889,0.09844 0.0889,0.282616 0,0.320722 -0.14607,0.44774 -0.14607,0.127019 -0.49537,0.127019 -0.18101,0 -0.38424,-0.04446 l -0.073,-0.01588 0.0127,-0.279441 q 0.29214,0.03493 0.44139,0.03493 0.28897,0 0.28897,-0.219107 0,-0.09526 -0.0572,-0.146071 -0.054,-0.05081 -0.25721,-0.146071 -0.21276,-0.09209 -0.29532,-0.184177 -0.0826,-0.09526 -0.0826,-0.23816 0,-0.146071 0.0572,-0.225458 0.0572,-0.07939 0.18736,-0.133369 0.13337,-0.05716 0.17782,-0.101615 0.0445,-0.04446 0.0445,-0.13337 0,-0.08891 -0.0699,-0.133369 -0.0699,-0.04763 -0.26039,-0.04763 -0.18735,0 -0.26039,0.06668 -0.073,0.06668 -0.073,0.23816 z" />
      <path
         id="path39143"
         style="fill:#f58728;fill-opacity:1;stroke-width:0.26458332"
         d="m 142.92781,-47.299891 0.0889,-0.0095 0.006,0.257212 q -0.362,0.07304 -0.64144,0.07304 -0.35248,0 -0.50808,-0.193703 -0.15242,-0.193704 -0.15242,-0.619216 0,-0.844673 0.68908,-0.844673 0.66684,0 0.66684,0.727181 l -0.0222,0.247686 h -0.9844 q 0.003,0.196879 0.0857,0.288967 0.0826,0.09209 0.30802,0.09209 0.22546,0 0.46362,-0.01905 z m -0.19053,-0.628742 q 0,-0.234984 -0.0762,-0.327072 -0.073,-0.09526 -0.25086,-0.09526 -0.17783,0 -0.26039,0.09844 -0.0794,0.09844 -0.0826,0.323897 z" />
      <path
         id="path39145"
         style="fill:#f58728;fill-opacity:1;stroke-width:0.26458332"
         d="m 146.03976,-49.262327 v 2.248228 h -0.34295 v -0.08256 q -0.23181,0.117492 -0.42551,0.117492 -0.3112,0 -0.45727,-0.187352 -0.14289,-0.187353 -0.14289,-0.628742 0,-0.44139 0.15877,-0.641444 0.16195,-0.200054 0.50172,-0.200054 0.11432,0 0.36201,0.04128 v -0.666847 z m -0.40011,1.91798 0.054,-0.02223 v -0.939937 q -0.19053,-0.03175 -0.35248,-0.03175 -0.32072,0 -0.32072,0.533477 0,0.292143 0.073,0.40646 0.0762,0.111141 0.23816,0.111141 0.16195,0 0.30802,-0.05716 z" />
      <path
         id="path39147"
         style="fill:#f58728;fill-opacity:1;stroke-width:0.26458332"
         d="m 147.90693,-47.299891 0.0889,-0.0095 0.006,0.257212 q -0.36201,0.07304 -0.64145,0.07304 -0.35247,0 -0.50807,-0.193703 -0.15242,-0.193704 -0.15242,-0.619216 0,-0.844673 0.68907,-0.844673 0.66685,0 0.66685,0.727181 l -0.0222,0.247686 h -0.98439 q 0.003,0.196879 0.0857,0.288967 0.0826,0.09209 0.30802,0.09209 0.22546,0 0.46362,-0.01905 z m -0.19053,-0.628742 q 0,-0.234984 -0.0762,-0.327072 -0.073,-0.09526 -0.25086,-0.09526 -0.17782,0 -0.26039,0.09844 -0.0794,0.09844 -0.0826,0.323897 z" />
      <path
         id="path39149"
         style="fill:#f58728;fill-opacity:1;stroke-width:0.26458332"
         d="m 148.70715,-47.014099 v -1.587732 h 0.34295 v 0.190528 q 0.26991,-0.174651 0.53983,-0.225458 v 0.346125 q -0.27309,0.05398 -0.4668,0.139721 l -0.0699,0.02858 v 1.108237 z" />
      <path
         id="path39151"
         style="fill:#f58728;fill-opacity:1;stroke-width:0.26458332"
         d="m 151.18717,-47.014099 v -1.587732 h 0.34613 v 1.587732 z m 0,-1.857646 v -0.365179 h 0.34613 v 0.365179 z" />
      <path
         id="path39153"
         style="fill:#f58728;fill-opacity:1;stroke-width:0.26458332"
         d="m 152.61613,-47.014099 h -0.34612 v -1.587732 h 0.34295 v 0.09844 q 0.22545,-0.133369 0.41281,-0.133369 0.27626,0 0.40328,0.155598 0.28897,-0.155598 0.57476,-0.155598 0.28579,0 0.40328,0.177826 0.11749,0.17465 0.11749,0.593812 v 0.851024 h -0.34295 v -0.841498 q 0,-0.257213 -0.054,-0.365178 -0.0508,-0.107966 -0.21593,-0.107966 -0.1429,0 -0.30802,0.06351 l -0.054,0.02223 q 0.0254,0.06351 0.0254,0.40646 v 0.822445 h -0.34295 v -0.816094 q 0,-0.282617 -0.0508,-0.390582 -0.0508,-0.107966 -0.22228,-0.107966 -0.15877,0 -0.29532,0.06351 l -0.0476,0.01905 z" />
      <path
         id="path39155"
         style="fill:#f58728;fill-opacity:1;stroke-width:0.26458332"
         d="m 155.24859,-46.331374 v -2.270457 h 0.34295 v 0.09844 q 0.21911,-0.133369 0.40963,-0.133369 0.31438,0 0.46045,0.193703 0.14607,0.190528 0.14607,0.644619 0,0.450916 -0.1683,0.635093 -0.16513,0.184177 -0.54301,0.184177 -0.13019,0 -0.30166,-0.02858 v 0.676374 z m 0.69225,-1.997367 q -0.14925,0 -0.29849,0.06668 l -0.0476,0.02223 v 0.936762 q 0.12701,0.0254 0.27944,0.0254 0.21593,0 0.29849,-0.123843 0.0826,-0.123843 0.0826,-0.422336 0,-0.504899 -0.31437,-0.504899 z" />
      <path
         id="path39157"
         style="fill:#f58728;fill-opacity:1;stroke-width:0.26458332"
         d="m 157.35709,-48.430356 q 0.16513,-0.206405 0.54618,-0.206405 0.38106,0 0.54301,0.206405 0.16512,0.206405 0.16512,0.619215 0,0.412811 -0.15877,0.622391 -0.15877,0.209581 -0.54936,0.209581 -0.39058,0 -0.54935,-0.209581 -0.15878,-0.20958 -0.15878,-0.622391 0,-0.41281 0.16195,-0.619215 z m 0.26039,1.032026 q 0.073,0.127018 0.28579,0.127018 0.21276,0 0.28579,-0.127018 0.073,-0.127019 0.073,-0.415986 0,-0.288967 -0.0794,-0.409635 -0.0762,-0.120667 -0.27944,-0.120667 -0.20323,0 -0.28261,0.120667 -0.0762,0.120668 -0.0762,0.409635 0,0.288967 0.073,0.415986 z" />
      <path
         id="path39159"
         style="fill:#f58728;fill-opacity:1;stroke-width:0.26458332"
         d="m 159.27189,-47.014099 v -1.587732 h 0.34295 v 0.190528 q 0.26991,-0.174651 0.53983,-0.225458 v 0.346125 q -0.27309,0.05398 -0.46679,0.139721 l -0.0699,0.02858 v 1.108237 z" />
      <path
         id="path39161"
         style="fill:#f58728;fill-opacity:1;stroke-width:0.26458332"
         d="m 161.58997,-48.306513 h -0.43821 v 0.698602 q 0,0.193703 0.0286,0.257213 0.0286,0.06351 0.14607,0.06351 l 0.26039,-0.0095 0.0159,0.276265 q -0.21275,0.04128 -0.32389,0.04128 -0.26992,0 -0.37153,-0.123843 -0.0984,-0.123843 -0.0984,-0.466793 v -0.736708 h -0.20323 v -0.295318 h 0.20323 v -0.460442 h 0.34295 v 0.460442 h 0.43821 z" />
      <path
         id="path39163"
         style="fill:#f58728;fill-opacity:1;stroke-width:0.26458332"
         d="m 162.19013,-47.014099 v -1.587732 h 0.34613 v 1.587732 z m 0,-1.857646 v -0.365179 h 0.34613 v 0.365179 z" />
      <path
         id="path39165"
         style="fill:#f58728;fill-opacity:1;stroke-width:0.26458332"
         d="m 164.40343,-47.299891 0.0889,-0.0095 0.006,0.257212 q -0.362,0.07304 -0.64144,0.07304 -0.35248,0 -0.50807,-0.193703 -0.15243,-0.193704 -0.15243,-0.619216 0,-0.844673 0.68908,-0.844673 0.66685,0 0.66685,0.727181 l -0.0222,0.247686 h -0.98439 q 0.003,0.196879 0.0857,0.288967 0.0826,0.09209 0.30802,0.09209 0.22546,0 0.46362,-0.01905 z m -0.19053,-0.628742 q 0,-0.234984 -0.0762,-0.327072 -0.073,-0.09526 -0.25086,-0.09526 -0.17783,0 -0.26039,0.09844 -0.0794,0.09844 -0.0826,0.323897 z" />
      <path
         id="path39167"
         style="fill:#f58728;fill-opacity:1;stroke-width:0.26458332"
         d="m 165.20364,-47.014099 v -1.587732 h 0.34296 v 0.190528 q 0.26991,-0.174651 0.53982,-0.225458 v 0.346125 q -0.27309,0.05398 -0.46679,0.139721 l -0.0699,0.02858 v 1.108237 z" />
      <path
         id="path39169"
         style="fill:#f58728;fill-opacity:1;stroke-width:0.26458332"
         d="m 167.52173,-48.306513 h -0.43822 v 0.698602 q 0,0.193703 0.0286,0.257213 0.0286,0.06351 0.14607,0.06351 l 0.26039,-0.0095 0.0159,0.276265 q -0.21276,0.04128 -0.3239,0.04128 -0.26991,0 -0.37153,-0.123843 -0.0984,-0.123843 -0.0984,-0.466793 v -0.736708 h -0.20323 v -0.295318 h 0.20323 v -0.460442 h 0.34295 v 0.460442 h 0.43822 z" />
      <path
         id="path39171"
         style="fill:#f58728;fill-opacity:1;stroke-width:0.26458332"
         d="m 169.25235,-47.299891 0.0889,-0.0095 0.006,0.257212 q -0.36201,0.07304 -0.64145,0.07304 -0.35247,0 -0.50807,-0.193703 -0.15242,-0.193704 -0.15242,-0.619216 0,-0.844673 0.68907,-0.844673 0.66685,0 0.66685,0.727181 l -0.0222,0.247686 h -0.98439 q 0.003,0.196879 0.0857,0.288967 0.0826,0.09209 0.30802,0.09209 0.22545,0 0.46361,-0.01905 z m -0.19052,-0.628742 q 0,-0.234984 -0.0762,-0.327072 -0.073,-0.09526 -0.25086,-0.09526 -0.17782,0 -0.26039,0.09844 -0.0794,0.09844 -0.0826,0.323897 z" />
      <path
         id="path39173"
         style="fill:#f58728;fill-opacity:1;stroke-width:0.26458332"
         d="m 170.3987,-47.014099 h -0.34612 v -1.587732 h 0.34295 v 0.09844 q 0.2318,-0.133369 0.43821,-0.133369 0.31755,0 0.43186,0.181001 0.11749,0.177826 0.11749,0.590637 v 0.851024 h -0.34295 v -0.841498 q 0,-0.257213 -0.0572,-0.365178 -0.054,-0.107966 -0.22546,-0.107966 -0.16195,0 -0.3112,0.06351 l -0.0476,0.01905 z" />
      <path
         id="path39175"
         style="fill:#f58728;fill-opacity:1;stroke-width:0.26458332"
         d="m 174.36485,-49.189292 h 0.36835 l -0.53348,2.175193 h -0.69225 l -0.53348,-2.175193 h 0.36836 l 0.43186,1.863997 h 0.15877 z" />
      <path
         id="path39177"
         style="fill:#f58728;fill-opacity:1;stroke-width:0.26458332"
         d="m 175.36512,-47.014099 v -2.175193 h 0.61286 l 0.48585,1.698873 0.48585,-1.698873 h 0.61604 v 2.175193 h -0.35566 v -1.784611 h -0.0476 l -0.51442,1.695698 h -0.36836 l -0.51442,-1.695698 h -0.0476 v 1.784611 z" />
      <path
         id="path39179"
         style="fill:#f58728;fill-opacity:1;stroke-width:0.26458332"
         d="m 179.44241,-48.274758 q -0.3747,-0.05081 -0.543,-0.05081 -0.1683,0 -0.23499,0.04128 -0.0635,0.03811 -0.0635,0.123843 0,0.08574 0.0699,0.120668 0.073,0.03493 0.3366,0.08256 0.26674,0.04446 0.37788,0.142896 0.11114,0.09844 0.11114,0.349301 0,0.250862 -0.16195,0.368354 -0.15877,0.117492 -0.46679,0.117492 -0.1937,0 -0.48902,-0.05398 l -0.0984,-0.01588 0.0127,-0.288967 q 0.38106,0.05081 0.54936,0.05081 0.1683,0 0.23816,-0.04128 0.073,-0.04128 0.073,-0.136545 0,-0.09526 -0.0699,-0.130194 -0.0667,-0.03811 -0.32707,-0.07939 -0.25721,-0.04446 -0.37788,-0.136545 -0.12067,-0.09209 -0.12067,-0.336599 0,-0.24451 0.16513,-0.365178 0.1683,-0.120668 0.42868,-0.120668 0.20323,0 0.49855,0.05081 l 0.0984,0.01905 z" />
      <path
         id="path39181"
         style="fill:#f58728;fill-opacity:1;stroke-width:0.26458332"
         d="m 181.14763,-47.014099 v -0.457267 h 0.37153 v 0.457267 z" />
      <path
         id="path39183"
         style="fill:#f58728;fill-opacity:1;stroke-width:0.26458332"
         d="m 182.22411,-47.014099 v -0.457267 h 0.37153 v 0.457267 z" />
      <path
         id="path39185"
         style="fill:#f58728;fill-opacity:1;stroke-width:0.26458332"
         d="m 183.30058,-47.014099 v -0.457267 h 0.37153 v 0.457267 z" />
      <path
         id="path39187"
         style="fill:#f58728;fill-opacity:1;stroke-width:0.26458332"
         d="m 184.37706,-47.014099 v -0.457267 h 0.37153 v 0.457267 z" />
      <path
         id="path39189"
         style="fill:#f58728;fill-opacity:1;stroke-width:0.26458332"
         d="m 185.45354,-47.014099 v -0.457267 h 0.37153 v 0.457267 z" />
      <path
         id="path39191"
         style="fill:#f58728;fill-opacity:1;stroke-width:0.26458332"
         d="m 186.53001,-47.014099 v -0.457267 h 0.37153 v 0.457267 z" />
    </g>
    <g
       id="text6161-4"
       style="font-style:normal;font-variant:normal;font-weight:600;font-stretch:normal;font-size:3.17546368px;line-height:1.25;font-family:'Titillium Web';-inkscape-font-specification:'Titillium Web, Semi-Bold';font-variant-ligatures:normal;font-variant-caps:normal;font-variant-numeric:normal;font-feature-settings:normal;text-align:start;letter-spacing:0.31754637px;word-spacing:0px;writing-mode:lr-tb;text-anchor:start;display:inline;fill:#f58220;fill-opacity:1;stroke:none;stroke-width:0.26458332"
       transform="matrix(1.0000685,0,0,0.99993151,-702.71063,-93.928298)"
       aria-label="... und Nutzung der neuen Größen in den VMs.">
      <path
         id="path39002"
         style="fill:#f58220;fill-opacity:1;stroke-width:0.26458332"
         d="m 86.514962,16.672855 v -0.457266 h 0.371529 v 0.457266 z" />
      <path
         id="path39004"
         style="fill:#f58220;fill-opacity:1;stroke-width:0.26458332"
         d="m 87.591439,16.672855 v -0.457266 h 0.371529 v 0.457266 z" />
      <path
         id="path39006"
         style="fill:#f58220;fill-opacity:1;stroke-width:0.26458332"
         d="m 88.667916,16.672855 v -0.457266 h 0.371529 v 0.457266 z" />
      <path
         id="path39008"
         style="fill:#f58220;fill-opacity:1;stroke-width:0.26458332"
         d="m 91.738582,15.085124 h 0.342951 v 1.587731 h -0.342951 v -0.09844 q -0.231808,0.133369 -0.428687,0.133369 -0.327073,0 -0.438214,-0.17465 Q 90.76054,16.355309 90.76054,15.91392 v -0.828796 h 0.346125 v 0.831971 q 0,0.285792 0.04763,0.384231 0.04763,0.09844 0.222283,0.09844 0.171475,0 0.31437,-0.06351 l 0.04763,-0.01905 z" />
      <path
         id="path39010"
         style="fill:#f58220;fill-opacity:1;stroke-width:0.26458332"
         d="m 93.164363,16.672855 h -0.346126 v -1.587731 h 0.342951 v 0.09844 q 0.231808,-0.13337 0.438214,-0.13337 0.317546,0 0.431863,0.181002 0.117492,0.177826 0.117492,0.590636 v 0.851024 h -0.34295 v -0.841497 q 0,-0.257213 -0.05716,-0.365179 -0.05398,-0.107966 -0.225458,-0.107966 -0.161948,0 -0.311195,0.06351 l -0.04763,0.01905 z" />
      <path
         id="path39012"
         style="fill:#f58220;fill-opacity:1;stroke-width:0.26458332"
         d="m 96.165175,14.424627 v 2.248228 h -0.34295 v -0.08256 q -0.231809,0.117492 -0.425512,0.117492 -0.311195,0 -0.457267,-0.187352 -0.142895,-0.187352 -0.142895,-0.628742 0,-0.441389 0.158773,-0.641443 0.161948,-0.200055 0.501723,-0.200055 0.114317,0 0.362003,0.04128 v -0.666847 z m -0.400108,1.91798 0.05398,-0.02223 V 15.38044 q -0.190528,-0.03176 -0.352477,-0.03176 -0.320721,0 -0.320721,0.533478 0,0.292143 0.07303,0.406459 0.07621,0.111142 0.23816,0.111142 0.161949,0 0.30802,-0.05716 z" />
      <path
         id="path39014"
         style="fill:#f58220;fill-opacity:1;stroke-width:0.26458332"
         d="m 97.959306,16.672855 v -2.175192 h 0.61604 l 0.660497,1.863997 h 0.04763 v -1.863997 h 0.352476 v 2.175192 h -0.603338 l -0.676374,-1.867172 h -0.04446 v 1.867172 z" />
      <path
         id="path39016"
         style="fill:#f58220;fill-opacity:1;stroke-width:0.26458332"
         d="m 101.3761,15.085124 h 0.34295 v 1.587731 h -0.34295 v -0.09844 q -0.23181,0.133369 -0.42869,0.133369 -0.32707,0 -0.43821,-0.17465 -0.11114,-0.177826 -0.11114,-0.619215 v -0.828796 h 0.34613 v 0.831971 q 0,0.285792 0.0476,0.384231 0.0476,0.09844 0.22228,0.09844 0.17147,0 0.31437,-0.06351 l 0.0476,-0.01905 z" />
      <path
         id="path39018"
         style="fill:#f58220;fill-opacity:1;stroke-width:0.26458332"
         d="m 103.30996,15.380442 h -0.43822 v 0.698602 q 0,0.193703 0.0286,0.257212 0.0286,0.06351 0.14607,0.06351 l 0.26039,-0.0095 0.0159,0.276265 q -0.21276,0.04128 -0.3239,0.04128 -0.26991,0 -0.37153,-0.123843 -0.0984,-0.123843 -0.0984,-0.466793 v -0.736707 h -0.20323 V 15.08515 h 0.20323 v -0.460443 h 0.34295 v 0.460443 h 0.43822 z" />
      <path
         id="path39020"
         style="fill:#f58220;fill-opacity:1;stroke-width:0.26458332"
         d="m 103.83073,15.393144 v -0.30802 h 1.1781 v 0.30802 l -0.76211,0.971691 h 0.76211 v 0.30802 h -1.1781 v -0.30802 l 0.76529,-0.971691 z" />
      <path
         id="path39022"
         style="fill:#f58220;fill-opacity:1;stroke-width:0.26458332"
         d="m 106.63149,15.085124 h 0.34295 v 1.587731 h -0.34295 v -0.09844 q -0.23181,0.133369 -0.42869,0.133369 -0.32707,0 -0.43821,-0.17465 -0.11115,-0.177826 -0.11115,-0.619215 v -0.828796 h 0.34613 v 0.831971 q 0,0.285792 0.0476,0.384231 0.0476,0.09844 0.22228,0.09844 0.17148,0 0.31438,-0.06351 l 0.0476,-0.01905 z" />
      <path
         id="path39024"
         style="fill:#f58220;fill-opacity:1;stroke-width:0.26458332"
         d="m 108.05727,16.672855 h -0.34613 v -1.587731 h 0.34295 v 0.09844 q 0.23181,-0.13337 0.43822,-0.13337 0.31754,0 0.43186,0.181002 0.11749,0.177826 0.11749,0.590636 v 0.851024 h -0.34295 v -0.841497 q 0,-0.257213 -0.0572,-0.365179 -0.054,-0.107966 -0.22545,-0.107966 -0.16195,0 -0.3112,0.06351 l -0.0476,0.01905 z" />
      <path
         id="path39026"
         style="fill:#f58220;fill-opacity:1;stroke-width:0.26458332"
         d="m 111.15017,16.888787 q 0,0.520776 -0.75259,0.520776 -0.362,0 -0.53665,-0.09844 -0.17465,-0.09844 -0.17465,-0.358828 0,-0.117492 0.0572,-0.203229 0.0572,-0.08256 0.18417,-0.181002 -0.10479,-0.06986 -0.10479,-0.231809 0,-0.06351 0.0857,-0.206405 l 0.0286,-0.04763 q -0.22863,-0.136545 -0.22863,-0.476319 0,-0.285792 0.17147,-0.419162 0.17148,-0.133369 0.46362,-0.133369 0.13972,0 0.27627,0.03176 l 0.0476,0.0095 0.49219,-0.0127 v 0.279441 l -0.26356,-0.01588 q 0.0857,0.111141 0.0857,0.260388 0,0.311195 -0.15877,0.431863 -0.1556,0.117492 -0.48903,0.117492 -0.0826,0 -0.13972,-0.0127 -0.0444,0.107966 -0.0444,0.1683 0,0.05716 0.0572,0.07939 0.0603,0.02223 0.28579,0.0254 0.37788,0.0032 0.5176,0.101615 0.13972,0.09844 0.13972,0.371529 z m -1.12412,0.03176 q 0,0.111141 0.0889,0.158773 0.0889,0.04763 0.30484,0.04763 0.38423,0 0.38423,-0.219107 0,-0.123843 -0.0699,-0.158773 -0.0667,-0.03176 -0.26991,-0.03493 l -0.3112,-0.01905 q -0.0699,0.05716 -0.0984,0.10479 -0.0286,0.05081 -0.0286,0.120668 z m 0.0254,-1.314642 q 0,0.146071 0.0699,0.215931 0.0699,0.06668 0.22546,0.06668 0.15559,0 0.22228,-0.06668 0.0699,-0.06986 0.0699,-0.215931 0,-0.146072 -0.0699,-0.212756 -0.0699,-0.06986 -0.22546,-0.06986 -0.29214,0 -0.29214,0.282617 z" />
      <path
         id="path39028"
         style="fill:#f58220;fill-opacity:1;stroke-width:0.26458332"
         d="m 114.05889,14.424627 v 2.248228 h -0.34295 v -0.08256 q -0.23181,0.117492 -0.42551,0.117492 -0.3112,0 -0.45727,-0.187352 -0.1429,-0.187352 -0.1429,-0.628742 0,-0.441389 0.15878,-0.641443 0.16195,-0.200055 0.50172,-0.200055 0.11432,0 0.362,0.04128 v -0.666847 z m -0.40011,1.91798 0.054,-0.02223 V 15.38044 q -0.19053,-0.03176 -0.35247,-0.03176 -0.32073,0 -0.32073,0.533478 0,0.292143 0.073,0.406459 0.0762,0.111142 0.23816,0.111142 0.16195,0 0.30802,-0.05716 z" />
      <path
         id="path39030"
         style="fill:#f58220;fill-opacity:1;stroke-width:0.26458332"
         d="m 115.92606,16.387064 0.0889,-0.0095 0.006,0.257213 q -0.362,0.07304 -0.64144,0.07304 -0.35248,0 -0.50807,-0.193703 -0.15243,-0.193703 -0.15243,-0.619215 0,-0.844674 0.68908,-0.844674 0.66685,0 0.66685,0.727182 l -0.0222,0.247686 h -0.9844 q 0.003,0.196879 0.0857,0.288967 0.0826,0.09209 0.30802,0.09209 0.22546,0 0.46362,-0.01905 z m -0.19053,-0.628742 q 0,-0.234984 -0.0762,-0.327073 -0.073,-0.09526 -0.25086,-0.09526 -0.17783,0 -0.26039,0.09844 -0.0794,0.09844 -0.0826,0.323897 z" />
      <path
         id="path39032"
         style="fill:#f58220;fill-opacity:1;stroke-width:0.26458332"
         d="m 116.72627,16.672855 v -1.587731 h 0.34295 v 0.190527 q 0.26992,-0.17465 0.53983,-0.225458 v 0.346126 q -0.27309,0.05398 -0.46679,0.13972 l -0.0699,0.02858 v 1.108236 z" />
      <path
         id="path39034"
         style="fill:#f58220;fill-opacity:1;stroke-width:0.26458332"
         d="m 119.55243,16.672855 h -0.34613 v -1.587731 h 0.34295 v 0.09844 q 0.23181,-0.13337 0.43822,-0.13337 0.31754,0 0.43186,0.181002 0.11749,0.177826 0.11749,0.590636 v 0.851024 h -0.34295 v -0.841497 q 0,-0.257213 -0.0572,-0.365179 -0.054,-0.107966 -0.22545,-0.107966 -0.16195,0 -0.3112,0.06351 l -0.0476,0.01905 z" />
      <path
         id="path39036"
         style="fill:#f58220;fill-opacity:1;stroke-width:0.26458332"
         d="m 122.38811,16.387064 0.0889,-0.0095 0.006,0.257213 q -0.362,0.07304 -0.64145,0.07304 -0.35247,0 -0.50807,-0.193703 -0.15242,-0.193703 -0.15242,-0.619215 0,-0.844674 0.68907,-0.844674 0.66685,0 0.66685,0.727182 l -0.0222,0.247686 h -0.98439 q 0.003,0.196879 0.0857,0.288967 0.0826,0.09209 0.30802,0.09209 0.22545,0 0.46361,-0.01905 z m -0.19052,-0.628742 q 0,-0.234984 -0.0762,-0.327073 -0.073,-0.09526 -0.25087,-0.09526 -0.17782,0 -0.26038,0.09844 -0.0794,0.09844 -0.0826,0.323897 z" />
      <path
         id="path39038"
         style="fill:#f58220;fill-opacity:1;stroke-width:0.26458332"
         d="m 124.1505,15.085124 h 0.34295 v 1.587731 h -0.34295 v -0.09844 q -0.23181,0.133369 -0.42869,0.133369 -0.32707,0 -0.43821,-0.17465 -0.11114,-0.177826 -0.11114,-0.619215 v -0.828796 h 0.34612 v 0.831971 q 0,0.285792 0.0476,0.384231 0.0476,0.09844 0.22229,0.09844 0.17147,0 0.31437,-0.06351 l 0.0476,-0.01905 z" />
      <path
         id="path39040"
         style="fill:#f58220;fill-opacity:1;stroke-width:0.26458332"
         d="m 126.36062,16.387064 0.0889,-0.0095 0.006,0.257213 q -0.362,0.07304 -0.64144,0.07304 -0.35248,0 -0.50808,-0.193703 -0.15242,-0.193703 -0.15242,-0.619215 0,-0.844674 0.68908,-0.844674 0.66685,0 0.66685,0.727182 l -0.0222,0.247686 h -0.9844 q 0.003,0.196879 0.0857,0.288967 0.0826,0.09209 0.30802,0.09209 0.22546,0 0.46362,-0.01905 z m -0.19053,-0.628742 q 0,-0.234984 -0.0762,-0.327073 -0.073,-0.09526 -0.25086,-0.09526 -0.17783,0 -0.26039,0.09844 -0.0794,0.09844 -0.0826,0.323897 z" />
      <path
         id="path39042"
         style="fill:#f58220;fill-opacity:1;stroke-width:0.26458332"
         d="m 127.50696,16.672855 h -0.34613 v -1.587731 h 0.34295 v 0.09844 q 0.23181,-0.13337 0.43822,-0.13337 0.31754,0 0.43186,0.181002 0.11749,0.177826 0.11749,0.590636 v 0.851024 h -0.34295 v -0.841497 q 0,-0.257213 -0.0572,-0.365179 -0.054,-0.107966 -0.22545,-0.107966 -0.16195,0 -0.3112,0.06351 l -0.0476,0.01905 z" />
      <path
         id="path39044"
         style="fill:#f58220;fill-opacity:1;stroke-width:0.26458332"
         d="m 131.15556,15.840884 v -0.311196 h 0.61922 v 1.105062 q -0.0857,0.02223 -0.3493,0.04763 -0.26039,0.0254 -0.37788,0.0254 -0.49538,0 -0.68273,-0.273089 -0.18735,-0.27309 -0.18735,-0.8542 0,-0.584285 0.19053,-0.851024 0.1937,-0.266739 0.66684,-0.266739 0.27944,0 0.62875,0.06351 l 0.11114,0.02223 -0.0127,0.279441 q -0.38423,-0.05081 -0.68907,-0.05081 -0.30485,0 -0.41916,0.171475 -0.11114,0.171475 -0.11114,0.635092 0,0.463618 0.10479,0.641444 0.10796,0.174651 0.43186,0.174651 0.23181,0 0.34613,-0.02858 v -0.530302 z" />
      <path
         id="path39046"
         style="fill:#f58220;fill-opacity:1;stroke-width:0.26458332"
         d="m 132.49243,16.672855 v -1.587731 h 0.34295 v 0.190527 q 0.26991,-0.17465 0.53983,-0.225458 v 0.346126 q -0.27309,0.05398 -0.4668,0.13972 l -0.0699,0.02858 v 1.108236 z" />
      <path
         id="path39048"
         style="fill:#f58220;fill-opacity:1;stroke-width:0.26458332"
         d="m 134.02934,15.256599 q 0.16513,-0.206406 0.54618,-0.206406 0.38106,0 0.54301,0.206406 0.16512,0.206405 0.16512,0.619215 0,0.41281 -0.15877,0.622391 -0.15878,0.20958 -0.54936,0.20958 -0.39058,0 -0.54935,-0.20958 -0.15878,-0.209581 -0.15878,-0.622391 0,-0.41281 0.16195,-0.619215 z m 0.26039,1.032025 q 0.073,0.127019 0.28579,0.127019 0.21276,0 0.28579,-0.127019 0.073,-0.127018 0.073,-0.415985 0,-0.288968 -0.0794,-0.409635 -0.0762,-0.120668 -0.27944,-0.120668 -0.20323,0 -0.28261,0.120668 -0.0762,0.120667 -0.0762,0.409635 0,0.288967 0.073,0.415985 z m -0.21593,-1.543275 v -0.362003 h 0.33025 v 0.362003 z m 0.66367,0 v -0.362003 h 0.33025 v 0.362003 z" />
      <path
         id="path39050"
         style="fill:#f58220;fill-opacity:1;stroke-width:0.26458332"
         d="m 136.29027,16.672855 h -0.34613 v -1.689346 q 0,-0.323898 0.15878,-0.457267 0.15877,-0.136545 0.5176,-0.136545 0.35882,0 0.52395,0.114317 0.16512,0.111141 0.16512,0.368353 0,0.1683 -0.0667,0.254038 -0.0635,0.08256 -0.19688,0.142895 -0.13337,0.06033 -0.1683,0.08891 -0.0349,0.02858 -0.0349,0.07304 0,0.04446 0.0508,0.08574 0.054,0.0381 0.26038,0.136545 0.20641,0.09844 0.29215,0.196878 0.0889,0.09844 0.0889,0.282617 0,0.320721 -0.14607,0.44774 -0.14607,0.127018 -0.49537,0.127018 -0.18101,0 -0.38423,-0.04446 l -0.073,-0.01588 0.0127,-0.279441 q 0.29214,0.03493 0.44139,0.03493 0.28897,0 0.28897,-0.219107 0,-0.09526 -0.0572,-0.146071 -0.054,-0.05081 -0.25721,-0.146072 -0.21276,-0.09209 -0.29532,-0.184177 -0.0826,-0.09526 -0.0826,-0.238159 0,-0.146072 0.0572,-0.225458 0.0572,-0.07939 0.18735,-0.13337 0.13337,-0.05716 0.17782,-0.101615 0.0445,-0.04446 0.0445,-0.133369 0,-0.08891 -0.0699,-0.13337 -0.0699,-0.04763 -0.26039,-0.04763 -0.18735,0 -0.26039,0.06668 -0.073,0.06668 -0.073,0.23816 z" />
      <path
         id="path39052"
         style="fill:#f58220;fill-opacity:1;stroke-width:0.26458332"
         d="m 139.28155,16.387064 0.0889,-0.0095 0.006,0.257213 q -0.36201,0.07304 -0.64145,0.07304 -0.35248,0 -0.50807,-0.193703 -0.15243,-0.193703 -0.15243,-0.619215 0,-0.844674 0.68908,-0.844674 0.66685,0 0.66685,0.727182 l -0.0222,0.247686 h -0.98439 q 0.003,0.196879 0.0857,0.288967 0.0826,0.09209 0.30802,0.09209 0.22546,0 0.46362,-0.01905 z m -0.19053,-0.628742 q 0,-0.234984 -0.0762,-0.327073 -0.073,-0.09526 -0.25086,-0.09526 -0.17783,0 -0.26039,0.09844 -0.0794,0.09844 -0.0826,0.323897 z" />
      <path
         id="path39054"
         style="fill:#f58220;fill-opacity:1;stroke-width:0.26458332"
         d="m 140.42789,16.672855 h -0.34612 v -1.587731 h 0.34295 v 0.09844 q 0.23181,-0.13337 0.43821,-0.13337 0.31755,0 0.43187,0.181002 0.11749,0.177826 0.11749,0.590636 v 0.851024 h -0.34295 v -0.841497 q 0,-0.257213 -0.0572,-0.365179 -0.054,-0.107966 -0.22546,-0.107966 -0.16195,0 -0.31119,0.06351 l -0.0476,0.01905 z" />
      <path
         id="path39056"
         style="fill:#f58220;fill-opacity:1;stroke-width:0.26458332"
         d="m 143.14926,16.672855 v -1.587731 h 0.34613 v 1.587731 z m 0,-1.857646 v -0.365178 h 0.34613 v 0.365178 z" />
      <path
         id="path39058"
         style="fill:#f58220;fill-opacity:1;stroke-width:0.26458332"
         d="m 144.57822,16.672855 h -0.34613 v -1.587731 h 0.34295 v 0.09844 q 0.23181,-0.13337 0.43822,-0.13337 0.31754,0 0.43186,0.181002 0.11749,0.177826 0.11749,0.590636 v 0.851024 h -0.34295 v -0.841497 q 0,-0.257213 -0.0572,-0.365179 -0.054,-0.107966 -0.22546,-0.107966 -0.16194,0 -0.31119,0.06351 l -0.0476,0.01905 z" />
      <path
         id="path39060"
         style="fill:#f58220;fill-opacity:1;stroke-width:0.26458332"
         d="m 148.59518,14.424627 v 2.248228 h -0.34295 v -0.08256 q -0.23181,0.117492 -0.42551,0.117492 -0.3112,0 -0.45727,-0.187352 -0.1429,-0.187352 -0.1429,-0.628742 0,-0.441389 0.15878,-0.641443 0.16194,-0.200055 0.50172,-0.200055 0.11432,0 0.362,0.04128 v -0.666847 z m -0.40011,1.91798 0.054,-0.02223 V 15.38044 q -0.19053,-0.03176 -0.35247,-0.03176 -0.32073,0 -0.32073,0.533478 0,0.292143 0.073,0.406459 0.0762,0.111142 0.23816,0.111142 0.16195,0 0.30802,-0.05716 z" />
      <path
         id="path39062"
         style="fill:#f58220;fill-opacity:1;stroke-width:0.26458332"
         d="m 150.46234,16.387064 0.0889,-0.0095 0.006,0.257213 q -0.362,0.07304 -0.64144,0.07304 -0.35248,0 -0.50808,-0.193703 -0.15242,-0.193703 -0.15242,-0.619215 0,-0.844674 0.68907,-0.844674 0.66685,0 0.66685,0.727182 l -0.0222,0.247686 h -0.98439 q 0.003,0.196879 0.0857,0.288967 0.0826,0.09209 0.30802,0.09209 0.22546,0 0.46361,-0.01905 z m -0.19052,-0.628742 q 0,-0.234984 -0.0762,-0.327073 -0.073,-0.09526 -0.25087,-0.09526 -0.17782,0 -0.26038,0.09844 -0.0794,0.09844 -0.0826,0.323897 z" />
      <path
         id="path39064"
         style="fill:#f58220;fill-opacity:1;stroke-width:0.26458332"
         d="m 151.60868,16.672855 h -0.34612 v -1.587731 h 0.34295 v 0.09844 q 0.23181,-0.13337 0.43821,-0.13337 0.31755,0 0.43187,0.181002 0.11749,0.177826 0.11749,0.590636 v 0.851024 h -0.34295 v -0.841497 q 0,-0.257213 -0.0572,-0.365179 -0.054,-0.107966 -0.22546,-0.107966 -0.16195,0 -0.31119,0.06351 l -0.0476,0.01905 z" />
      <path
         id="path39066"
         style="fill:#f58220;fill-opacity:1;stroke-width:0.26458332"
         d="m 155.57484,14.497663 h 0.36835 l -0.53348,2.175192 h -0.69225 l -0.53347,-2.175192 h 0.36835 l 0.43186,1.863997 h 0.15878 z" />
      <path
         id="path39068"
         style="fill:#f58220;fill-opacity:1;stroke-width:0.26458332"
         d="m 156.5751,16.672855 v -2.175192 h 0.61287 l 0.48584,1.698873 0.48585,-1.698873 h 0.61604 v 2.175192 h -0.35565 v -1.78461 h -0.0476 l -0.51443,1.695697 h -0.36835 l -0.51443,-1.695697 h -0.0476 v 1.78461 z" />
      <path
         id="path39070"
         style="fill:#f58220;fill-opacity:1;stroke-width:0.26458332"
         d="m 160.6524,15.412196 q -0.3747,-0.05081 -0.543,-0.05081 -0.1683,0 -0.23499,0.04128 -0.0635,0.0381 -0.0635,0.123843 0,0.08574 0.0699,0.120668 0.073,0.03493 0.3366,0.08256 0.26674,0.04446 0.37788,0.142896 0.11114,0.09844 0.11114,0.349301 0,0.250861 -0.16194,0.368353 -0.15878,0.117492 -0.4668,0.117492 -0.1937,0 -0.48902,-0.05398 l -0.0984,-0.01588 0.0127,-0.288967 q 0.38106,0.05081 0.54936,0.05081 0.1683,0 0.23816,-0.04128 0.073,-0.04128 0.073,-0.136544 0,-0.09526 -0.0699,-0.130194 -0.0667,-0.03811 -0.32707,-0.07939 -0.25721,-0.04446 -0.37788,-0.136545 -0.12067,-0.09209 -0.12067,-0.336599 0,-0.244511 0.16513,-0.365178 0.1683,-0.120668 0.42869,-0.120668 0.20322,0 0.49854,0.05081 l 0.0984,0.01905 z" />
      <path
         id="path39072"
         style="fill:#f58220;fill-opacity:1;stroke-width:0.26458332"
         d="m 161.34147,16.672855 v -0.457266 h 0.37153 v 0.457266 z" />
    </g>
  </g>
</svg>
