<?xml version="1.0" encoding="UTF-8" standalone="no"?>
<!-- Created with Inkscape (http://www.inkscape.org/) -->

<svg
   xmlns:dc="http://purl.org/dc/elements/1.1/"
   xmlns:cc="http://creativecommons.org/ns#"
   xmlns:rdf="http://www.w3.org/1999/02/22-rdf-syntax-ns#"
   xmlns:svg="http://www.w3.org/2000/svg"
   xmlns="http://www.w3.org/2000/svg"
   xmlns:sodipodi="http://sodipodi.sourceforge.net/DTD/sodipodi-0.dtd"
   xmlns:inkscape="http://www.inkscape.org/namespaces/inkscape"
   width="259.2554mm"
   height="77.217102mm"
   viewBox="0 0 259.2554 77.217102"
   version="1.1"
   id="svg17593"
   inkscape:version="0.92.5 (2060ec1f9f, 2020-04-08)"
   sodipodi:docname="overview-installation-process_02_part2.svg">
  <defs
     id="defs17587">
    <marker
       style="overflow:visible"
       id="marker19839-1-2"
       refX="0"
       refY="0"
       orient="auto">
      <path
         inkscape:connector-curvature="0"
         transform="matrix(-0.4,0,0,-0.4,-4,0)"
         style="fill:#f58220;fill-opacity:1;fill-rule:evenodd;stroke:#f58220;stroke-width:1.00000003pt;stroke-opacity:1"
         d="M 0,0 5,-5 -12.5,0 5,5 Z"
         id="path19837-8-8" />
    </marker>
    <marker
       style="overflow:visible"
       id="marker23093-2-9"
       refX="0"
       refY="0"
       orient="auto">
      <path
         inkscape:connector-curvature="0"
         transform="matrix(-0.4,0,0,-0.4,-4,0)"
         style="fill:#0c2842;fill-opacity:1;fill-rule:evenodd;stroke:#0c2842;stroke-width:1.00000003pt;stroke-opacity:1"
         d="M 0,0 5,-5 -12.5,0 5,5 Z"
         id="path23091-0-0" />
    </marker>
    <marker
       style="overflow:visible"
       id="marker19663-7-81"
       refX="0"
       refY="0"
       orient="auto">
      <path
         inkscape:connector-curvature="0"
         transform="matrix(-0.4,0,0,-0.4,-4,0)"
         style="fill:#0c2842;fill-opacity:1;fill-rule:evenodd;stroke:#0c2842;stroke-width:1.00000003pt;stroke-opacity:1"
         d="M 0,0 5,-5 -12.5,0 5,5 Z"
         id="path19661-9-31" />
    </marker>
    <marker
       orient="auto"
       refY="0"
       refX="0"
       id="Arrow1Mstart-0-1"
       style="overflow:visible">
      <path
         inkscape:connector-curvature="0"
         id="path1043-6-0"
         d="M 0,0 5,-5 -12.5,0 5,5 Z"
         style="fill:#0c2842;fill-opacity:1;fill-rule:evenodd;stroke:#0c2842;stroke-width:1.00000003pt;stroke-opacity:1"
         transform="matrix(0.4,0,0,0.4,4,0)" />
    </marker>
    <marker
       style="overflow:visible"
       id="marker15099-3-3"
       refX="0"
       refY="0"
       orient="auto">
      <path
         inkscape:connector-curvature="0"
         transform="matrix(-0.4,0,0,-0.4,-4,0)"
         style="fill:#0c2842;fill-opacity:1;fill-rule:evenodd;stroke:#0c2842;stroke-width:1.00000003pt;stroke-opacity:1"
         d="M 0,0 5,-5 -12.5,0 5,5 Z"
         id="path15097-6-40" />
    </marker>
    <marker
       style="overflow:visible"
       id="marker15607-0-3"
       refX="0"
       refY="0"
       orient="auto">
      <path
         inkscape:connector-curvature="0"
         transform="matrix(-0.4,0,0,-0.4,-4,0)"
         style="fill:#0c2842;fill-opacity:1;fill-rule:evenodd;stroke:#0c2842;stroke-width:1.00000003pt;stroke-opacity:1"
         d="M 0,0 5,-5 -12.5,0 5,5 Z"
         id="path15605-9-9" />
    </marker>
    <marker
       style="overflow:visible"
       id="marker18481"
       refX="0"
       refY="0"
       orient="auto">
      <path
         inkscape:connector-curvature="0"
         transform="matrix(-0.4,0,0,-0.4,-4,0)"
         style="fill:#0c2842;fill-opacity:1;fill-rule:evenodd;stroke:#0c2842;stroke-width:1.00000003pt;stroke-opacity:1"
         d="M 0,0 5,-5 -12.5,0 5,5 Z"
         id="path18479" />
    </marker>
    <marker
       style="overflow:visible"
       id="marker17123-6-69"
       refX="0"
       refY="0"
       orient="auto">
      <path
         inkscape:connector-curvature="0"
         transform="matrix(-0.4,0,0,-0.4,-4,0)"
         style="fill:#0c2842;fill-opacity:1;fill-rule:evenodd;stroke:#0c2842;stroke-width:1.00000003pt;stroke-opacity:1"
         d="M 0,0 5,-5 -12.5,0 5,5 Z"
         id="path17121-2-33" />
    </marker>
    <marker
       orient="auto"
       refY="0"
       refX="0"
       id="marker23445-8"
       style="overflow:visible">
      <path
         inkscape:connector-curvature="0"
         id="path23443-0"
         d="M 0,0 5,-5 -12.5,0 5,5 Z"
         style="fill:#0c2842;fill-opacity:1;fill-rule:evenodd;stroke:#0c2842;stroke-width:1.00000003pt;stroke-opacity:1"
         transform="matrix(0.4,0,0,0.4,4,0)" />
    </marker>
    <marker
       orient="auto"
       refY="0"
       refX="0"
       id="marker19663-7-8-56"
       style="overflow:visible">
      <path
         inkscape:connector-curvature="0"
         id="path19661-9-1-6"
         d="M 0,0 5,-5 -12.5,0 5,5 Z"
         style="fill:#0c2842;fill-opacity:1;fill-rule:evenodd;stroke:#0c2842;stroke-width:1.00000003pt;stroke-opacity:1"
         transform="matrix(-0.4,0,0,-0.4,-4,0)" />
    </marker>
    <marker
       orient="auto"
       refY="0"
       refX="0"
       id="marker23093-1-3"
       style="overflow:visible">
      <path
         inkscape:connector-curvature="0"
         id="path23091-1-6"
         d="M 0,0 5,-5 -12.5,0 5,5 Z"
         style="fill:#0c2842;fill-opacity:1;fill-rule:evenodd;stroke:#0c2842;stroke-width:1.00000003pt;stroke-opacity:1"
         transform="matrix(-0.4,0,0,-0.4,-4,0)" />
    </marker>
  </defs>
  <sodipodi:namedview
     id="base"
     pagecolor="#ffffff"
     bordercolor="#666666"
     borderopacity="1.0"
     inkscape:pageopacity="0.0"
     inkscape:pageshadow="2"
     inkscape:zoom="0.35"
     inkscape:cx="-305.78282"
     inkscape:cy="437.35065"
     inkscape:document-units="mm"
     inkscape:current-layer="layer1"
     showgrid="false"
     inkscape:window-width="1854"
     inkscape:window-height="1051"
     inkscape:window-x="66"
     inkscape:window-y="0"
     inkscape:window-maximized="1"
     fit-margin-top="0"
     fit-margin-left="0"
     fit-margin-right="0"
     fit-margin-bottom="0" />
  <metadata
     id="metadata17590">
    <rdf:RDF>
      <cc:Work
         rdf:about="">
        <dc:format>image/svg+xml</dc:format>
        <dc:type
           rdf:resource="http://purl.org/dc/dcmitype/StillImage" />
        <dc:title></dc:title>
      </cc:Work>
    </rdf:RDF>
  </metadata>
  <g
     inkscape:label="Ebene 1"
     inkscape:groupmode="layer"
     id="layer1"
     transform="translate(-32.146111,-187.33192)">
    <rect
       style="display:inline;fill:#ffffff;fill-opacity:1;stroke:none;stroke-width:0.42333335;stroke-linecap:butt;stroke-linejoin:round;stroke-miterlimit:4;stroke-dasharray:none;stroke-opacity:1"
       id="rect17581"
       width="259.2554"
       height="76.320099"
       x="32.146111"
       y="187.39467" />
    <path
       inkscape:connector-curvature="0"
       id="path5355-6-7"
       d="m 276.85056,187.39467 1e-5,72.81203 v 3.50807"
       style="display:inline;fill:none;fill-rule:evenodd;stroke:#0c2842;stroke-width:0.42333335;stroke-linecap:butt;stroke-linejoin:miter;stroke-miterlimit:4;stroke-dasharray:none;stroke-opacity:1;marker-end:url(#marker23093-1-3)" />
    <path
       inkscape:connector-curvature="0"
       id="path12440-2-2-8"
       d="m 103.94815,246.38799 v 5.20338 H 47.546607"
       style="display:inline;fill:none;fill-rule:evenodd;stroke:#0c2842;stroke-width:0.42333332;stroke-linecap:butt;stroke-linejoin:miter;stroke-miterlimit:4;stroke-dasharray:none;stroke-opacity:1;marker-end:url(#marker19663-7-8-56)" />
    <path
       inkscape:connector-curvature="0"
       style="display:inline;fill:none;fill-rule:evenodd;stroke:#0c2842;stroke-width:0.42333332;stroke-linecap:butt;stroke-linejoin:miter;stroke-miterlimit:4;stroke-dasharray:none;stroke-opacity:1;marker-start:url(#marker23445-8)"
       d="m 103.94815,239.71438 v -9.96467"
       id="path12638-9-3" />
    <path
       inkscape:connector-curvature="0"
       style="display:inline;fill:none;fill-rule:evenodd;stroke:#0c2842;stroke-width:0.42333332;stroke-linecap:butt;stroke-linejoin:miter;stroke-miterlimit:4;stroke-dasharray:none;stroke-opacity:1;marker-end:url(#marker17123-6-69)"
       d="m 136.80668,214.01427 h 33.30497 v 10.20894"
       id="path3638-2-3" />
    <path
       inkscape:connector-curvature="0"
       style="display:inline;fill:#000000;fill-opacity:0;fill-rule:evenodd;stroke:#0c2842;stroke-width:0.42333332;stroke-linecap:butt;stroke-linejoin:miter;stroke-miterlimit:4;stroke-dasharray:none;stroke-opacity:1;marker-end:url(#marker15607-0-3)"
       d="m 108.19944,214.01426 28.60724,1e-5 0.14686,9.36453"
       id="path3636-8-3" />
    <path
       inkscape:connector-curvature="0"
       style="display:inline;fill:none;fill-rule:evenodd;stroke:#0c2842;stroke-width:0.42333332;stroke-linecap:butt;stroke-linejoin:miter;stroke-miterlimit:4;stroke-dasharray:none;stroke-opacity:1;marker-end:url(#marker15607-0-3)"
       d="m 103.94816,218.43226 -1e-5,4.99052"
       id="path3634-9-8" />
    <path
       inkscape:connector-curvature="0"
       style="display:inline;fill:none;fill-rule:evenodd;stroke:#0c2842;stroke-width:0.42333332;stroke-linecap:butt;stroke-linejoin:miter;stroke-miterlimit:4;stroke-dasharray:none;stroke-opacity:1;marker-end:url(#marker15099-3-3)"
       d="m 103.94815,203.89178 v 4.75433"
       id="path3632-7-0" />
    <path
       inkscape:connector-curvature="0"
       style="display:inline;fill:none;fill-rule:evenodd;stroke:#0c2842;stroke-width:0.42333332;stroke-linecap:butt;stroke-linejoin:miter;stroke-miterlimit:4;stroke-dasharray:none;stroke-opacity:1;marker-start:url(#Arrow1Mstart-0-1)"
       d="m 103.96902,197.46157 -0.0209,-4.42965 -52.979891,0.017"
       id="path12626-3-4" />
    <path
       inkscape:connector-curvature="0"
       style="display:inline;fill:none;fill-rule:evenodd;stroke:#0c2842;stroke-width:0.42333332;stroke-linecap:butt;stroke-linejoin:miter;stroke-miterlimit:4;stroke-dasharray:none;stroke-opacity:1;marker-end:url(#marker19663-7-81)"
       d="m 136.9365,229.74976 1e-5,5.52744 h -32.44234"
       id="path12440-2-7" />
    <path
       inkscape:connector-curvature="0"
       style="display:inline;fill:none;fill-rule:evenodd;stroke:#0c2842;stroke-width:0.42333332;stroke-linecap:butt;stroke-linejoin:miter;stroke-miterlimit:4;stroke-dasharray:none;stroke-opacity:1;marker-end:url(#marker23093-2-9)"
       d="m 170.09573,229.74992 -0.14686,5.52728 h -33.01236"
       id="path5371-6-6" />
    <path
       inkscape:connector-curvature="0"
       id="rect6961-2-0-7-0-7-9-3-4"
       style="font-style:normal;font-variant:normal;font-weight:normal;font-stretch:normal;font-size:6.3499999px;line-height:125%;font-family:'Titillium Web';-inkscape-font-specification:'Titillium Web, Normal';text-align:start;letter-spacing:0px;word-spacing:1.32291996px;writing-mode:lr-tb;text-anchor:start;display:inline;vector-effect:none;fill:#0c2842;fill-opacity:1;fill-rule:evenodd;stroke:#0c2842;stroke-width:0.42333332;stroke-linecap:square;stroke-linejoin:round;stroke-miterlimit:4;stroke-dasharray:none;stroke-dashoffset:0;stroke-opacity:1"
       d="m 89.834652,198.55847 h 94.630988 v 5.48833 H 89.834652 Z" />
    <rect
       style="display:inline;vector-effect:none;fill:#0c2842;fill-opacity:1;fill-rule:evenodd;stroke:#0c2842;stroke-width:0.42333332;stroke-linecap:square;stroke-linejoin:round;stroke-miterlimit:4;stroke-dasharray:none;stroke-dashoffset:0;stroke-opacity:1"
       id="rect6961-3-7-1-1-9"
       width="94.598061"
       height="5.4727774"
       x="89.867592"
       y="240.80377" />
    <rect
       style="display:inline;vector-effect:none;fill:#f58220;fill-opacity:1;fill-rule:evenodd;stroke:#f58220;stroke-width:0.42333332;stroke-linecap:square;stroke-linejoin:round;stroke-miterlimit:4;stroke-dasharray:none;stroke-dashoffset:0;stroke-opacity:1"
       id="rect6975-2-3-0"
       width="6.249403"
       height="6.249402"
       x="-172.56845"
       y="-106.67743"
       transform="rotate(-134.98732)" />
    <rect
       style="display:inline;vector-effect:none;fill:#0c2842;fill-opacity:1;fill-rule:evenodd;stroke:none;stroke-width:0.141698;stroke-linecap:square;stroke-linejoin:round;stroke-miterlimit:4;stroke-dasharray:none;stroke-dashoffset:0;stroke-opacity:1"
       id="rect6961-3-5-5-6-2"
       width="28.738043"
       height="5.5265493"
       x="122.56764"
       y="224.22331" />
    <rect
       style="display:inline;vector-effect:none;fill:#0c2842;fill-opacity:1;fill-rule:evenodd;stroke:none;stroke-width:0.141698;stroke-linecap:square;stroke-linejoin:round;stroke-miterlimit:4;stroke-dasharray:none;stroke-dashoffset:0;stroke-opacity:1"
       id="rect6961-3-6-2-7-0"
       width="28.738056"
       height="5.5265493"
       x="155.72714"
       y="224.22331" />
    <rect
       style="display:inline;vector-effect:none;fill:#f58220;fill-opacity:1;fill-rule:evenodd;stroke:none;stroke-width:0.14047199;stroke-linecap:square;stroke-linejoin:round;stroke-miterlimit:4;stroke-dasharray:none;stroke-dashoffset:0;stroke-opacity:1"
       id="rect6961-3-9-8-1"
       width="28.242805"
       height="5.5265493"
       x="89.655922"
       y="224.22409" />
    <rect
       style="display:inline;vector-effect:none;fill:#0c2842;fill-opacity:1;fill-rule:evenodd;stroke:#f58220;stroke-width:0.42333332;stroke-linecap:square;stroke-linejoin:round;stroke-miterlimit:4;stroke-dasharray:none;stroke-dashoffset:0;stroke-opacity:1"
       id="rect6975-7-8-9"
       width="6.249403"
       height="6.249402"
       x="-227.97528"
       y="-80.902039"
       transform="rotate(-134.98732)" />
    <path
       inkscape:connector-curvature="0"
       style="display:inline;fill:none;fill-rule:evenodd;stroke:#f58220;stroke-width:0.42333332;stroke-linecap:butt;stroke-linejoin:miter;stroke-miterlimit:4;stroke-dasharray:none;stroke-opacity:1;marker-end:url(#marker19839-1-2)"
       d="m 46.537173,191.90207 0.01307,70.74237"
       id="path12391-2-6" />
    <path
       inkscape:connector-curvature="0"
       id="rect6961-2-0-7-0-3-2"
       style="display:inline;vector-effect:none;fill:#0c2842;fill-opacity:1;fill-rule:evenodd;stroke:#0c2842;stroke-width:0.42333332;stroke-linecap:square;stroke-linejoin:round;stroke-miterlimit:4;stroke-dasharray:none;stroke-dashoffset:0;stroke-opacity:1"
       d="m 89.834652,187.54359 h 94.630988 v 5.48833 H 89.834652 Z" />
    <text
       xml:space="preserve"
       style="font-style:italic;font-variant:normal;font-weight:600;font-stretch:normal;font-size:6.3499999px;line-height:1.25;font-family:'Titillium Web';-inkscape-font-specification:'Titillium Web, Semi-Bold Italic';font-variant-ligatures:normal;font-variant-caps:normal;font-variant-numeric:normal;text-align:start;letter-spacing:4.4529376px;word-spacing:0px;writing-mode:lr-tb;text-anchor:start;display:inline;fill:#0c2842;fill-opacity:1;stroke:none;stroke-width:0.26458332"
       x="139.34123"
       y="193.664"
       id="text728-6-1"><tspan
         id="tspan734-3-2"
         style="font-style:normal;font-variant:normal;font-weight:600;font-stretch:normal;font-size:2.64583325px;font-family:'Titillium Web';-inkscape-font-specification:'Titillium Web, Semi-Bold';font-variant-ligatures:normal;font-variant-caps:normal;font-variant-numeric:normal;font-feature-settings:normal;text-align:start;letter-spacing:4.4529376px;writing-mode:lr-tb;text-anchor:start;fill:#0c2842;stroke-width:0.26458332"
         x="139.34123"
         y="193.664"> </tspan></text>
    <g
       aria-label="Option - Anpassung der Festplattengröße ..."
       style="font-style:normal;font-variant:normal;font-weight:600;font-stretch:normal;font-size:2.64583325px;line-height:1.25;font-family:'Titillium Web';-inkscape-font-specification:'Titillium Web, Semi-Bold';font-variant-ligatures:normal;font-variant-caps:normal;font-variant-numeric:normal;font-feature-settings:normal;text-align:start;letter-spacing:0.26458332px;word-spacing:0px;writing-mode:lr-tb;text-anchor:start;display:inline;fill:#f58220;fill-opacity:1;stroke:none;stroke-width:0.26458332"
       id="text2506-0"
       transform="translate(22.048602,96.052016)">
      <path
         inkscape:connector-curvature="0"
         d="m 87.557475,94.499022 q 0.08996,0.156104 0.343958,0.156104 0.254,0 0.341313,-0.153458 0.08996,-0.153459 0.08996,-0.513292 0,-0.362479 -0.0926,-0.526521 -0.08996,-0.164042 -0.338667,-0.164042 -0.248708,0 -0.341312,0.164042 -0.0926,0.164042 -0.0926,0.523875 0,0.357188 0.08996,0.513292 z m 0.915458,0.1905 q -0.161396,0.22225 -0.5715,0.22225 -0.410104,0 -0.574146,-0.22225 -0.164041,-0.224896 -0.164041,-0.703792 0,-0.478896 0.164041,-0.711729 0.166688,-0.232833 0.574146,-0.232833 0.407458,0 0.5715,0.232833 0.164042,0.230187 0.164042,0.711729 0,0.481542 -0.164042,0.703792 z"
         style="font-style:normal;font-variant:normal;font-weight:600;font-stretch:normal;font-family:'Titillium Web';-inkscape-font-specification:'Titillium Web Semi-Bold';letter-spacing:0.26458332px;fill:#f58220;fill-opacity:1;stroke-width:0.26458332"
         id="path14821" />
      <path
         inkscape:connector-curvature="0"
         d="m 89.20847,95.451522 v -1.891771 h 0.28575 v 0.08202 q 0.182563,-0.111125 0.341313,-0.111125 0.261937,0 0.383645,0.161396 0.121709,0.15875 0.121709,0.537104 0,0.375708 -0.140229,0.529166 -0.137584,0.153459 -0.452438,0.153459 -0.108479,0 -0.251354,-0.02381 v 0.563563 z m 0.576792,-1.664229 q -0.124354,0 -0.248708,0.05556 l -0.03969,0.01852 v 0.780521 q 0.105833,0.02117 0.232833,0.02117 0.179917,0 0.248709,-0.103187 0.06879,-0.103188 0.06879,-0.351896 0,-0.420687 -0.261937,-0.420687 z"
         style="font-style:normal;font-variant:normal;font-weight:600;font-stretch:normal;font-family:'Titillium Web';-inkscape-font-specification:'Titillium Web Semi-Bold';letter-spacing:0.26458332px;fill:#f58220;fill-opacity:1;stroke-width:0.26458332"
         id="path14823" />
      <path
         inkscape:connector-curvature="0"
         d="m 91.605592,93.805813 h -0.365125 v 0.582084 q 0,0.161396 0.02381,0.214312 0.02381,0.05292 0.121709,0.05292 l 0.216958,-0.0079 0.01323,0.230188 q -0.177271,0.0344 -0.269875,0.0344 -0.224896,0 -0.309562,-0.103188 -0.08202,-0.103187 -0.08202,-0.388937 v -0.613834 h -0.169334 v -0.246062 h 0.169334 V 93.17615 h 0.28575 v 0.383646 h 0.365125 z"
         style="font-style:normal;font-variant:normal;font-weight:600;font-stretch:normal;font-family:'Titillium Web';-inkscape-font-specification:'Titillium Web Semi-Bold';letter-spacing:0.26458332px;fill:#f58220;fill-opacity:1;stroke-width:0.26458332"
         id="path14825" />
      <path
         inkscape:connector-curvature="0"
         d="m 92.105654,94.882668 v -1.322917 h 0.288396 v 1.322917 z m 0,-1.547813 v -0.304271 h 0.288396 v 0.304271 z"
         style="font-style:normal;font-variant:normal;font-weight:600;font-stretch:normal;font-family:'Titillium Web';-inkscape-font-specification:'Titillium Web Semi-Bold';letter-spacing:0.26458332px;fill:#f58220;fill-opacity:1;stroke-width:0.26458332"
         id="path14827" />
      <path
         inkscape:connector-curvature="0"
         d="m 93.079318,93.702626 q 0.137584,-0.171979 0.455084,-0.171979 0.3175,0 0.452437,0.171979 0.137583,0.171979 0.137583,0.515937 0,0.343959 -0.132291,0.518584 -0.132292,0.174625 -0.457729,0.174625 -0.325438,0 -0.45773,-0.174625 -0.132291,-0.174625 -0.132291,-0.518584 0,-0.343958 0.134937,-0.515937 z m 0.216959,0.859896 q 0.06085,0.105833 0.238125,0.105833 0.17727,0 0.238125,-0.105833 0.06085,-0.105834 0.06085,-0.346604 0,-0.240771 -0.06615,-0.341313 -0.0635,-0.100542 -0.232833,-0.100542 -0.169334,0 -0.23548,0.100542 -0.0635,0.100542 -0.0635,0.341313 0,0.24077 0.06086,0.346604 z"
         style="font-style:normal;font-variant:normal;font-weight:600;font-stretch:normal;font-family:'Titillium Web';-inkscape-font-specification:'Titillium Web Semi-Bold';letter-spacing:0.26458332px;fill:#f58220;fill-opacity:1;stroke-width:0.26458332"
         id="path14829" />
      <path
         inkscape:connector-curvature="0"
         d="m 94.963149,94.882668 h -0.288396 v -1.322917 h 0.28575 v 0.08202 q 0.193146,-0.111125 0.365125,-0.111125 0.264583,0 0.359833,0.150812 0.0979,0.148167 0.0979,0.492125 v 0.709084 h -0.28575 v -0.701146 q 0,-0.214313 -0.04762,-0.304271 -0.04498,-0.08996 -0.187854,-0.08996 -0.134938,0 -0.259292,0.05292 l -0.03969,0.01587 z"
         style="font-style:normal;font-variant:normal;font-weight:600;font-stretch:normal;font-family:'Titillium Web';-inkscape-font-specification:'Titillium Web Semi-Bold';letter-spacing:0.26458332px;fill:#f58220;fill-opacity:1;stroke-width:0.26458332"
         id="path14831" />
      <path
         inkscape:connector-curvature="0"
         d="M 97.217396,94.300584 V 94.038647 H 98.0085 v 0.261937 z"
         style="font-style:normal;font-variant:normal;font-weight:600;font-stretch:normal;font-family:'Titillium Web';-inkscape-font-specification:'Titillium Web Semi-Bold';letter-spacing:0.26458332px;fill:#f58220;fill-opacity:1;stroke-width:0.26458332"
         id="path14833" />
      <path
         inkscape:connector-curvature="0"
         d="m 99.334059,94.882668 0.447146,-1.812396 h 0.584725 l 0.4498,1.812396 h -0.29634 l -0.0979,-0.388938 h -0.695858 l -0.0979,0.388938 z m 0.674691,-1.566334 -0.224899,0.918104 h 0.579439 l -0.22225,-0.918104 z"
         style="font-style:normal;font-variant:normal;font-weight:600;font-stretch:normal;font-family:'Titillium Web';-inkscape-font-specification:'Titillium Web Semi-Bold';letter-spacing:0.26458332px;fill:#f58220;fill-opacity:1;stroke-width:0.26458332"
         id="path14835" />
      <path
         inkscape:connector-curvature="0"
         d="m 101.5936,94.882668 h -0.2884 v -1.322917 h 0.28575 v 0.08202 q 0.19315,-0.111125 0.36513,-0.111125 0.26458,0 0.35983,0.150812 0.0979,0.148167 0.0979,0.492125 v 0.709084 h -0.28575 v -0.701146 q 0,-0.214313 -0.0476,-0.304271 -0.045,-0.08996 -0.18785,-0.08996 -0.13494,0 -0.25929,0.05292 l -0.0397,0.01587 z"
         style="font-style:normal;font-variant:normal;font-weight:600;font-stretch:normal;font-family:'Titillium Web';-inkscape-font-specification:'Titillium Web Semi-Bold';letter-spacing:0.26458332px;fill:#f58220;fill-opacity:1;stroke-width:0.26458332"
         id="path14837" />
      <path
         inkscape:connector-curvature="0"
         d="m 103.01441,95.451522 v -1.891771 h 0.28575 v 0.08202 q 0.18256,-0.111125 0.34131,-0.111125 0.26194,0 0.38365,0.161396 0.12171,0.15875 0.12171,0.537104 0,0.375708 -0.14023,0.529166 -0.13759,0.153459 -0.45244,0.153459 -0.10848,0 -0.25136,-0.02381 v 0.563563 z m 0.57679,-1.664229 q -0.12435,0 -0.24871,0.05556 l -0.0397,0.01852 v 0.780521 q 0.10584,0.02117 0.23284,0.02117 0.17991,0 0.24871,-0.103187 0.0688,-0.103188 0.0688,-0.351896 0,-0.420687 -0.26194,-0.420688 z"
         style="font-style:normal;font-variant:normal;font-weight:600;font-stretch:normal;font-family:'Titillium Web';-inkscape-font-specification:'Titillium Web Semi-Bold';letter-spacing:0.26458332px;fill:#f58220;fill-opacity:1;stroke-width:0.26458332"
         id="path14839" />
      <path
         inkscape:connector-curvature="0"
         d="m 105.67876,93.967209 v 0.60325 q 0.003,0.05821 0.0291,0.08731 0.0291,0.02646 0.0873,0.0344 l -0.008,0.219604 q -0.22754,0 -0.3519,-0.0979 -0.21166,0.0979 -0.42598,0.0979 -0.39422,0 -0.39422,-0.420688 0,-0.201083 0.10583,-0.291041 0.10848,-0.08996 0.33073,-0.10848 l 0.34131,-0.0291 v -0.09525 q 0,-0.105833 -0.0476,-0.148166 -0.045,-0.04233 -0.13494,-0.04233 -0.16934,0 -0.42334,0.02117 l -0.0847,0.0053 -0.0106,-0.20373 q 0.2884,-0.06879 0.52917,-0.06879 0.24342,0 0.34925,0.105833 0.10848,0.103188 0.10848,0.330729 z m -0.59267,0.328084 q -0.18256,0.01587 -0.18256,0.198437 0,0.182563 0.1614,0.182563 0.13229,0 0.28046,-0.04233 l 0.0476,-0.01588 v -0.351896 z"
         style="font-style:normal;font-variant:normal;font-weight:600;font-stretch:normal;font-family:'Titillium Web';-inkscape-font-specification:'Titillium Web Semi-Bold';letter-spacing:0.26458332px;fill:#f58220;fill-opacity:1;stroke-width:0.26458332"
         id="path14841" />
      <path
         inkscape:connector-curvature="0"
         d="m 107.22393,93.832272 q -0.31221,-0.04233 -0.45244,-0.04233 -0.14023,0 -0.19579,0.0344 -0.0529,0.03175 -0.0529,0.103188 0,0.07144 0.0582,0.100541 0.0609,0.02911 0.28046,0.06879 0.22225,0.03704 0.31485,0.119063 0.0926,0.08202 0.0926,0.291041 0,0.209021 -0.13494,0.306917 -0.13229,0.0979 -0.38894,0.0979 -0.1614,0 -0.40746,-0.04498 l -0.082,-0.01323 0.0106,-0.24077 q 0.3175,0.04233 0.45773,0.04233 0.14023,0 0.19844,-0.0344 0.0609,-0.0344 0.0609,-0.113771 0,-0.07937 -0.0582,-0.108479 -0.0556,-0.03175 -0.27252,-0.06615 -0.21432,-0.03704 -0.31486,-0.113771 -0.10054,-0.07673 -0.10054,-0.280458 0,-0.203729 0.13758,-0.304271 0.14023,-0.100541 0.35719,-0.100541 0.16933,0 0.4154,0.04233 l 0.082,0.01587 z"
         style="font-style:normal;font-variant:normal;font-weight:600;font-stretch:normal;font-family:'Titillium Web';-inkscape-font-specification:'Titillium Web Semi-Bold';letter-spacing:0.26458332px;fill:#f58220;fill-opacity:1;stroke-width:0.26458332"
         id="path14843" />
      <path
         inkscape:connector-curvature="0"
         d="m 108.72941,93.832272 q -0.31221,-0.04233 -0.45244,-0.04233 -0.14023,0 -0.19579,0.0344 -0.0529,0.03175 -0.0529,0.103188 0,0.07144 0.0582,0.100541 0.0608,0.02911 0.28046,0.06879 0.22225,0.03704 0.31485,0.119063 0.0926,0.08202 0.0926,0.291041 0,0.209021 -0.13494,0.306917 -0.13229,0.0979 -0.38894,0.0979 -0.1614,0 -0.40746,-0.04498 l -0.082,-0.01323 0.0106,-0.24077 q 0.3175,0.04233 0.45773,0.04233 0.14023,0 0.19844,-0.0344 0.0609,-0.0344 0.0609,-0.113771 0,-0.07937 -0.0582,-0.108479 -0.0556,-0.03175 -0.27252,-0.06615 -0.21432,-0.03704 -0.31486,-0.113771 -0.10054,-0.07673 -0.10054,-0.280458 0,-0.203729 0.13758,-0.304271 0.14023,-0.100541 0.35719,-0.100541 0.16933,0 0.4154,0.04233 l 0.082,0.01587 z"
         style="font-style:normal;font-variant:normal;font-weight:600;font-stretch:normal;font-family:'Titillium Web';-inkscape-font-specification:'Titillium Web Semi-Bold';letter-spacing:0.26458332px;fill:#f58220;fill-opacity:1;stroke-width:0.26458332"
         id="path14845" />
      <path
         inkscape:connector-curvature="0"
         d="m 110.11847,93.559751 h 0.28575 v 1.322917 h -0.28575 v -0.08202 q -0.19315,0.111125 -0.35719,0.111125 -0.27252,0 -0.36513,-0.145521 -0.0926,-0.148167 -0.0926,-0.515938 v -0.690562 h 0.2884 v 0.693208 q 0,0.238125 0.0397,0.320146 0.0397,0.08202 0.18521,0.08202 0.14288,0 0.26194,-0.05292 l 0.0397,-0.01588 z"
         style="font-style:normal;font-variant:normal;font-weight:600;font-stretch:normal;font-family:'Titillium Web';-inkscape-font-specification:'Titillium Web Semi-Bold';letter-spacing:0.26458332px;fill:#f58220;fill-opacity:1;stroke-width:0.26458332"
         id="path14847" />
      <path
         inkscape:connector-curvature="0"
         d="m 111.30644,94.882668 h -0.28839 v -1.322917 h 0.28575 v 0.08202 q 0.19314,-0.111125 0.36512,-0.111125 0.26459,0 0.35984,0.150812 0.0979,0.148167 0.0979,0.492125 v 0.709084 h -0.28575 v -0.701146 q 0,-0.214313 -0.0476,-0.304271 -0.045,-0.08996 -0.18786,-0.08996 -0.13493,0 -0.25929,0.05292 l -0.0397,0.01587 z"
         style="font-style:normal;font-variant:normal;font-weight:600;font-stretch:normal;font-family:'Titillium Web';-inkscape-font-specification:'Titillium Web Semi-Bold';letter-spacing:0.26458332px;fill:#f58220;fill-opacity:1;stroke-width:0.26458332"
         id="path14849" />
      <path
         inkscape:connector-curvature="0"
         d="m 113.88349,95.062584 q 0,0.433917 -0.62707,0.433917 -0.30162,0 -0.44714,-0.08202 -0.14552,-0.08202 -0.14552,-0.298979 0,-0.0979 0.0476,-0.169333 0.0476,-0.06879 0.15346,-0.150813 -0.0873,-0.05821 -0.0873,-0.193146 0,-0.05292 0.0714,-0.171979 l 0.0238,-0.03969 q -0.1905,-0.113771 -0.1905,-0.396875 0,-0.238125 0.14287,-0.34925 0.14288,-0.111125 0.38629,-0.111125 0.11642,0 0.23019,0.02646 l 0.0397,0.0079 0.4101,-0.01058 v 0.232833 l -0.2196,-0.01323 q 0.0714,0.0926 0.0714,0.216959 0,0.259291 -0.1323,0.359833 -0.12964,0.0979 -0.40745,0.0979 -0.0688,0 -0.11642,-0.01058 -0.037,0.08996 -0.037,0.14023 0,0.04763 0.0476,0.06615 0.0503,0.01852 0.23813,0.02117 0.31485,0.0026 0.43127,0.08467 0.11642,0.08202 0.11642,0.309562 z m -0.93663,0.02646 q 0,0.0926 0.0741,0.132291 0.0741,0.03969 0.254,0.03969 0.32015,0 0.32015,-0.182563 0,-0.103187 -0.0582,-0.132291 -0.0556,-0.02646 -0.22489,-0.02911 l -0.2593,-0.01587 q -0.0582,0.04762 -0.082,0.08731 -0.0238,0.04233 -0.0238,0.100542 z m 0.0212,-1.095375 q 0,0.121708 0.0582,0.179916 0.0582,0.05556 0.18785,0.05556 0.12965,0 0.18521,-0.05556 0.0582,-0.05821 0.0582,-0.179916 0,-0.121709 -0.0582,-0.177271 -0.0582,-0.05821 -0.18786,-0.05821 -0.24341,0 -0.24341,0.23548 z"
         style="font-style:normal;font-variant:normal;font-weight:600;font-stretch:normal;font-family:'Titillium Web';-inkscape-font-specification:'Titillium Web Semi-Bold';letter-spacing:0.26458332px;fill:#f58220;fill-opacity:1;stroke-width:0.26458332"
         id="path14851" />
      <path
         inkscape:connector-curvature="0"
         d="m 116.30707,93.009418 v 1.87325 h -0.28575 v -0.06879 q -0.19315,0.0979 -0.35455,0.0979 -0.25929,0 -0.381,-0.156104 -0.11906,-0.156105 -0.11906,-0.523875 0,-0.367771 0.13229,-0.534459 0.13494,-0.166687 0.41804,-0.166687 0.0953,0 0.30163,0.0344 v -0.555625 z m -0.33338,1.598083 0.045,-0.01852 v -0.783167 q -0.15875,-0.02646 -0.29369,-0.02646 -0.26723,0 -0.26723,0.4445 0,0.243417 0.0609,0.338667 0.0635,0.0926 0.19843,0.0926 0.13494,0 0.25665,-0.04762 z"
         style="font-style:normal;font-variant:normal;font-weight:600;font-stretch:normal;font-family:'Titillium Web';-inkscape-font-specification:'Titillium Web Semi-Bold';letter-spacing:0.26458332px;fill:#f58220;fill-opacity:1;stroke-width:0.26458332"
         id="path14853" />
      <path
         inkscape:connector-curvature="0"
         d="m 117.86281,94.644543 0.0741,-0.0079 0.005,0.214313 q -0.30163,0.06085 -0.53446,0.06085 -0.29369,0 -0.42333,-0.161396 -0.127,-0.161396 -0.127,-0.515938 0,-0.703791 0.57414,-0.703791 0.55563,0 0.55563,0.605896 l -0.0185,0.206375 h -0.82021 q 0.003,0.164041 0.0714,0.24077 0.0688,0.07673 0.25664,0.07673 0.18786,0 0.38629,-0.01588 z m -0.15875,-0.523875 q 0,-0.195792 -0.0635,-0.272521 -0.0608,-0.07937 -0.20902,-0.07937 -0.14816,0 -0.21696,0.08202 -0.0661,0.08202 -0.0688,0.269875 z"
         style="font-style:normal;font-variant:normal;font-weight:600;font-stretch:normal;font-family:'Titillium Web';-inkscape-font-specification:'Titillium Web Semi-Bold';letter-spacing:0.26458332px;fill:#f58220;fill-opacity:1;stroke-width:0.26458332"
         id="path14855" />
      <path
         inkscape:connector-curvature="0"
         d="m 118.52956,94.882668 v -1.322917 h 0.28575 v 0.15875 q 0.2249,-0.145521 0.44979,-0.187854 v 0.288396 q -0.22754,0.04498 -0.38893,0.116416 l -0.0582,0.02381 v 0.923396 z"
         style="font-style:normal;font-variant:normal;font-weight:600;font-stretch:normal;font-family:'Titillium Web';-inkscape-font-specification:'Titillium Web Semi-Bold';letter-spacing:0.26458332px;fill:#f58220;fill-opacity:1;stroke-width:0.26458332"
         id="path14857" />
      <path
         inkscape:connector-curvature="0"
         d="m 120.63035,94.882668 v -1.812396 h 1.12448 v 0.256646 h -0.8308 v 0.611187 h 0.69057 v 0.256646 h -0.69057 v 0.687917 z"
         style="font-style:normal;font-variant:normal;font-weight:600;font-stretch:normal;font-family:'Titillium Web';-inkscape-font-specification:'Titillium Web Semi-Bold';letter-spacing:0.26458332px;fill:#f58220;fill-opacity:1;stroke-width:0.26458332"
         id="path14859" />
      <path
         inkscape:connector-curvature="0"
         d="m 123.15711,94.644543 0.0741,-0.0079 0.005,0.214313 q -0.30163,0.06085 -0.53446,0.06085 -0.29369,0 -0.42333,-0.161396 -0.127,-0.161396 -0.127,-0.515938 0,-0.703791 0.57414,-0.703791 0.55563,0 0.55563,0.605896 l -0.0185,0.206375 h -0.82021 q 0.003,0.164041 0.0714,0.24077 0.0688,0.07673 0.25664,0.07673 0.18786,0 0.38629,-0.01588 z m -0.15875,-0.523875 q 0,-0.195792 -0.0635,-0.272521 -0.0609,-0.07937 -0.20902,-0.07937 -0.14816,0 -0.21695,0.08202 -0.0661,0.08202 -0.0688,0.269875 z"
         style="font-style:normal;font-variant:normal;font-weight:600;font-stretch:normal;font-family:'Titillium Web';-inkscape-font-specification:'Titillium Web Semi-Bold';letter-spacing:0.26458332px;fill:#f58220;fill-opacity:1;stroke-width:0.26458332"
         id="path14861" />
      <path
         inkscape:connector-curvature="0"
         d="m 124.74197,93.832272 q -0.31221,-0.04233 -0.45244,-0.04233 -0.14023,0 -0.19579,0.0344 -0.0529,0.03175 -0.0529,0.103188 0,0.07144 0.0582,0.100541 0.0609,0.02911 0.28046,0.06879 0.22225,0.03704 0.31485,0.119063 0.0926,0.08202 0.0926,0.291041 0,0.209021 -0.13494,0.306917 -0.13229,0.0979 -0.38894,0.0979 -0.16139,0 -0.40746,-0.04498 l -0.082,-0.01323 0.0106,-0.24077 q 0.3175,0.04233 0.45773,0.04233 0.14022,0 0.19843,-0.0344 0.0609,-0.0344 0.0609,-0.113771 0,-0.07937 -0.0582,-0.108479 -0.0556,-0.03175 -0.27252,-0.06615 -0.21431,-0.03704 -0.31486,-0.113771 -0.10054,-0.07673 -0.10054,-0.280458 0,-0.203729 0.13759,-0.304271 0.14022,-0.100541 0.35718,-0.100541 0.16934,0 0.4154,0.04233 l 0.082,0.01587 z"
         style="font-style:normal;font-variant:normal;font-weight:600;font-stretch:normal;font-family:'Titillium Web';-inkscape-font-specification:'Titillium Web Semi-Bold';letter-spacing:0.26458332px;fill:#f58220;fill-opacity:1;stroke-width:0.26458332"
         id="path14863" />
      <path
         inkscape:connector-curvature="0"
         d="m 126.04107,93.805813 h -0.36512 v 0.582084 q 0,0.161396 0.0238,0.214312 0.0238,0.05292 0.12171,0.05292 l 0.21695,-0.0079 0.0132,0.230188 q -0.17727,0.0344 -0.26987,0.0344 -0.2249,0 -0.30956,-0.103188 -0.082,-0.103187 -0.082,-0.388937 v -0.613834 h -0.16934 v -0.246062 h 0.16934 V 93.17615 h 0.28575 v 0.383646 h 0.36512 z"
         style="font-style:normal;font-variant:normal;font-weight:600;font-stretch:normal;font-family:'Titillium Web';-inkscape-font-specification:'Titillium Web Semi-Bold';letter-spacing:0.26458332px;fill:#f58220;fill-opacity:1;stroke-width:0.26458332"
         id="path14865" />
      <path
         inkscape:connector-curvature="0"
         d="m 126.54113,95.451522 v -1.891771 h 0.28575 v 0.08202 q 0.18257,-0.111125 0.34132,-0.111125 0.26193,0 0.38364,0.161396 0.12171,0.15875 0.12171,0.537104 0,0.375708 -0.14023,0.529166 -0.13758,0.153459 -0.45244,0.153459 -0.10848,0 -0.25135,-0.02381 v 0.563563 z m 0.5768,-1.664229 q -0.12436,0 -0.24871,0.05556 l -0.0397,0.01852 v 0.780521 q 0.10583,0.02117 0.23283,0.02117 0.17992,0 0.24871,-0.103187 0.0688,-0.103188 0.0688,-0.351896 0,-0.420687 -0.26193,-0.420688 z"
         style="font-style:normal;font-variant:normal;font-weight:600;font-stretch:normal;font-family:'Titillium Web';-inkscape-font-specification:'Titillium Web Semi-Bold';letter-spacing:0.26458332px;fill:#f58220;fill-opacity:1;stroke-width:0.26458332"
         id="path14867" />
      <path
         inkscape:connector-curvature="0"
         d="m 128.2424,94.882668 v -1.87325 h 0.28839 v 1.87325 z"
         style="font-style:normal;font-variant:normal;font-weight:600;font-stretch:normal;font-family:'Titillium Web';-inkscape-font-specification:'Titillium Web Semi-Bold';letter-spacing:0.26458332px;fill:#f58220;fill-opacity:1;stroke-width:0.26458332"
         id="path14869" />
      <path
         inkscape:connector-curvature="0"
         d="m 130.13946,93.967209 v 0.60325 q 0.003,0.05821 0.0291,0.08731 0.0291,0.02646 0.0873,0.0344 l -0.008,0.219604 q -0.22755,0 -0.3519,-0.0979 -0.21167,0.0979 -0.42598,0.0979 -0.39423,0 -0.39423,-0.420688 0,-0.201083 0.10584,-0.291041 0.10848,-0.08996 0.33072,-0.10848 l 0.34132,-0.0291 v -0.09525 q 0,-0.105833 -0.0476,-0.148166 -0.045,-0.04233 -0.13494,-0.04233 -0.16933,0 -0.42333,0.02117 l -0.0847,0.0053 -0.0106,-0.20373 q 0.2884,-0.06879 0.52917,-0.06879 0.24341,0 0.34925,0.105833 0.10848,0.103188 0.10848,0.330729 z m -0.59267,0.328084 q -0.18256,0.01587 -0.18256,0.198437 0,0.182563 0.16139,0.182563 0.1323,0 0.28046,-0.04233 l 0.0476,-0.01588 v -0.351896 z"
         style="font-style:normal;font-variant:normal;font-weight:600;font-stretch:normal;font-family:'Titillium Web';-inkscape-font-specification:'Titillium Web Semi-Bold';letter-spacing:0.26458332px;fill:#f58220;fill-opacity:1;stroke-width:0.26458332"
         id="path14871" />
      <path
         inkscape:connector-curvature="0"
         d="m 131.47825,93.805813 h -0.36512 v 0.582084 q 0,0.161396 0.0238,0.214312 0.0238,0.05292 0.12171,0.05292 l 0.21695,-0.0079 0.0132,0.230188 q -0.17727,0.0344 -0.26987,0.0344 -0.2249,0 -0.30956,-0.103188 -0.082,-0.103187 -0.082,-0.388937 v -0.613834 h -0.16934 v -0.246062 h 0.16934 V 93.17615 h 0.28575 v 0.383646 h 0.36512 z"
         style="font-style:normal;font-variant:normal;font-weight:600;font-stretch:normal;font-family:'Titillium Web';-inkscape-font-specification:'Titillium Web Semi-Bold';letter-spacing:0.26458332px;fill:#f58220;fill-opacity:1;stroke-width:0.26458332"
         id="path14873" />
      <path
         inkscape:connector-curvature="0"
         d="m 132.69004,93.805813 h -0.36512 v 0.582084 q 0,0.161396 0.0238,0.214312 0.0238,0.05292 0.12171,0.05292 l 0.21696,-0.0079 0.0132,0.230188 q -0.17728,0.0344 -0.26988,0.0344 -0.2249,0 -0.30956,-0.103188 -0.082,-0.103187 -0.082,-0.388937 v -0.613834 h -0.16934 v -0.246062 h 0.16934 V 93.17615 h 0.28575 v 0.383646 h 0.36512 z"
         style="font-style:normal;font-variant:normal;font-weight:600;font-stretch:normal;font-family:'Titillium Web';-inkscape-font-specification:'Titillium Web Semi-Bold';letter-spacing:0.26458332px;fill:#f58220;fill-opacity:1;stroke-width:0.26458332"
         id="path14875" />
      <path
         inkscape:connector-curvature="0"
         d="m 134.13202,94.644543 0.0741,-0.0079 0.005,0.214313 q -0.30162,0.06085 -0.53446,0.06085 -0.29368,0 -0.42333,-0.161396 -0.127,-0.161396 -0.127,-0.515938 0,-0.703791 0.57415,-0.703791 0.55562,0 0.55562,0.605896 l -0.0185,0.206375 h -0.82021 q 0.003,0.164041 0.0714,0.24077 0.0688,0.07673 0.25665,0.07673 0.18785,0 0.38629,-0.01588 z m -0.15875,-0.523875 q 0,-0.195792 -0.0635,-0.272521 -0.0609,-0.07937 -0.20902,-0.07937 -0.14817,0 -0.21696,0.08202 -0.0661,0.08202 -0.0688,0.269875 z"
         style="font-style:normal;font-variant:normal;font-weight:600;font-stretch:normal;font-family:'Titillium Web';-inkscape-font-specification:'Titillium Web Semi-Bold';letter-spacing:0.26458332px;fill:#f58220;fill-opacity:1;stroke-width:0.26458332"
         id="path14877" />
      <path
         inkscape:connector-curvature="0"
         d="m 135.08716,94.882668 h -0.28839 v -1.322917 h 0.28575 v 0.08202 q 0.19314,-0.111125 0.36512,-0.111125 0.26458,0 0.35983,0.150812 0.0979,0.148167 0.0979,0.492125 v 0.709084 h -0.28575 v -0.701146 q 0,-0.214313 -0.0476,-0.304271 -0.045,-0.08996 -0.18786,-0.08996 -0.13494,0 -0.25929,0.05292 l -0.0397,0.01587 z"
         style="font-style:normal;font-variant:normal;font-weight:600;font-stretch:normal;font-family:'Titillium Web';-inkscape-font-specification:'Titillium Web Semi-Bold';letter-spacing:0.26458332px;fill:#f58220;fill-opacity:1;stroke-width:0.26458332"
         id="path14879" />
      <path
         inkscape:connector-curvature="0"
         d="m 137.66421,95.062584 q 0,0.433917 -0.62707,0.433917 -0.30162,0 -0.44714,-0.08202 -0.14552,-0.08202 -0.14552,-0.298979 0,-0.0979 0.0476,-0.169333 0.0476,-0.06879 0.15346,-0.150813 -0.0873,-0.05821 -0.0873,-0.193146 0,-0.05292 0.0714,-0.171979 l 0.0238,-0.03969 q -0.1905,-0.113771 -0.1905,-0.396875 0,-0.238125 0.14287,-0.34925 0.14288,-0.111125 0.38629,-0.111125 0.11642,0 0.23019,0.02646 l 0.0397,0.0079 0.4101,-0.01058 v 0.232833 l -0.2196,-0.01323 q 0.0714,0.0926 0.0714,0.216959 0,0.259291 -0.1323,0.359833 -0.12964,0.0979 -0.40745,0.0979 -0.0688,0 -0.11642,-0.01058 -0.037,0.08996 -0.037,0.14023 0,0.04763 0.0476,0.06615 0.0503,0.01852 0.23813,0.02117 0.31485,0.0026 0.43127,0.08467 0.11642,0.08202 0.11642,0.309562 z m -0.93663,0.02646 q 0,0.0926 0.0741,0.132291 0.0741,0.03969 0.254,0.03969 0.32015,0 0.32015,-0.182563 0,-0.103187 -0.0582,-0.132291 -0.0556,-0.02646 -0.22489,-0.02911 l -0.2593,-0.01587 q -0.0582,0.04762 -0.082,0.08731 -0.0238,0.04233 -0.0238,0.100542 z m 0.0212,-1.095375 q 0,0.121708 0.0582,0.179916 0.0582,0.05556 0.18785,0.05556 0.12965,0 0.18521,-0.05556 0.0582,-0.05821 0.0582,-0.179916 0,-0.121709 -0.0582,-0.177271 -0.0582,-0.05821 -0.18786,-0.05821 -0.24341,0 -0.24341,0.23548 z"
         style="font-style:normal;font-variant:normal;font-weight:600;font-stretch:normal;font-family:'Titillium Web';-inkscape-font-specification:'Titillium Web Semi-Bold';letter-spacing:0.26458332px;fill:#f58220;fill-opacity:1;stroke-width:0.26458332"
         id="path14881" />
      <path
         inkscape:connector-curvature="0"
         d="m 138.16162,94.882668 v -1.322917 h 0.28575 v 0.15875 q 0.2249,-0.145521 0.44979,-0.187854 v 0.288396 q -0.22754,0.04498 -0.38894,0.116416 l -0.0582,0.02381 v 0.923396 z"
         style="font-style:normal;font-variant:normal;font-weight:600;font-stretch:normal;font-family:'Titillium Web';-inkscape-font-specification:'Titillium Web Semi-Bold';letter-spacing:0.26458332px;fill:#f58220;fill-opacity:1;stroke-width:0.26458332"
         id="path14883" />
      <path
         inkscape:connector-curvature="0"
         d="m 139.4422,93.702626 q 0.13758,-0.171979 0.45508,-0.171979 0.3175,0 0.45244,0.171979 0.13758,0.171979 0.13758,0.515937 0,0.343959 -0.13229,0.518584 -0.13229,0.174625 -0.45773,0.174625 -0.32544,0 -0.45773,-0.174625 -0.13229,-0.174625 -0.13229,-0.518584 0,-0.343958 0.13494,-0.515937 z m 0.21695,0.859896 q 0.0609,0.105833 0.23813,0.105833 0.17727,0 0.23812,-0.105833 0.0609,-0.105834 0.0609,-0.346604 0,-0.240771 -0.0661,-0.341313 -0.0635,-0.100542 -0.23283,-0.100542 -0.16933,0 -0.23548,0.100542 -0.0635,0.100542 -0.0635,0.341313 0,0.24077 0.0609,0.346604 z m -0.17991,-1.285875 v -0.301625 h 0.27516 v 0.301625 z m 0.55298,0 v -0.301625 h 0.27516 v 0.301625 z"
         style="font-style:normal;font-variant:normal;font-weight:600;font-stretch:normal;font-family:'Titillium Web';-inkscape-font-specification:'Titillium Web Semi-Bold';letter-spacing:0.26458332px;fill:#f58220;fill-opacity:1;stroke-width:0.26458332"
         id="path14885" />
      <path
         inkscape:connector-curvature="0"
         d="m 141.32602,94.882668 h -0.28839 v -1.407584 q 0,-0.269875 0.13229,-0.381 0.13229,-0.113771 0.43127,-0.113771 0.29898,0 0.43656,0.09525 0.13759,0.0926 0.13759,0.306917 0,0.140229 -0.0556,0.211667 -0.0529,0.06879 -0.16404,0.119062 -0.11112,0.05027 -0.14023,0.07408 -0.0291,0.02381 -0.0291,0.06085 0,0.03704 0.0423,0.07144 0.045,0.03175 0.21696,0.113771 0.17198,0.08202 0.24342,0.164042 0.0741,0.08202 0.0741,0.235479 0,0.267229 -0.12171,0.373062 -0.12171,0.105834 -0.41275,0.105834 -0.15081,0 -0.32014,-0.03704 l -0.0609,-0.01323 0.0106,-0.232833 q 0.24341,0.0291 0.36777,0.0291 0.24077,0 0.24077,-0.182563 0,-0.07938 -0.0476,-0.121708 -0.045,-0.04233 -0.21431,-0.121708 -0.17727,-0.07673 -0.24606,-0.153459 -0.0688,-0.07937 -0.0688,-0.198437 0,-0.121709 0.0476,-0.187854 0.0476,-0.06615 0.1561,-0.111125 0.11113,-0.04762 0.14817,-0.08467 0.037,-0.03704 0.037,-0.111125 0,-0.07408 -0.0582,-0.111125 -0.0582,-0.03969 -0.21695,-0.03969 -0.15611,0 -0.21696,0.05556 -0.0609,0.05556 -0.0609,0.198437 z"
         style="font-style:normal;font-variant:normal;font-weight:600;font-stretch:normal;font-family:'Titillium Web';-inkscape-font-specification:'Titillium Web Semi-Bold';letter-spacing:0.26458332px;fill:#f58220;fill-opacity:1;stroke-width:0.26458332"
         id="path14887" />
      <path
         inkscape:connector-curvature="0"
         d="m 143.8184,94.644543 0.0741,-0.0079 0.005,0.214313 q -0.30162,0.06085 -0.53446,0.06085 -0.29368,0 -0.42333,-0.161396 -0.127,-0.161396 -0.127,-0.515938 0,-0.703791 0.57415,-0.703791 0.55562,0 0.55562,0.605896 l -0.0185,0.206375 h -0.82021 q 0.003,0.164041 0.0714,0.24077 0.0688,0.07673 0.25664,0.07673 0.18786,0 0.3863,-0.01588 z m -0.15875,-0.523875 q 0,-0.195792 -0.0635,-0.272521 -0.0609,-0.07937 -0.20902,-0.07937 -0.14817,0 -0.21696,0.08202 -0.0662,0.08202 -0.0688,0.269875 z"
         style="font-style:normal;font-variant:normal;font-weight:600;font-stretch:normal;font-family:'Titillium Web';-inkscape-font-specification:'Titillium Web Semi-Bold';letter-spacing:0.26458332px;fill:#f58220;fill-opacity:1;stroke-width:0.26458332"
         id="path14889" />
      <path
         inkscape:connector-curvature="0"
         d="m 145.31858,94.882668 v -0.381 h 0.30956 v 0.381 z"
         style="font-style:normal;font-variant:normal;font-weight:600;font-stretch:normal;font-family:'Titillium Web';-inkscape-font-specification:'Titillium Web Semi-Bold';letter-spacing:0.26458332px;fill:#f58220;fill-opacity:1;stroke-width:0.26458332"
         id="path14891" />
      <path
         inkscape:connector-curvature="0"
         d="m 146.21551,94.882668 v -0.381 h 0.30957 v 0.381 z"
         style="font-style:normal;font-variant:normal;font-weight:600;font-stretch:normal;font-family:'Titillium Web';-inkscape-font-specification:'Titillium Web Semi-Bold';letter-spacing:0.26458332px;fill:#f58220;fill-opacity:1;stroke-width:0.26458332"
         id="path14893" />
      <path
         inkscape:connector-curvature="0"
         d="m 147.11245,94.882668 v -0.381 h 0.30956 v 0.381 z"
         style="font-style:normal;font-variant:normal;font-weight:600;font-stretch:normal;font-family:'Titillium Web';-inkscape-font-specification:'Titillium Web Semi-Bold';letter-spacing:0.26458332px;fill:#f58220;fill-opacity:1;stroke-width:0.26458332"
         id="path14895" />
    </g>
    <g
       aria-label="... der importierten VM ..."
       style="font-style:normal;font-variant:normal;font-weight:600;font-stretch:normal;font-size:2.64583325px;line-height:1.25;font-family:'Titillium Web';-inkscape-font-specification:'Titillium Web, Semi-Bold';font-variant-ligatures:normal;font-variant-caps:normal;font-variant-numeric:normal;font-feature-settings:normal;text-align:start;letter-spacing:0.26458332px;word-spacing:0px;writing-mode:lr-tb;text-anchor:start;display:inline;fill:#f58220;fill-opacity:1;stroke:none;stroke-width:0.26458332"
       id="text2506-18-3-9"
       transform="translate(22.048602,96.052016)">
      <path
         inkscape:connector-curvature="0"
         d="m 97.861339,105.91736 v -0.381 h 0.309563 v 0.381 z"
         style="font-style:normal;font-variant:normal;font-weight:600;font-stretch:normal;font-family:'Titillium Web';-inkscape-font-specification:'Titillium Web Semi-Bold';letter-spacing:0.26458332px;fill:#f58220;fill-opacity:1;stroke-width:0.26458332"
         id="path14774" />
      <path
         inkscape:connector-curvature="0"
         d="m 98.758273,105.91736 v -0.381 h 0.309562 v 0.381 z"
         style="font-style:normal;font-variant:normal;font-weight:600;font-stretch:normal;font-family:'Titillium Web';-inkscape-font-specification:'Titillium Web Semi-Bold';letter-spacing:0.26458332px;fill:#f58220;fill-opacity:1;stroke-width:0.26458332"
         id="path14776" />
      <path
         inkscape:connector-curvature="0"
         d="m 99.655206,105.91736 v -0.381 h 0.309562 v 0.381 z"
         style="font-style:normal;font-variant:normal;font-weight:600;font-stretch:normal;font-family:'Titillium Web';-inkscape-font-specification:'Titillium Web Semi-Bold';letter-spacing:0.26458332px;fill:#f58220;fill-opacity:1;stroke-width:0.26458332"
         id="path14778" />
      <path
         inkscape:connector-curvature="0"
         d="m 102.49153,104.04411 v 1.87325 h -0.28575 v -0.0688 q -0.19314,0.0979 -0.35454,0.0979 -0.25929,0 -0.381,-0.1561 -0.11906,-0.15611 -0.11906,-0.52388 0,-0.36777 0.13229,-0.53445 0.13494,-0.16669 0.41804,-0.16669 0.0952,0 0.30163,0.0344 v -0.55562 z m -0.33337,1.59808 0.045,-0.0185 v -0.78317 q -0.15875,-0.0265 -0.29369,-0.0265 -0.26723,0 -0.26723,0.4445 0,0.24341 0.0609,0.33866 0.0635,0.0926 0.19844,0.0926 0.13494,0 0.25665,-0.0476 z"
         style="font-style:normal;font-variant:normal;font-weight:600;font-stretch:normal;font-family:'Titillium Web';-inkscape-font-specification:'Titillium Web Semi-Bold';letter-spacing:0.26458332px;fill:#f58220;fill-opacity:1;stroke-width:0.26458332"
         id="path14780" />
      <path
         inkscape:connector-curvature="0"
         d="m 104.04728,105.67923 0.0741,-0.008 0.005,0.21431 q -0.30163,0.0609 -0.53446,0.0609 -0.29369,0 -0.42334,-0.16139 -0.127,-0.1614 -0.127,-0.51594 0,-0.70379 0.57415,-0.70379 0.55562,0 0.55562,0.60589 l -0.0185,0.20638 h -0.8202 q 0.003,0.16404 0.0714,0.24077 0.0688,0.0767 0.25665,0.0767 0.18785,0 0.38629,-0.0159 z m -0.15875,-0.52387 q 0,-0.19579 -0.0635,-0.27252 -0.0609,-0.0794 -0.20902,-0.0794 -0.14817,0 -0.21696,0.082 -0.0661,0.082 -0.0688,0.26988 z"
         style="font-style:normal;font-variant:normal;font-weight:600;font-stretch:normal;font-family:'Titillium Web';-inkscape-font-specification:'Titillium Web Semi-Bold';letter-spacing:0.26458332px;fill:#f58220;fill-opacity:1;stroke-width:0.26458332"
         id="path14782" />
      <path
         inkscape:connector-curvature="0"
         d="m 104.71403,105.91736 v -1.32292 h 0.28575 v 0.15875 q 0.22489,-0.14552 0.44979,-0.18785 v 0.28839 q -0.22754,0.045 -0.38894,0.11642 l -0.0582,0.0238 v 0.9234 z"
         style="font-style:normal;font-variant:normal;font-weight:600;font-stretch:normal;font-family:'Titillium Web';-inkscape-font-specification:'Titillium Web Semi-Bold';letter-spacing:0.26458332px;fill:#f58220;fill-opacity:1;stroke-width:0.26458332"
         id="path14784" />
      <path
         inkscape:connector-curvature="0"
         d="m 106.78042,105.91736 v -1.32292 h 0.28839 v 1.32292 z m 0,-1.54781 v -0.30427 h 0.28839 v 0.30427 z"
         style="font-style:normal;font-variant:normal;font-weight:600;font-stretch:normal;font-family:'Titillium Web';-inkscape-font-specification:'Titillium Web Semi-Bold';letter-spacing:0.26458332px;fill:#f58220;fill-opacity:1;stroke-width:0.26458332"
         id="path14786" />
      <path
         inkscape:connector-curvature="0"
         d="m 107.97104,105.91736 h -0.28839 v -1.32292 h 0.28575 v 0.082 q 0.18785,-0.11112 0.34395,-0.11112 0.23019,0 0.33602,0.12964 0.24078,-0.12964 0.4789,-0.12964 0.23813,0 0.33602,0.14816 0.0979,0.14553 0.0979,0.49478 v 0.70908 h -0.28575 v -0.70115 q 0,-0.21431 -0.045,-0.30427 -0.0423,-0.09 -0.17992,-0.09 -0.11906,0 -0.25664,0.0529 l -0.045,0.0185 q 0.0212,0.0529 0.0212,0.33867 v 0.68527 h -0.28575 v -0.67998 q 0,-0.23548 -0.0423,-0.32544 -0.0423,-0.09 -0.18521,-0.09 -0.13229,0 -0.24606,0.0529 l -0.0397,0.0159 z"
         style="font-style:normal;font-variant:normal;font-weight:600;font-stretch:normal;font-family:'Titillium Web';-inkscape-font-specification:'Titillium Web Semi-Bold';letter-spacing:0.26458332px;fill:#f58220;fill-opacity:1;stroke-width:0.26458332"
         id="path14788" />
      <path
         inkscape:connector-curvature="0"
         d="m 110.16443,106.48621 v -1.89177 h 0.28575 v 0.082 q 0.18257,-0.11112 0.34132,-0.11112 0.26193,0 0.38364,0.16139 0.12171,0.15875 0.12171,0.53711 0,0.37571 -0.14023,0.52916 -0.13758,0.15346 -0.45244,0.15346 -0.10847,0 -0.25135,-0.0238 v 0.56356 z m 0.5768,-1.66423 q -0.12436,0 -0.24871,0.0556 l -0.0397,0.0185 v 0.78052 q 0.10583,0.0212 0.23283,0.0212 0.17992,0 0.24871,-0.10318 0.0688,-0.10319 0.0688,-0.3519 0,-0.42069 -0.26193,-0.42069 z"
         style="font-style:normal;font-variant:normal;font-weight:600;font-stretch:normal;font-family:'Titillium Web';-inkscape-font-specification:'Titillium Web Semi-Bold';letter-spacing:0.26458332px;fill:#f58220;fill-opacity:1;stroke-width:0.26458332"
         id="path14790" />
      <path
         inkscape:connector-curvature="0"
         d="m 111.92126,104.73732 q 0.13759,-0.17198 0.45509,-0.17198 0.3175,0 0.45244,0.17198 0.13758,0.17198 0.13758,0.51593 0,0.34396 -0.13229,0.51859 -0.13229,0.17462 -0.45773,0.17462 -0.32544,0 -0.45773,-0.17462 -0.13229,-0.17463 -0.13229,-0.51859 0,-0.34395 0.13493,-0.51593 z m 0.21696,0.85989 q 0.0609,0.10584 0.23813,0.10584 0.17727,0 0.23812,-0.10584 0.0609,-0.10583 0.0609,-0.3466 0,-0.24077 -0.0662,-0.34131 -0.0635,-0.10055 -0.23283,-0.10055 -0.16934,0 -0.23548,0.10055 -0.0635,0.10054 -0.0635,0.34131 0,0.24077 0.0609,0.3466 z"
         style="font-style:normal;font-variant:normal;font-weight:600;font-stretch:normal;font-family:'Titillium Web';-inkscape-font-specification:'Titillium Web Semi-Bold';letter-spacing:0.26458332px;fill:#f58220;fill-opacity:1;stroke-width:0.26458332"
         id="path14792" />
      <path
         inkscape:connector-curvature="0"
         d="m 113.5167,105.91736 v -1.32292 h 0.28575 v 0.15875 q 0.2249,-0.14552 0.44979,-0.18785 v 0.28839 q -0.22754,0.045 -0.38894,0.11642 l -0.0582,0.0238 v 0.9234 z"
         style="font-style:normal;font-variant:normal;font-weight:600;font-stretch:normal;font-family:'Titillium Web';-inkscape-font-specification:'Titillium Web Semi-Bold';letter-spacing:0.26458332px;fill:#f58220;fill-opacity:1;stroke-width:0.26458332"
         id="path14794" />
      <path
         inkscape:connector-curvature="0"
         d="m 115.44815,104.8405 h -0.36512 v 0.58209 q 0,0.16139 0.0238,0.21431 0.0238,0.0529 0.12171,0.0529 l 0.21696,-0.008 0.0132,0.23019 q -0.17728,0.0344 -0.26988,0.0344 -0.2249,0 -0.30956,-0.10318 -0.082,-0.10319 -0.082,-0.38894 v -0.61384 h -0.16934 v -0.24606 h 0.16934 v -0.38364 h 0.28575 v 0.38364 h 0.36512 z"
         style="font-style:normal;font-variant:normal;font-weight:600;font-stretch:normal;font-family:'Titillium Web';-inkscape-font-specification:'Titillium Web Semi-Bold';letter-spacing:0.26458332px;fill:#f58220;fill-opacity:1;stroke-width:0.26458332"
         id="path14796" />
      <path
         inkscape:connector-curvature="0"
         d="m 115.94822,105.91736 v -1.32292 h 0.28839 v 1.32292 z m 0,-1.54781 v -0.30427 h 0.28839 v 0.30427 z"
         style="font-style:normal;font-variant:normal;font-weight:600;font-stretch:normal;font-family:'Titillium Web';-inkscape-font-specification:'Titillium Web Semi-Bold';letter-spacing:0.26458332px;fill:#f58220;fill-opacity:1;stroke-width:0.26458332"
         id="path14798" />
      <path
         inkscape:connector-curvature="0"
         d="m 117.79236,105.67923 0.0741,-0.008 0.005,0.21431 q -0.30162,0.0609 -0.53445,0.0609 -0.29369,0 -0.42334,-0.16139 -0.127,-0.1614 -0.127,-0.51594 0,-0.70379 0.57415,-0.70379 0.55562,0 0.55562,0.60589 l -0.0185,0.20638 h -0.82021 q 0.003,0.16404 0.0714,0.24077 0.0688,0.0767 0.25665,0.0767 0.18785,0 0.38629,-0.0159 z m -0.15875,-0.52387 q 0,-0.19579 -0.0635,-0.27252 -0.0609,-0.0794 -0.20902,-0.0794 -0.14817,0 -0.21696,0.082 -0.0662,0.082 -0.0688,0.26988 z"
         style="font-style:normal;font-variant:normal;font-weight:600;font-stretch:normal;font-family:'Titillium Web';-inkscape-font-specification:'Titillium Web Semi-Bold';letter-spacing:0.26458332px;fill:#f58220;fill-opacity:1;stroke-width:0.26458332"
         id="path14800" />
      <path
         inkscape:connector-curvature="0"
         d="m 118.45911,105.91736 v -1.32292 h 0.28575 v 0.15875 q 0.22489,-0.14552 0.44979,-0.18785 v 0.28839 q -0.22754,0.045 -0.38894,0.11642 l -0.0582,0.0238 v 0.9234 z"
         style="font-style:normal;font-variant:normal;font-weight:600;font-stretch:normal;font-family:'Titillium Web';-inkscape-font-specification:'Titillium Web Semi-Bold';letter-spacing:0.26458332px;fill:#f58220;fill-opacity:1;stroke-width:0.26458332"
         id="path14802" />
      <path
         inkscape:connector-curvature="0"
         d="m 120.39056,104.8405 h -0.36513 v 0.58209 q 0,0.16139 0.0238,0.21431 0.0238,0.0529 0.12171,0.0529 l 0.21695,-0.008 0.0132,0.23019 q -0.17727,0.0344 -0.26987,0.0344 -0.2249,0 -0.30956,-0.10318 -0.082,-0.10319 -0.082,-0.38894 v -0.61384 h -0.16933 v -0.24606 h 0.16933 v -0.38364 h 0.28575 v 0.38364 h 0.36513 z"
         style="font-style:normal;font-variant:normal;font-weight:600;font-stretch:normal;font-family:'Titillium Web';-inkscape-font-specification:'Titillium Web Semi-Bold';letter-spacing:0.26458332px;fill:#f58220;fill-opacity:1;stroke-width:0.26458332"
         id="path14804" />
      <path
         inkscape:connector-curvature="0"
         d="m 121.83254,105.67923 0.0741,-0.008 0.005,0.21431 q -0.30162,0.0609 -0.53445,0.0609 -0.29369,0 -0.42334,-0.16139 -0.127,-0.1614 -0.127,-0.51594 0,-0.70379 0.57415,-0.70379 0.55562,0 0.55562,0.60589 l -0.0185,0.20638 h -0.82021 q 0.003,0.16404 0.0714,0.24077 0.0688,0.0767 0.25665,0.0767 0.18785,0 0.38629,-0.0159 z m -0.15875,-0.52387 q 0,-0.19579 -0.0635,-0.27252 -0.0609,-0.0794 -0.20902,-0.0794 -0.14817,0 -0.21696,0.082 -0.0661,0.082 -0.0688,0.26988 z"
         style="font-style:normal;font-variant:normal;font-weight:600;font-stretch:normal;font-family:'Titillium Web';-inkscape-font-specification:'Titillium Web Semi-Bold';letter-spacing:0.26458332px;fill:#f58220;fill-opacity:1;stroke-width:0.26458332"
         id="path14806" />
      <path
         inkscape:connector-curvature="0"
         d="m 122.78768,105.91736 h -0.28839 v -1.32292 h 0.28575 v 0.082 q 0.19314,-0.11112 0.36512,-0.11112 0.26458,0 0.35983,0.15081 0.0979,0.14817 0.0979,0.49213 v 0.70908 h -0.28575 v -0.70115 q 0,-0.21431 -0.0476,-0.30427 -0.045,-0.09 -0.18786,-0.09 -0.13494,0 -0.25929,0.0529 l -0.0397,0.0159 z"
         style="font-style:normal;font-variant:normal;font-weight:600;font-stretch:normal;font-family:'Titillium Web';-inkscape-font-specification:'Titillium Web Semi-Bold';letter-spacing:0.26458332px;fill:#f58220;fill-opacity:1;stroke-width:0.26458332"
         id="path14808" />
      <path
         inkscape:connector-curvature="0"
         d="m 126.09232,104.10496 h 0.30692 l -0.4445,1.8124 h -0.57679 l -0.4445,-1.8124 h 0.30692 l 0.35983,1.55311 h 0.13229 z"
         style="font-style:normal;font-variant:normal;font-weight:600;font-stretch:normal;font-family:'Titillium Web';-inkscape-font-specification:'Titillium Web Semi-Bold';letter-spacing:0.26458332px;fill:#f58220;fill-opacity:1;stroke-width:0.26458332"
         id="path14810" />
      <path
         inkscape:connector-curvature="0"
         d="m 126.92576,105.91736 v -1.8124 h 0.51065 l 0.40481,1.41552 0.40481,-1.41552 h 0.51329 v 1.8124 h -0.29633 v -1.48696 h -0.0397 l -0.42862,1.41288 h -0.30692 l -0.42862,-1.41288 h -0.0397 v 1.48696 z"
         style="font-style:normal;font-variant:normal;font-weight:600;font-stretch:normal;font-family:'Titillium Web';-inkscape-font-specification:'Titillium Web Semi-Bold';letter-spacing:0.26458332px;fill:#f58220;fill-opacity:1;stroke-width:0.26458332"
         id="path14812" />
      <path
         inkscape:connector-curvature="0"
         d="m 130.23834,105.91736 v -0.381 h 0.30956 v 0.381 z"
         style="font-style:normal;font-variant:normal;font-weight:600;font-stretch:normal;font-family:'Titillium Web';-inkscape-font-specification:'Titillium Web Semi-Bold';letter-spacing:0.26458332px;fill:#f58220;fill-opacity:1;stroke-width:0.26458332"
         id="path14814" />
      <path
         inkscape:connector-curvature="0"
         d="m 131.13527,105.91736 v -0.381 h 0.30957 v 0.381 z"
         style="font-style:normal;font-variant:normal;font-weight:600;font-stretch:normal;font-family:'Titillium Web';-inkscape-font-specification:'Titillium Web Semi-Bold';letter-spacing:0.26458332px;fill:#f58220;fill-opacity:1;stroke-width:0.26458332"
         id="path14816" />
      <path
         inkscape:connector-curvature="0"
         d="m 132.03221,105.91736 v -0.381 h 0.30956 v 0.381 z"
         style="font-style:normal;font-variant:normal;font-weight:600;font-stretch:normal;font-family:'Titillium Web';-inkscape-font-specification:'Titillium Web Semi-Bold';letter-spacing:0.26458332px;fill:#f58220;fill-opacity:1;stroke-width:0.26458332"
         id="path14818" />
    </g>
    <g
       aria-label="... und Nutzung der neuen Größen in den VMs."
       style="font-style:normal;font-variant:normal;font-weight:600;font-stretch:normal;font-size:2.64583325px;line-height:1.25;font-family:'Titillium Web';-inkscape-font-specification:'Titillium Web, Semi-Bold';font-variant-ligatures:normal;font-variant-caps:normal;font-variant-numeric:normal;font-feature-settings:normal;text-align:start;letter-spacing:0.26458332px;word-spacing:0px;writing-mode:lr-tb;text-anchor:start;display:inline;fill:#f58220;fill-opacity:1;stroke:none;stroke-width:0.26458332"
       id="text2506-18-3-7-7"
       transform="translate(22.048602,96.052016)">
      <path
         inkscape:connector-curvature="0"
         d="m 83.790081,148.41023 v -0.381 h 0.309562 v 0.381 z"
         style="font-style:normal;font-variant:normal;font-weight:600;font-stretch:normal;font-family:'Titillium Web';-inkscape-font-specification:'Titillium Web Semi-Bold';letter-spacing:0.26458332px;fill:#f58220;fill-opacity:1;stroke-width:0.26458332"
         id="path14686" />
      <path
         inkscape:connector-curvature="0"
         d="m 84.687014,148.41023 v -0.381 h 0.309563 v 0.381 z"
         style="font-style:normal;font-variant:normal;font-weight:600;font-stretch:normal;font-family:'Titillium Web';-inkscape-font-specification:'Titillium Web Semi-Bold';letter-spacing:0.26458332px;fill:#f58220;fill-opacity:1;stroke-width:0.26458332"
         id="path14688" />
      <path
         inkscape:connector-curvature="0"
         d="m 85.583947,148.41023 v -0.381 h 0.309563 v 0.381 z"
         style="font-style:normal;font-variant:normal;font-weight:600;font-stretch:normal;font-family:'Titillium Web';-inkscape-font-specification:'Titillium Web Semi-Bold';letter-spacing:0.26458332px;fill:#f58220;fill-opacity:1;stroke-width:0.26458332"
         id="path14690" />
      <path
         inkscape:connector-curvature="0"
         d="m 88.142462,147.08732 h 0.28575 v 1.32291 h -0.28575 v -0.082 q -0.193146,0.11113 -0.357187,0.11113 -0.272521,0 -0.365125,-0.14552 -0.09261,-0.14817 -0.09261,-0.51594 v -0.69056 h 0.288396 v 0.6932 q 0,0.23813 0.03969,0.32015 0.03969,0.082 0.185208,0.082 0.142875,0 0.261938,-0.0529 l 0.03969,-0.0159 z"
         style="font-style:normal;font-variant:normal;font-weight:600;font-stretch:normal;font-family:'Titillium Web';-inkscape-font-specification:'Titillium Web Semi-Bold';letter-spacing:0.26458332px;fill:#f58220;fill-opacity:1;stroke-width:0.26458332"
         id="path14692" />
      <path
         inkscape:connector-curvature="0"
         d="m 89.33044,148.41023 h -0.288396 v -1.32291 h 0.28575 v 0.082 q 0.193146,-0.11113 0.365125,-0.11113 0.264583,0 0.359833,0.15081 0.0979,0.14817 0.0979,0.49213 v 0.70908 h -0.28575 v -0.70114 q 0,-0.21432 -0.04762,-0.30427 -0.04498,-0.09 -0.187854,-0.09 -0.134938,0 -0.259292,0.0529 l -0.03969,0.0159 z"
         style="font-style:normal;font-variant:normal;font-weight:600;font-stretch:normal;font-family:'Titillium Web';-inkscape-font-specification:'Titillium Web Semi-Bold';letter-spacing:0.26458332px;fill:#f58220;fill-opacity:1;stroke-width:0.26458332"
         id="path14694" />
      <path
         inkscape:connector-curvature="0"
         d="m 91.830751,146.53698 v 1.87325 h -0.28575 v -0.0688 q -0.193146,0.0979 -0.354542,0.0979 -0.259292,0 -0.381,-0.15611 -0.119062,-0.1561 -0.119062,-0.52387 0,-0.36777 0.132291,-0.53446 0.134938,-0.16669 0.418042,-0.16669 0.09525,0 0.301625,0.0344 v -0.55563 z m -0.333375,1.59809 0.04498,-0.0185 v -0.78317 q -0.15875,-0.0265 -0.293688,-0.0265 -0.267229,0 -0.267229,0.4445 0,0.24342 0.06085,0.33867 0.0635,0.0926 0.198438,0.0926 0.134937,0 0.256646,-0.0476 z"
         style="font-style:normal;font-variant:normal;font-weight:600;font-stretch:normal;font-family:'Titillium Web';-inkscape-font-specification:'Titillium Web Semi-Bold';letter-spacing:0.26458332px;fill:#f58220;fill-opacity:1;stroke-width:0.26458332"
         id="path14696" />
      <path
         inkscape:connector-curvature="0"
         d="m 93.325642,148.41023 v -1.81239 h 0.513291 l 0.550334,1.5531 h 0.03969 v -1.5531 h 0.293688 v 1.81239 h -0.502709 l -0.563562,-1.55575 h -0.03704 v 1.55575 z"
         style="font-style:normal;font-variant:normal;font-weight:600;font-stretch:normal;font-family:'Titillium Web';-inkscape-font-specification:'Titillium Web Semi-Bold';letter-spacing:0.26458332px;fill:#f58220;fill-opacity:1;stroke-width:0.26458332"
         id="path14698" />
      <path
         inkscape:connector-curvature="0"
         d="m 96.172556,147.08732 h 0.28575 v 1.32291 h -0.28575 v -0.082 q -0.193146,0.11113 -0.357188,0.11113 -0.272521,0 -0.365125,-0.14552 -0.0926,-0.14817 -0.0926,-0.51594 v -0.69056 h 0.288396 v 0.6932 q 0,0.23813 0.03969,0.32015 0.03969,0.082 0.185209,0.082 0.142875,0 0.261937,-0.0529 l 0.03969,-0.0159 z"
         style="font-style:normal;font-variant:normal;font-weight:600;font-stretch:normal;font-family:'Titillium Web';-inkscape-font-specification:'Titillium Web Semi-Bold';letter-spacing:0.26458332px;fill:#f58220;fill-opacity:1;stroke-width:0.26458332"
         id="path14700" />
      <path
         inkscape:connector-curvature="0"
         d="m 97.783867,147.33338 h -0.365125 v 0.58208 q 0,0.1614 0.02381,0.21431 0.02381,0.0529 0.121708,0.0529 l 0.216959,-0.008 0.01323,0.23019 q -0.177271,0.0344 -0.269875,0.0344 -0.224896,0 -0.309563,-0.10319 -0.08202,-0.10319 -0.08202,-0.38894 v -0.61383 h -0.169334 v -0.24606 h 0.169334 v -0.38365 h 0.28575 v 0.38365 h 0.365125 z"
         style="font-style:normal;font-variant:normal;font-weight:600;font-stretch:normal;font-family:'Titillium Web';-inkscape-font-specification:'Titillium Web Semi-Bold';letter-spacing:0.26458332px;fill:#f58220;fill-opacity:1;stroke-width:0.26458332"
         id="path14702" />
      <path
         inkscape:connector-curvature="0"
         d="m 98.217783,147.34396 v -0.25664 h 0.981604 v 0.25664 l -0.635,0.80963 h 0.635 v 0.25664 h -0.981604 v -0.25664 l 0.637645,-0.80963 z"
         style="font-style:normal;font-variant:normal;font-weight:600;font-stretch:normal;font-family:'Titillium Web';-inkscape-font-specification:'Titillium Web Semi-Bold';letter-spacing:0.26458332px;fill:#f58220;fill-opacity:1;stroke-width:0.26458332"
         id="path14704" />
      <path
         inkscape:connector-curvature="0"
         d="m 100.5514,147.08732 h 0.28575 v 1.32291 h -0.28575 v -0.082 q -0.19314,0.11113 -0.35718,0.11113 -0.272524,0 -0.365129,-0.14552 -0.0926,-0.14817 -0.0926,-0.51594 v -0.69056 h 0.288389 v 0.6932 q 0,0.23813 0.0397,0.32015 0.0397,0.082 0.18521,0.082 0.14287,0 0.26194,-0.0529 l 0.0397,-0.0159 z"
         style="font-style:normal;font-variant:normal;font-weight:600;font-stretch:normal;font-family:'Titillium Web';-inkscape-font-specification:'Titillium Web Semi-Bold';letter-spacing:0.26458332px;fill:#f58220;fill-opacity:1;stroke-width:0.26458332"
         id="path14706" />
      <path
         inkscape:connector-curvature="0"
         d="m 101.73938,148.41023 h -0.2884 v -1.32291 h 0.28575 v 0.082 q 0.19315,-0.11113 0.36513,-0.11113 0.26458,0 0.35983,0.15081 0.0979,0.14817 0.0979,0.49213 v 0.70908 h -0.28575 v -0.70114 q 0,-0.21432 -0.0476,-0.30427 -0.045,-0.09 -0.18785,-0.09 -0.13494,0 -0.25929,0.0529 l -0.0397,0.0159 z"
         style="font-style:normal;font-variant:normal;font-weight:600;font-stretch:normal;font-family:'Titillium Web';-inkscape-font-specification:'Titillium Web Semi-Bold';letter-spacing:0.26458332px;fill:#f58220;fill-opacity:1;stroke-width:0.26458332"
         id="path14708" />
      <path
         inkscape:connector-curvature="0"
         d="m 104.31642,148.59015 q 0,0.43392 -0.62706,0.43392 -0.30163,0 -0.44715,-0.082 -0.14552,-0.082 -0.14552,-0.29898 0,-0.0979 0.0476,-0.16934 0.0476,-0.0688 0.15346,-0.15081 -0.0873,-0.0582 -0.0873,-0.19315 0,-0.0529 0.0714,-0.17197 l 0.0238,-0.0397 q -0.1905,-0.11377 -0.1905,-0.39688 0,-0.23812 0.14288,-0.34925 0.14287,-0.11112 0.38629,-0.11112 0.11642,0 0.23019,0.0265 l 0.0397,0.008 0.41011,-0.0106 v 0.23283 l -0.21961,-0.0132 q 0.0714,0.0926 0.0714,0.21696 0,0.25929 -0.13229,0.35984 -0.12965,0.0979 -0.40746,0.0979 -0.0688,0 -0.11641,-0.0106 -0.0371,0.09 -0.0371,0.14023 0,0.0476 0.0476,0.0661 0.0503,0.0185 0.23812,0.0212 0.31486,0.003 0.43127,0.0847 0.11642,0.082 0.11642,0.30956 z m -0.93662,0.0265 q 0,0.0926 0.0741,0.13229 0.0741,0.0397 0.254,0.0397 0.32015,0 0.32015,-0.18257 0,-0.10318 -0.0582,-0.13229 -0.0556,-0.0265 -0.2249,-0.0291 l -0.25929,-0.0159 q -0.0582,0.0476 -0.082,0.0873 -0.0238,0.0423 -0.0238,0.10054 z m 0.0212,-1.09538 q 0,0.12171 0.0582,0.17992 0.0582,0.0556 0.18786,0.0556 0.12964,0 0.1852,-0.0556 0.0582,-0.0582 0.0582,-0.17992 0,-0.12171 -0.0582,-0.17727 -0.0582,-0.0582 -0.18785,-0.0582 -0.24342,0 -0.24342,0.23548 z"
         style="font-style:normal;font-variant:normal;font-weight:600;font-stretch:normal;font-family:'Titillium Web';-inkscape-font-specification:'Titillium Web Semi-Bold';letter-spacing:0.26458332px;fill:#f58220;fill-opacity:1;stroke-width:0.26458332"
         id="path14710" />
      <path
         inkscape:connector-curvature="0"
         d="m 106.74,146.53698 v 1.87325 h -0.28575 v -0.0688 q -0.19314,0.0979 -0.35454,0.0979 -0.25929,0 -0.381,-0.15611 -0.11906,-0.1561 -0.11906,-0.52387 0,-0.36777 0.13229,-0.53446 0.13494,-0.16669 0.41804,-0.16669 0.0953,0 0.30163,0.0344 v -0.55563 z m -0.33337,1.59809 0.045,-0.0185 v -0.78317 q -0.15875,-0.0265 -0.29369,-0.0265 -0.26723,0 -0.26723,0.4445 0,0.24342 0.0608,0.33867 0.0635,0.0926 0.19844,0.0926 0.13494,0 0.25665,-0.0476 z"
         style="font-style:normal;font-variant:normal;font-weight:600;font-stretch:normal;font-family:'Titillium Web';-inkscape-font-specification:'Titillium Web Semi-Bold';letter-spacing:0.26458332px;fill:#f58220;fill-opacity:1;stroke-width:0.26458332"
         id="path14712" />
      <path
         inkscape:connector-curvature="0"
         d="m 108.29575,148.17211 0.0741,-0.008 0.005,0.21431 q -0.30162,0.0609 -0.53445,0.0609 -0.29369,0 -0.42334,-0.1614 -0.127,-0.16139 -0.127,-0.51594 0,-0.70379 0.57415,-0.70379 0.55562,0 0.55562,0.6059 l -0.0185,0.20637 h -0.82021 q 0.003,0.16404 0.0714,0.24077 0.0688,0.0767 0.25665,0.0767 0.18785,0 0.38629,-0.0159 z m -0.15875,-0.52388 q 0,-0.19579 -0.0635,-0.27252 -0.0609,-0.0794 -0.20902,-0.0794 -0.14817,0 -0.21696,0.082 -0.0661,0.082 -0.0688,0.26987 z"
         style="font-style:normal;font-variant:normal;font-weight:600;font-stretch:normal;font-family:'Titillium Web';-inkscape-font-specification:'Titillium Web Semi-Bold';letter-spacing:0.26458332px;fill:#f58220;fill-opacity:1;stroke-width:0.26458332"
         id="path14714" />
      <path
         inkscape:connector-curvature="0"
         d="m 108.9625,148.41023 v -1.32291 h 0.28575 v 0.15875 q 0.22489,-0.14552 0.44979,-0.18786 v 0.2884 q -0.22754,0.045 -0.38894,0.11641 l -0.0582,0.0238 v 0.92339 z"
         style="font-style:normal;font-variant:normal;font-weight:600;font-stretch:normal;font-family:'Titillium Web';-inkscape-font-specification:'Titillium Web Semi-Bold';letter-spacing:0.26458332px;fill:#f58220;fill-opacity:1;stroke-width:0.26458332"
         id="path14716" />
      <path
         inkscape:connector-curvature="0"
         d="m 111.31728,148.41023 h -0.28839 v -1.32291 h 0.28575 v 0.082 q 0.19314,-0.11113 0.36512,-0.11113 0.26458,0 0.35983,0.15081 0.0979,0.14817 0.0979,0.49213 v 0.70908 h -0.28575 v -0.70114 q 0,-0.21432 -0.0476,-0.30427 -0.045,-0.09 -0.18786,-0.09 -0.13494,0 -0.25929,0.0529 l -0.0397,0.0159 z"
         style="font-style:normal;font-variant:normal;font-weight:600;font-stretch:normal;font-family:'Titillium Web';-inkscape-font-specification:'Titillium Web Semi-Bold';letter-spacing:0.26458332px;fill:#f58220;fill-opacity:1;stroke-width:0.26458332"
         id="path14718" />
      <path
         inkscape:connector-curvature="0"
         d="m 113.68001,148.17211 0.0741,-0.008 0.005,0.21431 q -0.30163,0.0609 -0.53446,0.0609 -0.29369,0 -0.42334,-0.1614 -0.127,-0.16139 -0.127,-0.51594 0,-0.70379 0.57415,-0.70379 0.55562,0 0.55562,0.6059 l -0.0185,0.20637 h -0.8202 q 0.003,0.16404 0.0714,0.24077 0.0688,0.0767 0.25665,0.0767 0.18785,0 0.38629,-0.0159 z m -0.15875,-0.52388 q 0,-0.19579 -0.0635,-0.27252 -0.0608,-0.0794 -0.20902,-0.0794 -0.14817,0 -0.21696,0.082 -0.0661,0.082 -0.0688,0.26987 z"
         style="font-style:normal;font-variant:normal;font-weight:600;font-stretch:normal;font-family:'Titillium Web';-inkscape-font-specification:'Titillium Web Semi-Bold';letter-spacing:0.26458332px;fill:#f58220;fill-opacity:1;stroke-width:0.26458332"
         id="path14720" />
      <path
         inkscape:connector-curvature="0"
         d="m 115.14844,147.08732 h 0.28575 v 1.32291 h -0.28575 v -0.082 q -0.19314,0.11113 -0.35718,0.11113 -0.27252,0 -0.36513,-0.14552 -0.0926,-0.14817 -0.0926,-0.51594 v -0.69056 h 0.28839 v 0.6932 q 0,0.23813 0.0397,0.32015 0.0397,0.082 0.18521,0.082 0.14287,0 0.26194,-0.0529 l 0.0397,-0.0159 z"
         style="font-style:normal;font-variant:normal;font-weight:600;font-stretch:normal;font-family:'Titillium Web';-inkscape-font-specification:'Titillium Web Semi-Bold';letter-spacing:0.26458332px;fill:#f58220;fill-opacity:1;stroke-width:0.26458332"
         id="path14722" />
      <path
         inkscape:connector-curvature="0"
         d="m 116.98994,148.17211 0.0741,-0.008 0.005,0.21431 q -0.30163,0.0609 -0.53446,0.0609 -0.29369,0 -0.42333,-0.1614 -0.127,-0.16139 -0.127,-0.51594 0,-0.70379 0.57414,-0.70379 0.55563,0 0.55563,0.6059 l -0.0185,0.20637 h -0.82021 q 0.003,0.16404 0.0714,0.24077 0.0688,0.0767 0.25664,0.0767 0.18786,0 0.38629,-0.0159 z m -0.15875,-0.52388 q 0,-0.19579 -0.0635,-0.27252 -0.0609,-0.0794 -0.20902,-0.0794 -0.14816,0 -0.21696,0.082 -0.0661,0.082 -0.0688,0.26987 z"
         style="font-style:normal;font-variant:normal;font-weight:600;font-stretch:normal;font-family:'Titillium Web';-inkscape-font-specification:'Titillium Web Semi-Bold';letter-spacing:0.26458332px;fill:#f58220;fill-opacity:1;stroke-width:0.26458332"
         id="path14724" />
      <path
         inkscape:connector-curvature="0"
         d="m 117.94509,148.41023 h -0.2884 v -1.32291 h 0.28575 v 0.082 q 0.19315,-0.11113 0.36513,-0.11113 0.26458,0 0.35983,0.15081 0.0979,0.14817 0.0979,0.49213 v 0.70908 h -0.28575 v -0.70114 q 0,-0.21432 -0.0476,-0.30427 -0.045,-0.09 -0.18785,-0.09 -0.13494,0 -0.25929,0.0529 l -0.0397,0.0159 z"
         style="font-style:normal;font-variant:normal;font-weight:600;font-stretch:normal;font-family:'Titillium Web';-inkscape-font-specification:'Titillium Web Semi-Bold';letter-spacing:0.26458332px;fill:#f58220;fill-opacity:1;stroke-width:0.26458332"
         id="path14726" />
      <path
         inkscape:connector-curvature="0"
         d="m 120.98515,147.71702 v -0.25929 h 0.51594 v 0.92075 q -0.0714,0.0185 -0.29104,0.0397 -0.21696,0.0212 -0.31486,0.0212 -0.41275,0 -0.56885,-0.22754 -0.15611,-0.22755 -0.15611,-0.71173 0,-0.48684 0.15875,-0.70909 0.1614,-0.22225 0.55563,-0.22225 0.23283,0 0.52387,0.0529 l 0.0926,0.0185 -0.0106,0.23283 q -0.32014,-0.0423 -0.57414,-0.0423 -0.254,0 -0.34925,0.14288 -0.0926,0.14287 -0.0926,0.52916 0,0.38629 0.0873,0.53446 0.09,0.14552 0.35983,0.14552 0.19315,0 0.2884,-0.0238 v -0.44186 z"
         style="font-style:normal;font-variant:normal;font-weight:600;font-stretch:normal;font-family:'Titillium Web';-inkscape-font-specification:'Titillium Web Semi-Bold';letter-spacing:0.26458332px;fill:#f58220;fill-opacity:1;stroke-width:0.26458332"
         id="path14728" />
      <path
         inkscape:connector-curvature="0"
         d="m 122.09904,148.41023 v -1.32291 h 0.28575 v 0.15875 q 0.2249,-0.14552 0.44979,-0.18786 v 0.2884 q -0.22754,0.045 -0.38894,0.11641 l -0.0582,0.0238 v 0.92339 z"
         style="font-style:normal;font-variant:normal;font-weight:600;font-stretch:normal;font-family:'Titillium Web';-inkscape-font-specification:'Titillium Web Semi-Bold';letter-spacing:0.26458332px;fill:#f58220;fill-opacity:1;stroke-width:0.26458332"
         id="path14730" />
      <path
         inkscape:connector-curvature="0"
         d="m 123.37962,147.23019 q 0.13758,-0.17198 0.45508,-0.17198 0.3175,0 0.45244,0.17198 0.13758,0.17198 0.13758,0.51594 0,0.34396 -0.13229,0.51858 -0.13229,0.17463 -0.45773,0.17463 -0.32544,0 -0.45773,-0.17463 -0.13229,-0.17462 -0.13229,-0.51858 0,-0.34396 0.13494,-0.51594 z m 0.21695,0.8599 q 0.0609,0.10583 0.23813,0.10583 0.17727,0 0.23812,-0.10583 0.0609,-0.10584 0.0609,-0.34661 0,-0.24077 -0.0661,-0.34131 -0.0635,-0.10054 -0.23283,-0.10054 -0.16933,0 -0.23548,0.10054 -0.0635,0.10054 -0.0635,0.34131 0,0.24077 0.0609,0.34661 z m -0.17991,-1.28588 v -0.30162 h 0.27516 v 0.30162 z m 0.55298,0 v -0.30162 h 0.27516 v 0.30162 z"
         style="font-style:normal;font-variant:normal;font-weight:600;font-stretch:normal;font-family:'Titillium Web';-inkscape-font-specification:'Titillium Web Semi-Bold';letter-spacing:0.26458332px;fill:#f58220;fill-opacity:1;stroke-width:0.26458332"
         id="path14732" />
      <path
         inkscape:connector-curvature="0"
         d="m 125.26344,148.41023 h -0.28839 v -1.40758 q 0,-0.26988 0.13229,-0.381 0.13229,-0.11377 0.43127,-0.11377 0.29898,0 0.43656,0.0952 0.13759,0.0926 0.13759,0.30692 0,0.14022 -0.0556,0.21166 -0.0529,0.0688 -0.16404,0.11906 -0.11112,0.0503 -0.14023,0.0741 -0.0291,0.0238 -0.0291,0.0608 0,0.037 0.0423,0.0714 0.045,0.0318 0.21696,0.11377 0.17198,0.082 0.24342,0.16404 0.0741,0.082 0.0741,0.23548 0,0.26723 -0.12171,0.37306 -0.12171,0.10584 -0.41275,0.10584 -0.15081,0 -0.32014,-0.037 l -0.0609,-0.0132 0.0106,-0.23284 q 0.24341,0.0291 0.36777,0.0291 0.24077,0 0.24077,-0.18257 0,-0.0794 -0.0476,-0.1217 -0.045,-0.0423 -0.21431,-0.12171 -0.17727,-0.0767 -0.24606,-0.15346 -0.0688,-0.0794 -0.0688,-0.19844 0,-0.12171 0.0476,-0.18785 0.0476,-0.0661 0.1561,-0.11113 0.11113,-0.0476 0.14817,-0.0847 0.037,-0.037 0.037,-0.11113 0,-0.0741 -0.0582,-0.11112 -0.0582,-0.0397 -0.21695,-0.0397 -0.15611,0 -0.21696,0.0556 -0.0609,0.0556 -0.0609,0.19844 z"
         style="font-style:normal;font-variant:normal;font-weight:600;font-stretch:normal;font-family:'Titillium Web';-inkscape-font-specification:'Titillium Web Semi-Bold';letter-spacing:0.26458332px;fill:#f58220;fill-opacity:1;stroke-width:0.26458332"
         id="path14734" />
      <path
         inkscape:connector-curvature="0"
         d="m 127.75582,148.17211 0.0741,-0.008 0.005,0.21431 q -0.30162,0.0609 -0.53446,0.0609 -0.29368,0 -0.42333,-0.1614 -0.127,-0.16139 -0.127,-0.51594 0,-0.70379 0.57415,-0.70379 0.55562,0 0.55562,0.6059 l -0.0185,0.20637 h -0.82021 q 0.003,0.16404 0.0714,0.24077 0.0688,0.0767 0.25664,0.0767 0.18786,0 0.3863,-0.0159 z m -0.15875,-0.52388 q 0,-0.19579 -0.0635,-0.27252 -0.0609,-0.0794 -0.20902,-0.0794 -0.14817,0 -0.21696,0.082 -0.0662,0.082 -0.0688,0.26987 z"
         style="font-style:normal;font-variant:normal;font-weight:600;font-stretch:normal;font-family:'Titillium Web';-inkscape-font-specification:'Titillium Web Semi-Bold';letter-spacing:0.26458332px;fill:#f58220;fill-opacity:1;stroke-width:0.26458332"
         id="path14736" />
      <path
         inkscape:connector-curvature="0"
         d="m 128.71096,148.41023 h -0.28839 v -1.32291 h 0.28575 v 0.082 q 0.19314,-0.11113 0.36512,-0.11113 0.26458,0 0.35983,0.15081 0.0979,0.14817 0.0979,0.49213 v 0.70908 h -0.28575 v -0.70114 q 0,-0.21432 -0.0476,-0.30427 -0.045,-0.09 -0.18785,-0.09 -0.13494,0 -0.25929,0.0529 l -0.0397,0.0159 z"
         style="font-style:normal;font-variant:normal;font-weight:600;font-stretch:normal;font-family:'Titillium Web';-inkscape-font-specification:'Titillium Web Semi-Bold';letter-spacing:0.26458332px;fill:#f58220;fill-opacity:1;stroke-width:0.26458332"
         id="path14738" />
      <path
         inkscape:connector-curvature="0"
         d="m 130.97844,148.41023 v -1.32291 h 0.28839 v 1.32291 z m 0,-1.54781 v -0.30427 h 0.28839 v 0.30427 z"
         style="font-style:normal;font-variant:normal;font-weight:600;font-stretch:normal;font-family:'Titillium Web';-inkscape-font-specification:'Titillium Web Semi-Bold';letter-spacing:0.26458332px;fill:#f58220;fill-opacity:1;stroke-width:0.26458332"
         id="path14740" />
      <path
         inkscape:connector-curvature="0"
         d="m 132.16906,148.41023 h -0.2884 v -1.32291 h 0.28575 v 0.082 q 0.19315,-0.11113 0.36513,-0.11113 0.26458,0 0.35983,0.15081 0.0979,0.14817 0.0979,0.49213 v 0.70908 h -0.28575 v -0.70114 q 0,-0.21432 -0.0476,-0.30427 -0.045,-0.09 -0.18785,-0.09 -0.13494,0 -0.25929,0.0529 l -0.0397,0.0159 z"
         style="font-style:normal;font-variant:normal;font-weight:600;font-stretch:normal;font-family:'Titillium Web';-inkscape-font-specification:'Titillium Web Semi-Bold';letter-spacing:0.26458332px;fill:#f58220;fill-opacity:1;stroke-width:0.26458332"
         id="path14742" />
      <path
         inkscape:connector-curvature="0"
         d="m 135.51604,146.53698 v 1.87325 h -0.28575 v -0.0688 q -0.19315,0.0979 -0.35454,0.0979 -0.2593,0 -0.381,-0.15611 -0.11907,-0.1561 -0.11907,-0.52387 0,-0.36777 0.1323,-0.53446 0.13493,-0.16669 0.41804,-0.16669 0.0952,0 0.30162,0.0344 v -0.55563 z m -0.33338,1.59809 0.045,-0.0185 v -0.78317 q -0.15875,-0.0265 -0.29369,-0.0265 -0.26722,0 -0.26722,0.4445 0,0.24342 0.0608,0.33867 0.0635,0.0926 0.19844,0.0926 0.13493,0 0.25664,-0.0476 z"
         style="font-style:normal;font-variant:normal;font-weight:600;font-stretch:normal;font-family:'Titillium Web';-inkscape-font-specification:'Titillium Web Semi-Bold';letter-spacing:0.26458332px;fill:#f58220;fill-opacity:1;stroke-width:0.26458332"
         id="path14744" />
      <path
         inkscape:connector-curvature="0"
         d="m 137.07178,148.17211 0.0741,-0.008 0.005,0.21431 q -0.30163,0.0609 -0.53446,0.0609 -0.29369,0 -0.42333,-0.1614 -0.127,-0.16139 -0.127,-0.51594 0,-0.70379 0.57414,-0.70379 0.55563,0 0.55563,0.6059 l -0.0185,0.20637 h -0.82021 q 0.003,0.16404 0.0714,0.24077 0.0688,0.0767 0.25664,0.0767 0.18786,0 0.38629,-0.0159 z m -0.15875,-0.52388 q 0,-0.19579 -0.0635,-0.27252 -0.0608,-0.0794 -0.20902,-0.0794 -0.14816,0 -0.21696,0.082 -0.0661,0.082 -0.0688,0.26987 z"
         style="font-style:normal;font-variant:normal;font-weight:600;font-stretch:normal;font-family:'Titillium Web';-inkscape-font-specification:'Titillium Web Semi-Bold';letter-spacing:0.26458332px;fill:#f58220;fill-opacity:1;stroke-width:0.26458332"
         id="path14746" />
      <path
         inkscape:connector-curvature="0"
         d="m 138.02693,148.41023 h -0.2884 v -1.32291 h 0.28575 v 0.082 q 0.19315,-0.11113 0.36513,-0.11113 0.26458,0 0.35983,0.15081 0.0979,0.14817 0.0979,0.49213 v 0.70908 h -0.28575 v -0.70114 q 0,-0.21432 -0.0476,-0.30427 -0.045,-0.09 -0.18785,-0.09 -0.13494,0 -0.25929,0.0529 l -0.0397,0.0159 z"
         style="font-style:normal;font-variant:normal;font-weight:600;font-stretch:normal;font-family:'Titillium Web';-inkscape-font-specification:'Titillium Web Semi-Bold';letter-spacing:0.26458332px;fill:#f58220;fill-opacity:1;stroke-width:0.26458332"
         id="path14748" />
      <path
         inkscape:connector-curvature="0"
         d="m 141.33157,146.59784 h 0.30692 l -0.4445,1.81239 h -0.57679 l -0.4445,-1.81239 h 0.30691 l 0.35984,1.5531 h 0.13229 z"
         style="font-style:normal;font-variant:normal;font-weight:600;font-stretch:normal;font-family:'Titillium Web';-inkscape-font-specification:'Titillium Web Semi-Bold';letter-spacing:0.26458332px;fill:#f58220;fill-opacity:1;stroke-width:0.26458332"
         id="path14750" />
      <path
         inkscape:connector-curvature="0"
         d="m 142.16501,148.41023 v -1.81239 h 0.51064 l 0.40482,1.41552 0.40481,-1.41552 h 0.51329 v 1.81239 h -0.29633 v -1.48696 h -0.0397 l -0.42863,1.41288 H 142.927 l -0.42863,-1.41288 h -0.0397 v 1.48696 z"
         style="font-style:normal;font-variant:normal;font-weight:600;font-stretch:normal;font-family:'Titillium Web';-inkscape-font-specification:'Titillium Web Semi-Bold';letter-spacing:0.26458332px;fill:#f58220;fill-opacity:1;stroke-width:0.26458332"
         id="path14752" />
      <path
         inkscape:connector-curvature="0"
         d="m 145.56225,147.35984 q -0.3122,-0.0423 -0.45243,-0.0423 -0.14023,0 -0.1958,0.0344 -0.0529,0.0317 -0.0529,0.10319 0,0.0714 0.0582,0.10054 0.0608,0.0291 0.28045,0.0688 0.22225,0.037 0.31486,0.11906 0.0926,0.082 0.0926,0.29104 0,0.20903 -0.13493,0.30692 -0.1323,0.0979 -0.38894,0.0979 -0.1614,0 -0.40746,-0.045 l -0.082,-0.0132 0.0106,-0.24077 q 0.3175,0.0423 0.45773,0.0423 0.14023,0 0.19844,-0.0344 0.0609,-0.0344 0.0609,-0.11378 0,-0.0794 -0.0582,-0.10847 -0.0556,-0.0318 -0.27252,-0.0661 -0.21431,-0.037 -0.31485,-0.11377 -0.10054,-0.0767 -0.10054,-0.28046 0,-0.20373 0.13758,-0.30427 0.14023,-0.10054 0.35719,-0.10054 0.16933,0 0.41539,0.0423 l 0.082,0.0159 z"
         style="font-style:normal;font-variant:normal;font-weight:600;font-stretch:normal;font-family:'Titillium Web';-inkscape-font-specification:'Titillium Web Semi-Bold';letter-spacing:0.26458332px;fill:#f58220;fill-opacity:1;stroke-width:0.26458332"
         id="path14754" />
      <path
         inkscape:connector-curvature="0"
         d="m 146.1364,148.41023 v -0.381 h 0.30956 v 0.381 z"
         style="font-style:normal;font-variant:normal;font-weight:600;font-stretch:normal;font-family:'Titillium Web';-inkscape-font-specification:'Titillium Web Semi-Bold';letter-spacing:0.26458332px;fill:#f58220;fill-opacity:1;stroke-width:0.26458332"
         id="path14756" />
    </g>
    <g
       transform="matrix(0.41775488,0,0,0.41775488,81.914866,166.20143)"
       id="text6973-6-3-7-7"
       style="font-style:normal;font-variant:normal;font-weight:normal;font-stretch:normal;font-size:6.3499999px;line-height:125%;font-family:'Titillium Web';-inkscape-font-specification:'Titillium Web, Normal';text-align:start;letter-spacing:0px;word-spacing:26.45829964px;writing-mode:lr-tb;text-anchor:start;display:inline;fill:#ffffff;fill-opacity:1;stroke:none;stroke-width:0.26458299px;stroke-linecap:butt;stroke-linejoin:miter;stroke-opacity:1"
       aria-label="KVM">
      <path
         inkscape:connector-curvature="0"
         id="path5918-6-6"
         style="font-style:normal;font-variant:normal;font-weight:600;font-stretch:normal;font-size:6.3499999px;font-family:'Titillium Web';-inkscape-font-specification:'Titillium Web Semi-Bold';fill:#ffffff;stroke-width:0.26458299px"
         d="m 126.47361,147.67926 h -0.70485 v -4.34975 h 0.70485 v 1.96215 l 0.6477,-0.0508 0.889,-1.91135 h 0.80645 l -1.07315,2.1844 1.1176,2.16535 h -0.81915 l -0.92075,-1.8161 -0.6477,0.0445 z" />
      <path
         inkscape:connector-curvature="0"
         id="path5920-5-0"
         style="font-style:normal;font-variant:normal;font-weight:600;font-stretch:normal;font-size:6.3499999px;font-family:'Titillium Web';-inkscape-font-specification:'Titillium Web Semi-Bold';fill:#ffffff;stroke-width:0.26458299px"
         d="m 131.88371,143.32951 h 0.7366 l -1.0668,4.34975 h -1.3843 l -1.0668,-4.34975 h 0.7366 l 0.8636,3.72745 h 0.3175 z" />
      <path
         inkscape:connector-curvature="0"
         id="path5922-6-9"
         style="font-style:normal;font-variant:normal;font-weight:600;font-stretch:normal;font-size:6.3499999px;font-family:'Titillium Web';-inkscape-font-specification:'Titillium Web Semi-Bold';fill:#ffffff;stroke-width:0.26458299px"
         d="m 133.24738,147.67926 v -4.34975 h 1.22555 l 0.97155,3.39725 0.97155,-3.39725 h 1.2319 v 4.34975 h -0.7112 v -3.5687 h -0.0953 l -1.0287,3.3909 h -0.7366 l -1.0287,-3.3909 h -0.0953 v 3.5687 z" />
    </g>
    <g
       transform="matrix(0.41775488,0,0,0.41775488,81.915081,166.20145)"
       id="text6973-6-2-9-7"
       style="font-style:normal;font-variant:normal;font-weight:normal;font-stretch:normal;font-size:6.3499999px;line-height:125%;font-family:'Titillium Web';-inkscape-font-specification:'Titillium Web, Normal';text-align:start;letter-spacing:0px;word-spacing:26.45829964px;writing-mode:lr-tb;text-anchor:start;display:inline;fill:#ffffff;fill-opacity:1;stroke:none;stroke-width:0.26458299px;stroke-linecap:butt;stroke-linejoin:miter;stroke-opacity:1"
       aria-label="XCP-ng">
      <path
         inkscape:connector-curvature="0"
         id="path5905-3-5"
         style="font-style:normal;font-variant:normal;font-weight:600;font-stretch:normal;font-size:6.3499999px;font-family:'Titillium Web';-inkscape-font-specification:'Titillium Web Semi-Bold';fill:#ffffff;fill-opacity:1;stroke-width:0.26458299px"
         d="m 201.90302,142.62779 0.93345,1.7145 0.94615,-1.7145 h 0.74295 l -1.28905,2.2098 1.28905,2.13995 h -0.7874 l -0.93345,-1.6383 -0.9525,1.6383 h -0.74295 l 1.2954,-2.10185 -1.2954,-2.2479 z" />
      <path
         inkscape:connector-curvature="0"
         id="path5907-7-9"
         style="font-style:normal;font-variant:normal;font-weight:600;font-stretch:normal;font-size:6.3499999px;font-family:'Titillium Web';-inkscape-font-specification:'Titillium Web Semi-Bold';fill:#ffffff;fill-opacity:1;stroke-width:0.26458299px"
         d="m 206.46152,147.04739 q -0.9525,0 -1.2954,-0.52705 -0.33655,-0.52705 -0.33655,-1.73355 0,-1.2065 0.3429,-1.7145 0.3429,-0.51435 1.28905,-0.51435 0.56515,0 1.2446,0.15875 l -0.0254,0.5715 q -0.5715,-0.1016 -1.143,-0.1016 -0.5715,0 -0.7747,0.3429 -0.2032,0.33655 -0.2032,1.27635 0,0.93345 0.19685,1.27635 0.19685,0.33655 0.76835,0.33655 0.5715,0 1.1557,-0.0953 l 0.019,0.5842 q -0.65405,0.1397 -1.23825,0.1397 z" />
      <path
         inkscape:connector-curvature="0"
         id="path5909-4-7"
         style="font-style:normal;font-variant:normal;font-weight:600;font-stretch:normal;font-size:6.3499999px;font-family:'Titillium Web';-inkscape-font-specification:'Titillium Web Semi-Bold';fill:#ffffff;fill-opacity:1;stroke-width:0.26458299px"
         d="m 210.05513,145.62499 h -0.889 v 1.35255 h -0.70485 v -4.34975 h 1.59385 q 1.47955,0 1.47955,1.4605 0,0.7493 -0.37465,1.143 -0.3683,0.3937 -1.1049,0.3937 z m -0.889,-0.6096 h 0.88265 q 0.762,0 0.762,-0.9271 0,-0.4445 -0.18415,-0.6477 -0.18415,-0.2032 -0.57785,-0.2032 h -0.88265 z" />
      <path
         inkscape:connector-curvature="0"
         id="path5911-5-8"
         style="font-style:normal;font-variant:normal;font-weight:600;font-stretch:normal;font-size:6.3499999px;font-family:'Titillium Web';-inkscape-font-specification:'Titillium Web Semi-Bold';fill:#ffffff;fill-opacity:1;stroke-width:0.26458299px"
         d="m 212.08008,145.58054 v -0.62865 h 1.89865 v 0.62865 z" />
      <path
         inkscape:connector-curvature="0"
         id="path5913-2-5"
         style="font-style:normal;font-variant:normal;font-weight:600;font-stretch:normal;font-size:6.3499999px;font-family:'Titillium Web';-inkscape-font-specification:'Titillium Web Semi-Bold';fill:#ffffff;fill-opacity:1;stroke-width:0.26458299px"
         d="m 215.48289,146.97754 h -0.69215 v -3.175 h 0.6858 v 0.19685 q 0.46355,-0.2667 0.8763,-0.2667 0.635,0 0.8636,0.36195 0.23495,0.3556 0.23495,1.1811 v 1.7018 h -0.6858 v -1.68275 q 0,-0.51435 -0.1143,-0.73025 -0.10795,-0.2159 -0.45085,-0.2159 -0.32385,0 -0.6223,0.127 l -0.0952,0.0381 z" />
      <path
         inkscape:connector-curvature="0"
         id="path5915-5-3"
         style="font-style:normal;font-variant:normal;font-weight:600;font-stretch:normal;font-size:6.3499999px;font-family:'Titillium Web';-inkscape-font-specification:'Titillium Web Semi-Bold';fill:#ffffff;fill-opacity:1;stroke-width:0.26458299px"
         d="m 221.03835,147.40934 q 0,1.0414 -1.50495,1.0414 -0.7239,0 -1.07315,-0.19685 -0.34925,-0.19685 -0.34925,-0.71755 0,-0.23495 0.1143,-0.4064 0.1143,-0.1651 0.3683,-0.36195 -0.20955,-0.1397 -0.20955,-0.46355 0,-0.127 0.17145,-0.41275 l 0.0572,-0.0953 q -0.4572,-0.27305 -0.4572,-0.9525 0,-0.5715 0.3429,-0.8382 0.3429,-0.2667 0.9271,-0.2667 0.2794,0 0.55245,0.0635 l 0.0952,0.019 0.98425,-0.0254 v 0.5588 l -0.52705,-0.0317 q 0.17145,0.22225 0.17145,0.5207 0,0.6223 -0.3175,0.8636 -0.31115,0.23495 -0.9779,0.23495 -0.1651,0 -0.2794,-0.0254 -0.0889,0.2159 -0.0889,0.33655 0,0.1143 0.1143,0.15875 0.12065,0.0445 0.5715,0.0508 0.75565,0.006 1.03505,0.2032 0.2794,0.19685 0.2794,0.74295 z m -2.2479,0.0635 q 0,0.22225 0.1778,0.3175 0.1778,0.0953 0.6096,0.0953 0.76835,0 0.76835,-0.43815 0,-0.24765 -0.1397,-0.3175 -0.13335,-0.0635 -0.53975,-0.0699 l -0.6223,-0.0381 q -0.1397,0.1143 -0.19685,0.20955 -0.0572,0.1016 -0.0572,0.2413 z m 0.0508,-2.6289 q 0,0.2921 0.1397,0.4318 0.1397,0.13335 0.45085,0.13335 0.31115,0 0.4445,-0.13335 0.1397,-0.1397 0.1397,-0.4318 0,-0.2921 -0.1397,-0.42545 -0.1397,-0.1397 -0.45085,-0.1397 -0.5842,0 -0.5842,0.56515 z" />
    </g>
    <g
       aria-label="PROXMOX"
       style="font-style:normal;font-variant:normal;font-weight:600;font-stretch:normal;font-size:2.64583325px;line-height:1.25;font-family:'Titillium Web';-inkscape-font-specification:'Titillium Web, Semi-Bold';font-variant-ligatures:normal;font-variant-caps:normal;font-variant-numeric:normal;font-feature-settings:normal;text-align:start;letter-spacing:0.26458332px;word-spacing:0px;writing-mode:lr-tb;text-anchor:start;display:inline;fill:#0c2842;fill-opacity:1;stroke:none;stroke-width:0.26458332"
       id="text2506-18-7-1-0-4-3"
       transform="translate(22.048602,96.052016)">
      <path
         inkscape:connector-curvature="0"
         d="M 75.816637,131.27801 H 75.44622 v 0.56356 h -0.293687 v -1.8124 h 0.664104 q 0.616479,0 0.616479,0.60854 0,0.31221 -0.156104,0.47625 -0.153458,0.16405 -0.460375,0.16405 z m -0.370417,-0.254 h 0.367771 q 0.3175,0 0.3175,-0.3863 0,-0.1852 -0.07673,-0.26987 -0.07673,-0.0847 -0.240771,-0.0847 h -0.36777 z"
         style="font-style:normal;font-variant:normal;font-weight:600;font-stretch:normal;font-family:'Titillium Web';-inkscape-font-specification:'Titillium Web Semi-Bold';letter-spacing:0.26458332px;fill:#0c2842;fill-opacity:1;stroke-width:0.26458332"
         id="path14759" />
      <path
         inkscape:connector-curvature="0"
         d="m 77.27449,131.19598 v 0.64559 h -0.293687 v -1.8124 h 0.687916 q 0.613833,0 0.613833,0.57679 0,0.3863 -0.296333,0.52388 l 0.298979,0.71173 h -0.322791 l -0.261938,-0.64559 z m 0.706437,-0.58737 q 0,-0.32544 -0.312208,-0.32544 H 77.27449 v 0.65881 h 0.399521 q 0.15875,0 0.232833,-0.0899 0.07408,-0.0926 0.07408,-0.24342 z"
         style="font-style:normal;font-variant:normal;font-weight:600;font-stretch:normal;font-family:'Titillium Web';-inkscape-font-specification:'Titillium Web Semi-Bold';letter-spacing:0.26458332px;fill:#0c2842;fill-opacity:1;stroke-width:0.26458332"
         id="path14761" />
      <path
         inkscape:connector-curvature="0"
         d="m 79.19536,131.45792 q 0.08996,0.15611 0.343958,0.15611 0.254,0 0.341313,-0.15346 0.08996,-0.15346 0.08996,-0.51329 0,-0.36248 -0.0926,-0.52652 -0.08996,-0.16405 -0.338667,-0.16405 -0.248708,0 -0.341312,0.16405 -0.0926,0.16404 -0.0926,0.52387 0,0.35719 0.08996,0.51329 z m 0.915458,0.1905 q -0.161396,0.22225 -0.5715,0.22225 -0.410104,0 -0.574146,-0.22225 -0.164041,-0.22489 -0.164041,-0.70379 0,-0.4789 0.164041,-0.71173 0.166688,-0.23283 0.574146,-0.23283 0.407459,0 0.5715,0.23283 0.164042,0.23019 0.164042,0.71173 0,0.48154 -0.164042,0.70379 z"
         style="font-style:normal;font-variant:normal;font-weight:600;font-stretch:normal;font-family:'Titillium Web';-inkscape-font-specification:'Titillium Web Semi-Bold';letter-spacing:0.26458332px;fill:#0c2842;fill-opacity:1;stroke-width:0.26458332"
         id="path14763" />
      <path
         inkscape:connector-curvature="0"
         d="m 80.989226,130.02917 0.388938,0.71438 0.394229,-0.71438 h 0.309562 l -0.537104,0.92075 0.537104,0.89165 h -0.328083 l -0.388938,-0.68263 -0.396875,0.68263 h -0.309562 l 0.53975,-0.87577 -0.53975,-0.93663 z"
         style="font-style:normal;font-variant:normal;font-weight:600;font-stretch:normal;font-family:'Titillium Web';-inkscape-font-specification:'Titillium Web Semi-Bold';letter-spacing:0.26458332px;fill:#0c2842;fill-opacity:1;stroke-width:0.26458332"
         id="path14765" />
      <path
         inkscape:connector-curvature="0"
         d="m 82.589953,131.84157 v -1.8124 h 0.510646 l 0.404812,1.41552 0.404813,-1.41552 h 0.513292 v 1.8124 h -0.296334 v -1.48696 h -0.03969 l -0.428625,1.41287 H 83.35195 l -0.428625,-1.41287 h -0.03969 v 1.48696 z"
         style="font-style:normal;font-variant:normal;font-weight:600;font-stretch:normal;font-family:'Titillium Web';-inkscape-font-specification:'Titillium Web Semi-Bold';letter-spacing:0.26458332px;fill:#0c2842;fill-opacity:1;stroke-width:0.26458332"
         id="path14767" />
      <path
         inkscape:connector-curvature="0"
         d="m 85.418345,131.45792 q 0.08996,0.15611 0.343959,0.15611 0.254,0 0.341312,-0.15346 0.08996,-0.15346 0.08996,-0.51329 0,-0.36248 -0.0926,-0.52652 -0.08996,-0.16405 -0.338666,-0.16405 -0.248709,0 -0.341313,0.16405 -0.0926,0.16404 -0.0926,0.52387 0,0.35719 0.08996,0.51329 z m 0.915459,0.1905 q -0.161396,0.22225 -0.5715,0.22225 -0.410105,0 -0.574146,-0.22225 -0.164042,-0.22489 -0.164042,-0.70379 0,-0.4789 0.164042,-0.71173 0.166687,-0.23283 0.574146,-0.23283 0.407458,0 0.5715,0.23283 0.164041,0.23019 0.164041,0.71173 0,0.48154 -0.164041,0.70379 z"
         style="font-style:normal;font-variant:normal;font-weight:600;font-stretch:normal;font-family:'Titillium Web';-inkscape-font-specification:'Titillium Web Semi-Bold';letter-spacing:0.26458332px;fill:#0c2842;fill-opacity:1;stroke-width:0.26458332"
         id="path14769" />
      <path
         inkscape:connector-curvature="0"
         d="m 87.212211,130.02917 0.388937,0.71438 0.39423,-0.71438 h 0.309562 l -0.537104,0.92075 0.537104,0.89165 h -0.328083 l -0.388938,-0.68263 -0.396875,0.68263 h -0.309562 l 0.53975,-0.87577 -0.53975,-0.93663 z"
         style="font-style:normal;font-variant:normal;font-weight:600;font-stretch:normal;font-family:'Titillium Web';-inkscape-font-specification:'Titillium Web Semi-Bold';letter-spacing:0.26458332px;fill:#0c2842;fill-opacity:1;stroke-width:0.26458332"
         id="path14771" />
    </g>
  </g>
</svg>
