<?xml version="1.0" encoding="UTF-8" standalone="no"?>
<svg
   xmlns:dc="http://purl.org/dc/elements/1.1/"
   xmlns:cc="http://creativecommons.org/ns#"
   xmlns:rdf="http://www.w3.org/1999/02/22-rdf-syntax-ns#"
   xmlns:svg="http://www.w3.org/2000/svg"
   xmlns="http://www.w3.org/2000/svg"
   id="svg2658"
   version="1.1"
   viewBox="0 0 259.2554 76.391273"
   height="76.391273mm"
   width="259.2554mm">
  <defs
     id="defs2652">
    <marker
       orient="auto"
       refY="0"
       refX="0"
       id="marker19839-1-2"
       style="overflow:visible">
      <path
         id="path19837-8-8"
         d="M 0,0 5,-5 -12.5,0 5,5 Z"
         style="fill:#f58220;fill-opacity:1;fill-rule:evenodd;stroke:#f58220;stroke-width:1.00000003pt;stroke-opacity:1"
         transform="matrix(-0.4,0,0,-0.4,-4,0)" />
    </marker>
    <marker
       orient="auto"
       refY="0"
       refX="0"
       id="marker23093-2-9"
       style="overflow:visible">
      <path
         id="path23091-0-0"
         d="M 0,0 5,-5 -12.5,0 5,5 Z"
         style="fill:#0c2842;fill-opacity:1;fill-rule:evenodd;stroke:#0c2842;stroke-width:1.00000003pt;stroke-opacity:1"
         transform="matrix(-0.4,0,0,-0.4,-4,0)" />
    </marker>
    <marker
       orient="auto"
       refY="0"
       refX="0"
       id="marker19663-7-81"
       style="overflow:visible">
      <path
         id="path19661-9-31"
         d="M 0,0 5,-5 -12.5,0 5,5 Z"
         style="fill:#0c2842;fill-opacity:1;fill-rule:evenodd;stroke:#0c2842;stroke-width:1.00000003pt;stroke-opacity:1"
         transform="matrix(-0.4,0,0,-0.4,-4,0)" />
    </marker>
    <marker
       style="overflow:visible"
       id="Arrow1Mstart-0-1"
       refX="0"
       refY="0"
       orient="auto">
      <path
         transform="matrix(0.4,0,0,0.4,4,0)"
         style="fill:#0c2842;fill-opacity:1;fill-rule:evenodd;stroke:#0c2842;stroke-width:1.00000003pt;stroke-opacity:1"
         d="M 0,0 5,-5 -12.5,0 5,5 Z"
         id="path1043-6-0" />
    </marker>
    <marker
       orient="auto"
       refY="0"
       refX="0"
       id="marker15099-3-3"
       style="overflow:visible">
      <path
         id="path15097-6-40"
         d="M 0,0 5,-5 -12.5,0 5,5 Z"
         style="fill:#0c2842;fill-opacity:1;fill-rule:evenodd;stroke:#0c2842;stroke-width:1.00000003pt;stroke-opacity:1"
         transform="matrix(-0.4,0,0,-0.4,-4,0)" />
    </marker>
    <marker
       orient="auto"
       refY="0"
       refX="0"
       id="marker15607-0-3"
       style="overflow:visible">
      <path
         id="path15605-9-9"
         d="M 0,0 5,-5 -12.5,0 5,5 Z"
         style="fill:#0c2842;fill-opacity:1;fill-rule:evenodd;stroke:#0c2842;stroke-width:1.00000003pt;stroke-opacity:1"
         transform="matrix(-0.4,0,0,-0.4,-4,0)" />
    </marker>
    <marker
       orient="auto"
       refY="0"
       refX="0"
       id="marker2501"
       style="overflow:visible">
      <path
         id="path2499"
         d="M 0,0 5,-5 -12.5,0 5,5 Z"
         style="fill:#0c2842;fill-opacity:1;fill-rule:evenodd;stroke:#0c2842;stroke-width:1.00000003pt;stroke-opacity:1"
         transform="matrix(-0.4,0,0,-0.4,-4,0)" />
    </marker>
    <marker
       orient="auto"
       refY="0"
       refX="0"
       id="marker17123-6-69"
       style="overflow:visible">
      <path
         id="path17121-2-33"
         d="M 0,0 5,-5 -12.5,0 5,5 Z"
         style="fill:#0c2842;fill-opacity:1;fill-rule:evenodd;stroke:#0c2842;stroke-width:1.00000003pt;stroke-opacity:1"
         transform="matrix(-0.4,0,0,-0.4,-4,0)" />
    </marker>
    <marker
       style="overflow:visible"
       id="marker23445-8"
       refX="0"
       refY="0"
       orient="auto">
      <path
         transform="matrix(0.4,0,0,0.4,4,0)"
         style="fill:#0c2842;fill-opacity:1;fill-rule:evenodd;stroke:#0c2842;stroke-width:1.00000003pt;stroke-opacity:1"
         d="M 0,0 5,-5 -12.5,0 5,5 Z"
         id="path23443-0" />
    </marker>
    <marker
       style="overflow:visible"
       id="marker19663-7-8-56"
       refX="0"
       refY="0"
       orient="auto">
      <path
         transform="matrix(-0.4,0,0,-0.4,-4,0)"
         style="fill:#0c2842;fill-opacity:1;fill-rule:evenodd;stroke:#0c2842;stroke-width:1.00000003pt;stroke-opacity:1"
         d="M 0,0 5,-5 -12.5,0 5,5 Z"
         id="path19661-9-1-6" />
    </marker>
    <marker
       style="overflow:visible"
       id="marker23093-1-3"
       refX="0"
       refY="0"
       orient="auto">
      <path
         transform="matrix(-0.4,0,0,-0.4,-4,0)"
         style="fill:#0c2842;fill-opacity:1;fill-rule:evenodd;stroke:#0c2842;stroke-width:1.00000003pt;stroke-opacity:1"
         d="M 0,0 5,-5 -12.5,0 5,5 Z"
         id="path23091-1-6" />
    </marker>
  </defs>
  <metadata
     id="metadata2655">
    <rdf:RDF>
      <cc:Work
         rdf:about="">
        <dc:format>image/svg+xml</dc:format>
        <dc:type
           rdf:resource="http://purl.org/dc/dcmitype/StillImage" />
        <dc:title></dc:title>
      </cc:Work>
    </rdf:RDF>
  </metadata>
  <g
     transform="translate(240.7527,-106.85793)"
     id="layer1">
    <rect
       y="106.92068"
       x="-240.7527"
       height="76.320099"
       width="259.2554"
       id="rect17581"
       style="display:inline;fill:#ffffff;fill-opacity:1;stroke:none;stroke-width:0.42333335;stroke-linecap:butt;stroke-linejoin:round;stroke-miterlimit:4;stroke-dasharray:none;stroke-opacity:1" />
    <path
       style="display:inline;fill:none;fill-rule:evenodd;stroke:#0c2842;stroke-width:0.42333335;stroke-linecap:butt;stroke-linejoin:miter;stroke-miterlimit:4;stroke-dasharray:none;stroke-opacity:1;marker-end:url(#marker23093-1-3)"
       d="m 3.9517492,106.92068 1e-5,72.81203 1e-5,2.68224"
       id="path5355-6-7" />
    <path
       style="display:inline;fill:none;fill-rule:evenodd;stroke:#0c2842;stroke-width:0.42333332;stroke-linecap:butt;stroke-linejoin:miter;stroke-miterlimit:4;stroke-dasharray:none;stroke-opacity:1;marker-end:url(#marker19663-7-8-56)"
       d="m -168.95066,165.914 v 5.20338 h -56.40154"
       id="path12440-2-2-8" />
    <path
       id="path12638-9-3"
       d="m -168.95066,159.24039 v -9.96467"
       style="display:inline;fill:none;fill-rule:evenodd;stroke:#0c2842;stroke-width:0.42333332;stroke-linecap:butt;stroke-linejoin:miter;stroke-miterlimit:4;stroke-dasharray:none;stroke-opacity:1;marker-start:url(#marker23445-8)" />
    <path
       id="path3638-2-3"
       d="m -136.09213,133.54028 h 33.30497 v 10.20894"
       style="display:inline;fill:none;fill-rule:evenodd;stroke:#0c2842;stroke-width:0.42333332;stroke-linecap:butt;stroke-linejoin:miter;stroke-miterlimit:4;stroke-dasharray:none;stroke-opacity:1;marker-end:url(#marker17123-6-69)" />
    <path
       id="path3636-8-3"
       d="m -164.69937,133.54027 28.60724,1e-5 0.14686,9.36453"
       style="display:inline;fill:#000000;fill-opacity:0;fill-rule:evenodd;stroke:#0c2842;stroke-width:0.42333332;stroke-linecap:butt;stroke-linejoin:miter;stroke-miterlimit:4;stroke-dasharray:none;stroke-opacity:1;marker-end:url(#marker15607-0-3)" />
    <path
       id="path3634-9-8"
       d="m -168.95065,137.95827 -1e-5,4.99052"
       style="display:inline;fill:none;fill-rule:evenodd;stroke:#0c2842;stroke-width:0.42333332;stroke-linecap:butt;stroke-linejoin:miter;stroke-miterlimit:4;stroke-dasharray:none;stroke-opacity:1;marker-end:url(#marker15607-0-3)" />
    <path
       id="path3632-7-0"
       d="m -168.95066,123.41779 v 4.75433"
       style="display:inline;fill:none;fill-rule:evenodd;stroke:#0c2842;stroke-width:0.42333332;stroke-linecap:butt;stroke-linejoin:miter;stroke-miterlimit:4;stroke-dasharray:none;stroke-opacity:1;marker-end:url(#marker15099-3-3)" />
    <path
       id="path12626-3-4"
       d="m -168.92979,116.98758 -0.0209,-4.42965 -52.97989,0.017"
       style="display:inline;fill:none;fill-rule:evenodd;stroke:#0c2842;stroke-width:0.42333332;stroke-linecap:butt;stroke-linejoin:miter;stroke-miterlimit:4;stroke-dasharray:none;stroke-opacity:1;marker-start:url(#Arrow1Mstart-0-1)" />
    <path
       id="path12440-2-7"
       d="m -135.96231,149.27577 1e-5,5.52744 h -32.44233"
       style="display:inline;fill:none;fill-rule:evenodd;stroke:#0c2842;stroke-width:0.42333332;stroke-linecap:butt;stroke-linejoin:miter;stroke-miterlimit:4;stroke-dasharray:none;stroke-opacity:1;marker-end:url(#marker19663-7-81)" />
    <path
       id="path5371-6-6"
       d="m -102.80308,149.27593 -0.14686,5.52728 h -33.01236"
       style="display:inline;fill:none;fill-rule:evenodd;stroke:#0c2842;stroke-width:0.42333332;stroke-linecap:butt;stroke-linejoin:miter;stroke-miterlimit:4;stroke-dasharray:none;stroke-opacity:1;marker-end:url(#marker23093-2-9)" />
    <path
       d="m -183.06416,118.08448 h 94.630989 v 5.48833 h -94.630989 z"
       style="font-style:normal;font-variant:normal;font-weight:normal;font-stretch:normal;font-size:6.3499999px;line-height:125%;font-family:'Titillium Web';-inkscape-font-specification:'Titillium Web, Normal';text-align:start;letter-spacing:0px;word-spacing:1.32291996px;writing-mode:lr-tb;text-anchor:start;display:inline;vector-effect:none;fill:#0c2842;fill-opacity:1;fill-rule:evenodd;stroke:#0c2842;stroke-width:0.42333332;stroke-linecap:square;stroke-linejoin:round;stroke-miterlimit:4;stroke-dasharray:none;stroke-dashoffset:0;stroke-opacity:1"
       id="rect6961-2-0-7-0-7-9-3-4" />
    <rect
       y="160.32979"
       x="-183.03122"
       height="5.4727774"
       width="94.598061"
       id="rect6961-3-7-1-1-9"
       style="display:inline;vector-effect:none;fill:#0c2842;fill-opacity:1;fill-rule:evenodd;stroke:#0c2842;stroke-width:0.42333332;stroke-linecap:square;stroke-linejoin:round;stroke-miterlimit:4;stroke-dasharray:none;stroke-dashoffset:0;stroke-opacity:1" />
    <rect
       transform="rotate(-134.98732)"
       y="-242.79762"
       x="77.273743"
       height="6.249402"
       width="6.249403"
       id="rect6975-2-3-0"
       style="display:inline;vector-effect:none;fill:#f58220;fill-opacity:1;fill-rule:evenodd;stroke:#f58220;stroke-width:0.42333332;stroke-linecap:square;stroke-linejoin:round;stroke-miterlimit:4;stroke-dasharray:none;stroke-dashoffset:0;stroke-opacity:1" />
    <rect
       y="143.74933"
       x="-150.33118"
       height="5.5265493"
       width="28.738043"
       id="rect6961-3-5-5-6-2"
       style="display:inline;vector-effect:none;fill:#0c2842;fill-opacity:1;fill-rule:evenodd;stroke:none;stroke-width:0.141698;stroke-linecap:square;stroke-linejoin:round;stroke-miterlimit:4;stroke-dasharray:none;stroke-dashoffset:0;stroke-opacity:1" />
    <rect
       y="143.74933"
       x="-117.17166"
       height="5.5265493"
       width="28.738056"
       id="rect6961-3-6-2-7-0"
       style="display:inline;vector-effect:none;fill:#0c2842;fill-opacity:1;fill-rule:evenodd;stroke:none;stroke-width:0.141698;stroke-linecap:square;stroke-linejoin:round;stroke-miterlimit:4;stroke-dasharray:none;stroke-dashoffset:0;stroke-opacity:1" />
    <rect
       y="143.75011"
       x="-183.24289"
       height="5.5265493"
       width="28.242805"
       id="rect6961-3-9-8-1"
       style="display:inline;vector-effect:none;fill:#f58220;fill-opacity:1;fill-rule:evenodd;stroke:none;stroke-width:0.14047199;stroke-linecap:square;stroke-linejoin:round;stroke-miterlimit:4;stroke-dasharray:none;stroke-dashoffset:0;stroke-opacity:1" />
    <rect
       transform="rotate(-134.98732)"
       y="-217.02223"
       x="21.866903"
       height="6.249402"
       width="6.249403"
       id="rect6975-7-8-9"
       style="display:inline;vector-effect:none;fill:#0c2842;fill-opacity:1;fill-rule:evenodd;stroke:#f58220;stroke-width:0.42333332;stroke-linecap:square;stroke-linejoin:round;stroke-miterlimit:4;stroke-dasharray:none;stroke-dashoffset:0;stroke-opacity:1" />
    <path
       id="path12391-2-6"
       d="m -226.36164,111.42808 0.0131,70.74237"
       style="display:inline;fill:none;fill-rule:evenodd;stroke:#f58220;stroke-width:0.42333332;stroke-linecap:butt;stroke-linejoin:miter;stroke-miterlimit:4;stroke-dasharray:none;stroke-opacity:1;marker-end:url(#marker19839-1-2)" />
    <path
       d="m -183.06416,107.0696 h 94.630989 v 5.48833 h -94.630989 z"
       style="display:inline;vector-effect:none;fill:#0c2842;fill-opacity:1;fill-rule:evenodd;stroke:#0c2842;stroke-width:0.42333332;stroke-linecap:square;stroke-linejoin:round;stroke-miterlimit:4;stroke-dasharray:none;stroke-dashoffset:0;stroke-opacity:1"
       id="rect6961-2-0-7-0-3-2" />
    <text
       id="text728-6-1"
       y="113.19002"
       x="-133.55759"
       style="font-style:italic;font-variant:normal;font-weight:600;font-stretch:normal;font-size:6.3499999px;line-height:1.25;font-family:'Titillium Web';-inkscape-font-specification:'Titillium Web, Semi-Bold Italic';font-variant-ligatures:normal;font-variant-caps:normal;font-variant-numeric:normal;text-align:start;letter-spacing:4.4529376px;word-spacing:0px;writing-mode:lr-tb;text-anchor:start;display:inline;fill:#0c2842;fill-opacity:1;stroke:none;stroke-width:0.26458332"
       xml:space="preserve"><tspan
         y="113.19002"
         x="-133.55759"
         style="font-style:normal;font-variant:normal;font-weight:600;font-stretch:normal;font-size:2.64583325px;font-family:'Titillium Web';-inkscape-font-specification:'Titillium Web, Semi-Bold';font-variant-ligatures:normal;font-variant-caps:normal;font-variant-numeric:normal;font-feature-settings:normal;text-align:start;letter-spacing:4.4529376px;writing-mode:lr-tb;text-anchor:start;fill:#0c2842;stroke-width:0.26458332"
         id="tspan734-3-2"> </tspan></text>
    <g
       id="text6153-3"
       style="font-style:normal;font-variant:normal;font-weight:600;font-stretch:normal;font-size:2.64583325px;line-height:1.25;font-family:'Titillium Web';-inkscape-font-specification:'Titillium Web, Semi-Bold';font-variant-ligatures:normal;font-variant-caps:normal;font-variant-numeric:normal;font-feature-settings:normal;text-align:start;letter-spacing:0.26458332px;word-spacing:0px;writing-mode:lr-tb;text-anchor:start;display:inline;fill:#f58728;fill-opacity:1;stroke:none;stroke-width:0.26458332"
       aria-label="Option - Anpassung der Festplattengröße ..."
       transform="translate(-259.60599,14.876164)">
      <path
         id="path6742"
         style="fill:#f58728;fill-opacity:1;stroke-width:0.26458332"
         d="m 96.31325,95.200888 q 0.08996,0.156104 0.343959,0.156104 0.254,0 0.341312,-0.153458 0.08996,-0.153459 0.08996,-0.513292 0,-0.362479 -0.0926,-0.526521 -0.08996,-0.164041 -0.338666,-0.164041 -0.248709,0 -0.341313,0.164041 -0.0926,0.164042 -0.0926,0.523875 0,0.357188 0.08996,0.513292 z m 0.915459,0.1905 q -0.161396,0.22225 -0.5715,0.22225 -0.410105,0 -0.574146,-0.22225 -0.164042,-0.224896 -0.164042,-0.703792 0,-0.478896 0.164042,-0.711729 0.166687,-0.232833 0.574146,-0.232833 0.407458,0 0.5715,0.232833 0.164041,0.230188 0.164041,0.711729 0,0.481542 -0.164041,0.703792 z" />
      <path
         id="path6744"
         style="fill:#f58728;fill-opacity:1;stroke-width:0.26458332"
         d="m 97.964246,96.153388 v -1.891771 h 0.28575 v 0.08202 q 0.182562,-0.111125 0.341312,-0.111125 0.261938,0 0.383646,0.161396 0.121708,0.15875 0.121708,0.537104 0,0.375708 -0.140229,0.529167 -0.137583,0.153458 -0.452437,0.153458 -0.10848,0 -0.251355,-0.02381 v 0.563563 z m 0.576791,-1.664229 q -0.124354,0 -0.248708,0.05556 l -0.03969,0.01852 v 0.780521 q 0.105834,0.02117 0.232834,0.02117 0.179916,0 0.248708,-0.103188 0.06879,-0.103187 0.06879,-0.351896 0,-0.420687 -0.261938,-0.420687 z" />
      <path
         id="path6746"
         style="fill:#f58728;fill-opacity:1;stroke-width:0.26458332"
         d="m 100.36137,94.50768 h -0.365128 v 0.582083 q 0,0.161396 0.02381,0.214312 0.0238,0.05292 0.12171,0.05292 l 0.21696,-0.0079 0.0132,0.230187 q -0.17727,0.0344 -0.26987,0.0344 -0.224808,0 -0.309475,-0.103188 -0.08202,-0.103187 -0.08202,-0.388937 V 94.50768 H 99.54114 v -0.246063 h 0.169333 v -0.383646 h 0.28575 v 0.383646 h 0.365117 z" />
      <path
         id="path6748"
         style="fill:#f58728;fill-opacity:1;stroke-width:0.26458332"
         d="m 100.86143,95.584534 v -1.322917 h 0.2884 v 1.322917 z m 0,-1.547813 V 93.73245 h 0.2884 v 0.304271 z" />
      <path
         id="path6750"
         style="fill:#f58728;fill-opacity:1;stroke-width:0.26458332"
         d="m 101.83509,94.404492 q 0.13759,-0.171979 0.45509,-0.171979 0.3175,0 0.45243,0.171979 0.13759,0.171979 0.13759,0.515938 0,0.343958 -0.13229,0.518583 -0.1323,0.174625 -0.45773,0.174625 -0.32544,0 -0.45773,-0.174625 -0.13229,-0.174625 -0.13229,-0.518583 0,-0.343959 0.13493,-0.515938 z m 0.21696,0.859896 q 0.0609,0.105833 0.23813,0.105833 0.17727,0 0.23812,-0.105833 0.0609,-0.105833 0.0609,-0.346604 0,-0.240771 -0.0662,-0.341313 -0.0635,-0.100541 -0.23283,-0.100541 -0.16934,0 -0.23548,0.100541 -0.0635,0.100542 -0.0635,0.341313 0,0.240771 0.0608,0.346604 z" />
      <path
         id="path6752"
         style="fill:#f58728;fill-opacity:1;stroke-width:0.26458332"
         d="m 103.71892,95.584534 h -0.28839 v -1.322917 h 0.28575 v 0.08202 q 0.19314,-0.111125 0.36512,-0.111125 0.26459,0 0.35984,0.150812 0.0979,0.148167 0.0979,0.492125 v 0.709084 h -0.28575 v -0.701146 q 0,-0.214313 -0.0476,-0.304271 -0.045,-0.08996 -0.18786,-0.08996 -0.13493,0 -0.25929,0.05292 l -0.0397,0.01588 z" />
      <path
         id="path6754"
         style="fill:#f58728;fill-opacity:1;stroke-width:0.26458332"
         d="m 105.97317,95.00245 v -0.261937 h 0.79111 v 0.261937 z" />
      <path
         id="path6756"
         style="fill:#f58728;fill-opacity:1;stroke-width:0.26458332"
         d="m 108.08983,95.584534 0.44715,-1.812396 h 0.58473 l 0.44979,1.812396 h -0.29633 l -0.0979,-0.388938 h -0.69585 l -0.0979,0.388938 z m 0.67469,-1.566334 -0.22489,0.918105 h 0.57943 L 108.89681,94.0182 Z" />
      <path
         id="path6758"
         style="fill:#f58728;fill-opacity:1;stroke-width:0.26458332"
         d="m 110.34937,95.584534 h -0.28839 v -1.322917 h 0.28575 v 0.08202 q 0.19314,-0.111125 0.36512,-0.111125 0.26459,0 0.35984,0.150812 0.0979,0.148167 0.0979,0.492125 v 0.709084 h -0.28575 v -0.701146 q 0,-0.214313 -0.0476,-0.304271 -0.045,-0.08996 -0.18786,-0.08996 -0.13493,0 -0.25929,0.05292 l -0.0397,0.01588 z" />
      <path
         id="path6760"
         style="fill:#f58728;fill-opacity:1;stroke-width:0.26458332"
         d="m 111.77018,96.153388 v -1.891771 h 0.28575 v 0.08202 q 0.18257,-0.111125 0.34132,-0.111125 0.26193,0 0.38364,0.161396 0.12171,0.15875 0.12171,0.537104 0,0.375708 -0.14023,0.529167 -0.13758,0.153458 -0.45244,0.153458 -0.10848,0 -0.25135,-0.02381 v 0.563563 z m 0.5768,-1.664229 q -0.12436,0 -0.24871,0.05556 l -0.0397,0.01852 v 0.780521 q 0.10583,0.02117 0.23283,0.02117 0.17992,0 0.24871,-0.103188 0.0688,-0.103187 0.0688,-0.351896 0,-0.420687 -0.26193,-0.420687 z" />
      <path
         id="path6762"
         style="fill:#f58728;fill-opacity:1;stroke-width:0.26458332"
         d="m 114.43454,94.669075 v 0.60325 q 0.003,0.05821 0.0291,0.08731 0.0291,0.02646 0.0873,0.0344 l -0.008,0.219604 q -0.22754,0 -0.35189,-0.0979 -0.21167,0.0979 -0.42598,0.0979 -0.39423,0 -0.39423,-0.420688 0,-0.201083 0.10583,-0.291041 0.10848,-0.08996 0.33073,-0.108479 l 0.34132,-0.02911 v -0.09525 q 0,-0.105833 -0.0476,-0.148166 -0.045,-0.04233 -0.13494,-0.04233 -0.16933,0 -0.42333,0.02117 l -0.0847,0.0053 -0.0106,-0.203729 q 0.2884,-0.06879 0.52917,-0.06879 0.24341,0 0.34925,0.105833 0.10848,0.103188 0.10848,0.330729 z m -0.59267,0.328084 q -0.18256,0.01588 -0.18256,0.198437 0,0.182563 0.16139,0.182563 0.13229,0 0.28046,-0.04233 l 0.0476,-0.01587 v -0.351895 z" />
      <path
         id="path6764"
         style="fill:#f58728;fill-opacity:1;stroke-width:0.26458332"
         d="m 115.9797,94.534138 q -0.31221,-0.04233 -0.45244,-0.04233 -0.14023,0 -0.19579,0.0344 -0.0529,0.03175 -0.0529,0.103188 0,0.07144 0.0582,0.100542 0.0609,0.0291 0.28046,0.06879 0.22225,0.03704 0.31486,0.119063 0.0926,0.08202 0.0926,0.291041 0,0.209021 -0.13494,0.306917 -0.13229,0.0979 -0.38893,0.0979 -0.1614,0 -0.40746,-0.04498 l -0.082,-0.01323 0.0106,-0.240771 q 0.3175,0.04233 0.45773,0.04233 0.14023,0 0.19844,-0.0344 0.0609,-0.0344 0.0609,-0.113771 0,-0.07937 -0.0582,-0.108479 -0.0556,-0.03175 -0.27252,-0.06615 -0.21431,-0.03704 -0.31485,-0.11377 -0.10054,-0.07673 -0.10054,-0.280459 0,-0.203729 0.13758,-0.304271 0.14023,-0.100541 0.35719,-0.100541 0.16933,0 0.41539,0.04233 l 0.082,0.01588 z" />
      <path
         id="path6766"
         style="fill:#f58728;fill-opacity:1;stroke-width:0.26458332"
         d="m 117.48518,94.534138 q -0.31221,-0.04233 -0.45244,-0.04233 -0.14023,0 -0.19579,0.0344 -0.0529,0.03175 -0.0529,0.103188 0,0.07144 0.0582,0.100542 0.0609,0.0291 0.28046,0.06879 0.22225,0.03704 0.31486,0.119063 0.0926,0.08202 0.0926,0.291041 0,0.209021 -0.13494,0.306917 -0.13229,0.0979 -0.38893,0.0979 -0.1614,0 -0.40746,-0.04498 l -0.082,-0.01323 0.0106,-0.240771 q 0.3175,0.04233 0.45773,0.04233 0.14023,0 0.19844,-0.0344 0.0609,-0.0344 0.0609,-0.113771 0,-0.07937 -0.0582,-0.108479 -0.0556,-0.03175 -0.27252,-0.06615 -0.21431,-0.03704 -0.31485,-0.11377 -0.10054,-0.07673 -0.10054,-0.280459 0,-0.203729 0.13758,-0.304271 0.14023,-0.100541 0.35719,-0.100541 0.16933,0 0.41539,0.04233 l 0.082,0.01588 z" />
      <path
         id="path6768"
         style="fill:#f58728;fill-opacity:1;stroke-width:0.26458332"
         d="m 118.87424,94.261617 h 0.28575 v 1.322917 h -0.28575 v -0.08202 q -0.19314,0.111125 -0.35718,0.111125 -0.27253,0 -0.36513,-0.145521 -0.0926,-0.148167 -0.0926,-0.515937 v -0.690563 h 0.28839 v 0.693208 q 0,0.238125 0.0397,0.320146 0.0397,0.08202 0.18521,0.08202 0.14287,0 0.26194,-0.05292 l 0.0397,-0.01587 z" />
      <path
         id="path6770"
         style="fill:#f58728;fill-opacity:1;stroke-width:0.26458332"
         d="m 120.06222,95.584534 h -0.2884 v -1.322917 h 0.28575 v 0.08202 q 0.19315,-0.111125 0.36513,-0.111125 0.26458,0 0.35983,0.150812 0.0979,0.148167 0.0979,0.492125 v 0.709084 h -0.28575 v -0.701146 q 0,-0.214313 -0.0476,-0.304271 -0.045,-0.08996 -0.18785,-0.08996 -0.13494,0 -0.25929,0.05292 l -0.0397,0.01588 z" />
      <path
         id="path6772"
         style="fill:#f58728;fill-opacity:1;stroke-width:0.26458332"
         d="m 122.63926,95.76445 q 0,0.433917 -0.62706,0.433917 -0.30163,0 -0.44715,-0.08202 -0.14552,-0.08202 -0.14552,-0.298979 0,-0.0979 0.0476,-0.169333 0.0476,-0.06879 0.15346,-0.150813 -0.0873,-0.05821 -0.0873,-0.193146 0,-0.05292 0.0714,-0.171979 l 0.0238,-0.03969 q -0.1905,-0.113771 -0.1905,-0.396875 0,-0.238125 0.14288,-0.34925 0.14287,-0.111125 0.38629,-0.111125 0.11642,0 0.23019,0.02646 l 0.0397,0.0079 0.41011,-0.01058 v 0.232834 l -0.21961,-0.01323 q 0.0714,0.0926 0.0714,0.216959 0,0.259291 -0.13229,0.359833 -0.12965,0.0979 -0.40746,0.0979 -0.0688,0 -0.11641,-0.01058 -0.0371,0.08996 -0.0371,0.140229 0,0.04762 0.0476,0.06615 0.0503,0.01852 0.23812,0.02117 0.31486,0.0026 0.43127,0.08467 0.11642,0.08202 0.11642,0.309562 z m -0.93662,0.02646 q 0,0.0926 0.0741,0.132291 0.0741,0.03969 0.254,0.03969 0.32015,0 0.32015,-0.182563 0,-0.103187 -0.0582,-0.132291 -0.0556,-0.02646 -0.2249,-0.0291 l -0.25929,-0.01588 q -0.0582,0.04762 -0.082,0.08731 -0.0238,0.04233 -0.0238,0.100542 z m 0.0212,-1.095375 q 0,0.121708 0.0582,0.179916 0.0582,0.05556 0.18786,0.05556 0.12964,0 0.1852,-0.05556 0.0582,-0.05821 0.0582,-0.179916 0,-0.121709 -0.0582,-0.177271 -0.0582,-0.05821 -0.18785,-0.05821 -0.24342,0 -0.24342,0.235479 z" />
      <path
         id="path6774"
         style="fill:#f58728;fill-opacity:1;stroke-width:0.26458332"
         d="m 125.06284,93.711284 v 1.87325 h -0.28575 v -0.06879 q -0.19315,0.0979 -0.35454,0.0979 -0.25929,0 -0.381,-0.156104 -0.11906,-0.156104 -0.11906,-0.523875 0,-0.367771 0.13229,-0.534459 0.13494,-0.166687 0.41804,-0.166687 0.0953,0 0.30162,0.0344 v -0.555625 z m -0.33337,1.598083 0.045,-0.01852 V 94.50768 q -0.15875,-0.02646 -0.29368,-0.02646 -0.26723,0 -0.26723,0.4445 0,0.243417 0.0608,0.338667 0.0635,0.0926 0.19844,0.0926 0.13494,0 0.25665,-0.04763 z" />
      <path
         id="path6776"
         style="fill:#f58728;fill-opacity:1;stroke-width:0.26458332"
         d="m 126.61859,95.346409 0.0741,-0.0079 0.005,0.214313 q -0.30162,0.06085 -0.53446,0.06085 -0.29368,0 -0.42333,-0.161396 -0.127,-0.161396 -0.127,-0.515937 0,-0.703792 0.57415,-0.703792 0.55562,0 0.55562,0.605896 l -0.0185,0.206375 h -0.82021 q 0.003,0.164041 0.0714,0.240771 0.0688,0.07673 0.25665,0.07673 0.18785,0 0.38629,-0.01588 z m -0.15875,-0.523875 q 0,-0.195792 -0.0635,-0.272521 -0.0609,-0.07938 -0.20902,-0.07938 -0.14817,0 -0.21696,0.08202 -0.0661,0.08202 -0.0688,0.269875 z" />
      <path
         id="path6778"
         style="fill:#f58728;fill-opacity:1;stroke-width:0.26458332"
         d="m 127.28534,95.584534 v -1.322917 h 0.28575 v 0.15875 q 0.22489,-0.145521 0.44979,-0.187854 v 0.288396 q -0.22754,0.04498 -0.38894,0.116416 l -0.0582,0.02381 v 0.923396 z" />
      <path
         id="path6780"
         style="fill:#f58728;fill-opacity:1;stroke-width:0.26458332"
         d="m 129.38612,95.584534 v -1.812396 h 1.12448 v 0.256646 h -0.83079 v 0.611187 h 0.69056 v 0.256646 h -0.69056 v 0.687917 z" />
      <path
         id="path6782"
         style="fill:#f58728;fill-opacity:1;stroke-width:0.26458332"
         d="m 131.91289,95.346409 0.0741,-0.0079 0.005,0.214313 q -0.30163,0.06085 -0.53446,0.06085 -0.29369,0 -0.42334,-0.161396 -0.127,-0.161396 -0.127,-0.515937 0,-0.703792 0.57415,-0.703792 0.55562,0 0.55562,0.605896 l -0.0185,0.206375 h -0.8202 q 0.003,0.164041 0.0714,0.240771 0.0688,0.07673 0.25665,0.07673 0.18785,0 0.38629,-0.01588 z m -0.15875,-0.523875 q 0,-0.195792 -0.0635,-0.272521 -0.0608,-0.07938 -0.20902,-0.07938 -0.14817,0 -0.21696,0.08202 -0.0661,0.08202 -0.0688,0.269875 z" />
      <path
         id="path6784"
         style="fill:#f58728;fill-opacity:1;stroke-width:0.26458332"
         d="m 133.49774,94.534138 q -0.31221,-0.04233 -0.45243,-0.04233 -0.14023,0 -0.1958,0.0344 -0.0529,0.03175 -0.0529,0.103188 0,0.07144 0.0582,0.100542 0.0609,0.0291 0.28045,0.06879 0.22225,0.03704 0.31486,0.119063 0.0926,0.08202 0.0926,0.291041 0,0.209021 -0.13494,0.306917 -0.13229,0.0979 -0.38893,0.0979 -0.1614,0 -0.40746,-0.04498 l -0.082,-0.01323 0.0106,-0.240771 q 0.3175,0.04233 0.45773,0.04233 0.14023,0 0.19844,-0.0344 0.0608,-0.0344 0.0608,-0.113771 0,-0.07937 -0.0582,-0.108479 -0.0556,-0.03175 -0.27252,-0.06615 -0.21431,-0.03704 -0.31485,-0.11377 -0.10054,-0.07673 -0.10054,-0.280459 0,-0.203729 0.13758,-0.304271 0.14023,-0.100541 0.35719,-0.100541 0.16933,0 0.41539,0.04233 l 0.082,0.01588 z" />
      <path
         id="path6786"
         style="fill:#f58728;fill-opacity:1;stroke-width:0.26458332"
         d="m 134.79685,94.50768 h -0.36513 v 0.582083 q 0,0.161396 0.0238,0.214312 0.0238,0.05292 0.12171,0.05292 l 0.21696,-0.0079 0.0132,0.230187 q -0.17727,0.0344 -0.26988,0.0344 -0.22489,0 -0.30956,-0.103188 -0.082,-0.103187 -0.082,-0.388937 V 94.50768 h -0.16933 v -0.246063 h 0.16933 v -0.383646 h 0.28575 v 0.383646 h 0.36513 z" />
      <path
         id="path6788"
         style="fill:#f58728;fill-opacity:1;stroke-width:0.26458332"
         d="m 135.29691,96.153388 v -1.891771 h 0.28575 v 0.08202 q 0.18256,-0.111125 0.34131,-0.111125 0.26194,0 0.38365,0.161396 0.12171,0.15875 0.12171,0.537104 0,0.375708 -0.14023,0.529167 -0.13759,0.153458 -0.45244,0.153458 -0.10848,0 -0.25136,-0.02381 v 0.563563 z m 0.57679,-1.664229 q -0.12435,0 -0.24871,0.05556 l -0.0397,0.01852 v 0.780521 q 0.10584,0.02117 0.23284,0.02117 0.17991,0 0.24871,-0.103188 0.0688,-0.103187 0.0688,-0.351896 0,-0.420687 -0.26194,-0.420687 z" />
      <path
         id="path6790"
         style="fill:#f58728;fill-opacity:1;stroke-width:0.26458332"
         d="m 136.99817,95.584534 v -1.87325 h 0.2884 v 1.87325 z" />
      <path
         id="path6792"
         style="fill:#f58728;fill-opacity:1;stroke-width:0.26458332"
         d="m 138.89523,94.669075 v 0.60325 q 0.003,0.05821 0.0291,0.08731 0.0291,0.02646 0.0873,0.0344 l -0.008,0.219604 q -0.22754,0 -0.35189,-0.0979 -0.21167,0.0979 -0.42598,0.0979 -0.39423,0 -0.39423,-0.420688 0,-0.201083 0.10583,-0.291041 0.10848,-0.08996 0.33073,-0.108479 l 0.34131,-0.02911 v -0.09525 q 0,-0.105833 -0.0476,-0.148166 -0.045,-0.04233 -0.13494,-0.04233 -0.16933,0 -0.42333,0.02117 l -0.0847,0.0053 -0.0106,-0.203729 q 0.28839,-0.06879 0.52916,-0.06879 0.24342,0 0.34925,0.105833 0.10848,0.103188 0.10848,0.330729 z m -0.59266,0.328084 q -0.18257,0.01588 -0.18257,0.198437 0,0.182563 0.1614,0.182563 0.13229,0 0.28046,-0.04233 l 0.0476,-0.01587 v -0.351895 z" />
      <path
         id="path6794"
         style="fill:#f58728;fill-opacity:1;stroke-width:0.26458332"
         d="m 140.23403,94.50768 h -0.36513 v 0.582083 q 0,0.161396 0.0238,0.214312 0.0238,0.05292 0.12171,0.05292 l 0.21696,-0.0079 0.0132,0.230187 q -0.17727,0.0344 -0.26988,0.0344 -0.22489,0 -0.30956,-0.103188 -0.082,-0.103187 -0.082,-0.388937 V 94.50768 h -0.16933 v -0.246063 h 0.16933 v -0.383646 h 0.28575 v 0.383646 h 0.36513 z" />
      <path
         id="path6796"
         style="fill:#f58728;fill-opacity:1;stroke-width:0.26458332"
         d="m 141.44582,94.50768 h -0.36513 v 0.582083 q 0,0.161396 0.0238,0.214312 0.0238,0.05292 0.1217,0.05292 l 0.21696,-0.0079 0.0132,0.230187 q -0.17727,0.0344 -0.26987,0.0344 -0.2249,0 -0.30957,-0.103188 -0.082,-0.103187 -0.082,-0.388937 V 94.50768 h -0.16933 v -0.246063 h 0.16933 v -0.383646 h 0.28575 v 0.383646 h 0.36513 z" />
      <path
         id="path6798"
         style="fill:#f58728;fill-opacity:1;stroke-width:0.26458332"
         d="m 142.88779,95.346409 0.0741,-0.0079 0.005,0.214313 q -0.30163,0.06085 -0.53446,0.06085 -0.29369,0 -0.42333,-0.161396 -0.127,-0.161396 -0.127,-0.515937 0,-0.703792 0.57414,-0.703792 0.55563,0 0.55563,0.605896 l -0.0185,0.206375 h -0.82021 q 0.003,0.164041 0.0714,0.240771 0.0688,0.07673 0.25664,0.07673 0.18786,0 0.38629,-0.01588 z m -0.15875,-0.523875 q 0,-0.195792 -0.0635,-0.272521 -0.0608,-0.07938 -0.20902,-0.07938 -0.14816,0 -0.21696,0.08202 -0.0661,0.08202 -0.0688,0.269875 z" />
      <path
         id="path6800"
         style="fill:#f58728;fill-opacity:1;stroke-width:0.26458332"
         d="m 143.84294,95.584534 h -0.2884 v -1.322917 h 0.28575 v 0.08202 q 0.19315,-0.111125 0.36513,-0.111125 0.26458,0 0.35983,0.150812 0.0979,0.148167 0.0979,0.492125 v 0.709084 h -0.28575 v -0.701146 q 0,-0.214313 -0.0476,-0.304271 -0.045,-0.08996 -0.18785,-0.08996 -0.13494,0 -0.25929,0.05292 l -0.0397,0.01588 z" />
      <path
         id="path6802"
         style="fill:#f58728;fill-opacity:1;stroke-width:0.26458332"
         d="m 146.41998,95.76445 q 0,0.433917 -0.62706,0.433917 -0.30163,0 -0.44715,-0.08202 -0.14552,-0.08202 -0.14552,-0.298979 0,-0.0979 0.0476,-0.169333 0.0476,-0.06879 0.15345,-0.150813 -0.0873,-0.05821 -0.0873,-0.193146 0,-0.05292 0.0714,-0.171979 l 0.0238,-0.03969 q -0.1905,-0.113771 -0.1905,-0.396875 0,-0.238125 0.14288,-0.34925 0.14287,-0.111125 0.38629,-0.111125 0.11642,0 0.23019,0.02646 l 0.0397,0.0079 0.41011,-0.01058 v 0.232834 l -0.21961,-0.01323 q 0.0714,0.0926 0.0714,0.216959 0,0.259291 -0.13229,0.359833 -0.12965,0.0979 -0.40746,0.0979 -0.0688,0 -0.11642,-0.01058 -0.037,0.08996 -0.037,0.140229 0,0.04762 0.0476,0.06615 0.0503,0.01852 0.23812,0.02117 0.31486,0.0026 0.43127,0.08467 0.11642,0.08202 0.11642,0.309562 z m -0.93662,0.02646 q 0,0.0926 0.0741,0.132291 0.0741,0.03969 0.254,0.03969 0.32014,0 0.32014,-0.182563 0,-0.103187 -0.0582,-0.132291 -0.0556,-0.02646 -0.2249,-0.0291 l -0.25929,-0.01588 q -0.0582,0.04762 -0.082,0.08731 -0.0238,0.04233 -0.0238,0.100542 z m 0.0212,-1.095375 q 0,0.121708 0.0582,0.179916 0.0582,0.05556 0.18785,0.05556 0.12965,0 0.18521,-0.05556 0.0582,-0.05821 0.0582,-0.179916 0,-0.121709 -0.0582,-0.177271 -0.0582,-0.05821 -0.18785,-0.05821 -0.24342,0 -0.24342,0.235479 z" />
      <path
         id="path6804"
         style="fill:#f58728;fill-opacity:1;stroke-width:0.26458332"
         d="m 146.9174,95.584534 v -1.322917 h 0.28575 v 0.15875 q 0.22489,-0.145521 0.44979,-0.187854 v 0.288396 q -0.22754,0.04498 -0.38894,0.116416 l -0.0582,0.02381 v 0.923396 z" />
      <path
         id="path6806"
         style="fill:#f58728;fill-opacity:1;stroke-width:0.26458332"
         d="m 148.19797,94.404492 q 0.13758,-0.171979 0.45508,-0.171979 0.3175,0 0.45244,0.171979 0.13758,0.171979 0.13758,0.515938 0,0.343958 -0.13229,0.518583 -0.13229,0.174625 -0.45773,0.174625 -0.32543,0 -0.45773,-0.174625 -0.13229,-0.174625 -0.13229,-0.518583 0,-0.343959 0.13494,-0.515938 z m 0.21696,0.859896 q 0.0608,0.105833 0.23812,0.105833 0.17727,0 0.23813,-0.105833 0.0609,-0.105833 0.0609,-0.346604 0,-0.240771 -0.0661,-0.341313 -0.0635,-0.100541 -0.23284,-0.100541 -0.16933,0 -0.23548,0.100541 -0.0635,0.100542 -0.0635,0.341313 0,0.240771 0.0609,0.346604 z m -0.17992,-1.285875 v -0.301625 h 0.27517 v 0.301625 z m 0.55298,0 v -0.301625 h 0.27517 v 0.301625 z" />
      <path
         id="path6808"
         style="fill:#f58728;fill-opacity:1;stroke-width:0.26458332"
         d="m 150.0818,95.584534 h -0.2884 V 94.17695 q 0,-0.269875 0.13229,-0.381 0.1323,-0.11377 0.43128,-0.11377 0.29897,0 0.43656,0.09525 0.13758,0.0926 0.13758,0.306916 0,0.140229 -0.0556,0.211667 -0.0529,0.06879 -0.16404,0.119062 -0.11113,0.05027 -0.14023,0.07408 -0.0291,0.02381 -0.0291,0.06085 0,0.03704 0.0423,0.07144 0.045,0.03175 0.21696,0.113771 0.17197,0.08202 0.24341,0.164042 0.0741,0.08202 0.0741,0.235479 0,0.267229 -0.12171,0.373063 -0.12171,0.105833 -0.41275,0.105833 -0.15082,0 -0.32015,-0.03704 l -0.0609,-0.01323 0.0106,-0.232833 q 0.24342,0.0291 0.36777,0.0291 0.24077,0 0.24077,-0.182563 0,-0.07937 -0.0476,-0.121708 -0.045,-0.04233 -0.21432,-0.121708 -0.17727,-0.07673 -0.24606,-0.153459 -0.0688,-0.07937 -0.0688,-0.198437 0,-0.121708 0.0476,-0.187854 0.0476,-0.06615 0.1561,-0.111125 0.11112,-0.04763 0.14817,-0.08467 0.037,-0.03704 0.037,-0.111125 0,-0.07408 -0.0582,-0.111125 -0.0582,-0.03969 -0.21696,-0.03969 -0.1561,0 -0.21696,0.05556 -0.0609,0.05556 -0.0609,0.198438 z" />
      <path
         id="path6810"
         style="fill:#f58728;fill-opacity:1;stroke-width:0.26458332"
         d="m 152.57417,95.346409 0.0741,-0.0079 0.005,0.214313 q -0.30163,0.06085 -0.53446,0.06085 -0.29369,0 -0.42333,-0.161396 -0.127,-0.161396 -0.127,-0.515937 0,-0.703792 0.57414,-0.703792 0.55563,0 0.55563,0.605896 l -0.0185,0.206375 h -0.82021 q 0.003,0.164041 0.0714,0.240771 0.0688,0.07673 0.25665,0.07673 0.18785,0 0.38629,-0.01588 z m -0.15875,-0.523875 q 0,-0.195792 -0.0635,-0.272521 -0.0609,-0.07938 -0.20902,-0.07938 -0.14817,0 -0.21696,0.08202 -0.0661,0.08202 -0.0688,0.269875 z" />
      <path
         id="path6812"
         style="fill:#f58728;fill-opacity:1;stroke-width:0.26458332"
         d="m 154.07436,95.584534 v -0.381 h 0.30956 v 0.381 z" />
      <path
         id="path6814"
         style="fill:#f58728;fill-opacity:1;stroke-width:0.26458332"
         d="m 154.97129,95.584534 v -0.381 h 0.30956 v 0.381 z" />
      <path
         id="path6816"
         style="fill:#f58728;fill-opacity:1;stroke-width:0.26458332"
         d="m 155.86822,95.584534 v -0.381 h 0.30956 v 0.381 z" />
    </g>
    <g
       id="text6157-8"
       style="font-style:normal;font-variant:normal;font-weight:600;font-stretch:normal;font-size:2.64583325px;line-height:1.25;font-family:'Titillium Web';-inkscape-font-specification:'Titillium Web, Semi-Bold';font-variant-ligatures:normal;font-variant-caps:normal;font-variant-numeric:normal;font-feature-settings:normal;text-align:start;letter-spacing:0.26458332px;word-spacing:0px;writing-mode:lr-tb;text-anchor:start;display:inline;fill:#f58728;fill-opacity:1;stroke:none;stroke-width:0.26458332"
       aria-label="... der importierten VM ..."
       transform="translate(-259.60599,14.876164)">
      <path
         id="path6819"
         style="fill:#f58728;fill-opacity:1;stroke-width:0.26458332"
         d="m 106.61711,106.61922 v -0.381 h 0.30957 v 0.381 z" />
      <path
         id="path6821"
         style="fill:#f58728;fill-opacity:1;stroke-width:0.26458332"
         d="m 107.51405,106.61922 v -0.381 h 0.30956 v 0.381 z" />
      <path
         id="path6823"
         style="fill:#f58728;fill-opacity:1;stroke-width:0.26458332"
         d="m 108.41098,106.61922 v -0.381 h 0.30956 v 0.381 z" />
      <path
         id="path6825"
         style="fill:#f58728;fill-opacity:1;stroke-width:0.26458332"
         d="m 111.24731,104.74597 v 1.87325 h -0.28575 v -0.0688 q -0.19315,0.0979 -0.35454,0.0979 -0.25929,0 -0.381,-0.1561 -0.11907,-0.15611 -0.11907,-0.52388 0,-0.36777 0.1323,-0.53446 0.13493,-0.16668 0.41804,-0.16668 0.0952,0 0.30162,0.0344 v -0.55562 z m -0.33338,1.59808 0.045,-0.0185 v -0.78317 q -0.15875,-0.0265 -0.29368,-0.0265 -0.26723,0 -0.26723,0.4445 0,0.24342 0.0609,0.33867 0.0635,0.0926 0.19844,0.0926 0.13494,0 0.25664,-0.0476 z" />
      <path
         id="path6827"
         style="fill:#f58728;fill-opacity:1;stroke-width:0.26458332"
         d="m 112.80306,106.38109 0.0741,-0.008 0.005,0.21432 q -0.30162,0.0609 -0.53446,0.0609 -0.29368,0 -0.42333,-0.16139 -0.127,-0.1614 -0.127,-0.51594 0,-0.70379 0.57415,-0.70379 0.55562,0 0.55562,0.60589 l -0.0185,0.20638 h -0.82021 q 0.003,0.16404 0.0714,0.24077 0.0688,0.0767 0.25664,0.0767 0.18786,0 0.3863,-0.0159 z m -0.15875,-0.52387 q 0,-0.19579 -0.0635,-0.27252 -0.0609,-0.0794 -0.20902,-0.0794 -0.14817,0 -0.21696,0.082 -0.0662,0.082 -0.0688,0.26988 z" />
      <path
         id="path6829"
         style="fill:#f58728;fill-opacity:1;stroke-width:0.26458332"
         d="m 113.4698,106.61922 v -1.32292 h 0.28575 v 0.15875 q 0.2249,-0.14552 0.4498,-0.18785 v 0.28839 q -0.22755,0.045 -0.38894,0.11642 l -0.0582,0.0238 v 0.9234 z" />
      <path
         id="path6831"
         style="fill:#f58728;fill-opacity:1;stroke-width:0.26458332"
         d="m 115.53619,106.61922 v -1.32292 h 0.2884 v 1.32292 z m 0,-1.54782 v -0.30427 h 0.2884 v 0.30427 z" />
      <path
         id="path6833"
         style="fill:#f58728;fill-opacity:1;stroke-width:0.26458332"
         d="m 116.72682,106.61922 h -0.2884 v -1.32292 h 0.28575 v 0.082 q 0.18785,-0.11112 0.34396,-0.11112 0.23019,0 0.33602,0.12964 0.24077,-0.12964 0.4789,-0.12964 0.23812,0 0.33602,0.14816 0.0979,0.14552 0.0979,0.49477 v 0.70909 h -0.28575 v -0.70115 q 0,-0.21431 -0.045,-0.30427 -0.0423,-0.09 -0.17991,-0.09 -0.11907,0 -0.25665,0.0529 l -0.045,0.0185 q 0.0212,0.0529 0.0212,0.33867 v 0.68527 h -0.28575 v -0.67998 q 0,-0.23548 -0.0423,-0.32544 -0.0423,-0.09 -0.1852,-0.09 -0.13229,0 -0.24607,0.0529 l -0.0397,0.0159 z" />
      <path
         id="path6835"
         style="fill:#f58728;fill-opacity:1;stroke-width:0.26458332"
         d="m 118.92021,107.18807 v -1.89177 h 0.28575 v 0.082 q 0.18256,-0.11112 0.34131,-0.11112 0.26194,0 0.38365,0.16139 0.12171,0.15875 0.12171,0.53711 0,0.3757 -0.14023,0.52916 -0.13759,0.15346 -0.45244,0.15346 -0.10848,0 -0.25135,-0.0238 v 0.56356 z m 0.57679,-1.66423 q -0.12435,0 -0.24871,0.0556 l -0.0397,0.0185 v 0.78052 q 0.10583,0.0212 0.23283,0.0212 0.17992,0 0.24871,-0.10318 0.0688,-0.10319 0.0688,-0.3519 0,-0.42069 -0.26194,-0.42069 z" />
      <path
         id="path6837"
         style="fill:#f58728;fill-opacity:1;stroke-width:0.26458332"
         d="m 120.67704,105.43918 q 0.13758,-0.17198 0.45508,-0.17198 0.3175,0 0.45244,0.17198 0.13758,0.17197 0.13758,0.51593 0,0.34396 -0.13229,0.51859 -0.13229,0.17462 -0.45773,0.17462 -0.32543,0 -0.45773,-0.17462 -0.13229,-0.17463 -0.13229,-0.51859 0,-0.34396 0.13494,-0.51593 z m 0.21696,0.85989 q 0.0608,0.10583 0.23812,0.10583 0.17727,0 0.23813,-0.10583 0.0609,-0.10583 0.0609,-0.3466 0,-0.24077 -0.0661,-0.34132 -0.0635,-0.10054 -0.23284,-0.10054 -0.16933,0 -0.23548,0.10054 -0.0635,0.10055 -0.0635,0.34132 0,0.24077 0.0609,0.3466 z" />
      <path
         id="path6839"
         style="fill:#f58728;fill-opacity:1;stroke-width:0.26458332"
         d="m 122.27247,106.61922 v -1.32292 h 0.28575 v 0.15875 q 0.2249,-0.14552 0.4498,-0.18785 v 0.28839 q -0.22755,0.045 -0.38894,0.11642 l -0.0582,0.0238 v 0.9234 z" />
      <path
         id="path6841"
         style="fill:#f58728;fill-opacity:1;stroke-width:0.26458332"
         d="m 124.20393,105.54236 h -0.36513 v 0.58209 q 0,0.16139 0.0238,0.21431 0.0238,0.0529 0.1217,0.0529 l 0.21696,-0.008 0.0132,0.23019 q -0.17727,0.0344 -0.26987,0.0344 -0.2249,0 -0.30957,-0.10319 -0.082,-0.10318 -0.082,-0.38893 v -0.61384 h -0.16933 v -0.24606 h 0.16933 v -0.38365 h 0.28575 v 0.38365 h 0.36513 z" />
      <path
         id="path6843"
         style="fill:#f58728;fill-opacity:1;stroke-width:0.26458332"
         d="m 124.70399,106.61922 v -1.32292 h 0.2884 v 1.32292 z m 0,-1.54782 v -0.30427 h 0.2884 v 0.30427 z" />
      <path
         id="path6845"
         style="fill:#f58728;fill-opacity:1;stroke-width:0.26458332"
         d="m 126.54813,106.38109 0.0741,-0.008 0.005,0.21432 q -0.30163,0.0609 -0.53446,0.0609 -0.29369,0 -0.42333,-0.16139 -0.127,-0.1614 -0.127,-0.51594 0,-0.70379 0.57414,-0.70379 0.55563,0 0.55563,0.60589 l -0.0185,0.20638 h -0.82021 q 0.003,0.16404 0.0714,0.24077 0.0688,0.0767 0.25664,0.0767 0.18786,0 0.38629,-0.0159 z m -0.15875,-0.52387 q 0,-0.19579 -0.0635,-0.27252 -0.0609,-0.0794 -0.20902,-0.0794 -0.14816,0 -0.21695,0.082 -0.0662,0.082 -0.0688,0.26988 z" />
      <path
         id="path6847"
         style="fill:#f58728;fill-opacity:1;stroke-width:0.26458332"
         d="m 127.21488,106.61922 v -1.32292 h 0.28575 v 0.15875 q 0.2249,-0.14552 0.44979,-0.18785 v 0.28839 q -0.22754,0.045 -0.38893,0.11642 l -0.0582,0.0238 v 0.9234 z" />
      <path
         id="path6849"
         style="fill:#f58728;fill-opacity:1;stroke-width:0.26458332"
         d="m 129.14634,105.54236 h -0.36513 v 0.58209 q 0,0.16139 0.0238,0.21431 0.0238,0.0529 0.12171,0.0529 l 0.21696,-0.008 0.0132,0.23019 q -0.17727,0.0344 -0.26988,0.0344 -0.22489,0 -0.30956,-0.10319 -0.082,-0.10318 -0.082,-0.38893 v -0.61384 h -0.16933 v -0.24606 h 0.16933 v -0.38365 h 0.28575 v 0.38365 h 0.36513 z" />
      <path
         id="path6851"
         style="fill:#f58728;fill-opacity:1;stroke-width:0.26458332"
         d="m 130.58831,106.38109 0.0741,-0.008 0.005,0.21432 q -0.30163,0.0609 -0.53446,0.0609 -0.29369,0 -0.42333,-0.16139 -0.127,-0.1614 -0.127,-0.51594 0,-0.70379 0.57414,-0.70379 0.55563,0 0.55563,0.60589 l -0.0185,0.20638 h -0.82021 q 0.003,0.16404 0.0714,0.24077 0.0688,0.0767 0.25664,0.0767 0.18786,0 0.38629,-0.0159 z m -0.15875,-0.52387 q 0,-0.19579 -0.0635,-0.27252 -0.0609,-0.0794 -0.20902,-0.0794 -0.14816,0 -0.21695,0.082 -0.0661,0.082 -0.0688,0.26988 z" />
      <path
         id="path6853"
         style="fill:#f58728;fill-opacity:1;stroke-width:0.26458332"
         d="m 131.54346,106.61922 h -0.2884 v -1.32292 h 0.28575 v 0.082 q 0.19315,-0.11112 0.36513,-0.11112 0.26458,0 0.35983,0.15081 0.0979,0.14817 0.0979,0.49212 v 0.70909 h -0.28575 v -0.70115 q 0,-0.21431 -0.0476,-0.30427 -0.045,-0.09 -0.18785,-0.09 -0.13494,0 -0.25929,0.0529 l -0.0397,0.0159 z" />
      <path
         id="path6855"
         style="fill:#f58728;fill-opacity:1;stroke-width:0.26458332"
         d="m 134.8481,104.80682 h 0.30692 l -0.4445,1.8124 h -0.57679 l -0.4445,-1.8124 h 0.30691 l 0.35984,1.55311 h 0.13229 z" />
      <path
         id="path6857"
         style="fill:#f58728;fill-opacity:1;stroke-width:0.26458332"
         d="m 135.68154,106.61922 v -1.8124 h 0.51064 l 0.40482,1.41552 0.40481,-1.41552 h 0.51329 v 1.8124 h -0.29633 v -1.48696 h -0.0397 l -0.42863,1.41287 h -0.30691 l -0.42863,-1.41287 h -0.0397 v 1.48696 z" />
      <path
         id="path6859"
         style="fill:#f58728;fill-opacity:1;stroke-width:0.26458332"
         d="m 138.99411,106.61922 v -0.381 h 0.30957 v 0.381 z" />
      <path
         id="path6861"
         style="fill:#f58728;fill-opacity:1;stroke-width:0.26458332"
         d="m 139.89105,106.61922 v -0.381 h 0.30956 v 0.381 z" />
      <path
         id="path6863"
         style="fill:#f58728;fill-opacity:1;stroke-width:0.26458332"
         d="m 140.78798,106.61922 v -0.381 h 0.30957 v 0.381 z" />
    </g>
    <g
       id="text6161-0"
       style="font-style:normal;font-variant:normal;font-weight:600;font-stretch:normal;font-size:2.64583325px;line-height:1.25;font-family:'Titillium Web';-inkscape-font-specification:'Titillium Web, Semi-Bold';font-variant-ligatures:normal;font-variant-caps:normal;font-variant-numeric:normal;font-feature-settings:normal;text-align:start;letter-spacing:0.26458332px;word-spacing:0px;writing-mode:lr-tb;text-anchor:start;display:inline;fill:#f58220;fill-opacity:1;stroke:none;stroke-width:0.26458332"
       aria-label="... und Nutzung der neuen Größen in den VMs."
       transform="translate(-259.60599,14.876164)">
      <path
         id="path6866"
         style="fill:#f58220;fill-opacity:1;stroke-width:0.26458332"
         d="m 92.545856,149.11209 v -0.381 h 0.309563 v 0.381 z" />
      <path
         id="path6868"
         style="fill:#f58220;fill-opacity:1;stroke-width:0.26458332"
         d="m 93.44279,149.11209 v -0.381 h 0.309562 v 0.381 z" />
      <path
         id="path6870"
         style="fill:#f58220;fill-opacity:1;stroke-width:0.26458332"
         d="m 94.339723,149.11209 v -0.381 h 0.309562 v 0.381 z" />
      <path
         id="path6872"
         style="fill:#f58220;fill-opacity:1;stroke-width:0.26458332"
         d="m 96.898238,147.78917 h 0.28575 v 1.32292 h -0.28575 v -0.082 q -0.193146,0.11113 -0.357188,0.11113 -0.272521,0 -0.365125,-0.14553 -0.0926,-0.14816 -0.0926,-0.51593 v -0.69057 h 0.288396 v 0.69321 q 0,0.23813 0.03969,0.32015 0.03969,0.082 0.185209,0.082 0.142875,0 0.261937,-0.0529 l 0.03969,-0.0159 z" />
      <path
         id="path6874"
         style="fill:#f58220;fill-opacity:1;stroke-width:0.26458332"
         d="m 98.086215,149.11209 h -0.288396 v -1.32292 h 0.28575 v 0.082 q 0.193146,-0.11113 0.365125,-0.11113 0.264584,0 0.359834,0.15081 0.0979,0.14817 0.0979,0.49213 v 0.70908 h -0.28575 v -0.70114 q 0,-0.21432 -0.04762,-0.30428 -0.04498,-0.09 -0.187854,-0.09 -0.134937,0 -0.259291,0.0529 l -0.03969,0.0159 z" />
      <path
         id="path6876"
         style="fill:#f58220;fill-opacity:1;stroke-width:0.26458332"
         d="m 100.58653,147.23884 v 1.87325 h -0.28575 v -0.0688 q -0.19315,0.0979 -0.354545,0.0979 -0.259292,0 -0.381,-0.15611 -0.119063,-0.1561 -0.119063,-0.52387 0,-0.36777 0.132292,-0.53446 0.134937,-0.16669 0.418041,-0.16669 0.09525,0 0.301625,0.0344 v -0.55563 z m -0.33338,1.59808 0.045,-0.0185 v -0.78316 q -0.15875,-0.0265 -0.29369,-0.0265 -0.267226,0 -0.267226,0.4445 0,0.24342 0.06085,0.33867 0.0635,0.0926 0.198437,0.0926 0.134939,0 0.256649,-0.0476 z" />
      <path
         id="path6878"
         style="fill:#f58220;fill-opacity:1;stroke-width:0.26458332"
         d="m 102.08142,149.11209 v -1.81239 h 0.51329 l 0.55033,1.5531 h 0.0397 v -1.5531 h 0.29369 v 1.81239 h -0.50271 l -0.56356,-1.55575 h -0.037 v 1.55575 z" />
      <path
         id="path6880"
         style="fill:#f58220;fill-opacity:1;stroke-width:0.26458332"
         d="m 104.92833,147.78917 h 0.28575 v 1.32292 h -0.28575 v -0.082 q -0.19314,0.11113 -0.35719,0.11113 -0.27252,0 -0.36512,-0.14553 -0.0926,-0.14816 -0.0926,-0.51593 v -0.69057 h 0.2884 v 0.69321 q 0,0.23813 0.0397,0.32015 0.0397,0.082 0.18521,0.082 0.14287,0 0.26193,-0.0529 l 0.0397,-0.0159 z" />
      <path
         id="path6882"
         style="fill:#f58220;fill-opacity:1;stroke-width:0.26458332"
         d="m 106.53964,148.03524 h -0.36512 v 0.58208 q 0,0.1614 0.0238,0.21431 0.0238,0.0529 0.12171,0.0529 l 0.21696,-0.008 0.0132,0.23019 q -0.17728,0.0344 -0.26988,0.0344 -0.2249,0 -0.30956,-0.10319 -0.082,-0.10319 -0.082,-0.38894 v -0.61383 h -0.16934 v -0.24607 h 0.16934 v -0.38364 h 0.28575 v 0.38364 h 0.36512 z" />
      <path
         id="path6884"
         style="fill:#f58220;fill-opacity:1;stroke-width:0.26458332"
         d="m 106.97356,148.04582 v -0.25665 h 0.9816 v 0.25665 l -0.635,0.80963 h 0.635 v 0.25664 h -0.9816 v -0.25664 l 0.63764,-0.80963 z" />
      <path
         id="path6886"
         style="fill:#f58220;fill-opacity:1;stroke-width:0.26458332"
         d="m 109.30718,147.78917 h 0.28575 v 1.32292 h -0.28575 v -0.082 q -0.19315,0.11113 -0.35719,0.11113 -0.27252,0 -0.36512,-0.14553 -0.0926,-0.14816 -0.0926,-0.51593 v -0.69057 h 0.2884 v 0.69321 q 0,0.23813 0.0397,0.32015 0.0397,0.082 0.1852,0.082 0.14288,0 0.26194,-0.0529 l 0.0397,-0.0159 z" />
      <path
         id="path6888"
         style="fill:#f58220;fill-opacity:1;stroke-width:0.26458332"
         d="m 110.49516,149.11209 h -0.2884 v -1.32292 h 0.28575 v 0.082 q 0.19315,-0.11113 0.36512,-0.11113 0.26459,0 0.35984,0.15081 0.0979,0.14817 0.0979,0.49213 v 0.70908 h -0.28575 v -0.70114 q 0,-0.21432 -0.0476,-0.30428 -0.045,-0.09 -0.18786,-0.09 -0.13493,0 -0.25929,0.0529 l -0.0397,0.0159 z" />
      <path
         id="path6890"
         style="fill:#f58220;fill-opacity:1;stroke-width:0.26458332"
         d="m 113.0722,149.29201 q 0,0.43391 -0.62707,0.43391 -0.30162,0 -0.44714,-0.082 -0.14552,-0.082 -0.14552,-0.29898 0,-0.0979 0.0476,-0.16933 0.0476,-0.0688 0.15346,-0.15081 -0.0873,-0.0582 -0.0873,-0.19315 0,-0.0529 0.0714,-0.17198 l 0.0238,-0.0397 q -0.1905,-0.11377 -0.1905,-0.39688 0,-0.23812 0.14287,-0.34925 0.14288,-0.11112 0.3863,-0.11112 0.11641,0 0.23018,0.0265 l 0.0397,0.008 0.4101,-0.0106 v 0.23283 l -0.2196,-0.0132 q 0.0714,0.0926 0.0714,0.21696 0,0.25929 -0.13229,0.35983 -0.12965,0.0979 -0.40746,0.0979 -0.0688,0 -0.11642,-0.0106 -0.037,0.09 -0.037,0.14023 0,0.0476 0.0476,0.0661 0.0503,0.0185 0.23813,0.0212 0.31485,0.003 0.43127,0.0847 0.11642,0.082 0.11642,0.30956 z m -0.93663,0.0265 q 0,0.0926 0.0741,0.13229 0.0741,0.0397 0.254,0.0397 0.32014,0 0.32014,-0.18257 0,-0.10318 -0.0582,-0.13229 -0.0556,-0.0265 -0.22489,-0.0291 l -0.25929,-0.0159 q -0.0582,0.0476 -0.082,0.0873 -0.0238,0.0423 -0.0238,0.10055 z m 0.0212,-1.09538 q 0,0.12171 0.0582,0.17992 0.0582,0.0556 0.18785,0.0556 0.12965,0 0.18521,-0.0556 0.0582,-0.0582 0.0582,-0.17992 0,-0.12171 -0.0582,-0.17727 -0.0582,-0.0582 -0.18785,-0.0582 -0.24342,0 -0.24342,0.23548 z" />
      <path
         id="path6892"
         style="fill:#f58220;fill-opacity:1;stroke-width:0.26458332"
         d="m 115.49578,147.23884 v 1.87325 h -0.28575 v -0.0688 q -0.19315,0.0979 -0.35455,0.0979 -0.25929,0 -0.381,-0.15611 -0.11906,-0.1561 -0.11906,-0.52387 0,-0.36777 0.13229,-0.53446 0.13494,-0.16669 0.41805,-0.16669 0.0952,0 0.30162,0.0344 v -0.55563 z m -0.33338,1.59808 0.045,-0.0185 v -0.78316 q -0.15875,-0.0265 -0.29369,-0.0265 -0.26723,0 -0.26723,0.4445 0,0.24342 0.0609,0.33867 0.0635,0.0926 0.19844,0.0926 0.13493,0 0.25664,-0.0476 z" />
      <path
         id="path6894"
         style="fill:#f58220;fill-opacity:1;stroke-width:0.26458332"
         d="m 117.05152,148.87397 0.0741,-0.008 0.005,0.21431 q -0.30163,0.0609 -0.53446,0.0609 -0.29369,0 -0.42333,-0.1614 -0.127,-0.1614 -0.127,-0.51594 0,-0.70379 0.57414,-0.70379 0.55563,0 0.55563,0.6059 l -0.0185,0.20637 h -0.82021 q 0.003,0.16404 0.0714,0.24077 0.0688,0.0767 0.25664,0.0767 0.18786,0 0.38629,-0.0159 z m -0.15875,-0.52388 q 0,-0.19579 -0.0635,-0.27252 -0.0608,-0.0794 -0.20902,-0.0794 -0.14816,0 -0.21696,0.082 -0.0661,0.082 -0.0688,0.26987 z" />
      <path
         id="path6896"
         style="fill:#f58220;fill-opacity:1;stroke-width:0.26458332"
         d="m 117.71827,149.11209 v -1.32292 h 0.28575 v 0.15875 q 0.2249,-0.14552 0.44979,-0.18785 v 0.2884 q -0.22754,0.045 -0.38893,0.11641 l -0.0582,0.0238 v 0.92339 z" />
      <path
         id="path6898"
         style="fill:#f58220;fill-opacity:1;stroke-width:0.26458332"
         d="m 120.07306,149.11209 h -0.2884 v -1.32292 h 0.28575 v 0.082 q 0.19315,-0.11113 0.36513,-0.11113 0.26458,0 0.35983,0.15081 0.0979,0.14817 0.0979,0.49213 v 0.70908 h -0.28575 v -0.70114 q 0,-0.21432 -0.0476,-0.30428 -0.045,-0.09 -0.18785,-0.09 -0.13494,0 -0.25929,0.0529 l -0.0397,0.0159 z" />
      <path
         id="path6900"
         style="fill:#f58220;fill-opacity:1;stroke-width:0.26458332"
         d="m 122.43579,148.87397 0.0741,-0.008 0.005,0.21431 q -0.30162,0.0609 -0.53446,0.0609 -0.29368,0 -0.42333,-0.1614 -0.127,-0.1614 -0.127,-0.51594 0,-0.70379 0.57415,-0.70379 0.55562,0 0.55562,0.6059 l -0.0185,0.20637 h -0.82021 q 0.003,0.16404 0.0714,0.24077 0.0688,0.0767 0.25664,0.0767 0.18786,0 0.3863,-0.0159 z m -0.15875,-0.52388 q 0,-0.19579 -0.0635,-0.27252 -0.0609,-0.0794 -0.20902,-0.0794 -0.14817,0 -0.21696,0.082 -0.0661,0.082 -0.0688,0.26987 z" />
      <path
         id="path6902"
         style="fill:#f58220;fill-opacity:1;stroke-width:0.26458332"
         d="m 123.90422,147.78917 h 0.28575 v 1.32292 h -0.28575 v -0.082 q -0.19315,0.11113 -0.35719,0.11113 -0.27252,0 -0.36512,-0.14553 -0.0926,-0.14816 -0.0926,-0.51593 v -0.69057 h 0.2884 v 0.69321 q 0,0.23813 0.0397,0.32015 0.0397,0.082 0.18521,0.082 0.14287,0 0.26193,-0.0529 l 0.0397,-0.0159 z" />
      <path
         id="path6904"
         style="fill:#f58220;fill-opacity:1;stroke-width:0.26458332"
         d="m 125.74572,148.87397 0.0741,-0.008 0.005,0.21431 q -0.30162,0.0609 -0.53445,0.0609 -0.29369,0 -0.42334,-0.1614 -0.127,-0.1614 -0.127,-0.51594 0,-0.70379 0.57415,-0.70379 0.55562,0 0.55562,0.6059 l -0.0185,0.20637 h -0.82021 q 0.003,0.16404 0.0714,0.24077 0.0688,0.0767 0.25665,0.0767 0.18785,0 0.38629,-0.0159 z m -0.15875,-0.52388 q 0,-0.19579 -0.0635,-0.27252 -0.0609,-0.0794 -0.20902,-0.0794 -0.14817,0 -0.21696,0.082 -0.0661,0.082 -0.0688,0.26987 z" />
      <path
         id="path6906"
         style="fill:#f58220;fill-opacity:1;stroke-width:0.26458332"
         d="m 126.70086,149.11209 h -0.28839 v -1.32292 h 0.28575 v 0.082 q 0.19314,-0.11113 0.36512,-0.11113 0.26459,0 0.35984,0.15081 0.0979,0.14817 0.0979,0.49213 v 0.70908 h -0.28575 v -0.70114 q 0,-0.21432 -0.0476,-0.30428 -0.045,-0.09 -0.18786,-0.09 -0.13493,0 -0.25929,0.0529 l -0.0397,0.0159 z" />
      <path
         id="path6908"
         style="fill:#f58220;fill-opacity:1;stroke-width:0.26458332"
         d="m 129.74092,148.41888 v -0.25929 h 0.51594 v 0.92075 q -0.0714,0.0185 -0.29104,0.0397 -0.21696,0.0212 -0.31485,0.0212 -0.41275,0 -0.56886,-0.22755 -0.1561,-0.22754 -0.1561,-0.71173 0,-0.48683 0.15875,-0.70908 0.16139,-0.22225 0.55562,-0.22225 0.23284,0 0.52388,0.0529 l 0.0926,0.0185 -0.0106,0.23283 q -0.32015,-0.0423 -0.57415,-0.0423 -0.254,0 -0.34925,0.14287 -0.0926,0.14288 -0.0926,0.52917 0,0.38629 0.0873,0.53446 0.09,0.14552 0.35983,0.14552 0.19315,0 0.2884,-0.0238 v -0.44186 z" />
      <path
         id="path6910"
         style="fill:#f58220;fill-opacity:1;stroke-width:0.26458332"
         d="m 130.85482,149.11209 v -1.32292 h 0.28575 v 0.15875 q 0.22489,-0.14552 0.44979,-0.18785 v 0.2884 q -0.22754,0.045 -0.38894,0.11641 l -0.0582,0.0238 v 0.92339 z" />
      <path
         id="path6912"
         style="fill:#f58220;fill-opacity:1;stroke-width:0.26458332"
         d="m 132.13539,147.93205 q 0.13758,-0.17198 0.45508,-0.17198 0.3175,0 0.45244,0.17198 0.13758,0.17198 0.13758,0.51594 0,0.34396 -0.13229,0.51858 -0.13229,0.17463 -0.45773,0.17463 -0.32543,0 -0.45773,-0.17463 -0.13229,-0.17462 -0.13229,-0.51858 0,-0.34396 0.13494,-0.51594 z m 0.21696,0.8599 q 0.0608,0.10583 0.23812,0.10583 0.17727,0 0.23813,-0.10583 0.0609,-0.10584 0.0609,-0.34661 0,-0.24077 -0.0661,-0.34131 -0.0635,-0.10054 -0.23284,-0.10054 -0.16933,0 -0.23548,0.10054 -0.0635,0.10054 -0.0635,0.34131 0,0.24077 0.0609,0.34661 z m -0.17992,-1.28588 v -0.30162 h 0.27517 v 0.30162 z m 0.55298,0 v -0.30162 h 0.27517 v 0.30162 z" />
      <path
         id="path6914"
         style="fill:#f58220;fill-opacity:1;stroke-width:0.26458332"
         d="m 134.01922,149.11209 h -0.2884 v -1.40758 q 0,-0.26988 0.13229,-0.381 0.1323,-0.11377 0.43128,-0.11377 0.29897,0 0.43656,0.0952 0.13758,0.0926 0.13758,0.30691 0,0.14023 -0.0556,0.21167 -0.0529,0.0688 -0.16404,0.11906 -0.11113,0.0503 -0.14023,0.0741 -0.0291,0.0238 -0.0291,0.0609 0,0.037 0.0423,0.0714 0.045,0.0317 0.21696,0.11377 0.17197,0.082 0.24341,0.16404 0.0741,0.082 0.0741,0.23548 0,0.26723 -0.12171,0.37306 -0.12171,0.10584 -0.41275,0.10584 -0.15082,0 -0.32015,-0.037 l -0.0609,-0.0132 0.0106,-0.23283 q 0.24342,0.0291 0.36777,0.0291 0.24077,0 0.24077,-0.18257 0,-0.0794 -0.0476,-0.12171 -0.045,-0.0423 -0.21432,-0.1217 -0.17727,-0.0767 -0.24606,-0.15346 -0.0688,-0.0794 -0.0688,-0.19844 0,-0.12171 0.0476,-0.18785 0.0476,-0.0661 0.1561,-0.11113 0.11112,-0.0476 0.14817,-0.0847 0.037,-0.037 0.037,-0.11112 0,-0.0741 -0.0582,-0.11113 -0.0582,-0.0397 -0.21696,-0.0397 -0.1561,0 -0.21696,0.0556 -0.0609,0.0556 -0.0609,0.19844 z" />
      <path
         id="path6916"
         style="fill:#f58220;fill-opacity:1;stroke-width:0.26458332"
         d="m 136.51159,148.87397 0.0741,-0.008 0.005,0.21431 q -0.30163,0.0609 -0.53446,0.0609 -0.29369,0 -0.42333,-0.1614 -0.127,-0.1614 -0.127,-0.51594 0,-0.70379 0.57414,-0.70379 0.55563,0 0.55563,0.6059 l -0.0185,0.20637 h -0.82021 q 0.003,0.16404 0.0714,0.24077 0.0688,0.0767 0.25665,0.0767 0.18785,0 0.38629,-0.0159 z m -0.15875,-0.52388 q 0,-0.19579 -0.0635,-0.27252 -0.0609,-0.0794 -0.20902,-0.0794 -0.14817,0 -0.21696,0.082 -0.0661,0.082 -0.0688,0.26987 z" />
      <path
         id="path6918"
         style="fill:#f58220;fill-opacity:1;stroke-width:0.26458332"
         d="m 137.46674,149.11209 h -0.2884 v -1.32292 h 0.28575 v 0.082 q 0.19315,-0.11113 0.36513,-0.11113 0.26458,0 0.35983,0.15081 0.0979,0.14817 0.0979,0.49213 v 0.70908 h -0.28575 v -0.70114 q 0,-0.21432 -0.0476,-0.30428 -0.045,-0.09 -0.18785,-0.09 -0.13494,0 -0.2593,0.0529 l -0.0397,0.0159 z" />
      <path
         id="path6920"
         style="fill:#f58220;fill-opacity:1;stroke-width:0.26458332"
         d="m 139.73421,149.11209 v -1.32292 h 0.2884 v 1.32292 z m 0,-1.54781 v -0.30427 h 0.2884 v 0.30427 z" />
      <path
         id="path6922"
         style="fill:#f58220;fill-opacity:1;stroke-width:0.26458332"
         d="m 140.92484,149.11209 h -0.2884 v -1.32292 h 0.28575 v 0.082 q 0.19315,-0.11113 0.36512,-0.11113 0.26459,0 0.35984,0.15081 0.0979,0.14817 0.0979,0.49213 v 0.70908 h -0.28575 v -0.70114 q 0,-0.21432 -0.0476,-0.30428 -0.045,-0.09 -0.18786,-0.09 -0.13493,0 -0.25929,0.0529 l -0.0397,0.0159 z" />
      <path
         id="path6924"
         style="fill:#f58220;fill-opacity:1;stroke-width:0.26458332"
         d="m 144.27181,147.23884 v 1.87325 h -0.28575 v -0.0688 q -0.19314,0.0979 -0.35454,0.0979 -0.25929,0 -0.381,-0.15611 -0.11906,-0.1561 -0.11906,-0.52387 0,-0.36777 0.13229,-0.53446 0.13494,-0.16669 0.41804,-0.16669 0.0952,0 0.30163,0.0344 v -0.55563 z m -0.33337,1.59808 0.045,-0.0185 v -0.78316 q -0.15875,-0.0265 -0.29369,-0.0265 -0.26723,0 -0.26723,0.4445 0,0.24342 0.0609,0.33867 0.0635,0.0926 0.19843,0.0926 0.13494,0 0.25665,-0.0476 z" />
      <path
         id="path6926"
         style="fill:#f58220;fill-opacity:1;stroke-width:0.26458332"
         d="m 145.82756,148.87397 0.0741,-0.008 0.005,0.21431 q -0.30162,0.0609 -0.53445,0.0609 -0.29369,0 -0.42334,-0.1614 -0.127,-0.1614 -0.127,-0.51594 0,-0.70379 0.57415,-0.70379 0.55562,0 0.55562,0.6059 l -0.0185,0.20637 h -0.82021 q 0.003,0.16404 0.0714,0.24077 0.0688,0.0767 0.25665,0.0767 0.18785,0 0.38629,-0.0159 z m -0.15875,-0.52388 q 0,-0.19579 -0.0635,-0.27252 -0.0609,-0.0794 -0.20902,-0.0794 -0.14817,0 -0.21696,0.082 -0.0661,0.082 -0.0688,0.26987 z" />
      <path
         id="path6928"
         style="fill:#f58220;fill-opacity:1;stroke-width:0.26458332"
         d="m 146.7827,149.11209 h -0.28839 v -1.32292 h 0.28575 v 0.082 q 0.19314,-0.11113 0.36512,-0.11113 0.26459,0 0.35984,0.15081 0.0979,0.14817 0.0979,0.49213 v 0.70908 h -0.28575 v -0.70114 q 0,-0.21432 -0.0476,-0.30428 -0.045,-0.09 -0.18786,-0.09 -0.13493,0 -0.25929,0.0529 l -0.0397,0.0159 z" />
      <path
         id="path6930"
         style="fill:#f58220;fill-opacity:1;stroke-width:0.26458332"
         d="m 150.08735,147.2997 h 0.30692 l -0.4445,1.81239 h -0.5768 l -0.4445,-1.81239 h 0.30692 l 0.35983,1.5531 h 0.1323 z" />
      <path
         id="path6932"
         style="fill:#f58220;fill-opacity:1;stroke-width:0.26458332"
         d="m 150.92078,149.11209 v -1.81239 h 0.51065 l 0.40481,1.41552 0.40481,-1.41552 h 0.51329 v 1.81239 h -0.29633 v -1.48696 h -0.0397 l -0.42862,1.41288 h -0.30692 l -0.42862,-1.41288 h -0.0397 v 1.48696 z" />
      <path
         id="path6934"
         style="fill:#f58220;fill-opacity:1;stroke-width:0.26458332"
         d="m 154.31803,148.0617 q -0.31221,-0.0423 -0.45244,-0.0423 -0.14023,0 -0.19579,0.0344 -0.0529,0.0317 -0.0529,0.10319 0,0.0714 0.0582,0.10054 0.0609,0.0291 0.28046,0.0688 0.22225,0.037 0.31485,0.11906 0.0926,0.082 0.0926,0.29104 0,0.20902 -0.13494,0.30692 -0.13229,0.0979 -0.38894,0.0979 -0.16139,0 -0.40746,-0.045 l -0.082,-0.0132 0.0106,-0.24077 q 0.3175,0.0423 0.45773,0.0423 0.14023,0 0.19843,-0.0344 0.0609,-0.0344 0.0609,-0.11377 0,-0.0794 -0.0582,-0.10848 -0.0556,-0.0318 -0.27252,-0.0661 -0.21431,-0.037 -0.31486,-0.11377 -0.10054,-0.0767 -0.10054,-0.28046 0,-0.20373 0.13759,-0.30427 0.14023,-0.10054 0.35718,-0.10054 0.16934,0 0.4154,0.0423 l 0.082,0.0159 z" />
      <path
         id="path6936"
         style="fill:#f58220;fill-opacity:1;stroke-width:0.26458332"
         d="m 154.89217,149.11209 v -0.381 h 0.30957 v 0.381 z" />
    </g>
    <g
       id="text4933-6-8"
       style="font-style:normal;font-variant:normal;font-weight:600;font-stretch:normal;font-size:2.64583325px;line-height:1.25;font-family:'Titillium Web';-inkscape-font-specification:'Titillium Web, Semi-Bold';font-variant-ligatures:normal;font-variant-caps:normal;font-variant-numeric:normal;font-feature-settings:normal;text-align:start;letter-spacing:0.26458332px;word-spacing:0px;writing-mode:lr-tb;text-anchor:start;display:inline;fill:#0c2842;fill-opacity:1;stroke:none;stroke-width:0.26458332"
       aria-label="PROXMOX"
       transform="translate(-259.60599,14.876164)">
      <path
         id="path6939"
         style="letter-spacing:0.26458332px;fill:#0c2842;fill-opacity:1;stroke-width:0.26458332"
         d="m 84.572405,131.97986 h -0.370417 v 0.56357 h -0.293687 v -1.8124 h 0.664104 q 0.616479,0 0.616479,0.60854 0,0.31221 -0.156104,0.47625 -0.153459,0.16404 -0.460375,0.16404 z m -0.370417,-0.254 h 0.367771 q 0.3175,0 0.3175,-0.38629 0,-0.18521 -0.07673,-0.26987 -0.07673,-0.0847 -0.240771,-0.0847 h -0.367771 z" />
      <path
         id="path6941"
         style="letter-spacing:0.26458332px;fill:#0c2842;fill-opacity:1;stroke-width:0.26458332"
         d="m 86.030258,131.89784 v 0.64559 H 85.73657 v -1.8124 h 0.687917 q 0.613833,0 0.613833,0.57679 0,0.38629 -0.296333,0.52388 l 0.298979,0.71173 h -0.322792 l -0.261937,-0.64559 z m 0.706437,-0.58737 q 0,-0.32544 -0.312208,-0.32544 h -0.394229 v 0.65881 h 0.399521 q 0.15875,0 0.232833,-0.09 0.07408,-0.0926 0.07408,-0.24341 z" />
      <path
         id="path6943"
         style="letter-spacing:0.26458332px;fill:#0c2842;fill-opacity:1;stroke-width:0.26458332"
         d="m 87.951128,132.15978 q 0.08996,0.1561 0.343958,0.1561 0.254,0 0.341313,-0.15345 0.08996,-0.15346 0.08996,-0.5133 0,-0.36247 -0.0926,-0.52652 -0.08996,-0.16404 -0.338667,-0.16404 -0.248708,0 -0.341312,0.16404 -0.0926,0.16405 -0.0926,0.52388 0,0.35719 0.08996,0.51329 z m 0.915458,0.1905 q -0.161396,0.22225 -0.5715,0.22225 -0.410104,0 -0.574146,-0.22225 -0.164041,-0.2249 -0.164041,-0.70379 0,-0.4789 0.164041,-0.71173 0.166688,-0.23283 0.574146,-0.23283 0.407458,0 0.5715,0.23283 0.164042,0.23019 0.164042,0.71173 0,0.48154 -0.164042,0.70379 z" />
      <path
         id="path6945"
         style="letter-spacing:0.26458332px;fill:#0c2842;fill-opacity:1;stroke-width:0.26458332"
         d="m 89.744994,130.73103 0.388937,0.71438 0.39423,-0.71438 h 0.309562 l -0.537104,0.92075 0.537104,0.89165 H 90.50964 l -0.388938,-0.68263 -0.396875,0.68263 h -0.309562 l 0.53975,-0.87577 -0.53975,-0.93663 z" />
      <path
         id="path6947"
         style="letter-spacing:0.26458332px;fill:#0c2842;fill-opacity:1;stroke-width:0.26458332"
         d="m 91.345721,132.54343 v -1.8124 h 0.510646 l 0.404812,1.41552 0.404813,-1.41552 h 0.513291 v 1.8124 H 92.88295 v -1.48696 h -0.03969 l -0.428625,1.41287 h -0.306917 l -0.428625,-1.41287 h -0.03969 v 1.48696 z" />
      <path
         id="path6949"
         style="letter-spacing:0.26458332px;fill:#0c2842;fill-opacity:1;stroke-width:0.26458332"
         d="m 94.174113,132.15978 q 0.08996,0.1561 0.343958,0.1561 0.254,0 0.341313,-0.15345 0.08996,-0.15346 0.08996,-0.5133 0,-0.36247 -0.0926,-0.52652 -0.08996,-0.16404 -0.338667,-0.16404 -0.248708,0 -0.341312,0.16404 -0.0926,0.16405 -0.0926,0.52388 0,0.35719 0.08996,0.51329 z m 0.915458,0.1905 q -0.161396,0.22225 -0.5715,0.22225 -0.410104,0 -0.574145,-0.22225 -0.164042,-0.2249 -0.164042,-0.70379 0,-0.4789 0.164042,-0.71173 0.166687,-0.23283 0.574145,-0.23283 0.407459,0 0.5715,0.23283 0.164042,0.23019 0.164042,0.71173 0,0.48154 -0.164042,0.70379 z" />
      <path
         id="path6951"
         style="letter-spacing:0.26458332px;fill:#0c2842;fill-opacity:1;stroke-width:0.26458332"
         d="m 95.967979,130.73103 0.388937,0.71438 0.394229,-0.71438 h 0.309563 l -0.537104,0.92075 0.537104,0.89165 h -0.328083 l -0.388938,-0.68263 -0.396875,0.68263 H 95.63725 l 0.53975,-0.87577 -0.53975,-0.93663 z" />
    </g>
    <g
       id="text4937-1-8"
       style="font-style:normal;font-variant:normal;font-weight:600;font-stretch:normal;font-size:2.64583325px;line-height:1.25;font-family:'Titillium Web';-inkscape-font-specification:'Titillium Web, Semi-Bold';font-variant-ligatures:normal;font-variant-caps:normal;font-variant-numeric:normal;font-feature-settings:normal;text-align:start;letter-spacing:0.26458332px;word-spacing:0px;writing-mode:lr-tb;text-anchor:start;display:inline;fill:#ffffff;fill-opacity:1;stroke:none;stroke-width:0.26458332"
       aria-label="KVM"
       transform="translate(-259.60599,14.876164)">
      <path
         id="path6954"
         style="fill:#ffffff;stroke-width:0.26458332"
         d="m 121.1991,132.54265 h -0.29369 v -1.8124 h 0.29369 v 0.81757 l 0.26987,-0.0212 0.37042,-0.7964 h 0.33602 l -0.44715,0.91017 0.46567,0.90223 h -0.34131 l -0.38365,-0.75671 -0.26987,0.0185 z" />
      <path
         id="path6956"
         style="fill:#ffffff;stroke-width:0.26458332"
         d="m 123.71528,130.73025 h 0.30692 l -0.4445,1.8124 h -0.5768 l -0.4445,-1.8124 h 0.30692 l 0.35983,1.55311 h 0.1323 z" />
      <path
         id="path6958"
         style="fill:#ffffff;stroke-width:0.26458332"
         d="m 124.54872,132.54265 v -1.8124 h 0.51064 l 0.40481,1.41552 0.40482,-1.41552 h 0.51329 v 1.8124 h -0.29633 v -1.48696 h -0.0397 l -0.42863,1.41287 h -0.30691 l -0.42863,-1.41287 h -0.0397 v 1.48696 z" />
    </g>
    <g
       id="text4941-9-7"
       style="font-style:normal;font-variant:normal;font-weight:600;font-stretch:normal;font-size:2.64583325px;line-height:1.25;font-family:'Titillium Web';-inkscape-font-specification:'Titillium Web, Semi-Bold';font-variant-ligatures:normal;font-variant-caps:normal;font-variant-numeric:normal;font-feature-settings:normal;text-align:start;letter-spacing:0.26458332px;word-spacing:0px;writing-mode:lr-tb;text-anchor:start;display:inline;fill:#ffffff;fill-opacity:1;stroke:none;stroke-width:0.26458332"
       aria-label="XCP-ng"
       transform="translate(-259.60599,14.876164)">
      <path
         id="path6961"
         style="fill:#ffffff;stroke-width:0.26458332"
         d="m 152.32132,130.43788 0.38893,0.71437 0.39423,-0.71437 h 0.30957 l -0.53711,0.92075 0.53711,0.89164 h -0.32809 l -0.38893,-0.68262 -0.39688,0.68262 h -0.30956 l 0.53975,-0.87577 -0.53975,-0.93662 z" />
      <path
         id="path6963"
         style="fill:#ffffff;stroke-width:0.26458332"
         d="m 154.48561,132.27938 q -0.39688,0 -0.53975,-0.21961 -0.14023,-0.2196 -0.14023,-0.72231 0,-0.50271 0.14287,-0.71437 0.14288,-0.21432 0.53711,-0.21432 0.23548,0 0.51858,0.0661 l -0.0106,0.23813 q -0.23813,-0.0423 -0.47625,-0.0423 -0.23813,0 -0.3228,0.14288 -0.0847,0.14023 -0.0847,0.53181 0,0.38894 0.082,0.53181 0.082,0.14023 0.32014,0.14023 0.23813,0 0.48155,-0.0397 l 0.008,0.24342 q -0.27252,0.0582 -0.51593,0.0582 z" />
      <path
         id="path6965"
         style="fill:#ffffff;stroke-width:0.26458332"
         d="m 156.24508,131.68671 h -0.37042 v 0.56356 h -0.29368 v -1.81239 h 0.6641 q 0.61648,0 0.61648,0.60854 0,0.31221 -0.1561,0.47625 -0.15346,0.16404 -0.46038,0.16404 z m -0.37042,-0.254 h 0.36778 q 0.3175,0 0.3175,-0.38629 0,-0.18521 -0.0767,-0.26987 -0.0767,-0.0847 -0.24077,-0.0847 h -0.36778 z" />
      <path
         id="path6967"
         style="fill:#ffffff;stroke-width:0.26458332"
         d="m 157.35103,131.66819 v -0.26194 h 0.79111 v 0.26194 z" />
      <path
         id="path6969"
         style="fill:#ffffff;stroke-width:0.26458332"
         d="m 159.03114,132.25027 h -0.2884 v -1.32291 h 0.28575 v 0.082 q 0.19315,-0.11113 0.36513,-0.11113 0.26458,0 0.35983,0.15082 0.0979,0.14816 0.0979,0.49212 v 0.70908 h -0.28575 v -0.70114 q 0,-0.21431 -0.0476,-0.30427 -0.045,-0.09 -0.18785,-0.09 -0.13494,0 -0.2593,0.0529 l -0.0397,0.0159 z" />
      <path
         id="path6971"
         style="fill:#ffffff;stroke-width:0.26458332"
         d="m 161.60818,132.43019 q 0,0.43392 -0.62706,0.43392 -0.30163,0 -0.44715,-0.082 -0.14552,-0.082 -0.14552,-0.29898 0,-0.0979 0.0476,-0.16934 0.0476,-0.0688 0.15346,-0.15081 -0.0873,-0.0582 -0.0873,-0.19314 0,-0.0529 0.0714,-0.17198 l 0.0238,-0.0397 q -0.1905,-0.11377 -0.1905,-0.39688 0,-0.23812 0.14287,-0.34925 0.14288,-0.11112 0.3863,-0.11112 0.11641,0 0.23018,0.0265 l 0.0397,0.008 0.41011,-0.0106 v 0.23284 l -0.21961,-0.0132 q 0.0714,0.0926 0.0714,0.21695 0,0.2593 -0.13229,0.35984 -0.12965,0.0979 -0.40746,0.0979 -0.0688,0 -0.11642,-0.0106 -0.037,0.09 -0.037,0.14023 0,0.0476 0.0476,0.0662 0.0503,0.0185 0.23812,0.0212 0.31485,0.003 0.43127,0.0847 0.11642,0.082 0.11642,0.30956 z m -0.93663,0.0265 q 0,0.0926 0.0741,0.13229 0.0741,0.0397 0.254,0.0397 0.32014,0 0.32014,-0.18256 0,-0.10319 -0.0582,-0.1323 -0.0556,-0.0265 -0.22489,-0.0291 l -0.25929,-0.0159 q -0.0582,0.0476 -0.082,0.0873 -0.0238,0.0423 -0.0238,0.10054 z m 0.0212,-1.09538 q 0,0.12171 0.0582,0.17992 0.0582,0.0556 0.18785,0.0556 0.12965,0 0.18521,-0.0556 0.0582,-0.0582 0.0582,-0.17992 0,-0.1217 -0.0582,-0.17727 -0.0582,-0.0582 -0.18785,-0.0582 -0.24342,0 -0.24342,0.23547 z" />
    </g>
  </g>
</svg>
