<?xml version="1.0" encoding="UTF-8" standalone="no"?>
<svg viewBox="0 0 217.1559 132.7086" xmlns="http://www.w3.org/2000/svg">
<defs>
<linearGradient gradientUnits="userSpaceOnUse" id="linearGradient4155" x1="442.44727" x2="449.51725" y1="555.36716" y2="690.72764">
<stop offset="0" stop-color="#96beff"/>
<stop offset="1" stop-color="#09719f"/>
</linearGradient>
<linearGradient gradientUnits="userSpaceOnUse" id="linearGradient4157" x1="-139.40105" x2="-111.84524" y1="490.71738" y2="632.13873">
<stop offset="0" stop-color="#fff"/>
<stop offset="1" stop-color="#fff" stop-opacity="0"/>
</linearGradient>
</defs>
<g transform="matrix(.46448,0,0,.46448,-120.11891,-243.8872)">
<path d="m417.20429,525.07805c-32.47861,0-61.35312,15.4891-79.625,39.5-3.98974-.74567-8.1075-1.125-12.3125-1.125-36.80188,0-66.65626,29.8544-66.65625,66.65625s29.85437,66.68749 66.65625,66.6875c6.75152,0 13.26306-1.00612 19.40625-2.875 18.22469,19.18213 44.00349,31.15623 72.53125,31.15625 15.96209,0 31.04628-3.74613 44.4375-10.40625 13.39122,6.66012 28.47541,10.40624 44.4375,10.40625 32.87277,0 62.04923-15.89614 80.28125-40.40625 29.89462-.2526 54.0625-24.60861 54.0625-54.5625 0-27.60887-20.53053-50.42659-47.15625-54.03125-17.15145-30.43997-49.78084-51-87.1875-51-15.96456,0-31.04474,3.7442-44.4375,10.40625-13.39276-6.66205-28.47294-10.40625-44.4375-10.40625z" fill="url(#linearGradient4155)" fill-rule="evenodd"/>
<path d="m-116.15625,516.8125c-28.48888,0-54.19726,13.85076-70.125,34.78125-2.76908,3.64414-7.18818,5.37014-11.6875,4.53125-3.26379-.61-6.64584-.9375-10.125-.9375-29.07836,0-54.71875,25.64045-54.71875,54.71875 0,3.82889.28827,5.13448.1875,3.53125 .87184,13.72815 10.87982,25.14751 24.375,27.8125 32.07089,6.34387 75.54751,3.47967 127.21875-9.34375 41.69565-10.34775 86.5702-26.17276 131.125-44 9.98469-4.00373 17.09886-13.00018 18.69306-23.6389s-2.57048-21.3253-10.94306-28.07985c-14.97081-12.05443-34.36065-19.375-55.125-19.375-13.95146,0-27.41827,3.3329-39.125,9.15625-3.37158,1.67708-7.25342,1.67708-10.625,0-11.70672-5.82335-25.17354-9.15625-39.125-9.15625z" fill="url(#linearGradient4157)" fill-rule="evenodd" transform="translate(531.34,16.1624)"/>
</g>
<g transform="matrix(.46448,0,0,.46448,-80.30651,-204.0742)">
<path d="m417.20429,525.07805c-32.47861,0-61.35312,15.4891-79.625,39.5-3.98974-.74567-8.1075-1.125-12.3125-1.125-36.80188,0-66.65626,29.8544-66.65625,66.65625s29.85437,66.68749 66.65625,66.6875c6.75152,0 13.26306-1.00612 19.40625-2.875 18.22469,19.18213 44.00349,31.15623 72.53125,31.15625 15.96209,0 31.04628-3.74613 44.4375-10.40625 13.39122,6.66012 28.47541,10.40624 44.4375,10.40625 32.87277,0 62.04923-15.89614 80.28125-40.40625 29.89462-.2526 54.0625-24.60861 54.0625-54.5625 0-27.60887-20.53053-50.42659-47.15625-54.03125-17.15145-30.43997-49.78084-51-87.1875-51-15.96456,0-31.04474,3.7442-44.4375,10.40625-13.39276-6.66205-28.47294-10.40625-44.4375-10.40625z" fill="url(#linearGradient4155)" fill-rule="evenodd"/>
<path d="m-116.15625,516.8125c-28.48888,0-54.19726,13.85076-70.125,34.78125-2.76908,3.64414-7.18818,5.37014-11.6875,4.53125-3.26379-.61-6.64584-.9375-10.125-.9375-29.07836,0-54.71875,25.64045-54.71875,54.71875 0,3.82889.28827,5.13448.1875,3.53125 .87184,13.72815 10.87982,25.14751 24.375,27.8125 32.07089,6.34387 75.54751,3.47967 127.21875-9.34375 41.69565-10.34775 86.5702-26.17276 131.125-44 9.98469-4.00373 17.09886-13.00018 18.69306-23.6389s-2.57048-21.3253-10.94306-28.07985c-14.97081-12.05443-34.36065-19.375-55.125-19.375-13.95146,0-27.41827,3.3329-39.125,9.15625-3.37158,1.67708-7.25342,1.67708-10.625,0-11.70672-5.82335-25.17354-9.15625-39.125-9.15625z" fill="url(#linearGradient4157)" fill-rule="evenodd" transform="translate(531.34,16.1624)"/>
</g>
</svg>
