<?xml version="1.0" encoding="UTF-8" standalone="no"?>
<svg viewBox="0 0 123.75 111.89453" xmlns="http://www.w3.org/2000/svg">
<g transform="translate(-529.55357,-339.27206)">
<path d="m562.9032,349.38924c2.0165,0 3.64737,1.631 3.64737,3.64747v51.87013c0,2.0165-1.63075,3.64745-3.64737,3.64745-2.01175,0-3.6475-1.63075-3.6475-3.64745v-51.87013c0-2.0165 1.63575-3.64747 3.6475-3.64747" fill="#7d7d7d" fill-rule="evenodd" stroke="#7d7d7d" stroke-linejoin="round" stroke-miterlimit="10" stroke-width="1.25"/>
<path d="m531.42857,414.29159 15-15h90l15,15v35h-120z" fill="#e1e1e1" fill-rule="evenodd" stroke="#7d7d7d" stroke-miterlimit="10" stroke-width="3.75"/>
<path d="m537.67857,419.29159h107.5c.69325,0 1.25.5615 1.25,1.25v22.5c0,.68849-.5565,1.25-1.25,1.25h-107.5c-.6885,0-1.25-.56151-1.25-1.25v-22.5c0-.6885.5615-1.25 1.25-1.25" fill="#bdbdbd" fill-rule="evenodd" stroke="#9c9c9c" stroke-linejoin="round" stroke-miterlimit="10" stroke-width="1.25"/>
<path d="m617.67857,429.29159c0,1.665-2.5,1.665-2.5,0s2.5-1.665 2.5,0" fill="#c51900" fill-rule="evenodd" stroke="#7d7d7d" stroke-linejoin="round" stroke-miterlimit="10" stroke-width="1.25"/>
<path d="m628.92857,421.79159h2.5v20h-2.5z" fill="#9c9c9c" fill-rule="evenodd" stroke="#7d7d7d" stroke-miterlimit="10" stroke-width="1.25"/>
<path d="m541.42857,414.29159 10-10h82.5l10,10z" fill="#bdbdbd" fill-rule="evenodd" stroke="#9c9c9c" stroke-miterlimit="10" stroke-width="1.25"/>
<path d="m617.67857,424.29159c0,1.665-2.5,1.665-2.5,0s2.5-1.665 2.5,0" fill="#00c700" fill-rule="evenodd" stroke="#7d7d7d" stroke-miterlimit="10" stroke-width="1.25"/>
<path d="m633.92857,421.79159h2.5v20h-2.5z" fill="#9c9c9c" fill-rule="evenodd" stroke="#7d7d7d" stroke-miterlimit="10" stroke-width="1.25"/>
<path d="m638.92857,421.79159h2.5v20h-2.5z" fill="#9c9c9c" fill-rule="evenodd" stroke="#7d7d7d" stroke-miterlimit="10" stroke-width="1.25"/>
<path d="m617.67857,434.29159c0,1.665-2.5,1.665-2.5,0s2.5-1.665 2.5,0" fill="#00c700" fill-rule="evenodd" stroke="#7d7d7d" stroke-miterlimit="10" stroke-width="1.25"/>
<path d="m617.67857,439.29159c0,1.665-2.5,1.665-2.5,0s2.5-1.665 2.5,0" fill="#00c700" fill-rule="evenodd" stroke="#7d7d7d" stroke-miterlimit="10" stroke-width="1.25"/>
<path d="m579.11407,369.97031c2.25575-1.48425 3.64263-3.9795 3.711-6.6797s-1.18175-5.25877-3.3545-6.86035" fill="none" stroke="#00c700" stroke-miterlimit="10" stroke-width="3.75"/>
<path d="m592.18545,373.77401c3.11025-2.86132 4.84375-6.91405 4.77537-11.1377s-1.94325-8.21777-5.1465-10.97167" fill="none" stroke="#00c700" stroke-miterlimit="10" stroke-width="3.75"/>
<path d="m604.63657,378.23201c6.582-9.50682 6.54788-22.11425-.0925-31.5869" fill="none" stroke="#00c700" stroke-miterlimit="10" stroke-width="3.75"/>
<path d="m618.2352,382.89021c7.0215-12.95897 7.32425-28.5205.8105-41.74315" fill="none" stroke="#00c700" stroke-miterlimit="10" stroke-width="3.75"/>
<path d="m540.35432,439.11581h52.22175v2.6953h-52.22175z" fill="#9c9c9c" fill-rule="evenodd" stroke="#7d7d7d" stroke-miterlimit="10" stroke-width="1.25"/>
<path d="m540.31532,433.68124h52.22163v2.69532h-52.22163z" fill="#9c9c9c" fill-rule="evenodd" stroke="#7d7d7d" stroke-miterlimit="10" stroke-width="1.25"/>
<path d="m540.31532,427.98299h52.22163v2.69532h-52.22163z" fill="#9c9c9c" fill-rule="evenodd" stroke="#7d7d7d" stroke-miterlimit="10" stroke-width="1.25"/>
<path d="m540.30557,422.25546h52.22163v2.6953h-52.22163z" fill="#9c9c9c" fill-rule="evenodd" stroke="#7d7d7d" stroke-miterlimit="10" stroke-width="1.25"/>
</g>
</svg>
