<?xml version="1.0" encoding="UTF-8" standalone="no"?>
<svg viewBox="0 0 123.75 53.75" xmlns="http://www.w3.org/2000/svg">
<g transform="translate(-415.26786,-579.7729)">
<path d="m417.14286,596.6479 15-15h90l15,15v35h-120z" fill="#e1e1e1" fill-rule="evenodd" stroke="#7d7d7d" stroke-miterlimit="10" stroke-width="3.75"/>
<path d="m423.39286,601.6479h107.5c.69325,0 1.25.55675 1.25,1.25v22.5c0,.6885-.5565,1.25-1.25,1.25h-107.5c-.6885,0-1.25-.5615-1.25-1.25v-22.5c0-.69325.5615-1.25 1.25-1.25" fill="#bdbdbd" fill-rule="evenodd" stroke="#9c9c9c" stroke-linejoin="round" stroke-miterlimit="10" stroke-width="1.25"/>
<path d="m503.39286,611.6479c0,1.665-2.5,1.665-2.5,0s2.5-1.67 2.5,0" fill="#c51900" fill-rule="evenodd" stroke="#7d7d7d" stroke-linejoin="round" stroke-miterlimit="10" stroke-width="1.25"/>
<path d="m514.64286,604.1479h2.5v20h-2.5z" fill="#9c9c9c" fill-rule="evenodd" stroke="#7d7d7d" stroke-miterlimit="10" stroke-width="1.25"/>
<path d="m427.14286,596.6479 10-10h82.5l10,10z" fill="#bdbdbd" fill-rule="evenodd" stroke="#9c9c9c" stroke-miterlimit="10" stroke-width="1.25"/>
<path d="m503.39286,606.6479c0,1.665-2.5,1.665-2.5,0s2.5-1.67 2.5,0" fill="#00c700" fill-rule="evenodd" stroke="#7d7d7d" stroke-miterlimit="10" stroke-width="1.25"/>
<path d="m519.64286,604.1479h2.5v20h-2.5z" fill="#9c9c9c" fill-rule="evenodd" stroke="#7d7d7d" stroke-miterlimit="10" stroke-width="1.25"/>
<path d="m524.64286,604.1479h2.5v20h-2.5z" fill="#9c9c9c" fill-rule="evenodd" stroke="#7d7d7d" stroke-miterlimit="10" stroke-width="1.25"/>
<path d="m503.39286,616.6479c0,1.665-2.5,1.665-2.5,0s2.5-1.67 2.5,0" fill="#00c700" fill-rule="evenodd" stroke="#7d7d7d" stroke-miterlimit="10" stroke-width="1.25"/>
<path d="m503.39286,621.6479c0,1.665-2.5,1.665-2.5,0s2.5-1.67 2.5,0" fill="#00c700" fill-rule="evenodd" stroke="#7d7d7d" stroke-miterlimit="10" stroke-width="1.25"/>
<path d="m426.06866,621.47212h52.22167v2.6953h-52.22167z" fill="#9c9c9c" fill-rule="evenodd" stroke="#7d7d7d" stroke-miterlimit="10" stroke-width="1.25"/>
<path d="m426.03448,616.03755h52.22168v2.6953h-52.22168z" fill="#9c9c9c" fill-rule="evenodd" stroke="#7d7d7d" stroke-miterlimit="10" stroke-width="1.25"/>
<path d="m426.03448,610.3393h52.22168v2.69532h-52.22168z" fill="#9c9c9c" fill-rule="evenodd" stroke="#7d7d7d" stroke-miterlimit="10" stroke-width="1.25"/>
<path d="m426.02471,604.61175h52.22167v2.69532h-52.22167z" fill="#9c9c9c" fill-rule="evenodd" stroke="#7d7d7d" stroke-miterlimit="10" stroke-width="1.25"/>
</g>
</svg>
