<?xml version="1.0" encoding="UTF-8" standalone="no"?>
<!-- Created with Inkscape (http://www.inkscape.org/) -->

<svg
   width="67.558052mm"
   height="138.56346mm"
   viewBox="0 0 67.558052 138.56346"
   version="1.1"
   id="svg16478"
   xmlns="http://www.w3.org/2000/svg"
   xmlns:svg="http://www.w3.org/2000/svg">
  <defs
     id="defs16475">
    <marker
       orient="auto"
       refY="0"
       refX="0"
       id="marker22917-5-6-4-9-3-9-4-4-7-0-4"
       style="overflow:visible">
      <path
         id="path22915-3-2-2-77-0-2-0-6-5-6-3"
         d="M 0,0 5,-5 -12.5,0 5,5 Z"
         style="fill:#f58220;fill-opacity:1;fill-rule:evenodd;stroke:#f58220;stroke-width:1pt;stroke-opacity:1"
         transform="matrix(-0.4,0,0,-0.4,-4,0)" />
    </marker>
    <marker
       orient="auto"
       refY="0"
       refX="0"
       id="marker22917-5-6-4-9-3-9-4-4-7-1-8-5-1"
       style="overflow:visible">
      <path
         id="path22915-3-2-2-77-0-2-0-6-5-2-5-0-7"
         d="M 0,0 5,-5 -12.5,0 5,5 Z"
         style="fill:#f58220;fill-opacity:1;fill-rule:evenodd;stroke:#f58220;stroke-width:1pt;stroke-opacity:1"
         transform="matrix(-0.4,0,0,-0.4,-4,0)" />
    </marker>
    <marker
       orient="auto"
       refY="0"
       refX="0"
       id="marker20689-2-6"
       style="overflow:visible">
      <path
         id="path20687-4-05"
         d="M 0,0 5,-5 -12.5,0 5,5 Z"
         style="fill:#f58220;fill-opacity:1;fill-rule:evenodd;stroke:#f58220;stroke-width:1pt;stroke-opacity:1"
         transform="matrix(-0.4,0,0,-0.4,-4,0)" />
    </marker>
    <marker
       style="overflow:visible"
       id="marker23712-6-9"
       refX="0"
       refY="0"
       orient="auto">
      <path
         transform="matrix(-0.4,0,0,-0.4,-4,0)"
         style="fill:#f58220;fill-opacity:1;fill-rule:evenodd;stroke:#f58220;stroke-width:1pt;stroke-opacity:1"
         d="M 0,0 5,-5 -12.5,0 5,5 Z"
         id="path23710-4-62" />
    </marker>
    <marker
       orient="auto"
       refY="0"
       refX="0"
       id="marker20689-2-0-0"
       style="overflow:visible">
      <path
         id="path20687-4-6-4"
         d="M 0,0 5,-5 -12.5,0 5,5 Z"
         style="fill:#f58220;fill-opacity:1;fill-rule:evenodd;stroke:#f58220;stroke-width:1pt;stroke-opacity:1"
         transform="matrix(-0.4,0,0,-0.4,-4,0)" />
    </marker>
    <marker
       orient="auto"
       refY="0"
       refX="0"
       id="marker20689-2-1-3"
       style="overflow:visible">
      <path
         id="path20687-4-8-8"
         d="M 0,0 5,-5 -12.5,0 5,5 Z"
         style="fill:#f58220;fill-opacity:1;fill-rule:evenodd;stroke:#f58220;stroke-width:1pt;stroke-opacity:1"
         transform="matrix(-0.4,0,0,-0.4,-4,0)" />
    </marker>
    <marker
       orient="auto"
       refY="0"
       refX="0"
       id="marker20689-2-92-2"
       style="overflow:visible">
      <path
         id="path20687-4-0-8"
         d="M 0,0 5,-5 -12.5,0 5,5 Z"
         style="fill:#f58220;fill-opacity:1;fill-rule:evenodd;stroke:#f58220;stroke-width:1pt;stroke-opacity:1"
         transform="matrix(-0.4,0,0,-0.4,-4,0)" />
    </marker>
    <marker
       orient="auto"
       refY="0"
       refX="0"
       id="marker20689-2-9-3-5"
       style="overflow:visible">
      <path
         id="path20687-4-2-0-5"
         d="M 0,0 5,-5 -12.5,0 5,5 Z"
         style="fill:#f58220;fill-opacity:1;fill-rule:evenodd;stroke:#f58220;stroke-width:1pt;stroke-opacity:1"
         transform="matrix(-0.4,0,0,-0.4,-4,0)" />
    </marker>
    <marker
       orient="auto"
       refY="0"
       refX="0"
       id="marker20689-2-9-3-3-0"
       style="overflow:visible">
      <path
         id="path20687-4-2-0-6-4"
         d="M 0,0 5,-5 -12.5,0 5,5 Z"
         style="fill:#f58220;fill-opacity:1;fill-rule:evenodd;stroke:#f58220;stroke-width:1pt;stroke-opacity:1"
         transform="matrix(-0.4,0,0,-0.4,-4,0)" />
    </marker>
  </defs>
  <g
     id="layer1"
     transform="translate(48.094992,-79.847509)">
    <path
       id="path12424-5-9-51-6-3-5-5-9-4-4"
       d="m -18.919925,152.93781 v 3.66981 2.89807"
       style="display:inline;fill:none;fill-rule:evenodd;stroke:#f58220;stroke-width:0.423333;stroke-linecap:butt;stroke-linejoin:miter;stroke-miterlimit:4;stroke-dasharray:none;stroke-opacity:1;marker-end:url(#marker22917-5-6-4-9-3-9-4-4-7-0-4)" />
    <path
       id="path12424-5-9-51-6-3-5-5-9-4-8-2-3"
       d="m -18.919925,167.46898 v 5.92055 0.54425"
       style="display:inline;fill:none;fill-rule:evenodd;stroke:#f58220;stroke-width:0.423333;stroke-linecap:butt;stroke-linejoin:miter;stroke-miterlimit:4;stroke-dasharray:none;stroke-opacity:1;marker-end:url(#marker22917-5-6-4-9-3-9-4-4-7-1-8-5-1)" />
    <path
       id="path12628-0"
       d="m -18.919925,138.3859 v 6.09949"
       style="display:inline;fill:none;fill-rule:evenodd;stroke:#f58220;stroke-width:0.418289;stroke-linecap:butt;stroke-linejoin:miter;stroke-miterlimit:4;stroke-dasharray:none;stroke-opacity:1;marker-end:url(#marker20689-2-6)" />
    <path
       id="path23702-0"
       d="m -18.919925,87.45421 v 6.57057"
       style="display:inline;fill:none;fill-rule:evenodd;stroke:#f58220;stroke-width:0.417755;stroke-linecap:butt;stroke-linejoin:miter;stroke-miterlimit:4;stroke-dasharray:none;stroke-opacity:1;marker-end:url(#marker23712-6-9)" />
    <rect
       y="109.28194"
       x="12.615103"
       height="7.276041"
       width="6.5172296"
       id="rect6961-2-0-2"
       style="display:inline;vector-effect:none;fill:#0c2842;fill-opacity:1;fill-rule:evenodd;stroke:#0c2842;stroke-width:0.661457;stroke-linecap:square;stroke-linejoin:miter;stroke-miterlimit:4;stroke-dasharray:none;stroke-dashoffset:0;stroke-opacity:1" />
    <rect
       transform="matrix(-0.72801123,-0.68556521,0.72831404,-0.6852435,0,0)"
       y="-113.92679"
       x="-87.98333"
       height="10.615779"
       width="10.615496"
       id="rect6975-9"
       style="display:inline;vector-effect:none;fill:#f58220;fill-opacity:1;fill-rule:evenodd;stroke:#f58220;stroke-width:0.423721;stroke-linecap:square;stroke-linejoin:round;stroke-miterlimit:4;stroke-dasharray:none;stroke-dashoffset:0;stroke-opacity:1" />
    <rect
       y="160.19293"
       x="-37.110027"
       height="7.276041"
       width="36.380207"
       id="rect6961-3-7-8"
       style="display:inline;vector-effect:none;fill:#ffffff;fill-opacity:1;fill-rule:evenodd;stroke:#f58220;stroke-width:0.661458;stroke-linecap:square;stroke-linejoin:miter;stroke-miterlimit:4;stroke-dasharray:none;stroke-dashoffset:0;stroke-opacity:1" />
    <rect
       y="109.282"
       x="-47.764259"
       height="7.276041"
       width="57.680447"
       id="rect6961-3-7-1-4-3-4-8-8-0-9-0-1"
       style="display:inline;vector-effect:none;fill:#f58220;fill-opacity:1;fill-rule:evenodd;stroke:#f58220;stroke-width:0.661458;stroke-linecap:square;stroke-linejoin:miter;stroke-miterlimit:4;stroke-dasharray:none;stroke-dashoffset:0;stroke-opacity:1" />
    <rect
       y="80.178238"
       x="-47.764263"
       height="7.276041"
       width="57.680447"
       id="rect6961-3-7-1-4-3-4-8-8-0-9-0-3-2"
       style="display:inline;vector-effect:none;fill:#f58220;fill-opacity:1;fill-rule:evenodd;stroke:#f58220;stroke-width:0.661458;stroke-linecap:square;stroke-linejoin:miter;stroke-miterlimit:4;stroke-dasharray:none;stroke-dashoffset:0;stroke-opacity:1" />
    <path
       id="path12628-0-2"
       d="m -18.924036,109.81193 v 6.09949"
       style="display:inline;fill:none;fill-rule:evenodd;stroke:#f58220;stroke-width:0.418289;stroke-linecap:butt;stroke-linejoin:miter;stroke-miterlimit:4;stroke-dasharray:none;stroke-opacity:1;marker-end:url(#marker20689-2-0-0)" />
    <path
       id="path12628-0-7"
       d="m -18.919925,116.55797 v 6.09949"
       style="display:inline;fill:none;fill-rule:evenodd;stroke:#f58220;stroke-width:0.418289;stroke-linecap:butt;stroke-linejoin:miter;stroke-miterlimit:4;stroke-dasharray:none;stroke-opacity:1;marker-end:url(#marker20689-2-1-3)" />
    <path
       id="path12628-0-23"
       d="m -18.924036,102.0061 v 6.09949"
       style="display:inline;fill:none;fill-rule:evenodd;stroke:#f58220;stroke-width:0.418289;stroke-linecap:butt;stroke-linejoin:miter;stroke-miterlimit:4;stroke-dasharray:none;stroke-opacity:1;marker-end:url(#marker20689-2-92-2)" />
    <rect
       y="145.66187"
       x="-37.110027"
       height="7.276041"
       width="36.380207"
       id="rect6961-3-7-1-4-3-4-8-8-0-9-0-6-7"
       style="display:inline;vector-effect:none;fill:#f58220;fill-opacity:1;fill-rule:evenodd;stroke:#f58220;stroke-width:0.661458;stroke-linecap:square;stroke-linejoin:miter;stroke-miterlimit:4;stroke-dasharray:none;stroke-dashoffset:0;stroke-opacity:1" />
    <rect
       y="174.74503"
       x="-37.110027"
       height="14.552083"
       width="36.380207"
       id="rect6961-3-7-8-5"
       style="display:inline;vector-effect:none;fill:#ffffff;fill-opacity:1;fill-rule:evenodd;stroke:#f58220;stroke-width:0.661458;stroke-linecap:square;stroke-linejoin:miter;stroke-miterlimit:4;stroke-dasharray:none;stroke-dashoffset:0;stroke-opacity:1" />
    <rect
       y="196.57315"
       x="-37.110027"
       height="7.276041"
       width="36.380207"
       id="rect6961-3-7-8-6"
       style="display:inline;vector-effect:none;fill:#ffffff;fill-opacity:1;fill-rule:evenodd;stroke:#f58220;stroke-width:0.661458;stroke-linecap:square;stroke-linejoin:miter;stroke-miterlimit:4;stroke-dasharray:none;stroke-dashoffset:0;stroke-opacity:1" />
    <path
       id="path12628-0-0-3"
       d="m -18.919925,189.29712 v 6.43891"
       style="display:inline;fill:none;fill-rule:evenodd;stroke:#f58220;stroke-width:0.418289;stroke-linecap:butt;stroke-linejoin:miter;stroke-miterlimit:4;stroke-dasharray:none;stroke-opacity:1;marker-end:url(#marker20689-2-9-3-5)" />
    <path
       id="path12628-0-0-3-8"
       d="m -18.919922,203.84917 -3e-6,13.73749"
       style="display:inline;fill:none;fill-rule:evenodd;stroke:#f58220;stroke-width:0.418289;stroke-linecap:butt;stroke-linejoin:miter;stroke-miterlimit:4;stroke-dasharray:none;stroke-opacity:1;marker-end:url(#marker20689-2-9-3-3-0)" />
    <g
       aria-label="Host bereitstellen"
       transform="matrix(1.0000685,0,0,0.9999315,-57.83021,243.05438)"
       style="font-style:normal;font-variant:normal;font-weight:600;font-stretch:normal;font-size:3.17546px;line-height:1.25;font-family:'Titillium Web';-inkscape-font-specification:'Titillium Web, Semi-Bold';font-variant-ligatures:normal;font-variant-caps:normal;font-variant-numeric:normal;font-feature-settings:normal;text-align:start;letter-spacing:0.317546px;word-spacing:0px;writing-mode:lr-tb;text-anchor:start;display:inline;fill:#0c2842;fill-opacity:1;stroke:none;stroke-width:0.264583"
       id="text4903-52">
      <path
         d="m 25.577047,-78.1222 v -0.939937 H 24.63711 v 0.939937 h -0.352477 v -2.175193 h 0.352477 v 0.927236 h 0.939937 v -0.927236 h 0.355652 v 2.175193 z"
         style="letter-spacing:0.317546px;fill:#0c2842;fill-opacity:1;stroke-width:0.264583"
         id="path3118" />
      <path
         d="m 26.774191,-79.538457 q 0.165124,-0.206405 0.54618,-0.206405 0.381055,0 0.543004,0.206405 0.165124,0.206405 0.165124,0.619216 0,0.41281 -0.158773,0.62239 -0.158773,0.209581 -0.549355,0.209581 -0.390582,0 -0.549356,-0.209581 -0.158773,-0.20958 -0.158773,-0.62239 0,-0.412811 0.161949,-0.619216 z m 0.260388,1.032026 q 0.07304,0.127018 0.285792,0.127018 0.212756,0 0.285791,-0.127018 0.07304,-0.127019 0.07304,-0.415986 0,-0.288967 -0.07939,-0.409635 -0.07621,-0.120667 -0.279441,-0.120667 -0.20323,0 -0.282617,0.120667 -0.07621,0.120668 -0.07621,0.409635 0,0.288967 0.07304,0.415986 z"
         style="letter-spacing:0.317546px;fill:#0c2842;fill-opacity:1;stroke-width:0.264583"
         id="path3120" />
      <path
         d="m 29.790878,-79.382859 q -0.374705,-0.05081 -0.543005,-0.05081 -0.168299,0 -0.234984,0.04128 -0.06351,0.03811 -0.06351,0.123844 0,0.08574 0.06986,0.120667 0.07304,0.03493 0.336599,0.08256 0.266739,0.04446 0.37788,0.142896 0.111142,0.09844 0.111142,0.349301 0,0.250862 -0.161949,0.368354 -0.158773,0.117492 -0.466793,0.117492 -0.193704,0 -0.489022,-0.05398 l -0.09844,-0.01588 0.0127,-0.288967 q 0.381055,0.05081 0.549355,0.05081 0.1683,0 0.23816,-0.04128 0.07304,-0.04128 0.07304,-0.136545 0,-0.09526 -0.06986,-0.130194 -0.06668,-0.03811 -0.327072,-0.07939 -0.257213,-0.04446 -0.377881,-0.136544 -0.120667,-0.09209 -0.120667,-0.3366 0,-0.24451 0.165124,-0.365178 0.168299,-0.120668 0.428687,-0.120668 0.20323,0 0.498548,0.05081 l 0.09844,0.01905 z"
         style="letter-spacing:0.317546px;fill:#0c2842;fill-opacity:1;stroke-width:0.264583"
         id="path3122" />
      <path
         d="m 31.35003,-79.414614 h -0.438214 v 0.698602 q 0,0.193704 0.02858,0.257213 0.02858,0.06351 0.146072,0.06351 l 0.260388,-0.0095 0.01588,0.276265 q -0.212756,0.04128 -0.323897,0.04128 -0.269915,0 -0.37153,-0.123843 -0.09844,-0.123843 -0.09844,-0.466793 v -0.736708 h -0.20323 v -0.295318 h 0.20323 v -0.460442 h 0.34295 v 0.460442 h 0.438214 z"
         style="letter-spacing:0.317546px;fill:#0c2842;fill-opacity:1;stroke-width:0.264583"
         id="path3124" />
      <path
         d="m 33.706221,-79.744862 q 0.327073,0 0.469969,0.184177 0.146071,0.181001 0.146071,0.644619 0,0.463618 -0.171475,0.647795 -0.171475,0.181001 -0.603338,0.181001 -0.149247,0 -0.473144,-0.02858 l -0.107966,-0.0095 v -2.245053 h 0.34295 v 0.72083 q 0.219107,-0.09526 0.396933,-0.09526 z m -0.158773,1.349572 q 0.254037,0 0.336599,-0.117492 0.08574,-0.120668 0.08574,-0.406459 0,-0.285792 -0.07304,-0.400109 -0.06986,-0.117492 -0.231809,-0.117492 -0.152422,0 -0.304844,0.04763 l -0.05081,0.01588 v 0.965341 q 0.174651,0.0127 0.23816,0.0127 z"
         style="letter-spacing:0.317546px;fill:#0c2842;fill-opacity:1;stroke-width:0.264583"
         id="path3126" />
      <path
         d="m 36.116397,-78.407992 0.08891,-0.0095 0.0064,0.257212 q -0.362003,0.07304 -0.641444,0.07304 -0.352477,0 -0.508074,-0.193703 -0.152423,-0.193704 -0.152423,-0.619216 0,-0.844673 0.689076,-0.844673 0.666848,0 0.666848,0.727181 l -0.02223,0.247686 h -0.984394 q 0.0032,0.196879 0.08574,0.288968 0.08256,0.09209 0.30802,0.09209 0.225458,0 0.463618,-0.01905 z m -0.190528,-0.628742 q 0,-0.234984 -0.07621,-0.327072 -0.07304,-0.09526 -0.250862,-0.09526 -0.177826,0 -0.260388,0.09844 -0.07939,0.09844 -0.08256,0.323897 z"
         style="letter-spacing:0.317546px;fill:#0c2842;fill-opacity:1;stroke-width:0.264583"
         id="path3128" />
      <path
         d="m 36.916612,-78.1222 v -1.587732 h 0.34295 v 0.190528 q 0.269914,-0.174651 0.539829,-0.225458 v 0.346125 q -0.27309,0.05398 -0.466793,0.139721 l -0.06986,0.02858 v 1.108237 z"
         style="letter-spacing:0.317546px;fill:#0c2842;fill-opacity:1;stroke-width:0.264583"
         id="path3130" />
      <path
         d="m 39.498253,-78.407992 0.08891,-0.0095 0.0064,0.257212 q -0.362003,0.07304 -0.641444,0.07304 -0.352477,0 -0.508074,-0.193703 -0.152423,-0.193704 -0.152423,-0.619216 0,-0.844673 0.689076,-0.844673 0.666848,0 0.666848,0.727181 l -0.02223,0.247686 h -0.984394 q 0.0032,0.196879 0.08574,0.288968 0.08256,0.09209 0.30802,0.09209 0.225458,0 0.463618,-0.01905 z m -0.190528,-0.628742 q 0,-0.234984 -0.07621,-0.327072 -0.07304,-0.09526 -0.250862,-0.09526 -0.177826,0 -0.260388,0.09844 -0.07939,0.09844 -0.08256,0.323897 z"
         style="letter-spacing:0.317546px;fill:#0c2842;fill-opacity:1;stroke-width:0.264583"
         id="path3132" />
      <path
         d="m 40.298467,-78.1222 v -1.587732 h 0.346125 v 1.587732 z m 0,-1.857646 v -0.365179 h 0.346125 v 0.365179 z"
         style="letter-spacing:0.317546px;fill:#0c2842;fill-opacity:1;stroke-width:0.264583"
         id="path3134" />
      <path
         d="m 42.235499,-79.414614 h -0.438214 v 0.698602 q 0,0.193704 0.02858,0.257213 0.02858,0.06351 0.146072,0.06351 l 0.260388,-0.0095 0.01588,0.276265 q -0.212756,0.04128 -0.323897,0.04128 -0.269915,0 -0.37153,-0.123843 -0.09844,-0.123843 -0.09844,-0.466793 v -0.736708 h -0.20323 v -0.295318 h 0.20323 v -0.460442 h 0.34295 v 0.460442 h 0.438214 z"
         style="letter-spacing:0.317546px;fill:#0c2842;fill-opacity:1;stroke-width:0.264583"
         id="path3136" />
      <path
         d="m 43.937546,-79.382859 q -0.374705,-0.05081 -0.543004,-0.05081 -0.1683,0 -0.234985,0.04128 -0.06351,0.03811 -0.06351,0.123844 0,0.08574 0.06986,0.120667 0.07304,0.03493 0.3366,0.08256 0.266739,0.04446 0.37788,0.142896 0.111141,0.09844 0.111141,0.349301 0,0.250862 -0.161949,0.368354 -0.158773,0.117492 -0.466793,0.117492 -0.193703,0 -0.489021,-0.05398 l -0.09844,-0.01588 0.0127,-0.288967 q 0.381056,0.05081 0.549355,0.05081 0.1683,0 0.23816,-0.04128 0.07304,-0.04128 0.07304,-0.136545 0,-0.09526 -0.06986,-0.130194 -0.06668,-0.03811 -0.327073,-0.07939 -0.257213,-0.04446 -0.37788,-0.136544 -0.120668,-0.09209 -0.120668,-0.3366 0,-0.24451 0.165124,-0.365178 0.1683,-0.120668 0.428688,-0.120668 0.20323,0 0.498548,0.05081 l 0.09844,0.01905 z"
         style="letter-spacing:0.317546px;fill:#0c2842;fill-opacity:1;stroke-width:0.264583"
         id="path3138" />
      <path
         d="m 45.496699,-79.414614 h -0.438214 v 0.698602 q 0,0.193704 0.02858,0.257213 0.02858,0.06351 0.146071,0.06351 l 0.260388,-0.0095 0.01588,0.276265 q -0.212756,0.04128 -0.323898,0.04128 -0.269914,0 -0.371529,-0.123843 -0.09844,-0.123843 -0.09844,-0.466793 v -0.736708 h -0.20323 v -0.295318 h 0.20323 v -0.460442 h 0.34295 v 0.460442 h 0.438214 z"
         style="letter-spacing:0.317546px;fill:#0c2842;fill-opacity:1;stroke-width:0.264583"
         id="path3140" />
      <path
         d="m 47.227325,-78.407992 0.08891,-0.0095 0.0064,0.257212 q -0.362003,0.07304 -0.641444,0.07304 -0.352476,0 -0.508074,-0.193703 -0.152422,-0.193704 -0.152422,-0.619216 0,-0.844673 0.689076,-0.844673 0.666847,0 0.666847,0.727181 l -0.02223,0.247686 H 46.36995 q 0.0032,0.196879 0.08574,0.288968 0.08256,0.09209 0.30802,0.09209 0.225457,0 0.463617,-0.01905 z m -0.190528,-0.628742 q 0,-0.234984 -0.07621,-0.327072 -0.07303,-0.09526 -0.250861,-0.09526 -0.177826,0 -0.260388,0.09844 -0.07939,0.09844 -0.08256,0.323897 z"
         style="letter-spacing:0.317546px;fill:#0c2842;fill-opacity:1;stroke-width:0.264583"
         id="path3142" />
      <path
         d="m 48.046594,-78.1222 v -2.248228 h 0.346126 v 2.248228 z"
         style="letter-spacing:0.317546px;fill:#0c2842;fill-opacity:1;stroke-width:0.264583"
         id="path3144" />
      <path
         d="m 49.167528,-78.1222 v -2.248228 h 0.346125 v 2.248228 z"
         style="letter-spacing:0.317546px;fill:#0c2842;fill-opacity:1;stroke-width:0.264583"
         id="path3146" />
      <path
         d="m 51.399874,-78.407992 0.08891,-0.0095 0.0063,0.257212 q -0.362002,0.07304 -0.641443,0.07304 -0.352477,0 -0.508074,-0.193703 -0.152423,-0.193704 -0.152423,-0.619216 0,-0.844673 0.689076,-0.844673 0.666847,0 0.666847,0.727181 l -0.02223,0.247686 h -0.984394 q 0.0032,0.196879 0.08574,0.288968 0.08256,0.09209 0.30802,0.09209 0.225458,0 0.463618,-0.01905 z m -0.190528,-0.628742 q 0,-0.234984 -0.07621,-0.327072 -0.07304,-0.09526 -0.250862,-0.09526 -0.177826,0 -0.260388,0.09844 -0.07939,0.09844 -0.08256,0.323897 z"
         style="letter-spacing:0.317546px;fill:#0c2842;fill-opacity:1;stroke-width:0.264583"
         id="path3148" />
      <path
         d="m 52.546213,-78.1222 h -0.346125 v -1.587732 h 0.34295 v 0.09844 q 0.231809,-0.133369 0.438214,-0.133369 0.317546,0 0.431863,0.181001 0.117492,0.177826 0.117492,0.590637 v 0.851024 h -0.34295 v -0.841498 q 0,-0.257213 -0.05716,-0.365178 -0.05398,-0.107966 -0.225458,-0.107966 -0.161949,0 -0.311196,0.06351 l -0.04763,0.01905 z"
         style="letter-spacing:0.317546px;fill:#0c2842;fill-opacity:1;stroke-width:0.264583"
         id="path3150" />
    </g>
    <g
       aria-label="PROXMOX"
       transform="matrix(1.0000685,0,0,0.9999315,-57.83021,243.05438)"
       style="font-style:normal;font-variant:normal;font-weight:600;font-stretch:normal;font-size:3.17546px;line-height:1.25;font-family:'Titillium Web';-inkscape-font-specification:'Titillium Web, Semi-Bold';font-variant-ligatures:normal;font-variant-caps:normal;font-variant-numeric:normal;font-feature-settings:normal;text-align:start;letter-spacing:0.317546px;word-spacing:0px;writing-mode:lr-tb;text-anchor:start;display:inline;fill:#ffffff;fill-opacity:1;stroke:none;stroke-width:0.264583"
       id="text4933-4">
      <path
         d="m 31.812063,-93.349691 h -0.444565 v 0.676374 h -0.352476 v -2.175193 h 0.797041 q 0.739883,0 0.739883,0.730357 0,0.374705 -0.187352,0.571583 -0.184177,0.196879 -0.552531,0.196879 z m -0.444565,-0.304844 h 0.44139 q 0.381055,0 0.381055,-0.463618 0,-0.222283 -0.09209,-0.323897 -0.09209,-0.101615 -0.288967,-0.101615 h -0.44139 z"
         style="letter-spacing:0.317546px;fill:#ffffff;fill-opacity:1;stroke-width:0.264583"
         id="path3153" />
      <path
         d="m 33.561743,-93.44813 v 0.774813 h -0.352477 v -2.175193 h 0.825621 q 0.736707,0 0.736707,0.692251 0,0.463618 -0.355652,0.628742 l 0.358828,0.8542 h -0.387407 l -0.314371,-0.774813 z m 0.847849,-0.704953 q 0,-0.390582 -0.374705,-0.390582 h -0.473144 v 0.79069 h 0.479495 q 0.190528,0 0.279441,-0.107965 0.08891,-0.111142 0.08891,-0.292143 z"
         style="letter-spacing:0.317546px;fill:#ffffff;fill-opacity:1;stroke-width:0.264583"
         id="path3155" />
      <path
         d="m 35.867123,-93.133759 q 0.107966,0.187352 0.412811,0.187352 0.304844,0 0.409634,-0.184177 0.107966,-0.184177 0.107966,-0.61604 0,-0.435038 -0.111141,-0.631917 -0.107966,-0.196879 -0.406459,-0.196879 -0.298494,0 -0.409635,0.196879 -0.111142,0.196879 -0.111142,0.628742 0,0.428687 0.107966,0.61604 z m 1.098711,0.228633 q -0.193704,0.266739 -0.6859,0.266739 -0.492197,0 -0.689076,-0.266739 -0.196879,-0.269914 -0.196879,-0.844673 0,-0.574759 0.196879,-0.8542 0.200054,-0.279441 0.689076,-0.279441 0.489021,0 0.6859,0.279441 0.196879,0.276265 0.196879,0.8542 0,0.577934 -0.196879,0.844673 z"
         style="letter-spacing:0.317546px;fill:#ffffff;fill-opacity:1;stroke-width:0.264583"
         id="path3157" />
      <path
         d="m 38.020077,-94.84851 0.466794,0.857376 0.473144,-0.857376 h 0.371529 l -0.644619,1.105062 0.644619,1.070131 h -0.393758 l -0.466793,-0.81927 -0.476319,0.81927 h -0.37153 l 0.647795,-1.051079 -0.647795,-1.124114 z"
         style="letter-spacing:0.317546px;fill:#ffffff;fill-opacity:1;stroke-width:0.264583"
         id="path3159" />
      <path
         d="m 39.94123,-92.673317 v -2.175193 h 0.612865 l 0.485846,1.698873 0.485846,-1.698873 h 0.61604 v 2.175193 h -0.355652 v -1.784611 h -0.04763 l -0.514425,1.695698 h -0.368354 l -0.514425,-1.695698 h -0.04763 v 1.784611 z"
         style="letter-spacing:0.317546px;fill:#ffffff;fill-opacity:1;stroke-width:0.264583"
         id="path3161" />
      <path
         d="m 43.335797,-93.133759 q 0.107966,0.187352 0.41281,0.187352 0.304845,0 0.409635,-0.184177 0.107966,-0.184177 0.107966,-0.61604 0,-0.435038 -0.111141,-0.631917 -0.107966,-0.196879 -0.40646,-0.196879 -0.298493,0 -0.409635,0.196879 -0.111141,0.196879 -0.111141,0.628742 0,0.428687 0.107966,0.61604 z m 1.09871,0.228633 q -0.193703,0.266739 -0.6859,0.266739 -0.492197,0 -0.689075,-0.266739 -0.196879,-0.269914 -0.196879,-0.844673 0,-0.574759 0.196879,-0.8542 0.200054,-0.279441 0.689075,-0.279441 0.489022,0 0.6859,0.279441 0.196879,0.276265 0.196879,0.8542 0,0.577934 -0.196879,0.844673 z"
         style="letter-spacing:0.317546px;fill:#ffffff;fill-opacity:1;stroke-width:0.264583"
         id="path3163" />
      <path
         d="m 45.48875,-94.84851 0.466793,0.857376 0.473144,-0.857376 h 0.37153 l -0.644619,1.105062 0.644619,1.070131 h -0.393758 l -0.466793,-0.81927 -0.47632,0.81927 h -0.371529 l 0.647795,-1.051079 -0.647795,-1.124114 z"
         style="letter-spacing:0.317546px;fill:#ffffff;fill-opacity:1;stroke-width:0.264583"
         id="path3165" />
    </g>
    <g
       aria-label="Default"
       transform="matrix(1.0000685,0,0,0.9999315,-57.83021,243.05438)"
       style="font-style:normal;font-variant:normal;font-weight:600;font-stretch:normal;font-size:3.17546px;line-height:1.25;font-family:'Titillium Web';-inkscape-font-specification:'Titillium Web, Semi-Bold';font-variant-ligatures:normal;font-variant-caps:normal;font-variant-numeric:normal;font-feature-settings:normal;text-align:start;letter-spacing:0.317546px;word-spacing:0px;writing-mode:lr-tb;text-anchor:start;display:inline;fill:#0c2842;fill-opacity:1;stroke:none;stroke-width:0.264583"
       id="text4945-3">
      <path
         d="m 33.848177,-129.01927 h -0.752585 v -2.17519 h 0.752585 q 0.501723,0 0.6859,0.25403 0.184177,0.25404 0.184177,0.79704 0,0.27627 -0.03811,0.46997 -0.03493,0.19053 -0.127019,0.34613 -0.181001,0.30802 -0.704953,0.30802 z m 0.504899,-1.12412 q 0,-0.39375 -0.09844,-0.5684 -0.09844,-0.17465 -0.406459,-0.17465 h -0.400108 v 1.55597 h 0.400108 q 0.314371,0 0.419161,-0.23181 0.05081,-0.11749 0.06668,-0.25086 0.01905,-0.13337 0.01905,-0.33025 z"
         style="fill:#0c2842;fill-opacity:1;stroke-width:0.264583"
         id="path3175" />
      <path
         d="m 36.537791,-129.30506 0.08891,-0.01 0.0064,0.25721 q -0.362003,0.073 -0.641444,0.073 -0.352476,0 -0.508074,-0.19371 -0.152422,-0.1937 -0.152422,-0.61921 0,-0.84467 0.689075,-0.84467 0.666848,0 0.666848,0.72718 l -0.02223,0.24768 H 35.68046 q 0.0032,0.19688 0.08574,0.28897 0.08256,0.0921 0.30802,0.0921 0.225458,0 0.463618,-0.019 z m -0.190528,-0.62875 q 0,-0.23498 -0.07621,-0.32707 -0.07304,-0.0953 -0.250862,-0.0953 -0.177826,0 -0.260388,0.0984 -0.07939,0.0984 -0.08256,0.32389 z"
         style="fill:#0c2842;fill-opacity:1;stroke-width:0.264583"
         id="path3177" />
      <path
         d="m 37.753992,-130.31169 v 1.29242 h -0.34295 v -1.29242 h -0.184177 v -0.29531 h 0.184177 v -0.10162 q 0,-0.33977 0.09844,-0.46679 0.09844,-0.12702 0.349301,-0.12702 l 0.34295,0.0317 -0.0032,0.28262 q -0.155598,-0.006 -0.260388,-0.006 -0.101615,0 -0.142896,0.0635 -0.04128,0.0603 -0.04128,0.22546 v 0.0984 h 0.419161 v 0.29531 z"
         style="fill:#0c2842;fill-opacity:1;stroke-width:0.264583"
         id="path3179" />
      <path
         d="m 39.929181,-130.11798 v 0.724 q 0.0032,0.0699 0.03493,0.10479 0.03493,0.0318 0.10479,0.0413 l -0.0095,0.26357 q -0.27309,0 -0.422337,-0.11749 -0.254037,0.11749 -0.511249,0.11749 -0.473145,0 -0.473145,-0.5049 0,-0.24134 0.127019,-0.3493 0.130194,-0.10797 0.396933,-0.1302 l 0.409635,-0.0349 v -0.11431 q 0,-0.12702 -0.05716,-0.17783 -0.05398,-0.0508 -0.161949,-0.0508 -0.20323,0 -0.508074,0.0254 l -0.101615,0.006 -0.0127,-0.24451 q 0.346125,-0.0826 0.635093,-0.0826 0.292142,0 0.419161,0.12701 0.130194,0.12385 0.130194,0.39694 z m -0.711304,0.39376 q -0.219107,0.019 -0.219107,0.23815 0,0.21911 0.193703,0.21911 0.158774,0 0.3366,-0.0508 l 0.05716,-0.019 v -0.42233 z"
         style="fill:#0c2842;fill-opacity:1;stroke-width:0.264583"
         id="path3181" />
      <path
         d="m 41.643931,-130.607 h 0.34295 v 1.58773 h -0.34295 v -0.0984 q -0.231809,0.13337 -0.428687,0.13337 -0.327073,0 -0.438214,-0.17465 -0.111142,-0.17783 -0.111142,-0.61922 v -0.82879 h 0.346126 v 0.83197 q 0,0.28579 0.04763,0.38423 0.04763,0.0984 0.222282,0.0984 0.171475,0 0.314371,-0.0635 l 0.04763,-0.019 z"
         style="fill:#0c2842;fill-opacity:1;stroke-width:0.264583"
         id="path3183" />
      <path
         d="m 42.742639,-129.01927 v -2.24823 h 0.346126 v 2.24823 z"
         style="fill:#0c2842;fill-opacity:1;stroke-width:0.264583"
         id="path3185" />
      <path
         d="m 44.69872,-130.31169 h -0.438214 v 0.69861 q 0,0.1937 0.02858,0.25721 0.02858,0.0635 0.146071,0.0635 l 0.260388,-0.01 0.01588,0.27627 q -0.212756,0.0413 -0.323897,0.0413 -0.269914,0 -0.371529,-0.12384 -0.09844,-0.12385 -0.09844,-0.4668 v -0.73671 H 43.71433 v -0.29531 h 0.203229 v -0.46045 h 0.342951 v 0.46045 h 0.438214 z"
         style="fill:#0c2842;fill-opacity:1;stroke-width:0.264583"
         id="path3187" />
    </g>
    <g
       aria-label="Vorüberlegungen"
       transform="matrix(1.0000685,0,0,0.9999315,-57.83021,243.05438)"
       style="font-style:normal;font-variant:normal;font-weight:600;font-stretch:normal;font-size:3.17546px;line-height:1.25;font-family:'Titillium Web';-inkscape-font-specification:'Titillium Web, Semi-Bold';font-variant-ligatures:normal;font-variant-caps:normal;font-variant-numeric:normal;font-feature-settings:normal;text-align:start;letter-spacing:0.317546px;word-spacing:0px;writing-mode:lr-tb;text-anchor:start;display:inline;fill:#0c2842;fill-opacity:1;stroke:none;stroke-width:0.264583"
       id="text4949-7">
      <path
         d="m 26.58472,-160.21245 h 0.368354 l -0.533478,2.17519 h -0.692251 l -0.533478,-2.17519 h 0.368354 l 0.431863,1.86399 h 0.158773 z"
         style="fill:#0c2842;fill-opacity:1;stroke-width:0.264583"
         id="path3190" />
      <path
         d="m 27.534181,-159.45352 q 0.165124,-0.2064 0.54618,-0.2064 0.381056,0 0.543004,0.2064 0.165125,0.20641 0.165125,0.61922 0,0.41281 -0.158774,0.62239 -0.158773,0.20958 -0.549355,0.20958 -0.390582,0 -0.549355,-0.20958 -0.158773,-0.20958 -0.158773,-0.62239 0,-0.41281 0.161948,-0.61922 z m 0.260388,1.03203 q 0.07304,0.12702 0.285792,0.12702 0.212756,0 0.285792,-0.12702 0.07304,-0.12702 0.07304,-0.41599 0,-0.28897 -0.07939,-0.40963 -0.07621,-0.12067 -0.279441,-0.12067 -0.20323,0 -0.282616,0.12067 -0.07621,0.12066 -0.07621,0.40963 0,0.28897 0.07304,0.41599 z"
         style="fill:#0c2842;fill-opacity:1;stroke-width:0.264583"
         id="path3192" />
      <path
         d="m 29.448982,-158.03726 v -1.58773 h 0.34295 v 0.19052 q 0.269914,-0.17465 0.539829,-0.22545 v 0.34612 q -0.27309,0.054 -0.466793,0.13972 l -0.06986,0.0286 v 1.10824 z"
         style="fill:#0c2842;fill-opacity:1;stroke-width:0.264583"
         id="path3194" />
      <path
         d="m 32.217981,-159.62499 v 1.58773 H 31.87503 v -0.0984 l -0.06351,0.0349 q -0.06351,0.0318 -0.171475,0.0635 -0.10479,0.0349 -0.193703,0.0349 -0.327073,0 -0.438214,-0.17465 -0.111141,-0.17783 -0.111141,-0.61922 0,0 0,-0.82879 h 0.346125 v 0.83197 q 0,0.28579 0.04763,0.38423 0.04763,0.0984 0.228633,0.0984 0.184177,0 0.355652,-0.0826 v -1.23208 z m -1.143167,-0.33978 v -0.362 h 0.330248 v 0.362 z m 0.663671,0 v -0.362 h 0.330249 v 0.362 z"
         style="fill:#0c2842;fill-opacity:1;stroke-width:0.264583"
         id="path3196" />
      <path
         d="m 33.694569,-159.65992 q 0.327073,0 0.469969,0.18417 0.146071,0.181 0.146071,0.64462 0,0.46362 -0.171475,0.6478 -0.171475,0.181 -0.603338,0.181 -0.149247,0 -0.473144,-0.0286 l -0.107966,-0.01 v -2.24505 h 0.34295 v 0.72083 q 0.219107,-0.0953 0.396933,-0.0953 z m -0.158773,1.34957 q 0.254037,0 0.336599,-0.11749 0.08574,-0.12067 0.08574,-0.40646 0,-0.2858 -0.07304,-0.40011 -0.06986,-0.11749 -0.231809,-0.11749 -0.152422,0 -0.304844,0.0476 l -0.05081,0.0159 v 0.96534 q 0.174651,0.0127 0.23816,0.0127 z"
         style="fill:#0c2842;fill-opacity:1;stroke-width:0.264583"
         id="path3198" />
      <path
         d="m 36.104744,-158.32305 0.08891,-0.01 0.0064,0.25721 q -0.362003,0.073 -0.641444,0.073 -0.352476,0 -0.508074,-0.19371 -0.152422,-0.1937 -0.152422,-0.61921 0,-0.84467 0.689075,-0.84467 0.666848,0 0.666848,0.72718 l -0.02223,0.24768 h -0.984393 q 0.0032,0.19688 0.08574,0.28897 0.08256,0.0921 0.30802,0.0921 0.225458,0 0.463618,-0.019 z m -0.190528,-0.62875 q 0,-0.23498 -0.07621,-0.32707 -0.07304,-0.0953 -0.250862,-0.0953 -0.177826,0 -0.260388,0.0984 -0.07939,0.0984 -0.08256,0.32389 z"
         style="fill:#0c2842;fill-opacity:1;stroke-width:0.264583"
         id="path3200" />
      <path
         d="m 36.904959,-158.03726 v -1.58773 h 0.34295 v 0.19052 q 0.269914,-0.17465 0.539829,-0.22545 v 0.34612 q -0.27309,0.054 -0.466793,0.13972 l -0.06986,0.0286 v 1.10824 z"
         style="fill:#0c2842;fill-opacity:1;stroke-width:0.264583"
         id="path3202" />
      <path
         d="m 38.387895,-158.03726 v -2.24823 h 0.346126 v 2.24823 z"
         style="fill:#0c2842;fill-opacity:1;stroke-width:0.264583"
         id="path3204" />
      <path
         d="m 40.620241,-158.32305 0.08891,-0.01 0.0064,0.25721 q -0.362003,0.073 -0.641444,0.073 -0.352476,0 -0.508074,-0.19371 -0.152422,-0.1937 -0.152422,-0.61921 0,-0.84467 0.689075,-0.84467 0.666848,0 0.666848,0.72718 l -0.02223,0.24768 H 39.76291 q 0.0032,0.19688 0.08574,0.28897 0.08256,0.0921 0.30802,0.0921 0.225458,0 0.463618,-0.019 z m -0.190528,-0.62875 q 0,-0.23498 -0.07621,-0.32707 -0.07304,-0.0953 -0.250862,-0.0953 -0.177826,0 -0.260388,0.0984 -0.07939,0.0984 -0.08256,0.32389 z"
         style="fill:#0c2842;fill-opacity:1;stroke-width:0.264583"
         id="path3206" />
      <path
         d="m 42.808133,-157.82133 q 0,0.52078 -0.752585,0.52078 -0.362003,0 -0.536653,-0.0984 -0.174651,-0.0984 -0.174651,-0.35883 0,-0.11749 0.05716,-0.20323 0.05716,-0.0826 0.184177,-0.181 -0.10479,-0.0699 -0.10479,-0.23181 0,-0.0635 0.08574,-0.20641 l 0.02858,-0.0476 q -0.228634,-0.13654 -0.228634,-0.47632 0,-0.28579 0.171475,-0.41916 0.171475,-0.13337 0.463618,-0.13337 0.13972,0 0.276265,0.0318 l 0.04763,0.01 0.492197,-0.0127 v 0.27944 l -0.263563,-0.0159 q 0.08574,0.11115 0.08574,0.26039 0,0.3112 -0.158773,0.43187 -0.155598,0.11749 -0.489021,0.11749 -0.08256,0 -0.139721,-0.0127 -0.04446,0.10796 -0.04446,0.1683 0,0.0572 0.05716,0.0794 0.06033,0.0222 0.285792,0.0254 0.37788,0.003 0.5176,0.10161 0.139721,0.0984 0.139721,0.37153 z m -1.124114,0.0317 q 0,0.11115 0.08891,0.15878 0.08891,0.0476 0.304844,0.0476 0.384231,0 0.384231,-0.21911 0,-0.12384 -0.06986,-0.15877 -0.06668,-0.0318 -0.269914,-0.0349 l -0.311196,-0.019 q -0.06986,0.0572 -0.09844,0.10479 -0.02858,0.0508 -0.02858,0.12066 z m 0.0254,-1.31464 q 0,0.14607 0.06986,0.21593 0.06986,0.0667 0.225458,0.0667 0.155597,0 0.222282,-0.0667 0.06986,-0.0699 0.06986,-0.21593 0,-0.14607 -0.06986,-0.21275 -0.06986,-0.0699 -0.225458,-0.0699 -0.292143,0 -0.292143,0.28261 z"
         style="fill:#0c2842;fill-opacity:1;stroke-width:0.264583"
         id="path3208" />
      <path
         d="m 44.367286,-159.62499 h 0.34295 v 1.58773 h -0.34295 v -0.0984 q -0.231809,0.13337 -0.428688,0.13337 -0.327073,0 -0.438214,-0.17465 -0.111141,-0.17783 -0.111141,-0.61922 v -0.82879 h 0.346125 v 0.83197 q 0,0.28579 0.04763,0.38423 0.04763,0.0984 0.222283,0.0984 0.171475,0 0.314371,-0.0635 l 0.04763,-0.019 z"
         style="fill:#0c2842;fill-opacity:1;stroke-width:0.264583"
         id="path3210" />
      <path
         d="m 45.793066,-158.03726 h -0.346125 v -1.58773 h 0.34295 v 0.0984 q 0.231809,-0.13337 0.438214,-0.13337 0.317546,0 0.431863,0.181 0.117492,0.17782 0.117492,0.59063 v 0.85103 h -0.34295 v -0.8415 q 0,-0.25721 -0.05716,-0.36518 -0.05398,-0.10796 -0.225458,-0.10796 -0.161949,0 -0.311196,0.0635 l -0.04763,0.019 z"
         style="fill:#0c2842;fill-opacity:1;stroke-width:0.264583"
         id="path3212" />
      <path
         d="m 48.885966,-157.82133 q 0,0.52078 -0.752585,0.52078 -0.362003,0 -0.536653,-0.0984 -0.174651,-0.0984 -0.174651,-0.35883 0,-0.11749 0.05716,-0.20323 0.05716,-0.0826 0.184176,-0.181 -0.10479,-0.0699 -0.10479,-0.23181 0,-0.0635 0.08574,-0.20641 l 0.02858,-0.0476 q -0.228634,-0.13654 -0.228634,-0.47632 0,-0.28579 0.171476,-0.41916 0.171475,-0.13337 0.463617,-0.13337 0.139721,0 0.276266,0.0318 l 0.04763,0.01 0.492196,-0.0127 v 0.27944 l -0.263563,-0.0159 q 0.08574,0.11115 0.08574,0.26039 0,0.3112 -0.158773,0.43187 -0.155597,0.11749 -0.489021,0.11749 -0.08256,0 -0.139721,-0.0127 -0.04446,0.10796 -0.04446,0.1683 0,0.0572 0.05716,0.0794 0.06033,0.0222 0.285792,0.0254 0.37788,0.003 0.517601,0.10161 0.13972,0.0984 0.13972,0.37153 z m -1.124114,0.0317 q 0,0.11115 0.08891,0.15878 0.08891,0.0476 0.304844,0.0476 0.384232,0 0.384232,-0.21911 0,-0.12384 -0.06986,-0.15877 -0.06668,-0.0318 -0.269914,-0.0349 l -0.311196,-0.019 q -0.06986,0.0572 -0.09844,0.10479 -0.02858,0.0508 -0.02858,0.12066 z m 0.0254,-1.31464 q 0,0.14607 0.06986,0.21593 0.06986,0.0667 0.225458,0.0667 0.155597,0 0.222282,-0.0667 0.06986,-0.0699 0.06986,-0.21593 0,-0.14607 -0.06986,-0.21275 -0.06986,-0.0699 -0.225458,-0.0699 -0.292142,0 -0.292142,0.28261 z"
         style="fill:#0c2842;fill-opacity:1;stroke-width:0.264583"
         id="path3214" />
      <path
         d="m 50.613418,-158.32305 0.08891,-0.01 0.0064,0.25721 q -0.362003,0.073 -0.641443,0.073 -0.352477,0 -0.508075,-0.19371 -0.152422,-0.1937 -0.152422,-0.61921 0,-0.84467 0.689076,-0.84467 0.666847,0 0.666847,0.72718 l -0.02223,0.24768 h -0.984394 q 0.0032,0.19688 0.08574,0.28897 0.08256,0.0921 0.30802,0.0921 0.225458,0 0.463617,-0.019 z m -0.190527,-0.62875 q 0,-0.23498 -0.07621,-0.32707 -0.07304,-0.0953 -0.250861,-0.0953 -0.177826,0 -0.260388,0.0984 -0.07939,0.0984 -0.08256,0.32389 z"
         style="fill:#0c2842;fill-opacity:1;stroke-width:0.264583"
         id="path3216" />
      <path
         d="m 51.759758,-158.03726 h -0.346125 v -1.58773 h 0.34295 v 0.0984 q 0.231809,-0.13337 0.438214,-0.13337 0.317546,0 0.431863,0.181 0.117492,0.17782 0.117492,0.59063 v 0.85103 h -0.34295 v -0.8415 q 0,-0.25721 -0.05716,-0.36518 -0.05398,-0.10796 -0.225458,-0.10796 -0.161949,0 -0.311196,0.0635 l -0.04763,0.019 z"
         style="fill:#0c2842;fill-opacity:1;stroke-width:0.264583"
         id="path3218" />
    </g>
    <g
       aria-label="Server - Preparation"
       transform="matrix(1.0000685,0,0,0.9999315,-57.83021,243.05438)"
       style="font-style:normal;font-variant:normal;font-weight:600;font-stretch:normal;font-size:3.17546px;line-height:1.25;font-family:'Titillium Web';-inkscape-font-specification:'Titillium Web, Semi-Bold';font-variant-ligatures:normal;font-variant-caps:normal;font-variant-numeric:normal;font-feature-settings:normal;text-align:start;letter-spacing:0.317546px;word-spacing:0px;writing-mode:lr-tb;text-anchor:start;display:inline;fill:#0c2842;fill-opacity:1;stroke:none;stroke-width:0.264583"
       id="text4953-6">
      <path
         d="m 23.043684,-145.52072 q -0.403284,0 -0.403284,0.28261 0,0.14607 0.09526,0.20958 0.09526,0.0603 0.419162,0.15242 0.327072,0.0889 0.460442,0.21594 0.133369,0.12384 0.133369,0.39375 0,0.34295 -0.196879,0.51443 -0.193703,0.1683 -0.530302,0.1683 -0.269914,0 -0.596987,-0.0635 l -0.114317,-0.0222 0.03493,-0.28262 q 0.428688,0.0572 0.654146,0.0572 0.393757,0 0.393757,-0.3493 0,-0.13654 -0.08891,-0.20005 -0.08891,-0.0667 -0.400108,-0.1429 -0.311196,-0.0794 -0.463618,-0.21593 -0.152422,-0.13654 -0.152422,-0.43186 0,-0.29532 0.190528,-0.44457 0.193703,-0.15242 0.533478,-0.15242 0.24451,0 0.577934,0.0572 l 0.111141,0.019 -0.02858,0.28579 q -0.444565,-0.0508 -0.628742,-0.0508 z"
         style="fill:#0c2842;fill-opacity:1;stroke-width:0.264583"
         id="path3221" />
      <path
         d="m 25.536421,-143.90441 0.08891,-0.01 0.0064,0.25721 q -0.362003,0.073 -0.641444,0.073 -0.352476,0 -0.508074,-0.19371 -0.152422,-0.1937 -0.152422,-0.61921 0,-0.84467 0.689076,-0.84467 0.666847,0 0.666847,0.72718 l -0.02223,0.24768 H 24.67909 q 0.0032,0.19688 0.08574,0.28897 0.08256,0.0921 0.30802,0.0921 0.225458,0 0.463618,-0.0191 z m -0.190528,-0.62875 q 0,-0.23498 -0.07621,-0.32707 -0.07304,-0.0953 -0.250861,-0.0953 -0.177826,0 -0.260389,0.0984 -0.07939,0.0984 -0.08256,0.32389 z"
         style="fill:#0c2842;fill-opacity:1;stroke-width:0.264583"
         id="path3223" />
      <path
         d="m 26.336636,-143.61862 v -1.58773 h 0.34295 v 0.19052 q 0.269915,-0.17465 0.539829,-0.22545 v 0.34612 q -0.27309,0.054 -0.466793,0.13972 l -0.06986,0.0286 v 1.10824 z"
         style="fill:#0c2842;fill-opacity:1;stroke-width:0.264583"
         id="path3225" />
      <path
         d="m 27.651272,-145.20635 h 0.362003 l 0.304845,1.29241 h 0.101615 l 0.317546,-1.29241 h 0.352477 l -0.412811,1.58773 h -0.61604 z"
         style="fill:#0c2842;fill-opacity:1;stroke-width:0.264583"
         id="path3227" />
      <path
         d="m 30.782273,-143.90441 0.08891,-0.01 0.0064,0.25721 q -0.362003,0.073 -0.641444,0.073 -0.352476,0 -0.508074,-0.19371 -0.152422,-0.1937 -0.152422,-0.61921 0,-0.84467 0.689076,-0.84467 0.666847,0 0.666847,0.72718 l -0.02223,0.24768 h -0.984394 q 0.0032,0.19688 0.08574,0.28897 0.08256,0.0921 0.30802,0.0921 0.225458,0 0.463618,-0.0191 z m -0.190528,-0.62875 q 0,-0.23498 -0.07621,-0.32707 -0.07304,-0.0953 -0.250861,-0.0953 -0.177826,0 -0.260389,0.0984 -0.07939,0.0984 -0.08256,0.32389 z"
         style="fill:#0c2842;fill-opacity:1;stroke-width:0.264583"
         id="path3229" />
      <path
         d="m 31.582488,-143.61862 v -1.58773 h 0.34295 v 0.19052 q 0.269915,-0.17465 0.539829,-0.22545 v 0.34612 q -0.27309,0.054 -0.466793,0.13972 l -0.06986,0.0286 v 1.10824 z"
         style="fill:#0c2842;fill-opacity:1;stroke-width:0.264583"
         id="path3231" />
      <path
         d="m 34.04664,-144.31722 v -0.31437 h 0.949464 v 0.31437 z"
         style="fill:#0c2842;fill-opacity:1;stroke-width:0.264583"
         id="path3233" />
      <path
         d="m 37.571402,-144.295 h -0.444565 v 0.67638 H 36.77436 v -2.17519 h 0.797042 q 0.739883,0 0.739883,0.73035 0,0.37471 -0.187353,0.57159 -0.184177,0.19687 -0.55253,0.19687 z m -0.444565,-0.30484 h 0.441389 q 0.381056,0 0.381056,-0.46362 0,-0.22228 -0.09209,-0.3239 -0.09209,-0.10161 -0.288967,-0.10161 h -0.441389 z"
         style="fill:#0c2842;fill-opacity:1;stroke-width:0.264583"
         id="path3235" />
      <path
         d="m 38.927324,-143.61862 v -1.58773 h 0.34295 v 0.19052 q 0.269914,-0.17465 0.539829,-0.22545 v 0.34612 q -0.27309,0.054 -0.466794,0.13972 l -0.06986,0.0286 v 1.10824 z"
         style="fill:#0c2842;fill-opacity:1;stroke-width:0.264583"
         id="path3237" />
      <path
         d="m 41.508964,-143.90441 0.08891,-0.01 0.0064,0.25721 q -0.362003,0.073 -0.641443,0.073 -0.352477,0 -0.508075,-0.19371 -0.152422,-0.1937 -0.152422,-0.61921 0,-0.84467 0.689076,-0.84467 0.666847,0 0.666847,0.72718 l -0.02223,0.24768 h -0.984394 q 0.0032,0.19688 0.08574,0.28897 0.08256,0.0921 0.30802,0.0921 0.225458,0 0.463617,-0.0191 z m -0.190527,-0.62875 q 0,-0.23498 -0.07621,-0.32707 -0.07303,-0.0953 -0.250861,-0.0953 -0.177826,0 -0.260388,0.0984 -0.07939,0.0984 -0.08256,0.32389 z"
         style="fill:#0c2842;fill-opacity:1;stroke-width:0.264583"
         id="path3239" />
      <path
         d="m 42.309179,-142.9359 v -2.27045 h 0.34295 v 0.0984 q 0.219107,-0.13337 0.409634,-0.13337 0.314371,0 0.460443,0.1937 0.146071,0.19053 0.146071,0.64462 0,0.45091 -0.168299,0.63509 -0.165125,0.18418 -0.543005,0.18418 -0.130194,0 -0.301669,-0.0286 v 0.67637 z m 0.692251,-1.99736 q -0.149247,0 -0.298494,0.0667 l -0.04763,0.0222 v 0.93676 q 0.127019,0.0254 0.279441,0.0254 0.215931,0 0.298494,-0.12384 0.08256,-0.12384 0.08256,-0.42234 0,-0.50489 -0.314371,-0.50489 z"
         style="fill:#0c2842;fill-opacity:1;stroke-width:0.264583"
         id="path3241" />
      <path
         d="m 45.506868,-144.71733 v 0.724 q 0.0032,0.0699 0.03493,0.10479 0.03493,0.0318 0.104791,0.0413 l -0.0095,0.26357 q -0.27309,0 -0.422336,-0.11749 -0.254038,0.11749 -0.51125,0.11749 -0.473144,0 -0.473144,-0.5049 0,-0.24134 0.127018,-0.3493 0.130194,-0.10797 0.396933,-0.1302 l 0.409635,-0.0349 v -0.11431 q 0,-0.12702 -0.05716,-0.17783 -0.05398,-0.0508 -0.161949,-0.0508 -0.20323,0 -0.508074,0.0254 l -0.101615,0.006 -0.0127,-0.24451 q 0.346126,-0.0826 0.635093,-0.0826 0.292143,0 0.419161,0.12701 0.130194,0.12385 0.130194,0.39694 z m -0.711304,0.39376 q -0.219107,0.019 -0.219107,0.23815 0,0.21911 0.193704,0.21911 0.158773,0 0.336599,-0.0508 l 0.05716,-0.019 v -0.42233 z"
         style="fill:#0c2842;fill-opacity:1;stroke-width:0.264583"
         id="path3243" />
      <path
         d="m 46.259452,-143.61862 v -1.58773 h 0.34295 v 0.19052 q 0.269915,-0.17465 0.539829,-0.22545 v 0.34612 q -0.27309,0.054 -0.466793,0.13972 l -0.06986,0.0286 v 1.10824 z"
         style="fill:#0c2842;fill-opacity:1;stroke-width:0.264583"
         id="path3245" />
      <path
         d="m 48.898256,-144.71733 v 0.724 q 0.0032,0.0699 0.03493,0.10479 0.03493,0.0318 0.104791,0.0413 l -0.0095,0.26357 q -0.27309,0 -0.422337,-0.11749 -0.254037,0.11749 -0.511249,0.11749 -0.473144,0 -0.473144,-0.5049 0,-0.24134 0.127018,-0.3493 0.130194,-0.10797 0.396933,-0.1302 l 0.409635,-0.0349 v -0.11431 q 0,-0.12702 -0.05716,-0.17783 -0.05398,-0.0508 -0.161949,-0.0508 -0.20323,0 -0.508074,0.0254 l -0.101615,0.006 -0.0127,-0.24451 q 0.346126,-0.0826 0.635093,-0.0826 0.292143,0 0.419161,0.12701 0.130194,0.12385 0.130194,0.39694 z m -0.711304,0.39376 q -0.219107,0.019 -0.219107,0.23815 0,0.21911 0.193704,0.21911 0.158773,0 0.336599,-0.0508 l 0.05716,-0.019 v -0.42233 z"
         style="fill:#0c2842;fill-opacity:1;stroke-width:0.264583"
         id="path3247" />
      <path
         d="m 50.505042,-144.91104 h -0.438214 v 0.69861 q 0,0.1937 0.02858,0.25721 0.02858,0.0635 0.146071,0.0635 l 0.260388,-0.01 0.01588,0.27627 q -0.212757,0.0413 -0.323898,0.0413 -0.269914,0 -0.371529,-0.12384 -0.09844,-0.12385 -0.09844,-0.4668 v -0.73671 h -0.20323 v -0.29531 h 0.20323 v -0.46045 h 0.34295 v 0.46045 h 0.438214 z"
         style="fill:#0c2842;fill-opacity:1;stroke-width:0.264583"
         id="path3249" />
      <path
         d="m 51.105203,-143.61862 v -1.58773 h 0.346125 v 1.58773 z m 0,-1.85765 v -0.36518 h 0.346125 v 0.36518 z"
         style="fill:#0c2842;fill-opacity:1;stroke-width:0.264583"
         id="path3251" />
      <path
         d="m 52.273771,-145.03488 q 0.165124,-0.2064 0.54618,-0.2064 0.381055,0 0.543004,0.2064 0.165124,0.20641 0.165124,0.61922 0,0.41281 -0.158773,0.62239 -0.158773,0.20958 -0.549355,0.20958 -0.390582,0 -0.549356,-0.20958 -0.158773,-0.20958 -0.158773,-0.62239 0,-0.41281 0.161949,-0.61922 z m 0.260388,1.03203 q 0.07304,0.12702 0.285792,0.12702 0.212756,0 0.285791,-0.12702 0.07304,-0.12702 0.07304,-0.41599 0,-0.28897 -0.07939,-0.40963 -0.07621,-0.12067 -0.27944,-0.12067 -0.20323,0 -0.282617,0.12067 -0.07621,0.12066 -0.07621,0.40963 0,0.28897 0.07304,0.41599 z"
         style="fill:#0c2842;fill-opacity:1;stroke-width:0.264583"
         id="path3253" />
      <path
         d="m 54.534699,-143.61862 h -0.346126 v -1.58773 h 0.34295 v 0.0984 q 0.231809,-0.13337 0.438214,-0.13337 0.317547,0 0.431863,0.181 0.117492,0.17782 0.117492,0.59063 v 0.85103 h -0.34295 v -0.8415 q 0,-0.25721 -0.05716,-0.36518 -0.05398,-0.10796 -0.225458,-0.10796 -0.161949,0 -0.311195,0.0635 l -0.04763,0.0191 z"
         style="fill:#0c2842;fill-opacity:1;stroke-width:0.264583"
         id="path3255" />
    </g>
    <g
       aria-label="VM-Speicherplatz  vorbereiten"
       transform="matrix(1.0000685,0,0,0.9999315,-57.83021,243.05438)"
       style="font-style:normal;font-variant:normal;font-weight:600;font-stretch:normal;font-size:3.17546px;line-height:1.25;font-family:'Titillium Web';-inkscape-font-specification:'Titillium Web, Semi-Bold';font-variant-ligatures:normal;font-variant-caps:normal;font-variant-numeric:normal;font-feature-settings:normal;text-align:center;letter-spacing:0.317546px;word-spacing:0px;writing-mode:lr-tb;text-anchor:middle;display:inline;fill:#0c2842;fill-opacity:1;stroke:none;stroke-width:0.264583"
       id="text4903-36-3">
      <path
         d="m 25.888255,-64.090698 h 0.368353 l -0.533477,2.17519 h -0.69225 l -0.533477,-2.17519 h 0.368353 l 0.431863,1.863995 h 0.158773 z"
         style="font-style:normal;font-variant:normal;font-weight:600;font-stretch:normal;font-size:3.17546px;font-family:'Titillium Web';-inkscape-font-specification:'Titillium Web, Semi-Bold';font-variant-ligatures:normal;font-variant-caps:normal;font-variant-numeric:normal;font-feature-settings:normal;text-align:center;letter-spacing:0.317546px;writing-mode:lr-tb;text-anchor:middle;fill:#0c2842;fill-opacity:1;stroke-width:0.264583"
         id="path3309" />
      <path
         d="m 26.888524,-61.915508 v -2.17519 h 0.612864 l 0.485845,1.698871 0.485845,-1.698871 h 0.61604 v 2.17519 h -0.355652 v -1.784608 h -0.04763 l -0.514424,1.695695 h -0.368353 l -0.514425,-1.695695 H 27.241 v 1.784608 z"
         style="font-style:normal;font-variant:normal;font-weight:600;font-stretch:normal;font-size:3.17546px;font-family:'Titillium Web';-inkscape-font-specification:'Titillium Web, Semi-Bold';font-variant-ligatures:normal;font-variant-caps:normal;font-variant-numeric:normal;font-feature-settings:normal;text-align:center;letter-spacing:0.317546px;writing-mode:lr-tb;text-anchor:middle;fill:#0c2842;fill-opacity:1;stroke-width:0.264583"
         id="path3311" />
      <path
         d="m 29.848048,-62.614109 v -0.314371 h 0.949462 v 0.314371 z"
         style="font-style:normal;font-variant:normal;font-weight:600;font-stretch:normal;font-size:3.17546px;font-family:'Titillium Web';-inkscape-font-specification:'Titillium Web, Semi-Bold';font-variant-ligatures:normal;font-variant-caps:normal;font-variant-numeric:normal;font-feature-settings:normal;text-align:center;letter-spacing:0.317546px;writing-mode:lr-tb;text-anchor:middle;fill:#0c2842;fill-opacity:1;stroke-width:0.264583"
         id="path3313" />
      <path
         d="m 32.128023,-63.817608 q -0.403284,0 -0.403284,0.282616 0,0.146071 0.09526,0.20958 0.09526,0.06033 0.419161,0.152422 0.327072,0.08891 0.460441,0.215931 0.133369,0.123843 0.133369,0.393757 0,0.34295 -0.196878,0.514424 -0.193703,0.1683 -0.530302,0.1683 -0.269914,0 -0.596986,-0.06351 l -0.114316,-0.02223 0.03493,-0.282615 q 0.428687,0.05716 0.654144,0.05716 0.393757,0 0.393757,-0.349301 0,-0.136544 -0.08891,-0.200054 -0.08891,-0.06668 -0.400108,-0.142895 -0.311195,-0.07939 -0.463617,-0.215931 -0.152422,-0.136545 -0.152422,-0.431863 0,-0.295318 0.190528,-0.444564 0.193703,-0.152422 0.533477,-0.152422 0.24451,0 0.577934,0.05716 l 0.111141,0.01905 -0.02858,0.285791 q -0.444564,-0.05081 -0.62874,-0.05081 z"
         style="font-style:normal;font-variant:normal;font-weight:600;font-stretch:normal;font-size:3.17546px;font-family:'Titillium Web';-inkscape-font-specification:'Titillium Web, Semi-Bold';font-variant-ligatures:normal;font-variant-caps:normal;font-variant-numeric:normal;font-feature-settings:normal;text-align:center;letter-spacing:0.317546px;writing-mode:lr-tb;text-anchor:middle;fill:#0c2842;fill-opacity:1;stroke-width:0.264583"
         id="path3315" />
      <path
         d="m 33.490292,-61.232785 v -2.270453 h 0.34295 v 0.09844 q 0.219106,-0.13337 0.409634,-0.13337 0.31437,0 0.460441,0.193703 0.146071,0.190528 0.146071,0.644618 0,0.450916 -0.168299,0.635092 -0.165124,0.184177 -0.543003,0.184177 -0.130194,0 -0.301669,-0.02858 v 0.676372 z m 0.69225,-1.997363 q -0.149246,0 -0.298493,0.06668 l -0.04763,0.02223 v 0.93676 q 0.127018,0.0254 0.27944,0.0254 0.215932,0 0.298494,-0.123843 0.08256,-0.123843 0.08256,-0.422336 0,-0.504898 -0.314371,-0.504898 z"
         style="font-style:normal;font-variant:normal;font-weight:600;font-stretch:normal;font-size:3.17546px;font-family:'Titillium Web';-inkscape-font-specification:'Titillium Web, Semi-Bold';font-variant-ligatures:normal;font-variant-caps:normal;font-variant-numeric:normal;font-feature-settings:normal;text-align:center;letter-spacing:0.317546px;writing-mode:lr-tb;text-anchor:middle;fill:#0c2842;fill-opacity:1;stroke-width:0.264583"
         id="path3317" />
      <path
         d="m 36.64352,-62.2013 0.08891,-0.0095 0.0064,0.257212 q -0.362002,0.07304 -0.641442,0.07304 -0.352476,0 -0.508074,-0.193703 -0.152422,-0.193703 -0.152422,-0.619215 0,-0.844672 0.689075,-0.844672 0.666846,0 0.666846,0.72718 l -0.02223,0.247686 h -0.984392 q 0.0032,0.196879 0.08574,0.288967 0.08256,0.09209 0.30802,0.09209 0.225457,0 0.463617,-0.01905 z m -0.190528,-0.62874 q 0,-0.234984 -0.07621,-0.327073 -0.07304,-0.09526 -0.250861,-0.09526 -0.177826,0 -0.260388,0.09844 -0.07939,0.09844 -0.08256,0.323897 z"
         style="font-style:normal;font-variant:normal;font-weight:600;font-stretch:normal;font-size:3.17546px;font-family:'Titillium Web';-inkscape-font-specification:'Titillium Web, Semi-Bold';font-variant-ligatures:normal;font-variant-caps:normal;font-variant-numeric:normal;font-feature-settings:normal;text-align:center;letter-spacing:0.317546px;writing-mode:lr-tb;text-anchor:middle;fill:#0c2842;fill-opacity:1;stroke-width:0.264583"
         id="path3319" />
      <path
         d="m 37.443734,-61.915508 v -1.58773 h 0.346125 v 1.58773 z m 0,-1.857644 v -0.365178 h 0.346125 v 0.365178 z"
         style="font-style:normal;font-variant:normal;font-weight:600;font-stretch:normal;font-size:3.17546px;font-family:'Titillium Web';-inkscape-font-specification:'Titillium Web, Semi-Bold';font-variant-ligatures:normal;font-variant-caps:normal;font-variant-numeric:normal;font-feature-settings:normal;text-align:center;letter-spacing:0.317546px;writing-mode:lr-tb;text-anchor:middle;fill:#0c2842;fill-opacity:1;stroke-width:0.264583"
         id="path3321" />
      <path
         d="m 39.120374,-63.538168 q 0.168299,0 0.396932,0.04446 l 0.07939,0.01588 -0.0127,0.273089 q -0.250861,-0.0254 -0.371529,-0.0254 -0.241335,0 -0.323897,0.107965 -0.08256,0.107966 -0.08256,0.406459 0,0.298493 0.07939,0.41281 0.07939,0.114316 0.330248,0.114316 l 0.371528,-0.0254 0.0095,0.276265 q -0.320722,0.05716 -0.48267,0.05716 -0.362002,0 -0.511249,-0.193703 -0.146071,-0.196879 -0.146071,-0.641443 0,-0.444564 0.155598,-0.631916 0.155597,-0.190528 0.508073,-0.190528 z"
         style="font-style:normal;font-variant:normal;font-weight:600;font-stretch:normal;font-size:3.17546px;font-family:'Titillium Web';-inkscape-font-specification:'Titillium Web, Semi-Bold';font-variant-ligatures:normal;font-variant-caps:normal;font-variant-numeric:normal;font-feature-settings:normal;text-align:center;letter-spacing:0.317546px;writing-mode:lr-tb;text-anchor:middle;fill:#0c2842;fill-opacity:1;stroke-width:0.264583"
         id="path3323" />
      <path
         d="m 40.593786,-61.915508 h -0.346125 v -2.248225 h 0.346125 v 0.743057 q 0.234984,-0.117492 0.435038,-0.117492 0.317546,0 0.431862,0.181001 0.117492,0.177826 0.117492,0.590636 v 0.851023 h -0.346125 v -0.841497 q 0,-0.257212 -0.05398,-0.365178 -0.05398,-0.107965 -0.228633,-0.107965 -0.152423,0 -0.304845,0.05081 l -0.05081,0.01905 z"
         style="font-style:normal;font-variant:normal;font-weight:600;font-stretch:normal;font-size:3.17546px;font-family:'Titillium Web';-inkscape-font-specification:'Titillium Web, Semi-Bold';font-variant-ligatures:normal;font-variant-caps:normal;font-variant-numeric:normal;font-feature-settings:normal;text-align:center;letter-spacing:0.317546px;writing-mode:lr-tb;text-anchor:middle;fill:#0c2842;fill-opacity:1;stroke-width:0.264583"
         id="path3325" />
      <path
         d="m 43.429469,-62.2013 0.08891,-0.0095 0.0064,0.257212 q -0.362002,0.07304 -0.641443,0.07304 -0.352476,0 -0.508073,-0.193703 -0.152422,-0.193703 -0.152422,-0.619215 0,-0.844672 0.689075,-0.844672 0.666846,0 0.666846,0.72718 l -0.02223,0.247686 h -0.984393 q 0.0032,0.196879 0.08574,0.288967 0.08256,0.09209 0.308019,0.09209 0.225458,0 0.463617,-0.01905 z m -0.190527,-0.62874 q 0,-0.234984 -0.07621,-0.327073 -0.07304,-0.09526 -0.250861,-0.09526 -0.177826,0 -0.260388,0.09844 -0.07939,0.09844 -0.08256,0.323897 z"
         style="font-style:normal;font-variant:normal;font-weight:600;font-stretch:normal;font-size:3.17546px;font-family:'Titillium Web';-inkscape-font-specification:'Titillium Web, Semi-Bold';font-variant-ligatures:normal;font-variant-caps:normal;font-variant-numeric:normal;font-feature-settings:normal;text-align:center;letter-spacing:0.317546px;writing-mode:lr-tb;text-anchor:middle;fill:#0c2842;fill-opacity:1;stroke-width:0.264583"
         id="path3327" />
      <path
         d="m 44.229683,-61.915508 v -1.58773 h 0.34295 v 0.190528 q 0.269914,-0.17465 0.539828,-0.225458 v 0.346125 q -0.27309,0.05398 -0.466793,0.13972 l -0.06986,0.02858 v 1.108235 z"
         style="font-style:normal;font-variant:normal;font-weight:600;font-stretch:normal;font-size:3.17546px;font-family:'Titillium Web';-inkscape-font-specification:'Titillium Web, Semi-Bold';font-variant-ligatures:normal;font-variant-caps:normal;font-variant-numeric:normal;font-feature-settings:normal;text-align:center;letter-spacing:0.317546px;writing-mode:lr-tb;text-anchor:middle;fill:#0c2842;fill-opacity:1;stroke-width:0.264583"
         id="path3329" />
      <path
         d="m 45.693566,-61.232785 v -2.270453 h 0.342949 v 0.09844 q 0.219107,-0.13337 0.409635,-0.13337 0.31437,0 0.460441,0.193703 0.146071,0.190528 0.146071,0.644618 0,0.450916 -0.168299,0.635092 -0.165124,0.184177 -0.543004,0.184177 -0.130193,0 -0.301668,-0.02858 v 0.676372 z m 0.69225,-1.997363 q -0.149247,0 -0.298493,0.06668 l -0.04763,0.02223 v 0.93676 q 0.127018,0.0254 0.27944,0.0254 0.215931,0 0.298493,-0.123843 0.08256,-0.123843 0.08256,-0.422336 0,-0.504898 -0.31437,-0.504898 z"
         style="font-style:normal;font-variant:normal;font-weight:600;font-stretch:normal;font-size:3.17546px;font-family:'Titillium Web';-inkscape-font-specification:'Titillium Web, Semi-Bold';font-variant-ligatures:normal;font-variant-caps:normal;font-variant-numeric:normal;font-feature-settings:normal;text-align:center;letter-spacing:0.317546px;writing-mode:lr-tb;text-anchor:middle;fill:#0c2842;fill-opacity:1;stroke-width:0.264583"
         id="path3331" />
      <path
         d="m 47.735383,-61.915508 v -2.248225 h 0.346125 v 2.248225 z"
         style="font-style:normal;font-variant:normal;font-weight:600;font-stretch:normal;font-size:3.17546px;font-family:'Titillium Web';-inkscape-font-specification:'Titillium Web, Semi-Bold';font-variant-ligatures:normal;font-variant-caps:normal;font-variant-numeric:normal;font-feature-settings:normal;text-align:center;letter-spacing:0.317546px;writing-mode:lr-tb;text-anchor:middle;fill:#0c2842;fill-opacity:1;stroke-width:0.264583"
         id="path3333" />
      <path
         d="m 50.012181,-63.014217 v 0.724005 q 0.0032,0.06986 0.03493,0.10479 0.03493,0.03175 0.104791,0.04128 l -0.0095,0.263563 q -0.273089,0 -0.422336,-0.117492 -0.254036,0.117492 -0.511249,0.117492 -0.473143,0 -0.473143,-0.504898 0,-0.241335 0.127018,-0.349301 0.130194,-0.107965 0.396933,-0.130193 l 0.409634,-0.03493 v -0.114316 q 0,-0.127018 -0.05716,-0.177826 -0.05398,-0.05081 -0.161949,-0.05081 -0.203229,0 -0.508073,0.0254 l -0.101615,0.0064 -0.0127,-0.24451 q 0.346125,-0.08256 0.635092,-0.08256 0.292142,0 0.419161,0.127019 0.130193,0.123842 0.130193,0.396932 z m -0.711302,0.393757 q -0.219107,0.01905 -0.219107,0.238159 0,0.219107 0.193703,0.219107 0.158773,0 0.336599,-0.05081 l 0.05716,-0.01905 v -0.422336 z"
         style="font-style:normal;font-variant:normal;font-weight:600;font-stretch:normal;font-size:3.17546px;font-family:'Titillium Web';-inkscape-font-specification:'Titillium Web, Semi-Bold';font-variant-ligatures:normal;font-variant-caps:normal;font-variant-numeric:normal;font-feature-settings:normal;text-align:center;letter-spacing:0.317546px;writing-mode:lr-tb;text-anchor:middle;fill:#0c2842;fill-opacity:1;stroke-width:0.264583"
         id="path3335" />
      <path
         d="M 51.618964,-63.20792 H 51.18075 v 0.698601 q 0,0.193703 0.02858,0.257212 0.02858,0.06351 0.146072,0.06351 l 0.260387,-0.0095 0.01588,0.276265 q -0.212756,0.04128 -0.323897,0.04128 -0.269914,0 -0.371529,-0.123843 -0.09844,-0.123843 -0.09844,-0.466793 v -0.736706 h -0.20323 v -0.295318 h 0.20323 v -0.460441 h 0.342949 v 0.460441 h 0.438214 z"
         style="font-style:normal;font-variant:normal;font-weight:600;font-stretch:normal;font-size:3.17546px;font-family:'Titillium Web';-inkscape-font-specification:'Titillium Web, Semi-Bold';font-variant-ligatures:normal;font-variant-caps:normal;font-variant-numeric:normal;font-feature-settings:normal;text-align:center;letter-spacing:0.317546px;writing-mode:lr-tb;text-anchor:middle;fill:#0c2842;fill-opacity:1;stroke-width:0.264583"
         id="path3337" />
      <path
         d="m 52.13974,-63.195218 v -0.30802 h 1.178095 v 0.30802 l -0.76211,0.97169 h 0.76211 v 0.30802 H 52.13974 v -0.30802 l 0.765285,-0.97169 z"
         style="font-style:normal;font-variant:normal;font-weight:600;font-stretch:normal;font-size:3.17546px;font-family:'Titillium Web';-inkscape-font-specification:'Titillium Web, Semi-Bold';font-variant-ligatures:normal;font-variant-caps:normal;font-variant-numeric:normal;font-feature-settings:normal;text-align:center;letter-spacing:0.317546px;writing-mode:lr-tb;text-anchor:middle;fill:#0c2842;fill-opacity:1;stroke-width:0.264583"
         id="path3339" />
      <path
         d="m 30.086209,-59.533914 h 0.362002 l 0.304844,1.292412 h 0.101615 l 0.317545,-1.292412 h 0.352476 l -0.412809,1.587729 h -0.616039 z"
         style="font-style:normal;font-variant:normal;font-weight:600;font-stretch:normal;font-size:3.17546px;font-family:'Titillium Web';-inkscape-font-specification:'Titillium Web, Semi-Bold';font-variant-ligatures:normal;font-variant-caps:normal;font-variant-numeric:normal;font-feature-settings:normal;text-align:center;letter-spacing:0.317546px;writing-mode:lr-tb;text-anchor:middle;fill:#0c2842;fill-opacity:1;stroke-width:0.264583"
         id="path3341" />
      <path
         d="m 32.172479,-59.362439 q 0.165124,-0.206405 0.546179,-0.206405 0.381055,0 0.543003,0.206405 0.165124,0.206405 0.165124,0.619214 0,0.41281 -0.158773,0.62239 -0.158773,0.20958 -0.549354,0.20958 -0.390582,0 -0.549355,-0.20958 -0.158773,-0.20958 -0.158773,-0.62239 0,-0.412809 0.161949,-0.619214 z m 0.260388,1.032024 q 0.07303,0.127018 0.285791,0.127018 0.212756,0 0.285791,-0.127018 0.07304,-0.127019 0.07304,-0.415985 0,-0.288967 -0.07939,-0.409634 -0.07621,-0.120668 -0.27944,-0.120668 -0.20323,0 -0.282616,0.120668 -0.07621,0.120667 -0.07621,0.409634 0,0.288966 0.07304,0.415985 z"
         style="font-style:normal;font-variant:normal;font-weight:600;font-stretch:normal;font-size:3.17546px;font-family:'Titillium Web';-inkscape-font-specification:'Titillium Web, Semi-Bold';font-variant-ligatures:normal;font-variant-caps:normal;font-variant-numeric:normal;font-feature-settings:normal;text-align:center;letter-spacing:0.317546px;writing-mode:lr-tb;text-anchor:middle;fill:#0c2842;fill-opacity:1;stroke-width:0.264583"
         id="path3343" />
      <path
         d="m 34.087277,-57.946185 v -1.587729 h 0.34295 v 0.190527 q 0.269914,-0.17465 0.539828,-0.225457 v 0.346125 q -0.27309,0.05398 -0.466793,0.13972 l -0.06986,0.02858 v 1.108235 z"
         style="font-style:normal;font-variant:normal;font-weight:600;font-stretch:normal;font-size:3.17546px;font-family:'Titillium Web';-inkscape-font-specification:'Titillium Web, Semi-Bold';font-variant-ligatures:normal;font-variant-caps:normal;font-variant-numeric:normal;font-feature-settings:normal;text-align:center;letter-spacing:0.317546px;writing-mode:lr-tb;text-anchor:middle;fill:#0c2842;fill-opacity:1;stroke-width:0.264583"
         id="path3345" />
      <path
         d="m 36.29104,-59.568844 q 0.327073,0 0.469968,0.184176 0.146071,0.181002 0.146071,0.644619 0,0.463617 -0.171474,0.647793 -0.171475,0.181001 -0.603338,0.181001 -0.149246,0 -0.473143,-0.02858 l -0.107966,-0.0095 v -2.24505 h 0.34295 v 0.72083 q 0.219107,-0.09526 0.396932,-0.09526 z m -0.158773,1.34957 q 0.254037,0 0.336599,-0.117492 0.08574,-0.120668 0.08574,-0.406459 0,-0.285791 -0.07303,-0.400108 -0.06986,-0.117492 -0.231809,-0.117492 -0.152422,0 -0.304844,0.04763 l -0.05081,0.01588 v 0.965339 q 0.17465,0.0127 0.238159,0.0127 z"
         style="font-style:normal;font-variant:normal;font-weight:600;font-stretch:normal;font-size:3.17546px;font-family:'Titillium Web';-inkscape-font-specification:'Titillium Web, Semi-Bold';font-variant-ligatures:normal;font-variant-caps:normal;font-variant-numeric:normal;font-feature-settings:normal;text-align:center;letter-spacing:0.317546px;writing-mode:lr-tb;text-anchor:middle;fill:#0c2842;fill-opacity:1;stroke-width:0.264583"
         id="path3347" />
      <path
         d="m 38.701212,-58.231976 0.08891,-0.0095 0.0064,0.257212 q -0.362003,0.07304 -0.641443,0.07304 -0.352476,0 -0.508074,-0.193703 -0.152422,-0.193703 -0.152422,-0.619214 0,-0.844672 0.689075,-0.844672 0.666846,0 0.666846,0.72718 l -0.02223,0.247686 h -0.984392 q 0.0032,0.196878 0.08574,0.288967 0.08256,0.09209 0.30802,0.09209 0.225457,0 0.463617,-0.01905 z m -0.190528,-0.628741 q 0,-0.234984 -0.07621,-0.327072 -0.07303,-0.09526 -0.250861,-0.09526 -0.177826,0 -0.260388,0.09844 -0.07939,0.09844 -0.08256,0.323897 z"
         style="font-style:normal;font-variant:normal;font-weight:600;font-stretch:normal;font-size:3.17546px;font-family:'Titillium Web';-inkscape-font-specification:'Titillium Web, Semi-Bold';font-variant-ligatures:normal;font-variant-caps:normal;font-variant-numeric:normal;font-feature-settings:normal;text-align:center;letter-spacing:0.317546px;writing-mode:lr-tb;text-anchor:middle;fill:#0c2842;fill-opacity:1;stroke-width:0.264583"
         id="path3349" />
      <path
         d="m 39.501426,-57.946185 v -1.587729 h 0.342949 v 0.190527 q 0.269914,-0.17465 0.539828,-0.225457 v 0.346125 q -0.273089,0.05398 -0.466792,0.13972 l -0.06986,0.02858 v 1.108235 z"
         style="font-style:normal;font-variant:normal;font-weight:600;font-stretch:normal;font-size:3.17546px;font-family:'Titillium Web';-inkscape-font-specification:'Titillium Web, Semi-Bold';font-variant-ligatures:normal;font-variant-caps:normal;font-variant-numeric:normal;font-feature-settings:normal;text-align:center;letter-spacing:0.317546px;writing-mode:lr-tb;text-anchor:middle;fill:#0c2842;fill-opacity:1;stroke-width:0.264583"
         id="path3351" />
      <path
         d="m 42.083064,-58.231976 0.08891,-0.0095 0.0064,0.257212 q -0.362003,0.07304 -0.641443,0.07304 -0.352476,0 -0.508073,-0.193703 -0.152422,-0.193703 -0.152422,-0.619214 0,-0.844672 0.689074,-0.844672 0.666846,0 0.666846,0.72718 l -0.02223,0.247686 H 41.22569 q 0.0032,0.196878 0.08574,0.288967 0.08256,0.09209 0.30802,0.09209 0.225457,0 0.463617,-0.01905 z m -0.190528,-0.628741 q 0,-0.234984 -0.07621,-0.327072 -0.07303,-0.09526 -0.250861,-0.09526 -0.177826,0 -0.260388,0.09844 -0.07939,0.09844 -0.08256,0.323897 z"
         style="font-style:normal;font-variant:normal;font-weight:600;font-stretch:normal;font-size:3.17546px;font-family:'Titillium Web';-inkscape-font-specification:'Titillium Web, Semi-Bold';font-variant-ligatures:normal;font-variant-caps:normal;font-variant-numeric:normal;font-feature-settings:normal;text-align:center;letter-spacing:0.317546px;writing-mode:lr-tb;text-anchor:middle;fill:#0c2842;fill-opacity:1;stroke-width:0.264583"
         id="path3353" />
      <path
         d="m 42.883278,-57.946185 v -1.587729 h 0.346125 v 1.587729 z m 0,-1.857643 v -0.365178 h 0.346125 v 0.365178 z"
         style="font-style:normal;font-variant:normal;font-weight:600;font-stretch:normal;font-size:3.17546px;font-family:'Titillium Web';-inkscape-font-specification:'Titillium Web, Semi-Bold';font-variant-ligatures:normal;font-variant-caps:normal;font-variant-numeric:normal;font-feature-settings:normal;text-align:center;letter-spacing:0.317546px;writing-mode:lr-tb;text-anchor:middle;fill:#0c2842;fill-opacity:1;stroke-width:0.264583"
         id="path3355" />
      <path
         d="m 44.820306,-59.238596 h -0.438213 v 0.698601 q 0,0.193703 0.02858,0.257212 0.02858,0.06351 0.146071,0.06351 l 0.260387,-0.0095 0.01588,0.276264 q -0.212756,0.04128 -0.323897,0.04128 -0.269914,0 -0.371529,-0.123842 -0.09844,-0.123843 -0.09844,-0.466793 v -0.736706 h -0.203229 v -0.295318 h 0.203229 v -0.460442 h 0.34295 v 0.460442 h 0.438213 z"
         style="font-style:normal;font-variant:normal;font-weight:600;font-stretch:normal;font-size:3.17546px;font-family:'Titillium Web';-inkscape-font-specification:'Titillium Web, Semi-Bold';font-variant-ligatures:normal;font-variant-caps:normal;font-variant-numeric:normal;font-feature-settings:normal;text-align:center;letter-spacing:0.317546px;writing-mode:lr-tb;text-anchor:middle;fill:#0c2842;fill-opacity:1;stroke-width:0.264583"
         id="path3357" />
      <path
         d="m 46.550932,-58.231976 0.08891,-0.0095 0.0064,0.257212 q -0.362003,0.07304 -0.641443,0.07304 -0.352476,0 -0.508074,-0.193703 -0.152422,-0.193703 -0.152422,-0.619214 0,-0.844672 0.689075,-0.844672 0.666846,0 0.666846,0.72718 l -0.02223,0.247686 h -0.984392 q 0.0032,0.196878 0.08574,0.288967 0.08256,0.09209 0.30802,0.09209 0.225457,0 0.463617,-0.01905 z m -0.190528,-0.628741 q 0,-0.234984 -0.07621,-0.327072 -0.07304,-0.09526 -0.250861,-0.09526 -0.177826,0 -0.260388,0.09844 -0.07939,0.09844 -0.08256,0.323897 z"
         style="font-style:normal;font-variant:normal;font-weight:600;font-stretch:normal;font-size:3.17546px;font-family:'Titillium Web';-inkscape-font-specification:'Titillium Web, Semi-Bold';font-variant-ligatures:normal;font-variant-caps:normal;font-variant-numeric:normal;font-feature-settings:normal;text-align:center;letter-spacing:0.317546px;writing-mode:lr-tb;text-anchor:middle;fill:#0c2842;fill-opacity:1;stroke-width:0.264583"
         id="path3359" />
      <path
         d="m 47.697271,-57.946185 h -0.346125 v -1.587729 h 0.342949 v 0.09844 q 0.231809,-0.133369 0.438214,-0.133369 0.317546,0 0.431862,0.181001 0.117492,0.177826 0.117492,0.590635 v 0.851023 h -0.342949 v -0.841496 q 0,-0.257212 -0.05716,-0.365178 -0.05398,-0.107966 -0.225457,-0.107966 -0.161949,0 -0.311195,0.06351 l -0.04763,0.01905 z"
         style="font-style:normal;font-variant:normal;font-weight:600;font-stretch:normal;font-size:3.17546px;font-family:'Titillium Web';-inkscape-font-specification:'Titillium Web, Semi-Bold';font-variant-ligatures:normal;font-variant-caps:normal;font-variant-numeric:normal;font-feature-settings:normal;text-align:center;letter-spacing:0.317546px;writing-mode:lr-tb;text-anchor:middle;fill:#0c2842;fill-opacity:1;stroke-width:0.264583"
         id="path3361" />
    </g>
    <g
       aria-label="VM bereitstellen"
       transform="matrix(1.0000685,0,0,0.9999315,-57.83021,243.05438)"
       style="font-style:normal;font-variant:normal;font-weight:600;font-stretch:normal;font-size:3.17546px;line-height:1.25;font-family:'Titillium Web';-inkscape-font-specification:'Titillium Web, Semi-Bold';font-variant-ligatures:normal;font-variant-caps:normal;font-variant-numeric:normal;font-feature-settings:normal;text-align:start;letter-spacing:0.317546px;word-spacing:0px;writing-mode:lr-tb;text-anchor:start;display:inline;fill:#0c2842;fill-opacity:1;stroke:none;stroke-width:0.264583"
       id="text4903-39-2">
      <path
         d="m 26.825002,-43.914702 h 0.368354 l -0.533478,2.175192 h -0.692251 l -0.533478,-2.175192 h 0.368354 l 0.431863,1.863997 h 0.158773 z"
         style="letter-spacing:0.317546px;fill:#0c2842;fill-opacity:1;stroke-width:0.264583"
         id="path3364" />
      <path
         d="m 27.825273,-41.73951 v -2.175192 h 0.612865 l 0.485846,1.698873 0.485846,-1.698873 h 0.61604 v 2.175192 h -0.355652 v -1.78461 h -0.04763 l -0.514426,1.695697 h -0.368353 l -0.514426,-1.695697 h -0.04763 v 1.78461 z"
         style="letter-spacing:0.317546px;fill:#0c2842;fill-opacity:1;stroke-width:0.264583"
         id="path3366" />
      <path
         d="m 32.556707,-43.362172 q 0.327073,0 0.469969,0.184177 0.146071,0.181002 0.146071,0.644619 0,0.463618 -0.171475,0.647795 -0.171475,0.181002 -0.603338,0.181002 -0.149247,0 -0.473144,-0.02858 l -0.107966,-0.0095 v -2.245053 h 0.34295 v 0.72083 q 0.219107,-0.09526 0.396933,-0.09526 z m -0.158773,1.349573 q 0.254037,0 0.336599,-0.117493 0.08574,-0.120667 0.08574,-0.406459 0,-0.285792 -0.07304,-0.400108 -0.06986,-0.117493 -0.231809,-0.117493 -0.152422,0 -0.304844,0.04763 l -0.05081,0.01588 v 0.965341 q 0.174651,0.0127 0.23816,0.0127 z"
         style="letter-spacing:0.317546px;fill:#0c2842;fill-opacity:1;stroke-width:0.264583"
         id="path3368" />
      <path
         d="m 34.966883,-42.025301 0.08891,-0.0095 0.0063,0.257213 q -0.362002,0.07304 -0.641443,0.07304 -0.352477,0 -0.508074,-0.193704 -0.152423,-0.193703 -0.152423,-0.619215 0,-0.844674 0.689076,-0.844674 0.666847,0 0.666847,0.727182 l -0.02223,0.247686 h -0.984394 q 0.0032,0.196879 0.08574,0.288967 0.08256,0.09209 0.30802,0.09209 0.225458,0 0.463618,-0.01905 z m -0.190528,-0.628742 q 0,-0.234985 -0.07621,-0.327073 -0.07304,-0.09526 -0.250862,-0.09526 -0.177826,0 -0.260388,0.09844 -0.07939,0.09844 -0.08256,0.323898 z"
         style="letter-spacing:0.317546px;fill:#0c2842;fill-opacity:1;stroke-width:0.264583"
         id="path3370" />
      <path
         d="m 35.767097,-41.73951 v -1.587732 h 0.34295 v 0.190528 q 0.269914,-0.17465 0.539829,-0.225458 v 0.346126 q -0.27309,0.05398 -0.466794,0.13972 l -0.06986,0.02858 v 1.108236 z"
         style="letter-spacing:0.317546px;fill:#0c2842;fill-opacity:1;stroke-width:0.264583"
         id="path3372" />
      <path
         d="m 38.348739,-42.025301 0.08891,-0.0095 0.0063,0.257213 q -0.362002,0.07304 -0.641443,0.07304 -0.352477,0 -0.508075,-0.193704 -0.152422,-0.193703 -0.152422,-0.619215 0,-0.844674 0.689076,-0.844674 0.666847,0 0.666847,0.727182 l -0.02223,0.247686 h -0.984394 q 0.0032,0.196879 0.08574,0.288967 0.08256,0.09209 0.30802,0.09209 0.225458,0 0.463618,-0.01905 z m -0.190528,-0.628742 q 0,-0.234985 -0.07621,-0.327073 -0.07304,-0.09526 -0.250862,-0.09526 -0.177826,0 -0.260388,0.09844 -0.07939,0.09844 -0.08256,0.323898 z"
         style="letter-spacing:0.317546px;fill:#0c2842;fill-opacity:1;stroke-width:0.264583"
         id="path3374" />
      <path
         d="m 39.148954,-41.73951 v -1.587732 h 0.346125 v 1.587732 z m 0,-1.857646 v -0.365178 h 0.346125 v 0.365178 z"
         style="letter-spacing:0.317546px;fill:#0c2842;fill-opacity:1;stroke-width:0.264583"
         id="path3376" />
      <path
         d="M 41.085984,-43.031923 H 40.64777 v 0.698602 q 0,0.193703 0.02858,0.257212 0.02858,0.06351 0.146071,0.06351 l 0.260388,-0.0095 0.01588,0.276265 q -0.212756,0.04128 -0.323898,0.04128 -0.269914,0 -0.371529,-0.123844 -0.09844,-0.123843 -0.09844,-0.466793 v -0.736707 h -0.20323 v -0.295319 h 0.20323 v -0.460442 h 0.34295 v 0.460442 h 0.438214 z"
         style="letter-spacing:0.317546px;fill:#0c2842;fill-opacity:1;stroke-width:0.264583"
         id="path3378" />
      <path
         d="m 42.788031,-43.000169 q -0.374705,-0.05081 -0.543004,-0.05081 -0.1683,0 -0.234985,0.04128 -0.06351,0.03811 -0.06351,0.123843 0,0.08574 0.06986,0.120668 0.07304,0.03493 0.336599,0.08256 0.266739,0.04446 0.377881,0.142896 0.111141,0.09844 0.111141,0.349301 0,0.250861 -0.161949,0.368353 -0.158773,0.117493 -0.466793,0.117493 -0.193703,0 -0.489021,-0.05398 l -0.09844,-0.01588 0.0127,-0.288967 q 0.381056,0.05081 0.549355,0.05081 0.1683,0 0.23816,-0.04128 0.07304,-0.04128 0.07304,-0.136544 0,-0.09526 -0.06986,-0.130194 -0.06668,-0.03811 -0.327073,-0.07939 -0.257213,-0.04446 -0.37788,-0.136545 -0.120668,-0.09209 -0.120668,-0.336599 0,-0.244511 0.165124,-0.365179 0.1683,-0.120667 0.428688,-0.120667 0.203229,0 0.498548,0.05081 l 0.09844,0.01905 z"
         style="letter-spacing:0.317546px;fill:#0c2842;fill-opacity:1;stroke-width:0.264583"
         id="path3380" />
      <path
         d="M 44.347184,-43.031923 H 43.90897 v 0.698602 q 0,0.193703 0.02858,0.257212 0.02858,0.06351 0.146071,0.06351 l 0.260388,-0.0095 0.01588,0.276265 q -0.212756,0.04128 -0.323898,0.04128 -0.269914,0 -0.371529,-0.123844 -0.09844,-0.123843 -0.09844,-0.466793 v -0.736707 h -0.20323 v -0.295319 h 0.20323 v -0.460442 h 0.34295 v 0.460442 h 0.438214 z"
         style="letter-spacing:0.317546px;fill:#0c2842;fill-opacity:1;stroke-width:0.264583"
         id="path3382" />
      <path
         d="m 46.077812,-42.025301 0.08891,-0.0095 0.0064,0.257213 q -0.362003,0.07304 -0.641444,0.07304 -0.352476,0 -0.508074,-0.193704 -0.152422,-0.193703 -0.152422,-0.619215 0,-0.844674 0.689075,-0.844674 0.666848,0 0.666848,0.727182 l -0.02223,0.247686 h -0.984394 q 0.0032,0.196879 0.08574,0.288967 0.08256,0.09209 0.30802,0.09209 0.225458,0 0.463618,-0.01905 z m -0.190528,-0.628742 q 0,-0.234985 -0.07621,-0.327073 -0.07304,-0.09526 -0.250862,-0.09526 -0.177826,0 -0.260388,0.09844 -0.07939,0.09844 -0.08256,0.323898 z"
         style="letter-spacing:0.317546px;fill:#0c2842;fill-opacity:1;stroke-width:0.264583"
         id="path3384" />
      <path
         d="m 46.897079,-41.73951 v -2.248228 h 0.346126 v 2.248228 z"
         style="letter-spacing:0.317546px;fill:#0c2842;fill-opacity:1;stroke-width:0.264583"
         id="path3386" />
      <path
         d="m 48.018013,-41.73951 v -2.248228 h 0.346125 v 2.248228 z"
         style="letter-spacing:0.317546px;fill:#0c2842;fill-opacity:1;stroke-width:0.264583"
         id="path3388" />
      <path
         d="m 50.250358,-42.025301 0.08891,-0.0095 0.0064,0.257213 q -0.362003,0.07304 -0.641443,0.07304 -0.352477,0 -0.508075,-0.193704 -0.152422,-0.193703 -0.152422,-0.619215 0,-0.844674 0.689076,-0.844674 0.666847,0 0.666847,0.727182 l -0.02223,0.247686 h -0.984394 q 0.0032,0.196879 0.08574,0.288967 0.08256,0.09209 0.30802,0.09209 0.225458,0 0.463617,-0.01905 z m -0.190527,-0.628742 q 0,-0.234985 -0.07621,-0.327073 -0.07303,-0.09526 -0.250861,-0.09526 -0.177826,0 -0.260388,0.09844 -0.07939,0.09844 -0.08256,0.323898 z"
         style="letter-spacing:0.317546px;fill:#0c2842;fill-opacity:1;stroke-width:0.264583"
         id="path3390" />
      <path
         d="m 51.3967,-41.73951 h -0.346126 v -1.587732 h 0.342951 v 0.09844 q 0.231808,-0.13337 0.438214,-0.13337 0.317546,0 0.431863,0.181002 0.117492,0.177826 0.117492,0.590636 v 0.851024 h -0.34295 v -0.841498 q 0,-0.257212 -0.05716,-0.365178 -0.05398,-0.107966 -0.225458,-0.107966 -0.161948,0 -0.311195,0.06351 l -0.04763,0.01905 z"
         style="letter-spacing:0.317546px;fill:#0c2842;fill-opacity:1;stroke-width:0.264583"
         id="path3392" />
    </g>
  </g>
</svg>
